<?xml version="1.0" encoding="utf-8"?>
<!-- Generator: Adobe Illustrator 23.0.1, SVG Export Plug-In . SVG Version: 6.00 Build 0)  -->
<svg version="1.1" id="Camada_1" xmlns="http://www.w3.org/2000/svg" xmlns:xlink="http://www.w3.org/1999/xlink" x="0px" y="0px"
	 viewBox="0 0 230 56" style="enable-background:new 0 0 230 56;" xml:space="preserve">
<style type="text/css">
	.st0{fill:#00B298;}
	.st1{fill:#FFFFFF;}
</style>
<rect class="st0" width="230" height="56.4"/>
<g>
	<g>
		<path class="st1" d="M23.6,35.2c-0.9,0-1.8,0.8-1.8,1.7s0.8,1.8,1.8,1.8c0.9,0,1.7-0.8,1.7-1.8C25.3,36,24.5,35.2,23.6,35.2z"/>
		<path class="st1" d="M23.6,26.7c-0.9,0-1.8,0.8-1.8,1.7s0.8,1.7,1.8,1.7c0.9,0,1.7-0.8,1.7-1.7S24.5,26.7,23.6,26.7z"/>
		<path class="st1" d="M29.9,21.6h14.9c0.9,0,1.6-0.7,1.6-1.6s-0.7-1.6-1.6-1.6H29.9c-0.9,0-1.6,0.7-1.6,1.6S29,21.6,29.9,21.6z"/>
		<path class="st1" d="M23.6,18.2c-0.9,0-1.8,0.8-1.8,1.8s0.8,1.7,1.8,1.7c0.9,0,1.7-0.8,1.7-1.7S24.5,18.2,23.6,18.2z"/>
		<path class="st1" d="M44.8,26.8H29.9c-0.9,0-1.6,0.7-1.6,1.6S29,30,29.9,30h14.9c0.9,0,1.6-0.7,1.6-1.6S45.7,26.8,44.8,26.8z"/>
		<path class="st1" d="M44.8,35.3H29.9c-0.9,0-1.6,0.7-1.6,1.6s0.7,1.6,1.6,1.6h14.9c0.9,0,1.6-0.7,1.6-1.6S45.7,35.3,44.8,35.3z"/>
	</g>
</g>
</svg>
