<?xml version="1.0" encoding="utf-8"?>
<!-- Generator: Adobe Illustrator 19.2.0, SVG Export Plug-In . SVG Version: 6.00 Build 0)  -->
<svg version="1.1" id="Camada_1" xmlns="http://www.w3.org/2000/svg" xmlns:xlink="http://www.w3.org/1999/xlink" x="0px" y="0px"
	 width="1920px" height="930px" viewBox="0 0 1920 930" style="enable-background:new 0 0 1920 930;" xml:space="preserve">
<style type="text/css">
	.st0{fill:#ACDDE1;}
	.st1{fill:#99DDDB;}
	.st2{fill:#F0F0F0;}
	.st3{fill:#AFAFAF;}
	.st4{fill:#C2E1F0;}
	.st5{fill:#7F7F7F;}
	.st6{fill:#C1DEF0;}
	.st7{fill:#B5B4B4;}
	.st8{fill:#C4C4C4;}
	.st9{fill:#E0DFDE;}
	.st10{fill:#009245;}
	.st11{fill:#22B573;}
	.st12{fill:#98735D;}
	.st13{fill:none;stroke:#C4C4C3;stroke-width:2;stroke-miterlimit:10;}
	.st14{fill:#E7DFD7;}
	.st15{fill:#FAC08E;}
	.st16{fill:#CE986F;}
	.st17{fill:none;stroke:#CE986F;stroke-miterlimit:10;}
	.st18{fill:#D6BB94;}
	.st19{fill:none;stroke:#DDAA87;stroke-miterlimit:10;}
	.st20{fill:#DDAA87;}
	.st21{fill:#FAC08E;stroke:#DDAA87;stroke-width:2;stroke-miterlimit:10;}
	.st22{fill:#F9F9F9;}
	.st23{fill-rule:evenodd;clip-rule:evenodd;fill:#B1A048;}
	.st24{fill-rule:evenodd;clip-rule:evenodd;fill:#FFB300;}
	.st25{fill-rule:evenodd;clip-rule:evenodd;fill:#FFCC36;}
</style>
<rect x="-20.4" y="-1.4" class="st0" width="1940.8" height="934.4"/>
<path class="st1" d="M261.6,930c0-383,310.4-693.4,693.4-693.4S1648.4,547,1648.4,930"/>
<g>
	<g>
		<rect x="962.5" y="547.9" class="st2" width="137.8" height="351.6"/>
		<rect x="962.5" y="899.5" class="st3" width="137.8" height="37.5"/>
		<g>
			<rect x="975.3" y="562.6" class="st4" width="22.1" height="22.1"/>
			<rect x="968.7" y="584.7" class="st3" width="35.4" height="9.9"/>
			<rect x="1020.4" y="562.6" class="st4" width="22.1" height="22.1"/>
			<rect x="1013.7" y="584.7" class="st3" width="35.4" height="9.9"/>
			<rect x="1065.4" y="562.6" class="st4" width="22.1" height="22.1"/>
			<rect x="1058.8" y="584.7" class="st3" width="35.4" height="9.9"/>
		</g>
		<g>
			<rect x="975.3" y="604.1" class="st4" width="22.1" height="22.1"/>
			<rect x="968.7" y="626.2" class="st3" width="35.4" height="9.9"/>
			<rect x="1020.4" y="604.1" class="st4" width="22.1" height="22.1"/>
			<rect x="1013.7" y="626.2" class="st3" width="35.4" height="9.9"/>
			<rect x="1065.4" y="604.1" class="st4" width="22.1" height="22.1"/>
			<rect x="1058.8" y="626.2" class="st3" width="35.4" height="9.9"/>
		</g>
		<g>
			<rect x="975.3" y="645.5" class="st4" width="22.1" height="22.1"/>
			<rect x="968.7" y="667.6" class="st3" width="35.4" height="9.9"/>
			<rect x="1020.4" y="645.5" class="st4" width="22.1" height="22.1"/>
			<rect x="1013.7" y="667.6" class="st3" width="35.4" height="9.9"/>
			<rect x="1065.4" y="645.5" class="st4" width="22.1" height="22.1"/>
			<rect x="1058.8" y="667.6" class="st3" width="35.4" height="9.9"/>
		</g>
		<g>
			<rect x="975.3" y="687" class="st4" width="22.1" height="22.1"/>
			<rect x="968.7" y="709.1" class="st3" width="35.4" height="9.9"/>
			<rect x="1020.4" y="687" class="st4" width="22.1" height="22.1"/>
			<rect x="1013.7" y="709.1" class="st3" width="35.4" height="9.9"/>
			<rect x="1065.4" y="687" class="st4" width="22.1" height="22.1"/>
			<rect x="1058.8" y="709.1" class="st3" width="35.4" height="9.9"/>
		</g>
		<g>
			<rect x="975.3" y="728.5" class="st4" width="22.1" height="22.1"/>
			<rect x="968.7" y="750.6" class="st3" width="35.4" height="9.9"/>
			<rect x="1020.4" y="728.5" class="st4" width="22.1" height="22.1"/>
			<rect x="1013.7" y="750.6" class="st3" width="35.4" height="9.9"/>
			<rect x="1065.4" y="728.5" class="st4" width="22.1" height="22.1"/>
			<rect x="1058.8" y="750.6" class="st3" width="35.4" height="9.9"/>
		</g>
		<g>
			<rect x="975.3" y="769.9" class="st4" width="22.1" height="22.1"/>
			<rect x="968.7" y="792" class="st3" width="35.4" height="9.9"/>
			<rect x="1020.4" y="769.9" class="st4" width="22.1" height="22.1"/>
			<rect x="1013.7" y="792" class="st3" width="35.4" height="9.9"/>
			<rect x="1065.4" y="769.9" class="st4" width="22.1" height="22.1"/>
			<rect x="1058.8" y="792" class="st3" width="35.4" height="9.9"/>
		</g>
		<g>
			<rect x="975.3" y="811.4" class="st4" width="22.1" height="22.1"/>
			<rect x="968.7" y="833.5" class="st3" width="35.4" height="9.9"/>
			<rect x="1020.4" y="811.4" class="st4" width="22.1" height="22.1"/>
			<rect x="1013.7" y="833.5" class="st3" width="35.4" height="9.9"/>
			<rect x="1065.4" y="811.4" class="st4" width="22.1" height="22.1"/>
			<rect x="1058.8" y="833.5" class="st3" width="35.4" height="9.9"/>
		</g>
		<g>
			<rect x="975.3" y="852.8" class="st4" width="22.1" height="22.1"/>
			<rect x="968.7" y="874.9" class="st3" width="35.4" height="9.9"/>
			<rect x="1020.4" y="852.8" class="st4" width="22.1" height="22.1"/>
			<rect x="1013.7" y="874.9" class="st3" width="35.4" height="9.9"/>
			<rect x="1065.4" y="852.8" class="st4" width="22.1" height="22.1"/>
			<rect x="1058.8" y="874.9" class="st3" width="35.4" height="9.9"/>
		</g>
	</g>
	<g>
		<rect x="1268.3" y="547.9" class="st5" width="137.8" height="351.6"/>
		<rect x="1268.3" y="899.5" class="st2" width="137.8" height="37.5"/>
		<g>
			<rect x="1281.1" y="562.6" class="st4" width="22.1" height="22.1"/>
			<rect x="1274.4" y="584.7" class="st2" width="35.4" height="9.9"/>
			<rect x="1326.1" y="562.6" class="st4" width="22.1" height="22.1"/>
			<rect x="1319.5" y="584.7" class="st2" width="35.4" height="9.9"/>
			<rect x="1371.2" y="562.6" class="st4" width="22.1" height="22.1"/>
			<rect x="1364.6" y="584.7" class="st2" width="35.4" height="9.9"/>
		</g>
		<g>
			<rect x="1281.1" y="604.1" class="st4" width="22.1" height="22.1"/>
			<rect x="1274.4" y="626.2" class="st2" width="35.4" height="9.9"/>
			<rect x="1326.1" y="604.1" class="st4" width="22.1" height="22.1"/>
			<rect x="1319.5" y="626.2" class="st2" width="35.4" height="9.9"/>
			<rect x="1371.2" y="604.1" class="st4" width="22.1" height="22.1"/>
			<rect x="1364.6" y="626.2" class="st2" width="35.4" height="9.9"/>
		</g>
		<g>
			<rect x="1281.1" y="645.5" class="st4" width="22.1" height="22.1"/>
			<rect x="1274.4" y="667.6" class="st2" width="35.4" height="9.9"/>
			<rect x="1326.1" y="645.5" class="st4" width="22.1" height="22.1"/>
			<rect x="1319.5" y="667.6" class="st2" width="35.4" height="9.9"/>
			<rect x="1371.2" y="645.5" class="st4" width="22.1" height="22.1"/>
			<rect x="1364.6" y="667.6" class="st2" width="35.4" height="9.9"/>
		</g>
		<g>
			<rect x="1281.1" y="687" class="st4" width="22.1" height="22.1"/>
			<rect x="1274.4" y="709.1" class="st2" width="35.4" height="9.9"/>
			<rect x="1326.1" y="687" class="st4" width="22.1" height="22.1"/>
			<rect x="1319.5" y="709.1" class="st2" width="35.4" height="9.9"/>
			<rect x="1371.2" y="687" class="st4" width="22.1" height="22.1"/>
			<rect x="1364.6" y="709.1" class="st2" width="35.4" height="9.9"/>
		</g>
		<g>
			<rect x="1281.1" y="728.5" class="st4" width="22.1" height="22.1"/>
			<rect x="1274.4" y="750.6" class="st2" width="35.4" height="9.9"/>
			<rect x="1326.1" y="728.5" class="st4" width="22.1" height="22.1"/>
			<rect x="1319.5" y="750.6" class="st2" width="35.4" height="9.9"/>
			<rect x="1371.2" y="728.5" class="st4" width="22.1" height="22.1"/>
			<rect x="1364.6" y="750.6" class="st2" width="35.4" height="9.9"/>
		</g>
		<g>
			<rect x="1281.1" y="769.9" class="st4" width="22.1" height="22.1"/>
			<rect x="1274.4" y="792" class="st2" width="35.4" height="9.9"/>
			<rect x="1326.1" y="769.9" class="st4" width="22.1" height="22.1"/>
			<rect x="1319.5" y="792" class="st2" width="35.4" height="9.9"/>
			<rect x="1371.2" y="769.9" class="st4" width="22.1" height="22.1"/>
			<rect x="1364.6" y="792" class="st2" width="35.4" height="9.9"/>
		</g>
		<g>
			<rect x="1281.1" y="811.4" class="st4" width="22.1" height="22.1"/>
			<rect x="1274.4" y="833.5" class="st2" width="35.4" height="9.9"/>
			<rect x="1326.1" y="811.4" class="st4" width="22.1" height="22.1"/>
			<rect x="1319.5" y="833.5" class="st2" width="35.4" height="9.9"/>
			<rect x="1371.2" y="811.4" class="st4" width="22.1" height="22.1"/>
			<rect x="1364.6" y="833.5" class="st2" width="35.4" height="9.9"/>
		</g>
		<g>
			<rect x="1281.1" y="852.8" class="st4" width="22.1" height="22.1"/>
			<rect x="1274.4" y="874.9" class="st2" width="35.4" height="9.9"/>
			<rect x="1326.1" y="852.8" class="st4" width="22.1" height="22.1"/>
			<rect x="1319.5" y="874.9" class="st2" width="35.4" height="9.9"/>
			<rect x="1371.2" y="852.8" class="st4" width="22.1" height="22.1"/>
			<rect x="1364.6" y="874.9" class="st2" width="35.4" height="9.9"/>
		</g>
	</g>
	<g>
		<rect x="1406.1" y="702.9" class="st2" width="187.4" height="196.9"/>
		<rect x="1406.1" y="899.8" class="st5" width="187.4" height="37.2"/>
		<g>
			<rect x="1557.5" y="718.7" class="st4" width="22.1" height="22.1"/>
			<rect x="1406.1" y="718.7" class="st4" width="128.4" height="22.1"/>
			<rect x="1396.9" y="740.8" class="st3" width="137.6" height="9.9"/>
		</g>
		<g>
			<rect x="1557.5" y="765.1" class="st4" width="22.1" height="22.1"/>
			<rect x="1406.1" y="765.1" class="st4" width="128.4" height="22.1"/>
			<rect x="1396.9" y="787.2" class="st3" width="137.6" height="9.9"/>
		</g>
		<g>
			<rect x="1557.5" y="811.5" class="st4" width="22.1" height="22.1"/>
			<rect x="1406.1" y="811.5" class="st4" width="128.4" height="22.1"/>
			<rect x="1396.9" y="833.6" class="st3" width="137.6" height="9.9"/>
		</g>
		<g>
			<rect x="1557.5" y="857.9" class="st4" width="22.1" height="22.1"/>
			<rect x="1406.1" y="857.9" class="st4" width="128.4" height="22.1"/>
			<rect x="1396.9" y="880" class="st3" width="137.6" height="9.9"/>
		</g>
	</g>
	<g>
		<g>
			<rect x="1100.3" y="705.9" class="st3" width="168.1" height="231.2"/>
			<path class="st6" d="M1209.4,747.3c0,2.8,2.2,5,5,5h37.1c2.8,0,5-2.2,5-5v-14.4c0-2.8-2.2-5-5-5h-37.1c-2.8,0-5,2.2-5,5V747.3z"
				/>
			<rect x="1230.3" y="727.8" class="st3" width="5.4" height="24.5"/>
			<path class="st6" d="M1209.4,782.7c0,2.8,2.2,5,5,5h37.1c2.8,0,5-2.2,5-5v-14.4c0-2.8-2.2-5-5-5h-37.1c-2.8,0-5,2.2-5,5V782.7z"
				/>
			<rect x="1230.3" y="763.3" class="st3" width="5.4" height="24.5"/>
			<path class="st6" d="M1209.4,818.2c0,2.8,2.2,5,5,5h37.1c2.8,0,5-2.2,5-5v-14.4c0-2.8-2.2-5-5-5h-37.1c-2.8,0-5,2.2-5,5V818.2z"
				/>
			<rect x="1230.3" y="798.8" class="st3" width="5.4" height="24.5"/>
			<path class="st6" d="M1209.4,853.7c0,2.8,2.2,5,5,5h37.1c2.8,0,5-2.2,5-5v-14.4c0-2.8-2.2-5-5-5h-37.1c-2.8,0-5,2.2-5,5V853.7z"
				/>
			<rect x="1230.3" y="834.2" class="st3" width="5.4" height="24.5"/>
			<path class="st6" d="M1209.4,889.2c0,2.8,2.2,5,5,5h37.1c2.8,0,5-2.2,5-5v-14.5c0-2.8-2.2-5-5-5h-37.1c-2.8,0-5,2.2-5,5V889.2z"
				/>
			<rect x="1230.3" y="869.7" class="st3" width="5.4" height="24.5"/>
			<path class="st6" d="M1159.3,747.3c0,2.8-2.2,5-5,5h-37.1c-2.8,0-5-2.2-5-5v-14.4c0-2.8,2.2-5,5-5h37.1c2.8,0,5,2.2,5,5V747.3z"
				/>
			<rect x="1133" y="727.8" class="st3" width="5.4" height="24.5"/>
			<path class="st6" d="M1159.3,782.7c0,2.8-2.2,5-5,5h-37.1c-2.8,0-5-2.2-5-5v-14.4c0-2.8,2.2-5,5-5h37.1c2.8,0,5,2.2,5,5V782.7z"
				/>
			<rect x="1133" y="763.3" class="st3" width="5.4" height="24.5"/>
			<path class="st6" d="M1159.3,818.2c0,2.8-2.2,5-5,5h-37.1c-2.8,0-5-2.2-5-5v-14.4c0-2.8,2.2-5,5-5h37.1c2.8,0,5,2.2,5,5V818.2z"
				/>
			<rect x="1133" y="798.8" class="st3" width="5.4" height="24.5"/>
			<path class="st6" d="M1159.3,853.7c0,2.8-2.2,5-5,5h-37.1c-2.8,0-5-2.2-5-5v-14.4c0-2.8,2.2-5,5-5h37.1c2.8,0,5,2.2,5,5V853.7z"
				/>
			<rect x="1133" y="834.2" class="st3" width="5.4" height="24.5"/>
			<path class="st6" d="M1159.3,889.2c0,2.8-2.2,5-5,5h-37.1c-2.8,0-5-2.2-5-5v-14.5c0-2.8,2.2-5,5-5h37.1c2.8,0,5,2.2,5,5V889.2z"
				/>
			<rect x="1133" y="869.7" class="st3" width="5.4" height="24.5"/>
			<rect x="1165.5" y="705.9" class="st2" width="37.6" height="219.2"/>
			<rect x="1100.3" y="922.6" class="st2" width="168.1" height="14.4"/>
			<rect x="1165.5" y="752.2" class="st6" width="37.6" height="4.3"/>
			<rect x="1165.5" y="787.8" class="st6" width="37.6" height="4.3"/>
			<rect x="1165.5" y="823.3" class="st6" width="37.6" height="4.3"/>
			<rect x="1165.5" y="858.9" class="st6" width="37.6" height="4.3"/>
			<rect x="1165.5" y="894.5" class="st6" width="37.6" height="4.3"/>
		</g>
		<rect x="1095.8" y="701.7" class="st2" width="177.2" height="8.4"/>
		<rect x="1090.1" y="691.1" class="st3" width="188.5" height="10.5"/>
	</g>
	<g>
		<rect x="855.7" y="471" class="st3" width="2.1" height="154.3"/>
		<path class="st3" d="M783.6,615.9c0-0.4,0-0.8,0-1.3c0-40.4,32.8-73.2,73.2-73.2c40.4,0,73.2,32.8,73.2,73.2c0,0.4,0,0.8,0,1.3
			H783.6z"/>
		<path class="st2" d="M757.8,902V609c0-2.8,2.2-5,5-5h185.7c2.8,0,5,2.2,5,5v293H757.8z"/>
		<rect x="905.7" y="630.5" class="st6" width="31.4" height="31.4"/>
		<rect x="819.5" y="630.5" class="st6" width="74.4" height="31.4"/>
		<rect x="776.4" y="630.5" class="st6" width="31.4" height="31.4"/>
		<rect x="905.7" y="673.2" class="st6" width="31.4" height="31.4"/>
		<rect x="819.5" y="673.2" class="st6" width="74.4" height="31.4"/>
		<rect x="776.4" y="673.2" class="st6" width="31.4" height="31.4"/>
		<rect x="905.7" y="715.8" class="st6" width="31.4" height="31.4"/>
		<rect x="819.5" y="715.8" class="st6" width="74.4" height="31.4"/>
		<rect x="776.4" y="715.8" class="st6" width="31.4" height="31.4"/>
		<rect x="905.7" y="758.5" class="st6" width="31.4" height="31.4"/>
		<rect x="819.5" y="758.5" class="st6" width="74.4" height="31.4"/>
		<rect x="776.4" y="758.5" class="st6" width="31.4" height="31.4"/>
		<rect x="905.7" y="801.2" class="st6" width="31.4" height="31.4"/>
		<rect x="819.5" y="801.2" class="st6" width="74.4" height="31.4"/>
		<rect x="776.4" y="801.2" class="st6" width="31.4" height="31.4"/>
		<rect x="905.7" y="843.8" class="st6" width="31.4" height="31.4"/>
		<rect x="819.5" y="843.8" class="st6" width="74.4" height="31.4"/>
		<rect x="776.4" y="843.8" class="st6" width="31.4" height="31.4"/>
		<rect x="757.8" y="902" class="st5" width="195.7" height="35.1"/>
	</g>
	<g>
		<rect x="559.7" y="587.7" class="st5" width="74" height="42.1"/>
		<g>
			<path class="st5" d="M544.3,909.9V638.3c0-3.4,2.8-6.2,6.2-6.2h201.9c3.4,0,6.2,2.8,6.2,6.2v271.5H544.3z"/>
			<path class="st6" d="M715.9,692.5v-13.9c0-3.4,2.8-6.2,6.2-6.2h5.1c3.4,0,6.2,2.8,6.2,6.2v13.9H715.9z"/>
			<path class="st6" d="M679.4,692.5v-13.9c0-3.4,2.8-6.2,6.2-6.2h5.1c3.4,0,6.2,2.8,6.2,6.2v13.9H679.4z"/>
			<path class="st6" d="M649.1,672.5h5.1c3.4,0,6.2,2.8,6.2,6.2v13.9v13.9c0,3.4-2.8,6.2-6.2,6.2h-5.1c-3.4,0-6.2-2.8-6.2-6.2v-13.9
				v-13.9C643,675.3,645.7,672.5,649.1,672.5z"/>
			<g>
				<path class="st6" d="M606.5,692.5v-13.9c0-3.4,2.8-6.2,6.2-6.2h5.1c3.4,0,6.2,2.8,6.2,6.2v13.9H606.5z"/>
				<path class="st6" d="M570,692.5v-13.9c0-3.4,2.8-6.2,6.2-6.2h5.1c3.4,0,6.2,2.8,6.2,6.2v13.9H570z"/>
			</g>
			<rect x="670.5" y="692.5" class="st2" width="71.8" height="24"/>
			<rect x="561" y="692.5" class="st2" width="71.8" height="24"/>
			<path class="st6" d="M715.9,751.7v-13.9c0-3.4,2.8-6.2,6.2-6.2h5.1c3.4,0,6.2,2.8,6.2,6.2v13.9H715.9z"/>
			<path class="st6" d="M679.4,751.7v-13.9c0-3.4,2.8-6.2,6.2-6.2h5.1c3.4,0,6.2,2.8,6.2,6.2v13.9H679.4z"/>
			<path class="st6" d="M649.1,731.6h5.1c3.4,0,6.2,2.8,6.2,6.2v13.9v13.9c0,3.4-2.8,6.2-6.2,6.2h-5.1c-3.4,0-6.2-2.8-6.2-6.2v-13.9
				v-13.9C643,734.4,645.7,731.6,649.1,731.6z"/>
			<g>
				<path class="st6" d="M606.5,751.7v-13.9c0-3.4,2.8-6.2,6.2-6.2h5.1c3.4,0,6.2,2.8,6.2,6.2v13.9H606.5z"/>
				<path class="st6" d="M570,751.7v-13.9c0-3.4,2.8-6.2,6.2-6.2h5.1c3.4,0,6.2,2.8,6.2,6.2v13.9H570z"/>
			</g>
			<rect x="670.5" y="751.7" class="st2" width="71.8" height="24"/>
			<rect x="561" y="751.7" class="st2" width="71.8" height="24"/>
			<path class="st6" d="M715.9,810.8v-13.9c0-3.4,2.8-6.2,6.2-6.2h5.1c3.4,0,6.2,2.8,6.2,6.2v13.9H715.9z"/>
			<path class="st6" d="M679.4,810.8v-13.9c0-3.4,2.8-6.2,6.2-6.2h5.1c3.4,0,6.2,2.8,6.2,6.2v13.9H679.4z"/>
			<path class="st6" d="M649.1,790.7h5.1c3.4,0,6.2,2.8,6.2,6.2v13.9v13.9c0,3.4-2.8,6.2-6.2,6.2h-5.1c-3.4,0-6.2-2.8-6.2-6.2v-13.9
				v-13.9C643,793.5,645.7,790.7,649.1,790.7z"/>
			<g>
				<path class="st6" d="M606.5,810.8v-13.9c0-3.4,2.8-6.2,6.2-6.2h5.1c3.4,0,6.2,2.8,6.2,6.2v13.9H606.5z"/>
				<path class="st6" d="M570,810.8v-13.9c0-3.4,2.8-6.2,6.2-6.2h5.1c3.4,0,6.2,2.8,6.2,6.2v13.9H570z"/>
			</g>
			<rect x="670.5" y="810.8" class="st2" width="71.8" height="24"/>
			<rect x="561" y="810.8" class="st2" width="71.8" height="24"/>
			<path class="st6" d="M715.9,869.9V856c0-3.4,2.8-6.2,6.2-6.2h5.1c3.4,0,6.2,2.8,6.2,6.2v13.9H715.9z"/>
			<path class="st6" d="M679.4,869.9V856c0-3.4,2.8-6.2,6.2-6.2h5.1c3.4,0,6.2,2.8,6.2,6.2v13.9H679.4z"/>
			<path class="st6" d="M649.1,849.9h5.1c3.4,0,6.2,2.8,6.2,6.2v13.9v13.9c0,3.4-2.8,6.2-6.2,6.2h-5.1c-3.4,0-6.2-2.8-6.2-6.2v-13.9
				V856C643,852.6,645.7,849.9,649.1,849.9z"/>
			<g>
				<path class="st6" d="M606.5,869.9V856c0-3.4,2.8-6.2,6.2-6.2h5.1c3.4,0,6.2,2.8,6.2,6.2v13.9H606.5z"/>
				<path class="st6" d="M570,869.9V856c0-3.4,2.8-6.2,6.2-6.2h5.1c3.4,0,6.2,2.8,6.2,6.2v13.9H570z"/>
			</g>
			<rect x="670.5" y="869.9" class="st2" width="71.8" height="24"/>
			<rect x="561" y="869.9" class="st2" width="71.8" height="24"/>
			<rect x="539.2" y="640.1" class="st3" width="225" height="11.3"/>
			<rect x="529.9" y="622.9" class="st3" width="243.5" height="18.5"/>
			<rect x="544.3" y="909.9" class="st3" width="214.2" height="27.2"/>
		</g>
		<path class="st3" d="M554,588.1V588c0-3.8,3.1-6.9,6.9-6.9h71.6c3.8,0,6.9,3.1,6.9,6.9v0.1H554z"/>
	</g>
	<g>
		<g>
			<rect x="377.1" y="705.9" class="st2" width="168.1" height="231.2"/>
			<path class="st6" d="M486.2,747.3c0,2.8,2.3,5,5,5h37.1c2.8,0,5-2.2,5-5v-14.4c0-2.8-2.2-5-5-5h-37.1c-2.8,0-5,2.2-5,5V747.3z"/>
			<rect x="507.1" y="727.8" class="st3" width="5.4" height="24.5"/>
			<path class="st6" d="M486.2,782.7c0,2.8,2.3,5,5,5h37.1c2.8,0,5-2.2,5-5v-14.4c0-2.8-2.2-5-5-5h-37.1c-2.8,0-5,2.2-5,5V782.7z"/>
			<rect x="507.1" y="763.3" class="st3" width="5.4" height="24.5"/>
			<path class="st6" d="M486.2,818.2c0,2.8,2.3,5,5,5h37.1c2.8,0,5-2.2,5-5v-14.4c0-2.8-2.2-5-5-5h-37.1c-2.8,0-5,2.2-5,5V818.2z"/>
			<rect x="507.1" y="798.8" class="st3" width="5.4" height="24.5"/>
			<path class="st6" d="M486.2,853.7c0,2.8,2.3,5,5,5h37.1c2.8,0,5-2.2,5-5v-14.4c0-2.8-2.2-5-5-5h-37.1c-2.8,0-5,2.2-5,5V853.7z"/>
			<rect x="507.1" y="834.2" class="st3" width="5.4" height="24.5"/>
			<path class="st6" d="M486.2,889.2c0,2.8,2.3,5,5,5h37.1c2.8,0,5-2.2,5-5v-14.5c0-2.8-2.2-5-5-5h-37.1c-2.8,0-5,2.2-5,5V889.2z"/>
			<rect x="507.1" y="869.7" class="st3" width="5.4" height="24.5"/>
			<path class="st6" d="M436.2,747.3c0,2.8-2.2,5-5,5H394c-2.8,0-5-2.2-5-5v-14.4c0-2.8,2.3-5,5-5h37.1c2.8,0,5,2.2,5,5V747.3z"/>
			<rect x="409.9" y="727.8" class="st3" width="5.4" height="24.5"/>
			<path class="st6" d="M436.2,782.7c0,2.8-2.2,5-5,5H394c-2.8,0-5-2.2-5-5v-14.4c0-2.8,2.3-5,5-5h37.1c2.8,0,5,2.2,5,5V782.7z"/>
			<rect x="409.9" y="763.3" class="st3" width="5.4" height="24.5"/>
			<path class="st6" d="M436.2,818.2c0,2.8-2.2,5-5,5H394c-2.8,0-5-2.2-5-5v-14.4c0-2.8,2.3-5,5-5h37.1c2.8,0,5,2.2,5,5V818.2z"/>
			<rect x="409.9" y="798.8" class="st3" width="5.4" height="24.5"/>
			<path class="st6" d="M436.2,853.7c0,2.8-2.2,5-5,5H394c-2.8,0-5-2.2-5-5v-14.4c0-2.8,2.3-5,5-5h37.1c2.8,0,5,2.2,5,5V853.7z"/>
			<rect x="409.9" y="834.2" class="st3" width="5.4" height="24.5"/>
			<path class="st6" d="M436.2,889.2c0,2.8-2.2,5-5,5H394c-2.8,0-5-2.2-5-5v-14.5c0-2.8,2.3-5,5-5h37.1c2.8,0,5,2.2,5,5V889.2z"/>
			<rect x="409.9" y="869.7" class="st3" width="5.4" height="24.5"/>
			<rect x="442.4" y="705.9" class="st5" width="37.6" height="219.2"/>
			<rect x="377.1" y="922.6" class="st5" width="168.1" height="14.4"/>
			<rect x="442.4" y="752.2" class="st6" width="37.6" height="4.3"/>
			<rect x="442.4" y="787.8" class="st6" width="37.6" height="4.3"/>
			<rect x="442.4" y="823.3" class="st6" width="37.6" height="4.3"/>
			<rect x="442.4" y="858.9" class="st6" width="37.6" height="4.3"/>
			<rect x="442.4" y="894.5" class="st6" width="37.6" height="4.3"/>
		</g>
		<rect x="372.6" y="701.7" class="st5" width="177.2" height="8.4"/>
		<rect x="366.9" y="691.1" class="st3" width="188.5" height="10.5"/>
	</g>
</g>
<g id="Camada_3">
	<g>
		<path class="st5" d="M131.7,480.9c0,170.6-59.4,328.8-160.7,458.8h204.5V480.9H131.7z"/>
		<path class="st3" d="M348.8,461.2H175.6v19.7h114.7v458.8h234.1C413.8,804.1,348.8,639.2,348.8,461.2z"/>
		<rect x="175.6" y="468" class="st3" width="150" height="471.7"/>
	</g>
	<rect x="1854.6" y="844.7" class="st7" width="136.5" height="100.3"/>
	<polygon class="st8" points="1958.2,943.5 1806.9,945.2 1706.9,960.6 1706.9,848.8 1958.2,848.8 	"/>
	<rect x="1709.7" y="904.7" class="st7" width="98.8" height="40.3"/>
	<rect x="1623.2" y="652.9" class="st7" width="269.1" height="188.4"/>
	<polygon class="st8" points="1908.5,754.8 1699.1,768.7 1635.5,807.2 1728.1,847.5 1785.1,802.2 1828.2,802.5 1802.1,835.2 
		1931.8,878.8 1955.4,904.7 1952.9,855.4 	"/>
	<polygon class="st8" points="1729,850.8 1900.7,850.8 1952.9,928.7 1920.2,928.7 1872.7,913.6 1857.7,889.7 1732.1,874.5 	"/>
	<polygon class="st9" points="1952.9,944.3 1958.2,944.9 1958.2,738.3 1931.8,722.7 1949.3,796.4 	"/>
	<polygon class="st8" points="1682.1,751.6 1605,813.4 1605,612.7 1669,660.1 1647.7,731 	"/>
	<polygon class="st9" points="1904,885.1 1722.3,872.8 1722.3,813.4 1904,830.4 	"/>
	<polygon class="st9" points="1952.9,927 1904,885.1 1904,830.7 1952.9,899.1 	"/>
	<polygon class="st9" points="1578.5,849.2 1605,849.2 1605,612.7 1582.4,629.4 	"/>
	<polygon class="st8" points="1891.7,649 1661.1,649 1647.7,731 1724,689.7 1859.3,704.3 1871.6,756.7 1949.3,796.4 	"/>
	<polygon class="st9" points="1900.7,680.5 1724,658.7 1724,602.6 1900.7,627.6 	"/>
	<polygon class="st9" points="1724,658.7 1605,726.6 1605,681.4 1724,602.6 	"/>
	<polygon class="st9" points="1949.3,796.4 1900.7,680.5 1900.7,626.9 1933.7,728.7 	"/>
	<polygon class="st9" points="1718.9,790.2 1603.4,841.3 1603.4,796.1 1718.9,730.8 	"/>
	<polygon class="st9" points="1904,783.5 1718.9,790.2 1718.9,730.8 1904,730.6 	"/>
	<polygon class="st9" points="1950.6,850.2 1904,783.5 1904,730.8 1949.3,796.4 	"/>
	<polygon class="st9" points="1722.3,872.8 1578.5,846.6 1658.9,796.4 1689.6,821.5 1705.8,812 1722.3,813.4 	"/>
	<polygon class="st9" points="1733,990.1 1460,1037 1460,803.1 1734.5,867.4 	"/>
	<polygon class="st7" points="1698.1,956.6 1517.8,978.4 1517.8,870.1 1698.1,897.2 	"/>
	<polygon class="st8" points="1367.5,1004.1 1460,1037 1460,803.1 1367.5,816.5 	"/>
</g>
<g id="Camada_6">
	<path class="st10" d="M911.7,882.7c0.1-0.8,0.3-1.7,0.4-2.5c2.8-24.9-15.2-47.4-40.1-50.1c-1.7-0.2-3.4-0.3-5.1-0.3
		c-0.1-27.2-22.2-49.3-49.4-49.3c-25.4,0-46.2,19.1-49.1,43.7c-7-3.8-15.1-6-23.6-6c-11.8,0-22.7,4.2-31.2,11.1
		c-3.5-23.9-24-42.3-48.9-42.3c-27.3,0-49.4,22.1-49.4,49.4c0,0.7,0,1.3,0.1,2c-4.4-1.3-9.1-2-13.9-2c-27.3,0-49.4,22.1-49.4,49.4
		s22.1,49.4,49.4,49.4c27.3,0,49.4-22.1,49.4-49.4c0-0.7,0-1.3-0.1-2c4.4,1.3,9.1,2,13.9,2c11.8,0,22.7-4.2,31.2-11.1
		c3.5,23.9,24,42.3,48.9,42.3c25.4,0,46.2-19.1,49.1-43.7c7,3.8,15.1,6,23.6,6c1.4,0,2.8-0.1,4.3-0.2c1.8,20.2,17,37.2,37.4,40.8
		c-1,3.9-1.5,7.9-1.5,12c0,27.3,22.1,49.4,49.4,49.4c27.3,0,49.4-22.1,49.4-49.4C956.5,906.2,936.8,885,911.7,882.7z"/>
	<path class="st11" d="M875.7,916.4c0-23.1-18.8-41.9-41.9-41.9c-1.6,0-3.2,0.1-4.7,0.3c-1.1-24.9-19.1-45.4-42.8-50.3
		c-6.6-22.4-27.3-38.7-51.8-38.7c-23.1,0-42.8,14.5-50.5,34.9c-1.2-0.1-2.3-0.1-3.5-0.1c-27.8,0-50.6,21-53.6,47.9
		c-3.6-1-7.4-1.6-11.4-1.6c-20.9,0-38.2,15.3-41.4,35.3c-5.5-3.3-11.7-5.6-18.2-6.7c2.7-6.5,4.3-13.6,4.3-21c0-29.8-24.2-54-54-54
		s-54,24.2-54,54c0,3.7,0.4,7.4,1.1,10.9c-0.4,0-0.7,0-1.1,0c-29.8,0-54,24.2-54,54c0,12.5,4.2,24,11.4,33.1v30.2H854V953
		C867,945.9,875.7,932.2,875.7,916.4z M727.1,901.8c0.1,0.2,0.2,0.3,0.3,0.5h-0.5C726.9,902.1,727,901.9,727.1,901.8z"/>
	<path class="st10" d="M1025.3,895.7c-0.1-0.8-0.2-1.5-0.3-2.3c-2.5-22.9,14-43.6,36.9-46.2c1.6-0.2,3.1-0.3,4.7-0.3
		c0.1-25.1,20.4-45.4,45.5-45.4c23.3,0,42.6,17.6,45.2,40.2c6.5-3.5,13.9-5.5,21.8-5.5c10.9,0,20.9,3.8,28.7,10.2
		c3.2-22,22.1-39,45-39c25.1,0,45.5,20.4,45.5,45.5c0,0.6,0,1.2,0,1.8c4.1-1.2,8.4-1.8,12.8-1.8c25.1,0,45.5,20.4,45.5,45.5
		s-20.4,45.5-45.5,45.5s-45.5-20.4-45.5-45.5c0-0.6,0-1.2,0-1.8c-4.1,1.2-8.4,1.8-12.8,1.8c-10.9,0-20.9-3.8-28.7-10.2
		c-3.2,22-22.1,39-45,39c-23.3,0-42.6-17.6-45.2-40.2c-6.5,3.5-13.9,5.5-21.8,5.5c-1.3,0-2.6-0.1-3.9-0.2
		c-1.6,18.6-15.6,34.3-34.5,37.5c0.9,3.5,1.4,7.3,1.4,11.1c0,25.1-20.4,45.5-45.5,45.5S984,966.2,984,941
		C984,917.3,1002.2,897.9,1025.3,895.7z"/>
	<path class="st11" d="M1476.7,955.1c0-27.4-22.2-49.7-49.7-49.7c-0.3,0-0.7,0-1,0c0.7-3.3,1-6.6,1-10.1c0-27.4-22.2-49.7-49.7-49.7
		s-49.7,22.2-49.7,49.7c0,6.9,1.4,13.4,3.9,19.4c-6,1-11.7,3.1-16.8,6.1c-2.9-18.4-18.8-32.5-38.1-32.5c-3.6,0-7.1,0.5-10.5,1.4
		c-2.8-24.8-23.8-44.1-49.4-44.1c-1.1,0-2.1,0-3.2,0.1c-7.1-18.8-25.2-32.1-46.5-32.1c-22.6,0-41.6,15-47.6,35.6
		c-21.8,4.5-38.4,23.4-39.4,46.3c-1.4-0.2-2.9-0.3-4.4-0.3c-21.3,0-38.6,17.3-38.6,38.6c0,14.5,8,27.1,19.9,33.7v45.7H1466v-27.8
		C1472.8,977.1,1476.7,966.5,1476.7,955.1z M1174,920.4c0.1,0.2,0.2,0.3,0.3,0.5h-0.5C1173.9,920.7,1173.9,920.6,1174,920.4z"/>
</g>
<g id="Camada_2">
	<rect x="876.4" y="709.4" class="st3" width="199.6" height="19.3"/>
	<polygon class="st12" points="1608.2,467.2 1582.4,467.2 1577.9,759.9 1612.7,759.9 	"/>
	<line class="st13" x1="1582.1" y1="486.2" x2="1608.5" y2="486.2"/>
	<polygon class="st14" points="98.8,738.9 129.2,738.9 114,727.4 98.8,715.8 83.7,727.4 68.5,738.9 	"/>
	<polygon class="st14" points="62.5,738.9 74,738.9 68.2,733.1 62.5,727.4 56.8,733.1 51,738.9 	"/>
	<polygon class="st14" points="140.6,738.9 152.1,738.9 146.4,733.1 140.6,727.4 134.9,733.1 129.2,738.9 	"/>
	<polygon class="st14" points="532.4,737.9 561.1,737.9 546.8,726.4 532.4,714.8 518,726.4 503.6,737.9 	"/>
	<polygon class="st14" points="498,737.9 508.8,737.9 503.4,732.1 498,726.4 492.6,732.1 487.1,737.9 	"/>
	<polygon class="st14" points="572,738.9 582.9,738.9 577.4,733.1 572,727.4 566.6,733.1 561.1,738.9 	"/>
	<rect x="1367.5" y="757.4" class="st15" width="353.5" height="175.6"/>
	<rect x="1398.7" y="767.9" class="st16" width="20.3" height="14"/>
	<rect x="1398.7" y="827.9" class="st16" width="20.3" height="89.1"/>
	<rect x="1426.8" y="767.9" class="st16" width="20.3" height="14"/>
	<rect x="1426.8" y="827.9" class="st16" width="20.3" height="89.1"/>
	<rect x="1454.9" y="767.9" class="st16" width="20.3" height="14"/>
	<rect x="1454.9" y="827.9" class="st16" width="20.3" height="89.1"/>
	<rect x="1482.2" y="767.9" class="st16" width="20.3" height="14"/>
	<rect x="1482.2" y="827.9" class="st16" width="20.3" height="89.1"/>
	<rect x="1509.5" y="767.9" class="st16" width="20.3" height="14"/>
	<rect x="1509.5" y="827.9" class="st16" width="20.3" height="89.1"/>
	<rect x="1536.8" y="767.9" class="st16" width="20.3" height="14"/>
	<rect x="1536.8" y="827.9" class="st16" width="20.3" height="89.1"/>
	<rect x="1564.1" y="767.9" class="st16" width="20.3" height="14"/>
	<rect x="1564.1" y="827.9" class="st16" width="20.3" height="89.1"/>
	<rect x="1591.4" y="767.9" class="st16" width="20.3" height="14"/>
	<rect x="1591.4" y="827.9" class="st16" width="20.3" height="89.1"/>
	<rect x="1618" y="767.9" class="st16" width="20.3" height="14"/>
	<rect x="1618" y="827.9" class="st16" width="20.3" height="89.1"/>
	<rect x="1645.3" y="767.9" class="st16" width="20.3" height="14"/>
	<rect x="1645.3" y="827.9" class="st16" width="20.3" height="89.1"/>
	<rect x="1672.6" y="767.9" class="st16" width="20.3" height="14"/>
	<rect x="1672.6" y="827.9" class="st16" width="20.3" height="89.1"/>
	<rect x="1817.7" y="831.9" class="st15" width="69.2" height="101.1"/>
	<polygon class="st15" points="1792.8,819.8 1769.4,807.6 1745.9,819.8 1722.5,831.9 1722.5,933 1816.2,933 1816.2,831.9 	"/>
	<g>
		<rect x="1737.4" y="844" class="st16" width="17.5" height="72.3"/>
	</g>
	<g>
		<rect x="1761" y="844" class="st16" width="17.5" height="72.3"/>
	</g>
	<g>
		<rect x="1784.6" y="844" class="st16" width="17.5" height="72.3"/>
	</g>
	<g>
		<rect x="1831.8" y="846.3" class="st16" width="17.5" height="72.3"/>
	</g>
	<g>
		<rect x="1855.4" y="846.3" class="st16" width="17.5" height="72.3"/>
	</g>
	<line class="st17" x1="1367.5" y1="789.4" x2="1721" y2="789.4"/>
	<line class="st17" x1="1367.5" y1="818.3" x2="1721" y2="818.3"/>
	<rect x="832.3" y="758.5" class="st5" width="21" height="172.7"/>
	<rect x="1091.6" y="757.8" class="st5" width="26.9" height="172.7"/>
	<rect x="860.8" y="723.9" class="st5" width="230.8" height="26.1"/>
	<path class="st3" d="M843,738.7v191.8h48V798.9l0,0c0.6-10.1,14.5-18.2,31.7-18.2s31.1,8.1,31.7,18.2l0,0v131.5H999V798.9l0,0
		c0.6-10.1,14.5-18.2,31.7-18.2c17.1,0,31.1,8.1,31.7,18.2l0,0v131.5h43.8V738.7H843z"/>
	<rect x="50.4" y="748.9" class="st14" width="532.4" height="40"/>
	<rect x="484.7" y="736.9" class="st15" width="98.1" height="33.7"/>
	<rect x="50.2" y="736.9" class="st15" width="101.6" height="33.7"/>
	<rect x="162.8" y="753.6" class="st18" width="24.8" height="10.6"/>
	<rect x="269.3" y="736.9" class="st15" width="96.8" height="33.7"/>
	<rect x="198.9" y="753.6" class="st18" width="24.8" height="10.6"/>
	<rect x="234.4" y="753.6" class="st18" width="24.8" height="10.6"/>
	<rect x="377.6" y="753.6" class="st18" width="24.8" height="10.6"/>
	<rect x="413.7" y="753.6" class="st18" width="24.8" height="10.6"/>
	<rect x="449.2" y="753.6" class="st18" width="24.8" height="10.6"/>
	<rect x="50.4" y="783.9" class="st15" width="532.2" height="148.1"/>
	<g>
		<path class="st16" d="M77.4,872.6c-4.9,0-8.8,3.9-8.9,8.7h17.8C86.2,876.5,82.2,872.6,77.4,872.6z"/>
		<polygon class="st16" points="86.2,881.3 68.5,881.3 68.5,881.3 68.5,932 86.2,932 		"/>
	</g>
	<rect x="53.8" y="856.9" class="st19" width="525.5" height="8.3"/>
	<path class="st16" d="M85.7,814.6c0-5.2-4-9.4-8.9-9.4s-8.8,4.2-8.9,9.4l0,0v34.6h17.8V814.6L85.7,814.6z"/>
	<path class="st16" d="M109.6,814.6c0-5.2-4-9.4-8.9-9.4s-8.8,4.2-8.9,9.4l0,0v34.6h17.8L109.6,814.6L109.6,814.6z"/>
	<path class="st16" d="M133.2,814.6c0-5.2-4-9.4-8.9-9.4s-8.8,4.2-8.9,9.4l0,0v34.6h17.8V814.6L133.2,814.6z"/>
	<path class="st16" d="M178.3,814.6c0-5.2-4-9.4-8.9-9.4s-8.8,4.2-8.9,9.4l0,0v34.6h17.8L178.3,814.6L178.3,814.6z"/>
	<rect x="144.7" y="797.2" class="st20" width="7.1" height="134.8"/>
	<rect x="50.2" y="797.2" class="st20" width="7.1" height="134.8"/>
	<rect x="186.7" y="797.2" class="st20" width="7.1" height="134.8"/>
	<path class="st16" d="M219.9,814.6c0-5.2-4-9.4-8.9-9.4s-8.8,4.2-8.9,9.4l0,0v34.6h17.8L219.9,814.6L219.9,814.6z"/>
	<rect x="228.3" y="797.2" class="st20" width="7.1" height="134.8"/>
	<path class="st16" d="M261,814.6c0-5.2-4-9.4-8.9-9.4s-8.8,4.2-8.9,9.4l0,0v34.6H261V814.6L261,814.6z"/>
	<rect x="269.3" y="797.2" class="st20" width="7.1" height="134.8"/>
	<path class="st16" d="M301.8,814.6c0-5.2-4-9.4-8.9-9.4s-8.8,4.2-8.9,9.4l0,0v34.6h17.8V814.6L301.8,814.6z"/>
	<path class="st16" d="M325.6,814.6c0-5.2-4-9.4-8.9-9.4s-8.8,4.2-8.9,9.4l0,0v34.6h17.8V814.6L325.6,814.6z"/>
	<path class="st16" d="M349.2,814.6c0-5.2-4-9.4-8.9-9.4s-8.8,4.2-8.9,9.4l0,0v34.6h17.8V814.6L349.2,814.6z"/>
	<path class="st16" d="M392.6,814.6c0-5.2-4-9.4-8.9-9.4s-8.8,4.2-8.9,9.4l0,0v34.6h17.8V814.6L392.6,814.6z"/>
	<rect x="359" y="797.2" class="st20" width="7.1" height="134.8"/>
	<rect x="401" y="797.2" class="st20" width="7.1" height="134.8"/>
	<path class="st16" d="M434.2,814.6c0-5.2-4-9.4-8.9-9.4s-8.8,4.2-8.9,9.4l0,0v34.6h17.8V814.6L434.2,814.6z"/>
	<rect x="442.5" y="797.2" class="st20" width="7.1" height="134.8"/>
	<path class="st16" d="M475.2,814.6c0-5.2-4-9.4-8.9-9.4s-8.8,4.2-8.9,9.4l0,0v34.6h17.8V814.6L475.2,814.6z"/>
	<rect x="483.6" y="797.2" class="st20" width="7.1" height="134.8"/>
	<path class="st16" d="M518.6,814.6c0-5.2-4-9.4-8.9-9.4s-8.8,4.2-8.9,9.4l0,0v34.6h17.8V814.6L518.6,814.6z"/>
	<path class="st16" d="M542.4,814.6c0-5.2-4-9.4-8.9-9.4s-8.8,4.2-8.9,9.4l0,0v34.6h17.8L542.4,814.6L542.4,814.6z"/>
	<path class="st16" d="M566,814.6c0-5.2-4-9.4-8.9-9.4s-8.8,4.2-8.9,9.4l0,0v34.6H566V814.6L566,814.6z"/>
	<rect x="575.8" y="797.2" class="st20" width="7.1" height="134.8"/>
	<rect x="50.2" y="770.6" class="st15" width="532.6" height="26.6"/>
	<path class="st21" d="M567.9,770.8c-4.7-13.3-18.8-23-35.5-23s-30.9,9.7-35.5,23H359.6l-19.9-11l-21.7-12l-21.7,12l-19.9,11H136.6
		c-4.9-12.9-18.8-22.2-35.2-22.2s-30.3,9.3-35.2,22.2H51V790h14.5l0,0H137l0,0h359.7l0,0h71.1l0,0h13.9v-19.1h-13.8V770.8z"/>
	<polygon class="st14" points="316.2,736.9 344.9,736.9 330.6,725.4 316.2,713.8 301.9,725.4 287.6,736.9 	"/>
	<polygon class="st14" points="281.9,736.9 292.7,736.9 287.3,731.1 281.9,725.4 276.5,731.1 271.1,736.9 	"/>
	<polygon class="st14" points="355.7,736.9 366.6,736.9 361.2,731.1 355.7,725.4 350.3,731.1 344.9,736.9 	"/>
	<g>
		<path class="st16" d="M101,872.6c-4.9,0-8.8,3.9-8.9,8.7h17.8C109.8,876.5,105.9,872.6,101,872.6z"/>
		<polygon class="st16" points="109.9,881.3 92.1,881.3 92.1,881.3 92.1,932 109.9,932 		"/>
	</g>
	<g>
		<path class="st16" d="M124.3,872.6c-4.9,0-8.8,3.9-8.9,8.7h17.8C133.1,876.5,129.2,872.6,124.3,872.6z"/>
		<polygon class="st16" points="133.2,881.3 115.4,881.3 115.4,881.3 115.4,932 133.2,932 		"/>
	</g>
	<g>
		<path class="st16" d="M169.5,873.6c-4.9,0-8.8,3.9-8.9,8.7h17.8C178.3,877.5,174.3,873.6,169.5,873.6z"/>
		<polygon class="st16" points="178.3,882.3 160.6,882.3 160.6,882.3 160.6,933 178.3,933 		"/>
	</g>
	<g>
		<path class="st16" d="M211,873.6c-4.9,0-8.8,3.9-8.9,8.7h17.8C219.8,877.5,215.9,873.6,211,873.6z"/>
		<polygon class="st16" points="219.9,882.3 202.1,882.3 202.1,882.3 202.1,933 219.9,933 		"/>
	</g>
	<g>
		<path class="st16" d="M252.1,873.6c-4.9,0-8.8,3.9-8.9,8.7H261C260.9,877.5,256.9,873.6,252.1,873.6z"/>
		<polygon class="st16" points="261,882.3 243.2,882.3 243.2,882.3 243.2,933 261,933 		"/>
	</g>
	<g>
		<path class="st16" d="M294.2,873.6c-4.9,0-8.8,3.9-8.9,8.7h17.8C303,877.5,299.1,873.6,294.2,873.6z"/>
		<polygon class="st16" points="303.1,882.3 285.3,882.3 285.3,882.3 285.3,933 303.1,933 		"/>
	</g>
	<g>
		<path class="st16" d="M317.9,873.6c-4.9,0-8.8,3.9-8.9,8.7h17.8C326.7,877.5,322.7,873.6,317.9,873.6z"/>
		<polygon class="st16" points="326.7,882.3 309,882.3 309,882.3 309,933 326.7,933 		"/>
	</g>
	<g>
		<path class="st16" d="M341.2,873.6c-4.9,0-8.8,3.9-8.9,8.7H350C350,877.5,346,873.6,341.2,873.6z"/>
		<polygon class="st16" points="350,882.3 332.3,882.3 332.3,882.3 332.3,933 350,933 		"/>
	</g>
	<g>
		<path class="st16" d="M383.5,872.7c-4.9,0-8.8,3.9-8.9,8.7h17.8C392.3,876.5,388.3,872.7,383.5,872.7z"/>
		<polygon class="st16" points="392.3,881.3 374.6,881.3 374.6,881.3 374.6,932.1 392.3,932.1 		"/>
	</g>
	<g>
		<path class="st16" d="M426,872.7c-4.9,0-8.8,3.9-8.9,8.7h17.8C434.8,876.5,430.9,872.7,426,872.7z"/>
		<polygon class="st16" points="434.9,881.3 417.1,881.3 417.1,881.3 417.1,932.1 434.9,932.1 		"/>
	</g>
	<g>
		<path class="st16" d="M468,872.7c-4.9,0-8.8,3.9-8.9,8.7h17.8C476.8,876.5,472.9,872.7,468,872.7z"/>
		<polygon class="st16" points="476.9,881.3 459.1,881.3 459.1,881.3 459.1,932.1 476.9,932.1 		"/>
	</g>
	<g>
		<path class="st16" d="M510.1,873.6c-4.9,0-8.8,3.9-8.9,8.7H519C518.9,877.5,514.9,873.6,510.1,873.6z"/>
		<polygon class="st16" points="519,882.3 501.2,882.3 501.2,882.3 501.2,933 519,933 		"/>
	</g>
	<g>
		<path class="st16" d="M533.7,873.6c-4.9,0-8.8,3.9-8.9,8.7h17.8C542.6,877.5,538.6,873.6,533.7,873.6z"/>
		<polygon class="st16" points="542.6,882.3 524.8,882.3 524.8,882.3 524.8,933 542.6,933 		"/>
	</g>
	<g>
		<path class="st16" d="M557,873.6c-4.9,0-8.8,3.9-8.9,8.7h17.8C565.8,877.5,561.9,873.6,557,873.6z"/>
		<polygon class="st16" points="565.9,882.3 548.1,882.3 548.1,882.3 548.1,933 565.9,933 		"/>
	</g>
</g>
<path class="st22" d="M580.3,309.1c-3.8,0-7.4,0.5-11,1.3c-9.8-23.6-33-40.2-60.2-40.2c-35.2,0-63.8,27.9-65.1,62.7
	c-1.4-0.2-2.8-0.3-4.3-0.3c-19.6,0-35.5,15.9-35.5,35.5s15.9,35.5,35.5,35.5c0.7,0,1.4,0,2.2-0.1v0.1l136.1,0.3l0.2-0.3
	c0.7,0,1.4,0.1,2.1,0.1c26.1,0,47.2-21.1,47.2-47.2C627.5,330.4,606.4,309.1,580.3,309.1z"/>
<path class="st22" d="M731.1,183.1c-2.1,0-4.2,0.3-6.2,0.7c-5.5-13.3-18.6-22.7-34-22.7c-19.8,0-36,15.7-36.7,35.4
	c-0.8-0.1-1.6-0.2-2.4-0.2c-11,0-20,9-20,20s9,20,20,20c0.4,0,0.8,0,1.2,0l0,0l76.8,0.2l0.1-0.2c0.4,0,0.8,0,1.2,0
	c14.7,0.1,26.7-11.8,26.7-26.5S745.8,183.1,731.1,183.1z"/>
<path class="st22" d="M1173,240.3c2.1,0,4.2,0.3,6.2,0.7c5.5-13.3,18.6-22.7,34-22.7c19.8,0,36,15.7,36.7,35.4
	c0.8-0.1,1.6-0.2,2.4-0.2c11,0,20,9,20,20s-9,20-20,20c-0.4,0-0.8,0-1.2,0l0,0l-76.8,0.2l-0.1-0.2c-0.4,0-0.8,0-1.2,0
	c-14.7,0-26.6-11.9-26.6-26.6C1146.4,252.2,1158.3,240.3,1173,240.3z"/>
<path class="st22" d="M1364.1,343c2.9,0,5.7,0.4,8.5,1c7.5-18.2,25.5-31,46.4-31c27.1,0,49.2,21.5,50.2,48.4
	c1.1-0.1,2.2-0.2,3.3-0.2c15.1,0,27.4,12.2,27.4,27.4c0,15.1-12.2,27.4-27.4,27.4c-0.6,0-1.1,0-1.7-0.1v0.1l-105,0.2l-0.2-0.2
	c-0.5,0-1.1,0-1.6,0c-20.1,0-36.4-16.3-36.4-36.4S1344,343,1364.1,343z"/>
<path class="st22" d="M1692.4,187c-4.4,0-8.6,0.5-12.7,1.5c-11.4-27.4-38.4-46.7-69.9-46.7c-40.8,0-74.1,32.4-75.6,72.8
	c-1.6-0.2-3.3-0.3-5-0.3c-22.7,0-41.2,18.4-41.2,41.2s18.4,41.2,41.2,41.2c0.8,0,1.7,0,2.5-0.1v0.1l158.1,0.3l0.2-0.4
	c0.8,0,1.6,0.1,2.4,0.1c30.3,0,54.8-24.5,54.8-54.8S1722.7,187,1692.4,187z"/>
<rect x="177.5" y="169.8" transform="matrix(0.7071 0.7071 -0.7071 0.7071 239.5797 -103.7689)" class="st23" width="135.1" height="135.1"/>
<rect x="176.9" y="169.1" class="st24" width="135.1" height="135.1"/>
<circle class="st25" cx="245.1" cy="237.3" r="74.6"/>
</svg>
