<?xml version="1.0" encoding="utf-8"?>
<!-- Generator: Adobe Illustrator 19.2.0, SVG Export Plug-In . SVG Version: 6.00 Build 0)  -->
<svg version="1.1" xmlns="http://www.w3.org/2000/svg" xmlns:xlink="http://www.w3.org/1999/xlink" x="0px" y="0px" width="1920px"
	 height="1080px" viewBox="0 0 1920 1080" style="enable-background:new 0 0 1920 1080;" xml:space="preserve">
<style type="text/css">
	.st0{fill:#B3C64D;}
	.st1{opacity:0.1;fill:#FFFFFF;}
	.st2{opacity:0.1;}
	.st3{fill:#FFFFFF;}
	.st4{display:none;}
	.st5{fill:none;stroke:#FFFFFF;stroke-width:4;stroke-miterlimit:10;stroke-dasharray:22,14;}
	.st6{fill:#1A703B;}
	.st7{fill:#EBDEB7;}
	.st8{fill:#9E9B9D;}
	.st9{fill:#1A8B9A;}
	.st10{fill:#3BA1B0;}
	.st11{clip-path:url(#SVGID_2_);fill-rule:evenodd;clip-rule:evenodd;fill:#1A8B9A;}
	.st12{clip-path:url(#SVGID_4_);fill:#FFFFFF;}
	.st13{fill:#253952;}
	.st14{fill:#289EAD;}
	.st15{fill:#E1E3D8;}
	.st16{fill:#F4F4F4;}
	.st17{fill:#BFC0C1;}
	.st18{fill:#E1E1E1;}
	.st19{fill:#485165;}
	.st20{fill:#1D4869;}
	.st21{fill:#0C3653;}
	.st22{font-family:'BigJohn';}
	.st23{font-size:14.2114px;}
	.st24{fill:#65A3AA;}
	.st25{opacity:0.5;fill:#7FB6BB;}
	.st26{fill:#3B5063;}
	.st27{fill:#B2D3E0;}
	.st28{fill:#3E576C;}
	.st29{fill:#61A4B1;}
</style>
<g id="Camada_1">
	<g id="Layer_2">
		<rect class="st0" width="1920" height="1080"/>
	</g>
</g>
<g id="Camada_7">
	<path class="st1" d="M1062,394.9l-0.1,46.8c0,5,4,9,9,9.1l76.4,0.1c5,0,9-4,9-9l0.1-46.8c0-5-4-9.1-9-9.1l-76.4-0.1
		C1066.1,385.9,1062,389.9,1062,394.9z M1067.6,441.8l0.1-46.8l29.8,24.8l-29.8,22.1C1067.7,441.9,1067.6,441.9,1067.6,441.8z
		 M1150.6,442.4l-29.7-22.4l29.9-24.6l-0.1,46.6C1150.7,442.1,1150.7,442.2,1150.6,442.4z M1072.7,391.7l73.3,0.1l-33.9,27.9
		c-1.5,1.3-4.3,1.3-5.8,0L1072.7,391.7z M1144.8,445.2l-71.7-0.1l28.9-21.5l0.6,0.5c1.9,1.5,4.2,2.3,6.6,2.3c2.4,0,4.7-0.8,6.6-2.3
		l0.5-0.4L1144.8,445.2z"/>
	<path class="st1" d="M633.7,431.8c2.8-3.6,4.5-7.9,4.5-12.7c0-11.9-10.1-21.5-22.6-21.6c-6.6,0-12.6,2.6-16.8,6.9
		c-7.1-16.6-24.4-28.5-44.6-28.6c-21.7-0.1-40.1,13.4-46.2,32c-2.1-0.4-4.4-0.6-6.6-0.6c-21.7-0.1-39.3,16.4-39.4,36.8
		c0,1.4,0.1,2.8,0.3,4.2c-10.6,3.5-18.3,12.7-18.3,23.4c0,8.4,4.6,15.9,11.7,20.5l198.2,0.7c7.6-6.4,12.3-15.7,12.3-26
		C666.2,449,652.1,434.2,633.7,431.8z"/>
	<g class="st2">
		<path class="st3" d="M985.4,486.6c6.6-5,9.9-11.1,10-18.2c0-7.1-3.3-13.2-9.9-18.2c-6.6-5-14.5-7.6-23.9-7.6
			c-9.3,0-17.3,2.5-23.8,7.5c-6.6,5-9.9,11-9.9,18.1c0,6.8,3.1,12.6,9.2,17.6c0,0.6,0.1,1.2,0.1,1.7c0,3.7-1,6.6-3,8.9
			c-2,2.4-4.6,3.7-7.7,4.1c1.8,3,4.1,4.6,6.6,4.6c4.1,0,7.7-1.2,10.7-3.8c3-2.5,4.7-5.6,5-9.4c4.1,1.3,8.4,2,12.9,2
			C970.9,494.1,978.9,491.6,985.4,486.6z"/>
		<path class="st3" d="M1001.6,513.1c-1.4-1.6-2.1-3.7-2-6.2c0-0.4,0-0.8,0.1-1.2c4.2-3.4,6.3-7.4,6.3-12.1c0-4.9-2.3-9.1-6.8-12.5
			c-1.6-1.3-3.4-2.3-5.3-3c-0.1,0.2-0.2,0.4-0.3,0.6c-1.7,3.1-4.3,6-7.6,8.5c-3.3,2.5-7.1,4.5-11.2,5.7c-4.1,1.3-8.5,1.9-13.2,1.9
			c-0.7,0-1.4,0-2.1-0.1c0.4,4.4,2.6,8.2,6.8,11.3c4.5,3.5,10,5.3,16.5,5.3c3.1,0,6.1-0.4,8.9-1.3c0.2,2.6,1.3,4.8,3.4,6.5
			c2.1,1.7,4.6,2.6,7.4,2.6c1.8,0,3.3-1,4.6-3.2C1004.8,515.7,1003,514.7,1001.6,513.1z"/>
		<path class="st3" d="M1019.2,479.7c-2-2.4-3-5.3-3-9c0-0.5,0-1.1,0-1.7c6.1-4.9,9.2-10.8,9.2-17.5c0-7.1-3.3-13.1-9.9-18.2
			c-6.6-5-14.5-7.5-23.8-7.5c-9.4,0-17.3,2.5-23.9,7.5c-3.5,2.6-6,5.6-7.7,8.8c0.5,0,1,0,1.5,0c4.8,0,9.2,0.7,13.2,1.9
			c4.1,1.3,7.8,3.2,11.2,5.8c3.4,2.6,5.9,5.4,7.6,8.5c1.7,3.1,2.6,6.6,2.5,10.3c0,3-0.6,5.9-1.8,8.6c3.5-0.2,6.9-0.9,10.2-1.9
			c0.3,3.8,1.9,7,4.9,9.5c3.1,2.5,6.6,3.7,10.7,3.7c2.6,0,4.8-1.5,6.7-4.6C1023.7,483.4,1021.2,482,1019.2,479.7z"/>
	</g>
	<path class="st1" d="M814,520c2.8-3.6,4.5-7.9,4.5-12.7c0-11.9-10.1-21.5-22.6-21.6c-6.6,0-12.6,2.6-16.8,6.9
		c-7.1-16.6-24.4-28.5-44.6-28.6c-21.7-0.1-40.1,13.4-46.2,32c-2.1-0.4-4.4-0.6-6.6-0.6c-21.7-0.1-39.3,16.4-39.4,36.8
		c0,1.4,0.1,2.8,0.3,4.2c-10.6,3.5-18.3,12.7-18.3,23.4c0,8.4,4.6,15.9,11.7,20.5l198.2,0.7c7.6-6.4,12.3-15.7,12.3-26
		C846.6,537.2,832.4,522.3,814,520z"/>
	<path class="st1" d="M1184.5,498.6c-2.8-3.6-4.5-7.9-4.5-12.7c0-11.9,10.1-21.5,22.6-21.6c6.6,0,12.6,2.6,16.8,6.9
		c7.1-16.6,24.4-28.5,44.6-28.6c21.7-0.1,40.1,13.4,46.2,32c2.1-0.4,4.4-0.6,6.6-0.6c21.7-0.1,39.3,16.4,39.4,36.8
		c0,1.4-0.1,2.8-0.3,4.2c10.6,3.5,18.3,12.7,18.3,23.4c0,8.4-4.6,15.9-11.7,20.5l-198.2,0.7c-7.6-6.4-12.3-15.7-12.3-26
		C1152,515.8,1166.2,500.9,1184.5,498.6z"/>
	<path class="st1" d="M1004.2,586.7c-2.8-3.6-4.5-7.9-4.5-12.7c0-11.9,10.1-21.5,22.6-21.6c6.6,0,12.6,2.6,16.8,6.9
		c7.1-16.6,24.4-28.5,44.6-28.6c21.7-0.1,40.1,13.4,46.2,32c2.1-0.4,4.4-0.6,6.6-0.6c21.7-0.1,39.3,16.4,39.4,36.8
		c0,1.4-0.1,2.8-0.3,4.2c10.6,3.5,18.3,12.7,18.3,23.4c0,8.4-4.6,15.9-11.7,20.5L984,647.8c-7.6-6.4-12.3-15.7-12.3-26
		C971.6,603.9,985.8,589,1004.2,586.7z"/>
	<path class="st1" d="M802.8,368.2l-0.1,46.8c0,5,4,9,9,9.1l76.4,0.1c5,0,9-4,9-9l0.1-46.8c0-5-4-9.1-9-9.1l-76.4-0.1
		C806.9,359.1,802.8,363.2,802.8,368.2z M808.5,415l0.1-46.8l29.8,24.8l-29.8,22.1C808.5,415.2,808.5,415.1,808.5,415z M891.4,415.6
		l-29.7-22.4l29.9-24.6l-0.1,46.6C891.5,415.3,891.5,415.5,891.4,415.6z M813.5,364.9l73.3,0.1l-33.9,27.9c-1.5,1.3-4.3,1.3-5.8,0
		L813.5,364.9z M885.6,418.4l-71.7-0.1l28.9-21.5l0.6,0.5c1.9,1.5,4.2,2.3,6.6,2.3c2.4,0,4.7-0.8,6.6-2.3l0.5-0.4L885.6,418.4z"/>
	<g class="st2">
		<path class="st3" d="M528.3,909.6c6.6-5,9.9-11.1,10-18.2c0-7.1-3.3-13.2-9.9-18.2c-6.6-5-14.5-7.6-23.9-7.6
			c-9.3,0-17.3,2.5-23.8,7.5c-6.6,5-9.9,11-9.9,18.1c0,6.8,3.1,12.6,9.2,17.6c0,0.6,0.1,1.2,0.1,1.7c0,3.7-1,6.6-3,8.9
			c-2,2.4-4.6,3.7-7.7,4.1c1.8,3,4.1,4.6,6.6,4.6c4.1,0,7.7-1.2,10.7-3.8c3-2.5,4.7-5.6,5-9.4c4.1,1.3,8.4,2,12.9,2
			C513.7,917.1,521.7,914.6,528.3,909.6z"/>
		<path class="st3" d="M544.4,936.1c-1.4-1.6-2.1-3.7-2-6.2c0-0.4,0-0.8,0.1-1.2c4.2-3.4,6.3-7.4,6.3-12.1c0-4.9-2.3-9.1-6.8-12.5
			c-1.6-1.3-3.4-2.3-5.3-3c-0.1,0.2-0.2,0.4-0.3,0.6c-1.7,3.1-4.3,6-7.6,8.5c-3.3,2.5-7.1,4.5-11.2,5.7c-4.1,1.3-8.5,1.9-13.2,1.9
			c-0.7,0-1.4,0-2.1-0.1c0.4,4.4,2.6,8.2,6.8,11.3c4.5,3.5,10,5.3,16.5,5.3c3.1,0,6.1-0.4,8.9-1.3c0.2,2.6,1.3,4.8,3.4,6.5
			c2.1,1.7,4.6,2.6,7.4,2.6c1.8,0,3.3-1,4.6-3.2C547.6,938.6,545.8,937.6,544.4,936.1z"/>
		<path class="st3" d="M562,902.6c-2-2.4-3-5.3-3-9c0-0.5,0-1.1,0-1.7c6.1-4.9,9.2-10.8,9.2-17.5c0-7.1-3.3-13.1-9.9-18.2
			c-6.6-5-14.5-7.5-23.8-7.5c-9.4,0-17.3,2.5-23.9,7.5c-3.5,2.6-6,5.6-7.7,8.8c0.5,0,1,0,1.5,0c4.8,0,9.2,0.7,13.2,1.9
			c4.1,1.3,7.8,3.2,11.2,5.8c3.4,2.6,5.9,5.4,7.6,8.5c1.7,3.1,2.6,6.6,2.5,10.3c0,3-0.6,5.9-1.8,8.6c3.5-0.2,6.9-0.9,10.2-1.9
			c0.3,3.8,1.9,7,4.9,9.5c3.1,2.5,6.6,3.7,10.7,3.7c2.6,0,4.8-1.5,6.7-4.6C566.6,906.3,564,905,562,902.6z"/>
	</g>
	<path class="st1" d="M1323.6,880.3l-0.1,46.8c0,5,4,9,9,9.1l76.4,0.1c5,0,9-4,9-9l0.1-46.8c0-5-4-9.1-9-9.1l-76.4-0.1
		C1327.7,871.2,1323.6,875.3,1323.6,880.3z M1329.3,927.1l0.1-46.8l29.8,24.8l-29.8,22.1C1329.3,927.3,1329.3,927.2,1329.3,927.1z
		 M1412.2,927.7l-29.7-22.4l29.9-24.6l-0.1,46.6C1412.3,927.4,1412.3,927.6,1412.2,927.7z M1334.3,877l73.3,0.1l-33.9,27.9
		c-1.5,1.3-4.3,1.3-5.8,0L1334.3,877z M1406.5,930.5l-71.7-0.1l28.9-21.5l0.6,0.5c1.9,1.5,4.2,2.3,6.6,2.3c2.4,0,4.7-0.8,6.6-2.3
		l0.5-0.4L1406.5,930.5z"/>
</g>
<g id="Camada_6" class="st4">
	
		<image style="display:inline;overflow:visible;" width="1300" height="1300" xlink:href="D:\portfolio\ref_flat_creadedi\26034131-Set-of-flat-design-illustration-concepts-for-email--Stock-Vector.jpg"  transform="matrix(1.1946 0 0 1.1946 -56.0391 -262.1362)">
	</image>
</g>
<g id="Camada_4">
	<path class="st5" d="M441.3,665c0,0-3.3,66.3,44.8,80.6c37.8,11.2,62.8,18.8,144.7-14.3c50.5-20.4,37.7-53.7,11.9-45.1
		c-29.7,9.8-22.9,55.1-13.3,70.2c27.4,43.5,69.8,31,94.7,30.5c82.4-1.9,146.6-53.5,146.6-53.5"/>
	<path class="st5" d="M848.7,606.5c0,0-57.4-32.2-78.7-34.5c-21-2.2-38.2,12.2-45.9,22.9c-10.7,14.9-4.1,28.1,2.8,27.6
		c5-0.4,12.8-2.2,16.7-10.5c9.2-19.4-27.3-71.3-27.3-71.3"/>
	<path class="st5" d="M1045.9,738.1c0,0,104.9,55,141.4,69.8c41.8,16.9,116.6,37.6,179.1,20.7c57.2-15.4,48-49.9,48-49.9"/>
	<path class="st5" d="M1049.2,618c0,0,25.3-37.4,87.1-49.5c25.4-5,81.1-1.9,92.8,16.8c3.6,5.8,0.4,11.8-5.1,16.5
		c-11.9,10.2-25.6,14.6-28,4.8c-2.5-10.2,9.1-12.7,52.5,8.1c22.1,10.6,36.1-5.2,36.1-5.2"/>
</g>
<g id="Camada_2">
	<path class="st3" d="M888.1,716.7c13.4-7.7,34.6-16,52.7-6.3c15.9,8.4,21.1,23,25.2,27.4c15-29.6,54.6-29.6,74.6-21.1
		c28.1,12,33,35.1,33.3,63.1c27.5-10.4,55.6,13.2,56.5,43.1c1.1,34.3-30.6,66-75.1,49.2c-3.9,23.8-9.9,44.2-45,53.8
		c-25.4,6.9-52.8-11-56.8-30.4c-10.5,22.3-33.4,38.2-58.9,29.3c-22.1-7.8-40.4-37.2-30.3-60.1c-11.2,3.4-27.6,0.4-38.2-5.4
		c-16.2-9-22.9-29.8-18.4-47.5c6.7-26.6,34.7-28.3,57-21.1C854.1,765.3,863,731.2,888.1,716.7z"/>
	<polygon class="st6" points="1088.9,686.9 1090.4,686.9 1089.6,686.2 1090.4,686.2 1089.6,686.2 968.8,612 847.2,686.2 
		848.7,686.2 969.5,760.3 	"/>
	<rect x="859.8" y="572" class="st7" width="217.9" height="252.8"/>
	<g>
		<rect x="877.6" y="572" class="st8" width="5.9" height="222.4"/>
	</g>
	<g>
		<rect x="902.8" y="625.4" class="st9" width="147.5" height="5.9"/>
	</g>
	<g>
		<rect x="904.3" y="649.8" class="st9" width="145.3" height="5.9"/>
	</g>
	<g>
		<rect x="904.3" y="673.6" class="st9" width="145.3" height="5.9"/>
	</g>
	<g>
		<rect x="904.3" y="698" class="st9" width="145.3" height="5.9"/>
	</g>
	<g>
		<rect x="905.1" y="721" class="st9" width="145.3" height="5.9"/>
	</g>
	<polygon class="st9" points="1090.4,686.2 1090.4,835.2 846.5,835.2 	"/>
	<polygon class="st10" points="848.7,686.2 848.7,835.2 1091.9,835.2 	"/>
</g>
<g id="Camada_5">
	<circle class="st3" cx="688.2" cy="524.8" r="45.1"/>
	<circle class="st10" cx="473.7" cy="738.1" r="40.5"/>
	<g>
		<g>
			<defs>
				<rect id="SVGID_1_" x="660.4" y="498.9" width="55.6" height="51.9"/>
			</defs>
			<clipPath id="SVGID_2_">
				<use xlink:href="#SVGID_1_"  style="overflow:visible;"/>
			</clipPath>
			<path class="st11" d="M712,503.3l-0.3-0.3c-5.8-5.6-15.1-5.6-20.8,0.2l-26.5,26.5c-2,2-4.1,5.6-4.1,8.9c0,3,1.2,5.9,3.3,8.1
				c2.2,2.2,5,3.4,8.1,3.4c3.1,0,5.9-1.2,8.1-3.4l22.8-22.8c1.6-1.6,2.4-3.8,2.4-6c-0.1-2-0.9-4-2.4-5.4c-1.5-1.5-3.5-2.4-5.7-2.4
				c-2.1,0-4.2,0.8-5.7,2.4l-17.5,17.5c-0.4,0.4-0.7,1-0.7,1.7c0,1.3,1.1,2.4,2.4,2.4c0.7,0,1.3-0.3,1.7-0.7v0l17.5-17.5
				c0.6-0.6,1.5-0.9,2.3-0.9c0.8,0,1.7,0.3,2.3,0.9c0.6,0.6,0.9,1.4,1,2.2c0,0.9-0.3,1.8-1,2.4l-22.8,22.8c-1.3,1.3-2.9,2-4.7,2
				c-1.8,0-3.4-0.7-4.7-2c-1.3-1.2-2-2.9-2-4.7c0-1.5,1.3-4,2.7-5.5l26.5-26.5c3.9-3.9,10.2-3.9,14.1-0.1l0.2,0.3
				c3.8,3.9,3.7,10.2-0.2,14l-21.9,21.9c-0.4,0.4-0.7,1-0.7,1.7c0,1.3,1.1,2.4,2.4,2.4c0.7,0,1.3-0.3,1.7-0.7l0,0l21.9-21.9
				C717.7,518.4,717.7,509.1,712,503.3L712,503.3z M712,503.3"/>
		</g>
	</g>
	<g>
		<g>
			<defs>
				<rect id="SVGID_3_" x="453" y="719.6" width="40.2" height="38.8"/>
			</defs>
			<clipPath id="SVGID_4_">
				<use xlink:href="#SVGID_3_"  style="overflow:visible;"/>
			</clipPath>
			<path class="st12" d="M490.9,726.3l-5.1-5c-2.2-2.2-5.9-2.2-8.1,0l-5.6,5.5c-2.2,2.2-2.3,5.8,0,8l3.2-3.1c-0.3-1,0.1-2.1,0.9-2.9
				l3.6-3.5c1.1-1.1,2.9-1.1,4.1,0l3,3c1.1,1.1,1.1,2.9,0,4l-3.6,3.5c-0.8,0.7-2,1.1-3,0.9l-3.1,3.1c2.2,2.2,5.9,2.2,8.1,0l5.6-5.5
				C493.1,732.1,493.2,728.5,490.9,726.3L490.9,726.3z M490.9,726.3"/>
			<path class="st12" d="M470.3,746.4c0.3,1-0.2,2.2-0.9,3l-3.3,3.3c-1.1,1.1-3,1.1-4.1,0l-3.1-3.1c-1.1-1.1-1.1-3,0-4.1l3.3-3.3
				c0.8-0.8,2-1.2,3-0.9l3.2-3.2c-2.3-2.3-6-2.3-8.3,0l-5.4,5.3c-2.3,2.2-2.3,5.9,0,8.1l5.2,5.1c2.3,2.2,6,2.3,8.3,0l5.4-5.3
				c2.3-2.2,2.3-5.9,0-8.1L470.3,746.4z M470.3,746.4"/>
		</g>
		<path class="st3" d="M466.8,744.9c0.8,0.8,2,0.8,2.8,0l9.3-9.2c0.8-0.8,0.8-2,0-2.8c-0.8-0.8-2-0.8-2.8,0l-9.3,9.2
			C466.1,742.9,466.1,744.2,466.8,744.9L466.8,744.9z M466.8,744.9"/>
	</g>
</g>
<g id="Camada_3">
	<g>
		<g>
			<g>
				<g>
					<g>
						<g>
							<path class="st13" d="M1477.2,635c-8.3,0-119.3,0-119.3,0s-111,0-119.3,0c-8.3,0-7.4,7.2-7.4,7.2v145.6h253.4V642.3
								C1484.6,642.3,1485.5,635,1477.2,635z"/>
							<g>
								<defs>
									<path id="SVGID_5_" d="M1477.2,635c-8.3,0-119.3,0-119.3,0s-111,0-119.3,0c-8.3,0-7.4,7.2-7.4,7.2v145.6h253.4V642.3
										C1484.6,642.3,1485.5,635,1477.2,635z"/>
								</defs>
								<clipPath id="SVGID_6_">
									<use xlink:href="#SVGID_5_"  style="overflow:visible;"/>
								</clipPath>
							</g>
							<path class="st14" d="M1474.4,781.9h-232.8c-1.1,0-2-0.9-2-2V645.2c0-1.1,0.9-2,2-2h232.8c1.1,0,2,0.9,2,2v134.8
								C1476.4,781,1475.5,781.9,1474.4,781.9z"/>
						</g>
						<g>
							<rect x="1201" y="786.8" class="st15" width="313.5" height="6.1"/>
							<rect x="1499.3" y="786.8" class="st16" width="15.1" height="6.1"/>
							<rect x="1201" y="786.8" class="st16" width="15.1" height="6.1"/>
							<path class="st17" d="M1357.6,792.9H1201c0,0,3.8,3.5,10.6,3.5c6.9,0,146,0,146,0s139.1,0,146,0s10.6-3.5,10.6-3.5H1357.6z"
								/>
						</g>
					</g>
					<circle class="st18" cx="1357.7" cy="638.8" r="1.8"/>
					<circle class="st19" cx="1357.7" cy="638.8" r="1.2"/>
				</g>
			</g>
		</g>
	</g>
	<path class="st20" d="M1414.4,715.8v-10.7c0-6.4-5.2-11.6-11.6-11.6h-92.8c-5.6,0-10.2,4.6-10.2,10.2v12.1H1414.4z"/>
	<path class="st21" d="M1299.9,715.8v10.7c0,6.4,5.2,11.6,11.6,11.6h92.8c5.6,0,10.2-4.6,10.2-10.2v-12.1H1299.9z"/>
	<text transform="matrix(1 0 0 1 1326.6997 720.8875)" class="st3 st22 st23">ENVIAR</text>
	<g>
		<path class="st13" d="M587.4,664.3c-40.2,41.5-106.5,42.5-148.1,2.3c-41.5-40.2-42.6-106.4-2.3-147.9
			c40.2-41.5,106.5-42.5,148.1-2.3C626.6,556.6,627.7,622.8,587.4,664.3z"/>
		<path class="st10" d="M579.1,655.9c-35.7,36.8-94.5,37.7-131.3,2.1c-36.8-35.6-37.7-94.3-2.1-131.1c35.7-36.8,94.5-37.7,131.3-2.1
			C613.9,560.4,614.8,619.1,579.1,655.9z"/>
		<path class="st9" d="M428,560.2l0,0.1L428,560.2c-0.1,0.2-0.1,0.4-0.2,0.5C427.9,560.5,427.9,560.4,428,560.2 M428.1,560
			c0,0.1-0.1,0.2-0.1,0.3l0,0C428,560.2,428,560.1,428.1,560 M428.1,560C428.1,559.9,428.1,559.9,428.1,560c0,0.1-0.1,0.2-0.1,0.3
			l0,0C428,560.2,428.1,560.1,428.1,560 M428.1,559.9c0.4-1.2,0.9-2.3,1.3-3.4l-0.4,1c-0.2,0.6-0.4,1.1-0.7,1.6
			C428.3,559.4,428.2,559.7,428.1,559.9C428.1,559.9,428.1,559.9,428.1,559.9 M428.5,558.9c0-0.1,0.1-0.2,0.1-0.3
			c0-0.1,0.1-0.2,0.1-0.3c0-0.1,0.1-0.2,0.2-0.4c0.2-0.5,0.4-1,0.6-1.6l0,0.1c-0.4,1.1-0.9,2.2-1.3,3.4
			C428.2,559.6,428.4,559.2,428.5,558.9 M430.5,554.1c0.8-1.8,1.2-2.5,1.4-3l0.1-0.3l0,0c0.1-0.2,0.2-0.4,0.3-0.6
			c0,0.1-0.1,0.2-0.2,0.3c-0.2,0.3-0.3,0.7-0.5,1c-0.5,0.9-0.9,1.8-1.3,2.7c-0.2,0.4-0.4,0.8-0.6,1.2
			C430.1,555.1,430.3,554.6,430.5,554.1 M424.1,608.6L424.1,608.6c-0.1-0.3-0.1-0.6-0.2-0.9c0.1,0.4,0.2,0.9,0.3,1.3
			C424.2,608.8,424.2,608.7,424.1,608.6 M422.6,596.5c0,0.5,0.1,1,0.1,1.5l0,0.8C422.7,598.1,422.7,597.4,422.6,596.5 M422.7,584.4
			c-0.1,1.5-0.2,3.1-0.2,4.7c0,0.5,0,1.1,0,1.6v0C422.4,588,422.5,586.7,422.7,584.4 M422.5,589.1c0,0.4,0,0.7,0,1.1l0,0.5
			C422.4,590.2,422.5,589.6,422.5,589.1 M426.3,565.1c-0.1,0.3-0.1,0.5-0.2,0.8c-0.1,0.2-0.1,0.4-0.2,0.6c-0.1,0.2-0.1,0.4-0.2,0.6
			l0,0.1C425.9,566.5,426.1,565.8,426.3,565.1 M426.4,564.9l0.1-0.1c0,0.1-0.1,0.2-0.1,0.3C426.3,565.1,426.4,565,426.4,564.9
			 M503.9,502L503.9,502L503.9,502c0.1,0,0.2,0,0.3,0l-0.1,0l0.1,0c0.1,0,0.3,0,0.5,0l0.1,0l0.1,0h0.1c-0.2,0-0.4,0-0.7,0.1
			c-0.3,0-0.5,0-0.7,0.1C503.7,502,503.8,502,503.9,502 M504,501.9L504,501.9L504,501.9L504,501.9 M505,501.9L505,501.9l0.1,0l0.5,0
			c0,0-0.1,0-0.1,0h0l-0.1,0C505.2,501.8,505.1,501.8,505,501.9L505,501.9l-0.2,0c0,0-0.1,0-0.2,0c-0.1,0-0.2,0-0.3,0
			C504.5,501.9,504.7,501.9,505,501.9 M505.1,501.8l0.1,0l0.2,0l0.1,0l0.1,0l0,0l0.1,0h0.1c0.1,0,0.2,0,0.3,0c-0.2,0-0.3,0-0.5,0
			L505.1,501.8L505.1,501.8 M505.4,501.8C505.4,501.8,505.4,501.8,505.4,501.8C505.4,501.8,505.4,501.8,505.4,501.8L505.4,501.8
			 M505.8,501.8l0.2,0c0,0,0,0,0,0C505.9,501.8,505.9,501.8,505.8,501.8L505.8,501.8 M505.9,501.8l0.1,0h0c0,0,0,0,0,0L505.9,501.8
			L505.9,501.8 M506.1,501.8C506.1,501.8,506.1,501.8,506.1,501.8L506.1,501.8C506.1,501.8,506.1,501.8,506.1,501.8L506.1,501.8
			 M506.6,501.7L506.6,501.7C506.6,501.7,506.6,501.7,506.6,501.7L506.6,501.7 M496.9,610.9c0-0.2-0.1-0.4-0.2-0.6
			c0-0.1,0-0.2,0-0.3l0-0.3l0-0.1l-0.6-0.9c-0.1-0.1-0.2-0.1-0.3-0.2c-0.2-0.3-0.2-0.3-0.3-0.3c-0.2-0.1-0.2-0.2-0.2-0.9l-0.4-0.1
			c0,0-0.1,0.1-0.2,0.1c-0.1,0-0.1,0.1-0.2,0.4c0,0.1,0.1,0.2,0.1,0.3c0,0.1-0.1,0.2-0.1,0.3l0,0c0,0.1,0.1,0.1,0.1,0.3
			c0,0.1-0.1,0.2-0.1,0.3c0,0.1,0.1,0.2,0.1,0.4c0,0,0,0-0.2,0.2c-0.2,0.2-0.2,1.7,0.2,2.1c0,0,0.6,0.5,0.9,0.6c0.1,0,0.1,0,1.2,0
			C496.9,611.2,496.9,611.2,496.9,610.9 M552.1,667c0.3-0.2,0.5-0.4,0.7-0.6c-0.2,0-0.5,0-0.7,0c0,0-0.3,0.1-0.5,0.1l-0.2,0l0.1-0.3
			l0-0.1c0-0.1,0.1-0.2,0.1-0.2l0,0c-0.1,0-0.4,0.1-0.5,0.1c-0.6,0.5-0.6,0.5-0.6,0.5c-0.1,0.2-0.1,0.2-0.3,0.3l-0.2,0.2l-0.2,0.2
			l0,0.1c0,0.2-0.2,0.3-0.3,0.4c-0.1,0.1-0.1,0.2-0.2,0.3c-0.1,0.1-0.3,0.2-0.3,0.4l0.1,0l0.1,0l0.2,0c0.2-0.1,0.4-0.3,0.6-0.4
			l0.1-0.1c0.2,0,0.3,0,0.5,0c0.2-0.1,0.3-0.3,0.5-0.4c0.2-0.2,0.3-0.3,0.5-0.4C551.7,667.2,551.9,667.1,552.1,667 M553.5,665.9
			l0.4-0.3c0.1-0.1,0.1-0.1,0.2-0.2l0-0.1l0.1-0.2l0.1-0.2l0,0l-0.1,0l0,0h0l0,0l0,0c-0.1,0-0.1,0.1-0.2,0.1l-0.1,0l-0.1,0.1
			c-0.3,0.2-0.3,0.2-0.3,0.3l0.1,0c0,0.1-0.1,0.1-0.2,0.2l-0.1,0.1L553.5,665.9 M551.2,665.8c0.2-0.2,0.5-0.4,0.7-0.7l-0.1,0
			c0,0-0.3,0.1-0.5,0.3c-0.1,0.1-0.1,0.1-0.3,0.5L551.2,665.8 M562.2,666c0.2-0.2,0.5-0.3,0.7-0.5c-0.1,0-0.1,0-0.1,0
			c0.5-0.4,0.5-0.4,0.6-0.5l-0.2,0.1c-0.4,0.3-0.7,0.5-1.1,0.8c-1.2,0.6-2.3,1.4-3.5,2c-1.3,0.6-1.3,0.6-1.6,0.8
			c-1,0.6-1.2,0.7-1.4,0.7h0l0,0h0l0,0h0h0h0l0,0c-0.1,0-0.9,0.5-1.2,0.7v0c0.2,0,0.2,0,0.2,0c-0.1,0.1-0.3,0.2-0.4,0.3l0.1,0
			C559.1,668,561.9,666.2,562.2,666 M553,671c0.1,0,0.2-0.1,0.3-0.1c0.1,0,0.1-0.1,0.2-0.1l-0.1,0c0,0,0,0-0.2,0.1l-0.1,0.1L553,671
			l-0.2,0L553,671 M567.6,662.5c0.2-0.1,0.6-0.5,0.7-0.6c0,0-0.1,0-0.2,0.1c-0.1,0.1-0.1,0.1-0.2,0.2c-0.1,0.1-0.1,0.1-0.2,0l-0.1,0
			l-0.1,0.1c1.4-1.1,1.4-1.1,1.5-1.3c-0.3,0.1-0.5,0.4-0.8,0.6c0.3-0.5,0.9-0.7,1.3-1.1l-0.1,0c1.2-1.2,1.2-1.2,1.2-1.3l0,0
			c-0.1,0-0.5,0.4-0.6,0.5c-1.8,1.8-1.8,1.8-2.8,2.7c-0.5,0.4-0.9,0.7-1.4,1.1c-0.1,0-0.2,0-0.3,0c-0.3,0.2-0.5,0.4-0.8,0.6
			l-0.2,0.2c0.1,0,0.2,0,0.3-0.1c-0.6,0.5-1.3,0.9-1.9,1.4l0.2,0c0.9-0.6,1.9-1.2,2.8-1.9l0.1,0l0,0l0,0c0.4-0.3,1.2-0.9,1.2-0.9
			l0.1,0L567.6,662.5 M580.1,646.3c0.2-0.2,0.2-0.5,0.2-0.5l-0.1-0.1c0-0.1,0.1-0.2,0.1-0.3l0,0c-0.1-0.1,0.1-0.3,0.1-0.4
			c0.3-0.5,0.2-1.1,0.2-1.1l-0.1,0l-0.2,0.1c-0.1,0.2-0.1,0.3-0.2,0.5l0,0c0,0,0,0,0,0.1c0,0.1,0,0.1-0.2,0.4
			c-0.1,0.1-0.3,0.4-0.3,0.7c0,0.2,0.1,0.3,0.1,0.5c0,0.1,0,0.2,0,0.3l0,0l0.2,0L580.1,646.3 M558.3,635.2c0-0.2,0.1-0.3,0.2-0.5
			l-0.4-0.1c-0.5,0.1-0.5,0.1-1,0.2c0.1,0,0.2,0,0.2-0.1c-0.1,0-0.4,0.1-0.5,0.3c0,0-0.2,0.4,0,0.5c0.1,0,0.2,0,0.3,0
			c0.1-0.1,0.1-0.1,0.6-0.2c0.1,0,0.1,0,0.2,0C558,635.3,558.1,635.2,558.3,635.2 M567,654.7c0.3-0.3,0.6-0.7,0.8-1.1
			c0.1-0.3,0.1-0.5,0.2-0.8c0.1-0.1,0.1-0.1,0.2-0.3c0.3-0.4,0.6-0.6,0.9-1l0,0c0.2-0.2,0.3-0.4,0.5-0.7c0,0,1-1.7,0.4-2.6l0.1-0.2
			c0.2-0.4,0.4-0.7,0.6-1.1c-1-0.1-1-0.1-0.9-0.6c0-0.1,0.1-0.2,0.1-0.2c0.1-0.2,0.1-0.2,0.4-0.7l-0.2,0c0-0.2,0.1-0.4,0.1-0.6
			c-0.4-0.3-0.5-0.3-0.4-1c-0.9-0.8-0.9-0.8-0.4-1.8c0,0,0,0,0.1-0.2c0.1-0.5,0.1-0.5,0.2-0.6c0-0.1,0.1-0.2,0.1-0.2
			c0,0,0.6-2.1,0.5-2.6c-0.4-0.1-0.8-0.1-1.1-0.3c0.1-0.3,0.2-0.5,0.2-0.8c0-0.1,0.1-0.2,0.1-0.3c0.5-1.3,0.4-2.7,0.2-2.9l-0.2,0
			c-0.1,0.3-0.3,0.5-0.4,0.8c0,0.1-0.1,0.2-0.1,0.3c-0.8,0.7-0.8,0.7-1.6,2.8c-0.1,0.2-0.1,0.3-0.3,0.6c-0.2,0.4-0.2,0.4-0.6,0.8
			c-0.3,0.7-0.6,1.4-0.9,2c-0.5,0.9-1.1,0.8-1.8,0.6c-0.2-0.3-0.2-0.3-0.1-0.5c-0.4-0.6-1-1.2-1.4-1.9c-0.7-0.1-0.7-0.1-0.8-0.4
			c0.2-0.3,0.3-0.7,0.5-1.1c0,0,0-0.1,0-0.2c-0.1-1.3,1.3-1.5,1.8-2.4l-0.2,0c-0.6-0.2-0.6-0.2-0.8-0.2c-0.1,0-0.1,0-0.3,0
			c-0.5,0-0.9-0.2-1.4-0.2c0,0-0.9-0.6-1.4-0.8l-0.2,0c-0.1,0-0.1,0-0.3,0c-0.1,0-0.3,0.1-0.4,0c0,0.2-0.1,0.3-0.1,0.5l0,0.2
			c0.4,0.2,0.4,0.2,0.8,0.3c-0.3,0.6-1,0.2-1.5,0.4c-0.5,0.3-0.9,0.7-1.4,1c-0.5,0.2-0.5,0.3-0.7,0.5c0,0,0,0.1-0.1,0.2
			c-0.1,0.6-0.4,1.1-0.5,1.2c-0.2,0.3-1.4,0.4-1.4-0.2c-0.2,0-0.4,0-0.6,0l-0.1-0.1c0-0.1,0-0.3,0-0.4c-0.2,0-0.3,0-0.6,0
			c-0.7,0.3-1.3,0.8-2,1.1c-0.8,0.4-1.2,1.3-2.2,1.3c0,0.1-0.1,0.3-0.1,0.5c0.2,0.5,0.2,0.5,0.2,0.6c0,0.2-0.1,0.3-0.1,0.5
			c-0.3,0-0.7,0-1,0c0.1-0.3,0.1-0.5,0.2-0.8c-0.2,0-0.4,0-0.6,0c-0.3,0.1-3,3.5-3.1,3.5c-0.1,0.2-0.2,0.3-0.9,0.6
			c-1.2,0.5-2.7,0-3.8,0.8c-0.6,0.4-1.3,0.4-1.9,0.8c-0.3,0.3-0.1,0.8-0.6,1c-0.2,0.1-0.3,0.1-0.9-0.2c0-0.1,0-0.3,0-0.4
			c-0.2,0.4-0.2,0.4-0.6,0.6l0,0.2c0,0.1,0,0.1-0.1,0.3c0,0.3,0,0.3-0.1,0.6c0,0.1,0,0.1-0.1,0.3c-0.5,0.4-0.8,0.7,0,2.5
			c-0.4,0.1-0.8-0.2-1.2,0c0,0.1-0.1,0.3-0.1,0.4c0.7,1.7,1.4,3.3,0.7,6.6c-0.1,0.3-0.2,0.5-0.3,0.8c-0.6,0-1.2,0.4-1.3,0.6l0,0.2
			c0.1,0,0.3,0,0.4,0c0.1,0.1,0.1,0.3,0.1,0.4c0.4,0.3,1.6,1.2,3,0c0.9-1,1.3-0.9,3.4-0.5c0.3,0,0.5,0.1,1.3-0.6
			c0.9-0.8,1.9-1.2,2.3-1.3c0.4-0.1,0.5,0,0.7,0.2c1.5-0.1,2.5-2.2,4.3-1.1c0.4,0.3,0.4,0.3,0.9,0.3c0.1,0,0.2,0,0.4,0
			c0.4,0,0.4,0,0.6,0.1c0,0.4-0.2,0.8-0.3,1.2c0.1,0,0.3,0,0.4,0.1c0,0,0,0-0.7,1.4l0.1,0.2c0.8-0.1,2.8-1.9,2.8-1.9l0.2,0.1l0,0.2
			c-0.4,0.5-1,0.8-1.4,1.4l0.2-0.1c0.3-0.3,0.3-0.3,0.7-0.2c-0.1,0.2-0.3,0.4-0.5,0.6l-0.2,0.1l-0.1,0.2c-0.3,0.3-0.3,0.3-0.5,0.5
			c0.3-0.1,0.5-0.5,0.9-0.4c-0.1,0.2-0.2,0.3-0.3,0.5l0.1,0.2l0,0.2l-0.1,0.2c0,0-0.1,0.1-0.2,0.2c-0.7,0.7-0.7,0.7-0.4,1.2
			c0.5,0,0.5,0,0.6,0c0,0.1,0,0.3,0.1,0.4c0.7,0.3,1.5-0.5,1.8-0.8c0.1,0,0.2,0,0.4,0.1c-0.1,0.2-0.3,0.4-0.5,0.7l0.2,0.1
			c3.6-1.2,3.6-1.2,5.6-2.9c0,0,0.1-0.1,0.2-0.3C561.4,658.7,564.6,657.2,567,654.7 M585,631.5L585,631.5l0.1-0.1l0-0.2l0-0.1l0-0.1
			l0,0l-0.1,0l0,0c-0.1-0.1-0.1-0.1-0.2-0.1c-0.1,0-0.2,0.1-0.2,0.1c0,0.2-0.1,0.3-0.2,0.5c0,0,0,0.1,0,0.2c0,0.1,0.1,0.1,0.2,0.1
			l0.1,0C584.9,631.6,584.9,631.6,585,631.5 M583,628.3L583,628.3c0-0.1,0.1-0.2,0.1-0.2c0-0.1,0-0.2,0-0.3c0-0.1,0.1-0.2,0.1-0.3
			l0-0.1l-0.1-0.3c0,0-0.1-0.3-0.2-0.3c-0.1,0,0-0.1,0-0.2c0.1-0.1,0.1-0.3,0.1-0.4l-0.2,0l-0.2,0.1c0,0.4,0,0.4-0.1,0.6
			c0,0.1-0.1,0.2-0.1,0.3l0.1,0.3c0,0.1,0.1,0.1,0.1,0.2c0.1,0.2,0,0.3,0,0.5l0.1,0.1l0.1,0L583,628.3 M581.4,625c0-0.1,0-0.2,0-0.3
			c-0.1,0.1-0.3,0-0.4,0.1l-0.4,0.3c-0.2,0.2-0.1,0.4-0.2,0.6l-0.3,0.5l0,0c0,0,0,0-1,0.1l-0.2,0l-0.2,0c-0.2,0-0.4,0-0.6,0
			l-0.2-0.1c-0.1,0.2-0.2,0.3-0.2,0.5c-0.1,0.2-0.1,0.4-0.1,0.5l-0.1,0.1c0.2,0,0.4-0.1,0.7-0.1c0.2,0,0.3,0.1,0.5,0.1l0.7-0.1
			c0.2-0.1,0.3-0.2,0.3-0.3c0.1-0.1,0.1-0.1,0.1-0.1c0.2,0,0.2,0,0.4-0.1l0,0l0.1-0.1c0,0,0.2-0.3,0.4-0.5c0.1-0.2,0.2-0.4,0.3-0.6
			c0.1-0.1,0.2-0.2,0.3-0.4C581.3,625.2,581.4,625.1,581.4,625 M560.2,630.6c0.1-0.2,0.1-0.6,0.1-0.7c0-0.1-0.1-0.2-0.1-0.3
			c-0.6,0.3-0.9,0.6-0.9,0.6c0,0-0.2,0.5-0.2,0.7c0,0.1,0,0.2,0,0.3c0.2,0,0.5,0,0.7,0C559.9,631,560.1,630.8,560.2,630.6
			 M554.4,630.5L554.4,630.5l-0.1-0.3c-0.4,0-0.8,0-1.1,0c0,0.1-0.1,0.2-0.1,0.3c0,0.1,0.1,0.1,0.1,0.2l0,0l0.2,0
			c0.1,0,0.1,0,0.2-0.1c0.2-0.1,0.3,0,0.4,0.1l0.1,0C554.2,630.7,554.3,630.6,554.4,630.5 M564.1,627.4l0-0.1c0-0.1-0.1-0.1-0.2-0.2
			c-0.1,0.1-0.3,0.2-0.4,0.3l-0.2,0.2l-0.2,0.1l0,0c-0.1,0.1-0.1,0.2-0.1,0.3c0,0.1-0.1,0.2-0.1,0.3c-0.1,0.1-0.1,0.2-0.2,0.3
			c0,0.1-0.1,0.1-0.2,0.2l0,0.1l0.1,0c0.1,0,0.3,0,0.4,0l0.1,0c0,0,0.1,0,0.2-0.2c0.1-0.1,0.1-0.2,0.1-0.3c0.1-0.2,0.2-0.3,0.3-0.5
			l0.1-0.1C564,627.6,564.1,627.5,564.1,627.4 M577.2,633.2c0.1-0.3,0.2-0.5,0.3-0.9c0-0.3-0.1-0.3-0.4-0.4
			c-0.1-0.2,0.1-0.5-0.2-0.7l-1.2-0.3c0.2-0.6,0.4-1.1,0.6-1.7c-0.4,0-0.5,0-0.8,0c0.1-0.4,0.3-0.8,0.5-1.3c0.3,0,0.4,0,0.7,0
			c0-0.1,0.1-0.3,0.1-0.5c-0.2-0.1-0.2-0.4-0.3-0.5c-0.1,0-0.3,0-0.5,0c-0.2,0-0.4,0-0.5,0c-0.1-0.4-0.1-0.8-0.1-1.2l0-0.1l-0.1-0.1
			c-0.1-0.1-0.1-0.1-0.5-1c-0.2-0.5-0.8-0.1-1.1-0.4c-0.1-0.1-0.1-0.1-0.1-0.3l-0.1-0.1c-0.2,0-0.2,0-0.5-0.1
			c-0.3-0.1-0.5-0.5-0.8-0.6c-0.3-0.1-0.7,0.1-1,0l-0.1,0h0h0l0,0h0h0h0l0,0h0l0,0h0h0h0h0h0h0l-0.1,0c-0.8,0-1.1-1-1.8-1.2
			c-0.1,0-0.1,0-0.7,0.5c-0.3,0.2-0.7,0-1,0.2c-0.5,0.3-0.5,0.4-0.5,0.6c-0.1,0.9-0.7,0.9-1.6,0.8c-0.5,0-0.1-0.7-0.5-0.8
			c-0.4-0.1-0.6,0.2-1,0.3c-0.5,0-1,0-1.4,0c0,0.2-0.1,0.4-0.1,0.6c0.4,0.2,0.4,0.2,0.2,1.1c0.1,0,0.2,0,0.4-0.1l0-0.2
			c0.2-0.1,0.3-0.2,0.5-0.3c0.5,0.2,1.1,0.1,1.5,0.6c0.4,0.6,0.4,0.6,0.5,0.6c0.9-0.2,1.9,0.2,2.2,0.8c0.6,1.1,0.6,1.5,0.6,1.7
			c-0.2,0.7-0.3,0.8-0.6,1c-0.4,0.2-0.9,0.3-1.2,0.7c-0.1,0.1-0.1,0.1-0.1,0.5c0,0,0,0.8,1.2-0.1c0.2-0.3,0.3-0.7,0.8-0.5
			c0.2,0.1,0.3,0.2,0.3,0.3c0.1,0.4,0.2,0.4,0.5,0.6c0.3,0.1,0.5,0.3,0.7,0.5c0.3,0.2,1.2,0.2,1.5,0.1l0.4-0.3
			c0.2-0.2,0.2-0.6,0.4-0.8c0.8,0,1-0.9,1.7-1.1l0.1,0c0.1,0,0.9,0.5,1,0.7c0.4,0.8,0.2,1.6,0.4,2.4l0.1,0c0.1,0,0.7-0.1,1.2-0.2
			c0.2,0,0.2,0,0.4,0.6C576.7,633.4,576.9,633.3,577.2,633.2 M554.7,623L554.7,623L554.7,623c-0.1-0.1-0.1-0.1,0-0.6
			c-0.1,0-0.2,0-0.4,0c-0.2,0-0.5,0-0.7,0l-0.1,0.1c0,0.1,0,0.1-0.1,0.1l-0.2,0l0,0c-0.1,0.1-0.1,0.2-0.1,0.3
			c0.1,0.1,0.1,0.2,0.2,0.2c0.1,0,0.2,0,0.2,0c0.1,0,0.2,0,0.3,0c0.2,0,0.3,0.1,0.5,0.1C554.4,623,554.5,623,554.7,623 M567.1,622.5
			c0-0.1,0-0.2,0.1-0.3c-0.2,0-0.3,0-0.5,0c0.2-0.6,0.2-0.6,0.1-0.7l0-0.2c0-0.1,0.1-0.2,0.1-0.3c-0.2,0-0.3,0-0.4,0
			c-0.1,0-0.2,0-0.3,0c0,0,0,0.3,0,0.5l0,0.2c0,0.3-0.1,0.5-0.2,0.8C566.3,622.5,566.7,622.5,567.1,622.5 M561,621.7L561,621.7
			L561,621.7L561,621.7 M564.3,622.7L564.3,622.7c0-0.1,0.1-0.2,0-0.3c0-0.1-0.2,0-0.2-0.1c0-0.2,0-0.3,0.1-0.5
			c0.2-0.6,0.2-0.7,0.1-0.8c-0.1-0.3-0.9-0.3-0.9-0.3c-0.4,0-0.7,0.4-1,0.4c-0.2,0-0.5,0-0.8,0c-0.1,0-0.4,0.2-0.5,0.4l0.1-0.1
			c-0.1,0-0.2,0-0.3,0c-0.1,0-0.1,0-0.5,0.3c0,0.1,0,0.2,0,0.3c0.2,0,0.3,0.1,0.5,0.2c0.1,0.1,0.1,0.1,0.5,0.1
			c0.4-0.1,0.4,0.3,0.4,0.3c0,0.6,0,0.6,0.2,0.5l0.1,0c0.1,0,0.2,0,0.2,0c0,0,0.3,0,0.5-0.2c0.2,0,0.4,0.1,0.6,0.1
			c0.2,0,0.4,0,0.6,0C564.2,622.8,564.2,622.7,564.3,622.7 M561.4,620.2c0,0,0-0.2,0-0.3l-0.3-0.2l-0.1,0c-0.1,0-0.2,0-0.2,0l-0.2,0
			l-0.1,0c0,0.1,0,0.2-0.1,0.3c-0.1,0.1-0.1,0.2-0.2,0.3l-0.1,0.2c0.4,0.3,0.4,0.3,0.4,0.3l0.4,0C561,620.8,561.4,620.5,561.4,620.2
			 M560.1,623.3c0.1-0.3,0.1-0.6,0.2-0.9c-0.2,0-0.5,0-0.7,0c0,0.1,0,0.3-0.1,0.4l-0.1-0.3c0,0.1,0,0.2-0.1,0.3c0,0.1,0,0.3,0,0.4
			C559.8,623.3,559.9,623.3,560.1,623.3 M560,625.1L560,625.1c0.1-0.5,0.1-0.5,0.2-0.8c-0.3,0-0.6,0-0.8-0.1c-0.2,0-0.3-0.1-0.5-0.1
			c-0.1,0-0.2,0-0.2,0c-0.4,0-0.8-0.3-1.2-0.2c-0.2,0-0.2,0-0.5,0.6c0-0.1,0-0.2,0-0.3c0,0.1-0.1,0.2-0.1,0.3c0,0.1,0.1,0.1,0.1,0.2
			c0.2,0,0.5,0,0.7,0c0.2,0,0.3-0.1,0.5-0.1c0.1,0,0.1,0.1,0.2,0.1l0.2,0c0,0,0.1,0,0.7,0.2c0.1,0,0.1,0.2,0.2,0.2
			C559.6,625.2,559.6,625.2,560,625.1 M556,625.3c0-0.2,0.1-0.3,0.1-0.5l0-0.1c0-0.1,0-0.1-0.1-0.2c0,0-0.1,0-0.2-0.1
			c-0.1,0-0.2,0-0.4-0.1c-0.1,0-0.2-0.1-0.4-0.1l-0.1,0c-0.1,0.2-0.1,0.4-0.2,0.6c0.1,0.1,0.1,0.2,0.1,0.3c0.3,0.2,0.3,0.2,0.5,0.2
			C555.6,625.3,555.8,625.3,556,625.3 M559.1,619.7c0-0.2,0-0.3-0.1-0.4c-0.1-0.1-0.2-0.1-0.3-0.2l0,0l0-0.2c0-0.1,0-0.1,0.1-0.5
			c-0.2-0.1-0.2-0.1-0.8,0c0-0.1,0-0.3,0.1-0.4c0.1-0.3,0.2-0.4,0.2-0.4l0.1-0.1c0-0.1,0-0.1,0.1-0.6c-0.3,0.3-0.3,0.3-0.9,1
			c-0.1,0.1-0.1,0.1-0.3,0.1c-0.1,0-0.1,0-0.2,0.3l0,0.1c0,0.2,0.1,0.5,0,0.7l-0.2,0.8c0,0.1,0,0.1-0.1,0.2
			c-0.2,0.2-0.3,0.6-0.3,0.6l-0.1,0.9c0.1,0,0.2,0,0.2,0c0.1,0,0.1,0.1,0.2,0.1c0.1,0,0.1,0,0.5-0.2c0.2-0.7,0.2-0.7,0.2-1.5
			c0.4-0.2,1-0.1,1.2,0C559,619.9,559.1,619.8,559.1,619.7 M552.1,622.2c0.1-0.5-0.9-1.2-0.9-1.2c-0.1,0-0.2,0-0.3,0l-0.2,0
			c0,0-0.4,0.1-0.5,0.3c0,0-0.4,0.6-0.9,0.7c-0.2,0-0.8-0.1-0.8-0.1c-0.2-0.1-0.4-0.2-0.6-0.3c-0.1,0-0.2,0-0.3,0
			c-0.1,0-0.7,0.7-0.7,1.1c0,0.2,0,0.2-0.1,0.2l-0.1,0.1c-0.1,0.1-0.1,0.5-0.1,0.5c0,0.2,0,0.2-0.3,0.4l-0.3,0l-0.1,0.1
			c-0.6,0.6-0.6,1.3,0.8,1.3c0,0.1,0,0.1,0,0.2c0.1,0.5-0.4,0.8-0.5,1.3c0,0.3,0,0.3,0,0.3l0.1,0.1c0.1,0,0.1,0,0.2,0.7
			c0.4-0.3,0.6-0.4,0.6-0.4s0-0.1,0.1-0.2c0.1-0.3,0.1-0.6,0.2-0.9c0-0.1,0.1-0.2,0.2-0.3c0.1-0.6,0.2-1.2,0.3-1.8
			c0.3,0,0.5,0,0.8,0c0,0.2-0.1,0.4-0.1,0.6l-0.2,0.3c0,0.1,0,0.2,0,0.3c1,0.3,1,0.3,1.2,0.2c0,0.2-0.1,0.4-0.1,0.6
			c-0.1,0.2-0.2,0.3-0.3,0.5c0,0.1,0,0.2-0.1,0.3c0,0.2-0.1,0.6,0.5,0.6c0.3,0,0.5,0,0.8,0c0-0.1,0.1-0.2,0.1-0.3
			c0-0.1,0-0.3,0.1-0.4c0-0.2,0.1-0.6,0.1-0.7c0-0.1-0.2-0.1-0.3-0.2c-0.1-0.1-0.1-0.2-0.2-0.2c-0.3-0.4-0.3-0.4-0.1-1
			c0-0.1,0-0.2,0-0.3c0.1-0.3,0.1-0.3-0.4-0.8c-0.1-0.2-0.4-0.1-0.5-0.2l0-0.3c0-0.1,0.1-0.3,0.1-0.5c0.2,0,0.5,0,0.7,0
			c0.3,0,0.5-0.3,0.8-0.3c0.3,0,0.6,0.1,0.9,0l0,0C552,622.4,552.1,622.3,552.1,622.2 M554.6,618.5L554.6,618.5
			c-0.1-0.1-0.1-0.1-0.2-0.1c-0.3,0-0.3,0-0.5,0.4c-1.4,0-2.9,0.1-4.3,0.1c-0.3,0.1-0.4,0.5-0.8,0.6c-0.9,0.1-0.9,0.1-0.9,0.2
			c-0.1,0-0.2,0.1-0.2,0.1c-0.4,0.3-0.4,0.7-0.3,1.1c0.4-0.2,0.7-0.3,1.1-0.5c0.1-0.1,0.2-0.3,0.3-0.3c0.5-0.3,0.5-0.3,0.6-0.3
			c0.1,0,0.1,0,0.2,0c0.1-0.1,0.2-0.2,0.2-0.3l0.5,0.1c0.5,0,1.1,0,1.6,0c0.1,0,0.5,0.2,0.6,0.3c0.1,0.1,0.1,0.2,0.2,0.2
			c0.3,0,0.4-0.1,0.6-0.2c0.1-0.1,0.2-0.3,0.4-0.3l0.1,0C554,619.4,554.4,619.2,554.6,618.5 M550.2,633.4L550.2,633.4L550.2,633.4
			 M554.9,631.6L554.9,631.6l-0.2-0.2c-0.1-0.1-0.1-0.2-0.2-0.3c-0.1,0-0.3-0.1-0.6-0.1c-0.3,0-0.4,0.1-0.5,0.2
			c-0.1,0.1-0.1,0.1-0.5,0.2c-0.2,0.1-0.3,0.2-0.5,0.3c-0.2,0-0.3,0.1-0.5,0.1c-0.1,0-0.1,0.1-0.1,0.1c0,0.1,0,0.2-0.3,0.2
			c-0.6,0-0.6,0-0.6,0c-0.1,0.1-0.2,0.2-0.3,0.3c-0.2,0.1-0.4,0.3-0.4,0.3l-0.1,0.1l0,0.1l0,0.1l0-0.1c-0.1,0.4-0.1,0.4,0,0.5
			c0,0,0.6,0.3,0.8,0.2c0.1,0,0.1-0.1,0.2-0.3c0.1-0.1,1-0.9,1-0.9c0.3-0.2,0.7-0.1,1-0.3c0.2-0.1,0.3-0.3,0.5-0.4
			c0,0,0.3-0.1,0.6-0.1C554.8,631.8,554.8,631.8,554.9,631.6L554.9,631.6 M549.6,634.9c0-0.1,0.1-0.3,0.1-0.4l-0.1-0.3
			c-0.2,0-0.2,0-0.8,0.3c0,0.3,0,0.3,0,0.4C549.1,634.9,549.4,634.9,549.6,634.9 M551.8,631.2L551.8,631.2c0-0.1,0-0.2,0-0.3h-0.2
			c-0.1,0-0.1,0-0.2,0.1c-0.1,0.1-0.1,0.1-0.2,0.1c0,0,0,0-0.5,0c-0.2,0-0.5,0.1-0.7,0.1c-0.1,0-0.2,0-0.2,0c-0.3,0-0.6,0.2-0.9,0.2
			c-0.1,0-0.4,0-0.5-0.1c-0.3-0.4-1.2-0.3-1.6-0.1c-0.2,0.1-0.3,0.2-0.5,0.3c-0.1,0-0.2,0-0.3,0c0.2,0.1,0.2,0.4,0.5,0.5
			c0.1,0,0.1,0,1.4,0l0.2,0c1.1,0,1.1,0,1.1,0c0.3-0.1,0.5-0.1,0.8-0.2l0.1-0.1c0.1-0.1,0.2-0.2,0.4-0.3l0.4,0
			C551.5,631.4,551.5,631.4,551.8,631.2 M546.9,633.8l0.1,0c0-0.1,0-0.2,0-0.3c-0.4-0.1-0.5-0.1-0.5-0.2c0-0.1,0-0.2,0-0.3l-0.1,0
			l-0.4-0.1c-0.1-0.1-0.1-0.2-0.1-0.2c-0.2,0-0.3-0.1-0.4-0.1c-0.1,0-0.1,0-0.6,0.3c0.1,0.3,0.1,0.3,0.2,0.3
			c0.1,0.1,0.1,0.2,0.2,0.3c0,0.1,0,0.2,0.1,0.3C545.7,633.9,545.8,633.8,546.9,633.8 M545.4,631.7L545.4,631.7L545.4,631.7
			c-0.1-0.1,0-0.2,0-0.3c-0.5,0-0.5,0-0.6-0.1l-0.1,0l0,0c-0.1,0-0.1,0-0.2,0c-0.1,0-0.3-0.1-0.4-0.1c-0.1,0-0.2,0-0.4,0
			c-0.1,0-0.1,0-0.2,0.1c-0.1,0.1-0.2,0.2-0.3,0.2l0,0c-0.2,0.1-0.4-0.1-0.7,0c-0.1,0-0.2,0.1-0.2,0.1c-0.2,0.2,0.1,0.5,0.4,0.5
			c0.1,0,0.9,0,0.9,0c0,0,0.3-0.1,0.5-0.3c0.1-0.1,0.1-0.1,0.2-0.2c0.2,0,0.3,0.1,0.5,0.1C544.9,631.8,544.9,631.8,545.4,631.7
			 M541.2,632L541.2,632c-0.2-0.6-0.2-0.8-0.5-0.8c-0.3,0-0.4-0.2-0.5-0.5c-0.7,0-1.3,0-2,0c0.1-0.8,1-0.6,1.5-0.9
			c-0.3,0-0.6-0.2-0.9-0.2l-1.3-0.1c-0.7-0.1-1.4-0.4-2.1-0.5c-2,0.1-4.8,0.2-6.8,0.3c0,0.1,0,0.2,0,0.3c0.3,0,0.5,0,0.8,0
			c0,0.2,0,0.4,0,0.6c0.7,0,0.7,0,0.7,0c0.3,0.2,0.4,0.6,0.9,0.7c0.5,0.1,1-0.3,1.5-0.3c0.4,0,0.8-0.2,1.2-0.1
			c0.2,0.1,0.2,0.4,0.4,0.4c0.5,0.1,1.1-0.3,1.6,0.1c0.7,0.5,0.7,0.5,1.5,0.6c0.1-0.4,0.1-0.5,0.2-0.5c0.3-0.1,0.4,0.2,0.7,0.2
			c0.1,0,0.2,0,0.3,0c0.9-0.4,1.4,0.7,2.2,0.7c0.1,0,0.2,0,0.3,0L541.2,632 M524.7,628.2c0-0.1,0-0.2,0-0.3l-0.1-0.2
			c0-0.1,0-0.2,0-0.3c-0.1,0.1-0.2,0.1-0.2,0.3c0,0.1,0,0.2,0,0.3L524.7,628.2 M547.8,613.7L547.8,613.7c0-0.6,0-0.6-0.1-0.7
			c-0.2-0.1-1.1-0.1-1.1-0.1c-0.2,0-0.7-0.4-0.7-0.4c0-0.2,0.1-0.4,0.1-0.6l-0.4-0.7l-0.6-0.2c-0.3,0.8-1.2,1-1.7,1.6
			c-0.5,0.5-0.6,1.3-1.2,1.8c-0.4,0.3-1,0.1-1.3,0.4c-0.3,0.3-0.7,0.6-0.8,1l-0.1,0.2c-0.4,0.3-0.7,0.7-1.2,0.9
			c-0.3,0.2-0.5,0.2-1.1,0.2c0,0.5-0.1,1-0.2,1.5c-0.5-0.1-1,0.2-1.5,0.1c-0.2,0-0.3-0.1-0.5-0.5l-0.3-0.1c-0.1,0-0.2,0-0.3,0
			c-0.1,0-0.2,0-0.3,0.1c0,0.7,0,0.7-0.1,0.9c-0.1,0.2-0.4,0.3-0.4,0.5l-0.2,1.2c-0.1,1,1.4,0.9,1.2,2l0.1,0.1c0,0.1,0,0.2,0,0.3
			c-0.2,0.7-0.3,1,0,1.3c0.5,0.5,1.1,0.1,1.7,0.3c0.1,0.5,0.3,0.6,0.5,0.7c0.7,0.2,1.3-0.5,2-0.4l0.1,0c0.1,0,0.1,0,0.4,0.5
			c0.2,0.3,0.5-0.2,0.8-0.1c0.1,0,0.3,0.2,0.4,0.4c0.1,0.1,0.1,0.1,0.3,0.2c0.2,0,0.2,0,0.5,0c0.1,0,0.2,0,0.4,0l0.1-0.1
			c0-0.2,0-0.4,0.1-0.6c0-0.1,0-0.1,0.6-0.5c0.4-0.3,0.3-0.8,0.2-1c-0.1-0.1-0.2-0.4-0.2-0.4l0.8-1c0.2-0.2,0.2-0.3,0.5-1.1
			c0.3,0,0.5,0,0.8,0c0.1-0.5,0.1-1,0.2-1.5c2.3,0,1.6-0.9,1.5-0.9c-0.4,0-0.4,0-1.1,0c-0.1-0.3-0.1-0.3,0.1-0.7
			c0-0.1,0-0.3,0.1-0.5c0.1-0.4-0.2-0.8-0.2-1.2c0-0.5,0.1-1,0.1-1.5c0.6,0,0.6,0,1,0C546.6,614.3,546.6,614.1,547.8,613.7
			 M522.6,625.6c0-0.4,0-0.7,0.1-1.1c-0.1,0-0.2-0.1-0.2-0.1c-0.1-0.1-0.1-0.2-0.2-0.3c0,0-0.3-0.1-0.5-0.1
			c-0.5,0.1-0.7-0.7-0.7-0.7c-0.1-0.4,0.1-0.8,0-1.1c-0.1-0.1-0.1-0.1-0.6-0.3c-0.3,0.6-0.2,1-0.2,1.1c0.2,0.4,1.2,1.8,1.4,1.8
			c0.3,0.1,0.3,0.1,0.5,0.3C522.1,625.6,522.3,625.6,522.6,625.6 M518.1,619.4L518.1,619.4l-0.1-0.2
			C518,619.2,518.1,619.3,518.1,619.4L518.1,619.4 M519.4,620.5l0-0.3c0-0.3-0.1-0.5-0.1-0.6c-0.1-0.1-0.2-0.1-0.3-0.2
			c-0.1-0.1-0.2-0.3-0.4-0.5l-0.1-0.1c-0.1-0.1-0.2-0.1-0.4-0.1l0,0c-0.2,0.3-0.2,0.4,0.3,0.9c0.1,0.1,0.2,0.2,0.3,0.2
			c0.1,0.1,0.2,0.1,0.3,0.2c0.1,0.1,0.2,0.3,0.2,0.4l0,0.1L519.4,620.5 M517.4,618c0-0.1,0.1-0.2,0.1-0.3c-0.1-0.1-0.3-0.1-0.4-0.3
			l-0.1-0.2c0-0.1,0-0.1-0.1-0.3l-0.3-0.2c0,0.1-0.1,0.2-0.1,0.3c0,0.1,0.1,0.1,0.1,0.2l0,0.2l0,0.2l0,0.2l0,0l0,0
			c0,0.1,0.2,0.1,0.3,0.1h0h0h0h0h0h0h0h0L517.4,618 M531,624.7c0,0-0.1-0.7-0.6-0.7c-0.5,0-0.5-0.1-0.1-0.7l0-0.1
			c0,0-1.3-1.2-1.7,0.3c-0.3,0-0.5,0-0.8-0.1c0-0.4,0.4-0.9-0.1-1.2c-0.1,0-0.2,0-0.3,0c-0.6,0-0.6,0-0.7,0c0,0-0.8-0.6-0.8-0.8
			c0-0.5,0-0.9,0-1.4c-1,0.1-1,0.1-1.5-0.4c-0.4-0.4-0.1-1-0.4-1.5c-0.1,0-0.2,0.1-0.3,0.1c-0.1,0-0.2,0-0.3,0c-0.4,0-0.8,0-1.2-0.6
			l-0.1-0.3c-0.6-0.2-0.8-0.8-1.2-1.1c-0.8-0.6-0.8-0.6-0.9-0.7c-0.2,0-0.4,0-0.5-0.1c-0.2-0.2,0-0.4-0.1-0.6
			c-0.2,0-0.5-0.1-0.9-1.1c-0.5,0-0.8,0.4-1.3,0.3c-0.6-0.1-0.9-0.7-1.5-0.9c-0.6,0.2-0.3,0.6,0.5,1.6c0.4,0.6,1.2,0.8,1.6,1.4
			c0.4,0.6,0.4,0.6,0.6,1.1c0.2,0.5,0.2,0.6,0.7,0.6c0.4,0,0.6,0.2,0.7,0.3c0.3,0.4,0.3,0.4,0.3,1.4c0,0.1,0,0.2,0,0.3
			c0.3,0.9,1.4,1.1,1.8,1.8c0.3,0.4,0.7,0.8,0.8,1.2c0.2,0.5,0.2,1.1,0.4,1.5c0.5,0.8,1.3,1.3,1.9,2c0.7,0.9,0.7,0.9,0.9,1.1
			c0.8,0.6,0.8,0.7,0.9,1l1.7-0.2c0.1,0,0.5-0.5,0.5-0.5c0-0.1,0-0.2,0-0.3c0.1-0.8,0.1-0.8,0.2-1.6c0-0.1,0-0.2,0-0.3
			c0.2-0.7,1-0.3,1.5-0.6L531,624.7 M556.9,610.9l0.2-0.3l-0.2-0.6c0.1-0.7,0.1-1.5,0.2-2.2c0-0.2-0.1-0.9-0.6-1
			c-0.1,0-0.2,0.1-0.3,0.3c-0.1,0.2-0.1,0.5-0.3,0.7c0,0-0.4,0.3-0.6,0.2c-0.2-0.1-0.5,0.2-0.7,0.5c-0.1,0.4-0.1,0.5-0.8,0.5
			c-0.2,0,0-0.3-0.1-0.5c-0.2,0-0.6,0.1-0.8,0.2l0,0.3c-0.2,0.2-0.3,0.2-0.6,0.2c-0.6,0-0.8,0.7-0.8,0.7c0,0.5-0.1,1-0.1,1.5
			c0.1,0.1,0.2,0.2,0.2,0.2c0.1-0.1,0.2-0.2,0.2-0.3c0-0.1,0-0.2,0-0.3c0-0.1,0-0.2,0-0.3c0-0.3,0-0.3,0-0.3l0.6-0.3
			c0.2-0.1,0.2-0.1,1.3,0c0,0.2,0,0.4-0.1,0.6c-0.1,0.7-0.1,0.7,0.1,0.9l0.1,0.1c0.1,0.1,0.3,0,0.4,0.1c0.2,0.1,0.2,0.2,0.4,0.3
			c0.1,0.1,0.1,0.1,0.4,0.1c0.1,0,0.1,0,0.3,0.3c0,0.1,0,0.2,0,0.3c0.1,0,0.2-0.1,0.2,0c0.1,0,0.1,0.2,0.2,0.2l0.3-0.1
			c0-0.2,0-0.4,0.1-0.6c0-0.3-0.1-0.4-0.2-0.4c-0.1,0-0.1,0-0.2-0.9c0.1-0.1,0.1-0.2,0.2-0.2c0.1,0,0.1,0,0.3,0.1
			C556.3,610.8,556.6,610.9,556.9,610.9L556.9,610.9 M554,607.2c0-0.3,0-0.6,0.1-0.9c0-0.2-0.1-0.4-0.3-0.5
			c-0.3-0.1-0.3-0.1-0.5-0.2c-0.2-0.2,0.1-0.6-0.2-0.8c0,0-0.3-0.3-0.6-0.3c-0.1,0-0.1,0-0.2-0.1c-0.1-0.1-0.1-0.3-0.1-0.4
			c-0.1-0.1-0.1-0.2,0-0.5c0-0.3,0-0.4-0.4-0.9c-0.2-0.3-0.6-0.3-0.8-0.6c-0.1-0.2-0.2-0.3-0.4-0.5l0,0c0,0,0,0-0.5-0.1
			c-0.2,1.2,0.2,1.2,1.1,1.2c-0.1,0.9-0.1,0.9,0.1,1.1c0,0,0.2,0.6,0.1,1c-0.1,0.5-0.1,0.5-0.1,0.5c0.3,0.9,1,0.7,1.3,0.7
			c0,0.1-0.2,0.2-0.2,0.3l-0.2,0.6c0,0.1,0,0.3,0.1,0.4c0.5,0.4,1,0.2,1,0.2c0.1-0.1-0.1-0.3,0.1-0.3
			C553.5,607.2,553.5,607.2,554,607.2 M556.5,604.6L556.5,604.6c-0.1-0.7-0.1-1-0.4-1.2c-0.2-0.2-0.2-0.2-0.2-0.3
			c0-0.1,0-0.1-0.1-0.3c-0.3-0.7-0.8-0.8-0.8-0.8c-0.1,0-0.1,0-0.1,0c0-0.1-0.1-0.2-0.1-0.3c0-0.1,0.1-0.2,0.1-0.3
			c0-0.3,0-0.6,0-0.9c-0.1,0-0.2,0.1-0.3,0.1c-0.1,0-0.2-0.1-0.3-0.1c-0.1,0-0.2,0-0.2,0c-0.1,0-0.2,0-0.2,0c-0.3,0-0.4,0.2-0.4,0.2
			c0,0.1,0,0.2-0.3,0.3c0,0-0.8,0.2-0.9,0.2c0.2,0.2,0.8,0.7,0.8,0.7c0.3,0.2,0.3,0.2,0.4,0.1l0.1,0c0,0.1,0,0.2,0,0.3
			c0.1,0.1,0.3,0.2,0.5,0.3c0.2,0.3,0,0.7,0.2,1c0.1,0.1,0.2,0.1,0.3,0.1c0.2,0.1,0.3,0.4,0.5,0.5c0,0,0.1,0,0.1,0.1
			c0.1,0,0.1,0,0.2,0.3c0.1,0.2,0.1,0.2,0.1,0.8c0.4,0,0.7,0,1.1,0C556.5,605.2,556.5,605.2,556.5,604.6 M549.5,602.9l0-0.1
			c-0.1,0.3-0.1,0.3-0.3,0.5c-0.4,0.5-0.4,0.5-0.4,0.7c0,0.1,0,0.1-0.4,0.8c-0.1,0.1-0.2,0.1-0.3,0.2c-0.1,0.2-0.2,0.5-0.3,0.6
			c-0.1,0.1-0.2,0.1-0.2,0.1c-0.1,0.1-0.1,0.1,0,0.2c0,0,0,0.4-0.1,0.5c-0.1,0.1-0.2,0.2-0.3,0.4c-0.1,0.1-0.1,0.3-0.3,0.4
			c-0.2,0.1-0.4,0.1-0.6,0.2c0,0.2-0.2,0.7-0.8,0.6c-0.2,0-0.4,0.4-0.6,0.9l0.1,0c0.3,0.1,1.2-0.1,1.2-0.8c0,0,0-0.9,1.6-0.9
			c0.1-1.6,0.9-2,1-2c0.1,0,0.2-0.1,0.2-0.2L549.5,602.9 M552.6,596.2v-0.2c0-0.2,0-0.2,0-0.3l-0.1-0.2l-0.1-0.2l0-0.2l-0.1-0.2
			l-0.1-0.2l0-0.2l-0.1-0.2l-0.1-0.1l-0.2-0.2l-0.2-0.1l-0.1,0h0h0h0h0h0h0l0,0h0c-0.1,0-0.1,0-0.2,0l-0.1-0.1l-0.1-0.2
			c-0.3-0.2-0.3-0.2-0.4-0.2c-0.2,0-0.4,0-0.6,0l0,0.2l0,0.2l0,0.2l0,0.1l0,0.2v0.2c0.1,0.2,0.1,0.2,0.1,0.5v0.2l-0.1,0.2
			c-0.1,0.1-0.2,0.4-0.1,0.8c0.1,0.4,0.1,0.4-0.1,0.5c-0.2,0.2-0.5,0.3-0.7,0.5l-0.1,0.2v0.2l0,0.2c0,0,0.1,0.3,0.5,0.7
			c0.3,0.3,0.5,0.4,0.5,0.4l0.1,0.1l0.1,0c-0.4,0.8-0.1,1.1,0.1,1.2c0.1,0,0.2,0.1,0.4,0.1c0.2,0,0.4,0,0.6,0c0-0.2,0-0.3,0-0.5
			c0-0.1-0.1-0.2-0.1-0.4c0-0.2,0-0.5,0-0.7c0-0.3,0.4-0.6,0.5-0.7l0.1-0.1l0.1-0.2l0.1-0.2c0.3-0.5,0.4-1.1,0.4-1.1v-0.2
			L552.6,596.2 M551.9,584.6c0-0.1,0-0.2,0-0.3c0-0.1-0.1-0.1-0.1-0.2c0-0.1,0-0.3,0-0.4c-0.5,0-0.5,0-0.7,0c-0.2,0-0.2,0.2-0.3,0.4
			c-0.1,0.1-0.3,0.2-0.4,0.4l0,0c-0.2,0.2-0.2,0.4-0.3,0.7c-0.1,0-0.2,0.1-0.3,0.1c0,0-0.2,0.6-0.2,0.9c0,0.9,0.1,1.7,0.1,2.6
			c0.3,0,0.5,0,0.8,0c0-0.8,0-0.8,0.1-1.2c0-0.2,0.2-0.2,0.3-0.3c0.1-0.4,0.1-0.4,0.1-0.5c0-0.1,0-0.1,0-0.1
			c0.1-0.2,0.2-0.3,0.3-0.4c0.1-0.3,0.1-0.3,0.4-0.6c0,0,0.3-0.4,0.3-0.5C551.9,584.8,551.9,584.7,551.9,584.6 M574.3,551.5
			c0-0.1-0.1-0.2-0.1-0.3l-0.1,0c-0.4,0.2,0.1,0.7-0.2,1c-0.5,0.4-0.5,0.4-0.9,0.4c-0.1,0-0.1,0-0.2,0.1l-0.1,0.1
			c-0.1,0-0.1,0-0.3,0l-0.2,0c-0.2,0.3-0.4,0.8-0.6,0.7c0,0-0.4-0.2-0.7-0.3c-0.5-0.3-0.8-0.7-1.3-1c-0.4-0.3-0.9-0.3-1.3-0.5
			c-0.1,0.8,0.6,1.4,0.7,2.2c-0.5,0.5,0.2,1.3-0.3,1.8c-0.2-0.1-0.3-0.3-0.5-0.4c0,0.2,0,0.4,0,0.5l-0.1,0c-0.5,0.1-0.2,1.7,0.9,2.2
			c0,0,0.1,0,0.2,0l0.2-0.2c0.1,0.2,0.1,0.5,0.2,0.7c-0.3,0-0.5,0-0.8,0c0,0.2,0.1,0.4,0.1,0.6c0,0.1,0.1,0.2,0.1,0.4
			c0.2,0.4,0.1,0.8,0.2,1.1c0.1,0.3,0.2,0.6,0.3,1c0.3,0.9,0.2,0.9-0.3,1c-0.4,0.5-0.3,1.1-0.6,1.7c-0.2-0.3-0.1-0.7-0.3-1.1
			l-0.1,0.2c0.1,0.6,0.1,0.6,0.1,0.8c-0.3,0-0.5,0-0.8,0c0.1,0.4,0.2,0.7,0.3,1.1c-0.3,0-0.7,0.1-0.7-0.9c-0.1,0-0.2,0-0.2,0
			c-0.1,0.2-0.1,0.2,0,0.5l0,0c0.1,0.7,0.1,0.7-0.6,0.7c0.1,0.6,0.2,1.1,0.3,1.7l-0.5,0c-0.1,0-0.2-0.1-0.3-0.1
			c-0.3-0.6-0.6-0.5-0.6-0.5c-0.2,1-1.4,0.5-2.1,0.7c-1.2,0.4-1.2,0.4-0.9,1.8c-0.4,0-0.7,0-1.1,0.1c0,0.2,0,0.2,0.2,0.9
			c-0.4,0-0.8,0.2-0.8,0.3c-1,1.8,0.2,1.6,1.1,1.5l0-0.1c0.1,0.5,0.1,0.5-0.1,0.9c-0.2,0.6-0.5,1.7,0.5,1.7c0.1,0,0.3,0,0.5,0
			c-0.2-1.4-0.2-1.4,0.5-1.7c0.3-0.2,0.3-0.4,0.3-0.4c-0.1-0.6-0.5-1.1-0.5-1.7c-0.2,0-0.5,0.1-0.8,0c0-0.1,0-0.2-0.1-0.3
			c0.5-0.3,0.5-0.3,0.8-0.3c0.8,0.1,1-0.7,1.6-1c0.6-0.2,1.2,0,1.7-0.2l0.1-0.1c0,0.1-0.1,0.2-0.1,0.2c-0.2,0.1-0.5,0-0.8,0.1
			c-0.3,0.1-0.4,0.5-0.7,0.6l-0.1,0c-0.4,0-0.8,0-1.2,0c0.1,0.6,0.2,1.3,0.3,1.9c0.2,0,0.3,0,0.5,0c0.3-0.1,0.7-0.4,0.7-0.4
			c0.2-0.2,0.2-0.5,0.4-0.8c0.2-0.3,0.6,0,0.8-0.3c0.1-0.1,0-0.4,0-0.5c0.1-0.1,0.2-0.1,0.2-0.1c0.7,0.8,0.7,0.8,0.8,0.8
			c0.5,0,0.5-0.8,1-0.8c0.2-0.3,0.2-0.3-0.2-1.1l0.2-0.1c0.8,0,1.8,0,2.5-0.1c0.3-0.5,1.3-0.5,1.2-1.3c-0.1-0.5-0.2-0.9-0.3-1.4
			c0-0.4,0.1-0.8,0.2-1.2l-0.1-0.3c-0.1-0.2-0.1-0.4-0.2-0.6c0-0.1-0.1-0.3-0.1-0.4c-0.2-0.5-0.2-0.5,0.3-0.8c0-0.1,0.1-2.1-0.4-3
			c0,0-1.3-2.4-2.3-2.6c0-0.1-0.1-0.3-0.1-0.4c0.3,0,0.7,0,1,0l0.2-0.2c0,0,0.1,0,0.2,0c0.6,0.3,0.6,0.3,0.8,0.3
			c0.2,0.3,0.2,0.3,1.1,0.4c0-0.3,0-0.3-0.3-1.1c0.4,0,0.7,0,1.1-0.1c0.2-0.2,0.2-0.2,0.5-0.4c0-0.5-0.4-0.9-0.3-1.3
			c0.4-0.2,0.4-0.2,0.7-0.2c0.1-0.3,0.1-0.3,0.6-0.4c0.1,0,0.1,0,0.2,0c0.1,0,0.2-0.1,0.3-0.1C574.4,551.7,574.4,551.7,574.3,551.5
			 M575.3,549.9L575.3,549.9l-0.1,0c0,0-0.1,0-0.1,0.1c0,0.1,0,0.1-0.1,0.2c0,0.1,0,0.1-0.1,0.2c0,0.1,0,0.1-0.1,0.2
			c0.2,0.1,0.3,0.2,0.4,0.2c0.3,0,0.3,0,0.3-0.1c0-0.1-0.1-0.2-0.1-0.3C575.3,550.2,575.3,550,575.3,549.9 M576,543.1
			c0-0.1-0.1-0.1-0.1-0.2l-0.2,0c0,0,0,0,0.1,0.3c0,0.1,0,0.2,0,0.3c0,0.1,0.1,0.2,0.2,0.3c0,0.1,0,0.3,0,0.4c0,0.1,0,0.2,0.1,0.3
			l0.1,0l0,0c0,0,0-0.1,0-0.2c0-0.1,0-0.2-0.1-0.3c0-0.1,0-0.2,0-0.2l0-0.1c0-0.1-0.1-0.1-0.1-0.2C576,543.3,576,543.2,576,543.1
			L576,543.1 M578.4,536.1l-0.1-0.1c-0.2-0.3-0.2-0.3-0.3-0.3l-0.1,0l-0.1,0l-0.1,0h0c0,0,0,0,0.5,0.7c0.1,0,0.2,0,0.3,0
			L578.4,536.1 M577.8,536.6c0.1,0,0.2,0,0.3,0c0,0-0.2-0.3-0.3-0.4c-0.2-0.2-0.3-0.5-0.5-0.7c-0.3-0.3-0.5-0.5-0.8-0.7
			c0.1,0.2,0.3,0.4,0.4,0.6c0.1,0.1,0.2,0.1,0.2,0.2C577.3,535.9,577.6,536.3,577.8,536.6 M571.7,529.9l-0.2-0.3l-0.2-0.1l0,0
			l-0.1,0.1l-0.1,0l0,0c0,0.2,0.1,0.3,0.2,0.4c0.1,0.1,0.2,0.3,0.4,0.4l0.1,0l0.2-0.1c0,0,0,0-0.1-0.3l0-0.1L571.7,529.9
			 M571.2,522.6c-0.2-0.1-0.3-0.3-0.5-0.4c-0.1,0-0.1-0.1-0.2-0.1l-0.1-0.1l0,0l-0.1,0l-0.1-0.1l0,0l-0.1,0l0.1,0.2l0.4,0.3l0,0l0,0
			v0c0.1,0,0.2,0.1,0.2,0.2c0.1,0.1,0.1,0,0.1,0l0,0l-0.1-0.1L571.2,522.6L571.2,522.6L571.2,522.6L571.2,522.6 M555.1,512.4
			c-0.1-0.1-0.3-0.1-0.4-0.2c-0.3-0.1-0.5-0.3-0.6-0.3l-0.1,0l0,0c-0.2,0-0.3-0.2-0.5-0.2l0,0c0,0,0,0,0.1,0.1
			c0.1,0.1,0.2,0.1,0.3,0.2v0l-0.1,0c0.1,0.1,1.1,0.6,1.2,0.7l0.2-0.1l-0.2-0.1l-0.1-0.1l0,0l0.1,0L555.1,512.4L555.1,512.4
			L555.1,512.4L555.1,512.4 M539.3,508.9c-0.1-0.1-0.3-0.2-0.4-0.2c-0.1,0-0.2-0.1-0.2-0.1c-0.1-0.1-0.3,0-0.3,0l-0.1,0.1l-0.1,0
			l-0.1,0l-0.1,0l0,0c-0.2-0.1-0.4-0.2-0.6-0.3c-0.3,0-0.3,0-0.3,0l0,0l0.2,0.1l0,0c-0.2,0-0.2,0-1-0.3l0,0.1
			c0.3,0.2,0.6,0.3,0.9,0.5c0.2,0.1,0.4,0.1,0.6,0.2c0.1,0,0.2,0.1,0.3,0.1c0.1,0,0.1,0,0.1,0l0-0.1c0.1,0,0.5,0.2,0.5,0.2
			c0.1,0.1,0.1,0.1,0.2,0.1c0.4,0.1,0.4,0.1,0.4,0.1l0.1,0h0.1l0,0c0,0-0.1-0.1-0.2-0.2l-0.1,0L539.3,508.9 M539.8,511
			c-0.5-0.3-0.6-0.4-1-0.5h0c-0.1,0-0.2,0-0.3,0c-0.2-0.1-0.2-0.1-0.3-0.1c-0.1-0.1-0.1-0.1-0.2-0.1l0,0l-0.1,0c-0.2,0-0.2,0-0.2,0
			c0,0.1,0.1,0.1,0.2,0.2l-0.1,0c0,0.1,0.1,0.2,0.1,0.3l-0.1,0c0.2,0,0.5,0.1,0.5,0.1l0.1,0l0.2,0l0.2,0l0,0l0,0h0
			c0.2,0.1,0.5,0.2,0.7,0.2L539.8,511 M537,509.8l-0.2-0.1l0,0l-0.1,0c-0.1,0-0.2-0.1-0.3-0.1l-0.2,0l0.2,0.2l0.1,0.1l0.1,0.1
			c0.3,0.1,0.3,0.1,0.3,0.1l0.1,0l0,0l0-0.1L537,509.8 M535.9,508.2c-0.3-0.2-0.3-0.2-1.1-0.2l0,0l0,0c0.3,0.2,0.6,0.4,0.9,0.6
			c-0.2,0-0.2,0-0.2,0c-0.2-0.1-0.4-0.2-0.6-0.3c-0.2-0.1-0.4-0.3-0.7-0.4c0,0-0.3-0.1-0.5,0l0,0c0.2,0.1,0.3,0.2,0.5,0.3
			c-0.2,0-0.3,0-0.5,0c-0.2-0.1-0.4-0.2-0.6-0.3c-0.1,0-0.1-0.1-0.2-0.1l-0.1,0l-0.1,0l-0.1,0l0,0c-0.1,0-0.3,0-0.4,0
			c0.1,0.1,0.1,0.1,1.3,1l-0.2-0.1c0.1,0.1,0.3,0.2,0.4,0.2l0,0c0.2,0.1,0.4,0.1,0.6,0.2c0.2,0.1,0.4,0.2,0.6,0.3c0,0,0,0,0.3,0
			c-0.4-0.3-0.4-0.3-0.6-0.4c0.4,0.1,0.4,0.1,0.7,0.1l0,0h0l0,0h0l0,0h0h0h0l0.1,0c0-0.1-0.1-0.1-0.2-0.1c0.2,0,0.4,0.2,0.6,0.1
			c0-0.2-0.2-0.2-0.2-0.3l0.1,0h0c0.2,0,0.3,0.1,0.5,0.1c0.1,0,0.2,0,0.3,0c-0.6-0.3-0.6-0.3-0.7-0.4
			C536.1,508.4,536,508.3,535.9,508.2 M532.3,508.2L532.3,508.2l-0.1,0l-0.2,0l0,0l0,0c0,0.1,0.5,0.3,0.5,0.3l0.3,0.1l0.1,0
			l-0.1-0.1l-0.1,0C532.6,508.4,532.6,508.4,532.3,508.2 M535.5,510.6c0.1,0,0.3,0,0.4,0c-0.1,0-0.1-0.1-0.2-0.1l-0.2,0
			c-0.2,0-0.3-0.1-0.5-0.2l-0.1-0.1c-0.1-0.1-0.3-0.2-0.5-0.2l-0.1,0c0.3,0.2,0.6,0.3,0.8,0.5C535.3,510.4,535.4,510.5,535.5,510.6
			 M518.7,506.1L518.7,506.1l-0.2-0.1l-0.1-0.1l-0.2,0h-0.1l-0.1,0l-0.1,0h-0.1l0,0.1l0.1,0.1l0.2,0l0.2,0.1l0.1,0c0,0,0.1,0,0.2,0
			L518.7,506.1L518.7,506.1L518.7,506.1 M514.7,507.3L514.7,507.3l0-0.2l0-0.1l0,0l-0.1-0.1h0l0,0.1c0,0,0,0.1-0.2,0.1l0,0.1
			l0.1-0.1l0.2,0.1L514.7,507.3L514.7,507.3 M517.6,505.6l-0.1-0.1l-0.1-0.1c-0.1,0-0.2,0-0.3,0c-0.2-0.3-0.2-0.3-0.2-0.3
			c-0.1,0-0.4-0.1-0.5-0.1v0.2l0,0h0l-0.1-0.1l0.1-0.1l0-0.1c-0.2,0-0.2,0-0.2-0.1l0,0h0l0,0.1l-0.1,0l0,0c0,0.1,0,0.1,0,0.2l0,0.2
			h-0.1l0,0.1c0,0.1,0.1,0.1,0.1,0.2c0,0.1,0,0.2-0.1,0.2l-0.1,0c-0.1,0.1,0,0.3,0,0.3c0.1,0.1,0.2,0.3,0.3,0.1l0.1-0.1l0.1-0.1
			l0.2,0l0.1,0c0.1,0,0.3,0,0.4,0l0.1-0.1c0,0,0,0,0.1,0c0.1,0,0.1,0,0.2,0l0,0l0.1-0.1c0.1,0,0.2,0,0.2,0
			C517.6,505.8,517.7,505.8,517.6,505.6 M515.3,504.6c0,0-0.2-0.3-0.3-0.3c0,0-0.3,0-0.2,0.1l0,0.1l-0.2,0l0-0.1l0-0.1
			c-0.1,0-0.2,0-0.3,0c-0.1,0-0.1,0.1-0.2,0.2c-0.1,0-0.2,0-0.3,0l-0.1,0.1l-0.1,0l-0.1,0.1v0.1l0.2,0.1l0,0.1l0,0.2
			c0.2,0,0.4,0,0.6,0c0.2,0,0.2,0,0.3,0.2c0.4,0,0.4,0,0.5,0h0.1c0.3,0,0.3-0.1,0.3-0.2l-0.1-0.2c-0.1,0-0.1,0-0.2,0
			c0-0.1,0-0.1,0-0.2L515.3,504.6 M514.5,503.7L514.5,503.7L514.5,503.7L514.5,503.7l-0.4-0.1c0-0.2-0.1-0.2-0.2-0.3l-0.1,0.1
			l-0.1,0.1c-0.1,0-0.1,0-0.2,0.1l-0.2,0c0,0.2,0,0.2-0.1,0.3l-0.1,0h-0.1L513,504l0,0.2l0.2,0h0l0.1,0.1c0,0,0,0,0.2,0.1l0.1,0
			c0.1,0,0.2,0,0.2,0l0.1-0.1c0,0,0,0,0.1,0c0.1,0,0.2,0,0.2-0.1l0,0c0.1,0,0.2,0,0.3,0c0-0.1,0-0.2,0-0.3l0,0L514.5,503.7
			L514.5,503.7L514.5,503.7 M513.4,504.7L513.4,504.7l0-0.1l0-0.1l-0.1,0l-0.1,0l0,0l-0.1,0l-0.1,0H513l-0.1,0l0,0h-0.1h-0.1
			c0,0.1,0,0.2,0,0.2c0.1,0,0.2,0,0.3,0h0.1c0,0,0.1,0,0.1,0.1l0,0l0.1,0L513.4,504.7L513.4,504.7L513.4,504.7 M513,503.5L513,503.5
			L513,503.5l0-0.1l-0.1,0l-0.1,0l0,0l-0.1,0l-0.1,0.1l0,0.1l0.1,0l0.1,0.1h0L513,503.5L513,503.5 M484.1,516.2l0.1-0.1
			c-0.2-0.1-0.2-0.1,0.1-0.4c-0.3,0-0.5,0-0.8,0c-0.1,0.1-0.2,0.1-0.2,0.2l-0.1,0.2c-0.3,0.3-0.5,0.5-0.8,0.8c0.1,0,0.2,0,0.4,0
			c0.2,0,0.3-0.2,0.5-0.3l0.1,0c0.1,0,0.3,0,0.4-0.1L484.1,516.2 M503,507.4c0,0,0.1-0.2,0.2-0.4l-0.2,0L503,507l-0.1,0l-0.1,0
			c-2.9,0.7-2.9,0.7-3.1,0.7c0,0-0.1,0-0.1,0c-0.7,0.1-0.7,0.1-1.3,0.5c-0.2,0-0.4,0-0.6,0c-1.8,0.7-2.7,1.1-3.1,1.4l-0.2,0.1
			c-0.1,0.1-0.2,0.2-0.3,0.3c-1.3,0.2-1.3,0.2-1.6,0.6c0.5-0.1,0.5-0.1,0.5-0.1c-0.1,0.1-0.2,0.1-0.3,0.2l-0.1,0.1l0,0.1
			c-0.1,0-0.2,0.1-0.4,0.1h0c-0.2,0-0.2,0-0.3,0c-0.2,0.1-0.3,0.3-0.6,0.4l-2,0.9c-0.4,0.2-0.4,0.2-1.3,1c0.1,0,0.2,0,0.3,0
			c0.2-0.1,0.2-0.1,0.4-0.2l0.1,0c-0.1,0.1-0.1,0.1-0.2,0.3c0.2-0.1,0.3-0.2,0.4-0.3c0.1,0.3,0,0.4,0,0.5l-0.6,0.3l-0.1,0.1
			l-0.1,0.1c0.2,0,0.4,0,0.6,0c0.3,0.1,0.6,0.2,0.9,0.2l0.2,0c0.2,0,0.2,0,0.2,0c0.1-0.1,0.2-0.2,0.3-0.3l0.1-0.1l0-0.1
			c0.1-0.1,0.2-0.2,0.2-0.3l-0.1,0l0-0.1c0,0,0,0,0.2-0.6l0.1-0.2l0-0.1c0.2-0.1,0.3-0.3,0.4-0.5l0.1-0.1c0.6-0.2,1-0.7,1.5-0.9
			l0.2-0.1l0.1,0l0.1,0l0.1-0.1c0,0,2-0.9,2.5-1.3c0,0,0.6,0,0.9-0.2c0,0,0.1-0.1,0.2-0.1c0.3,0,0.9-0.2,1.2-0.6l1.5-0.4
			c0.2,0,0.4,0,0.6,0c0,0,0.9-0.3,1-0.3c0.1,0,0.3,0,0.5,0C502.8,507.6,502.9,507.5,503,507.4 M501.1,511.2l0-0.2
			c0-0.1-0.2-0.1-0.2-0.1c-0.1,0-0.2,0-0.9,0.5l0,0.1c0.1,0,0.2,0,0.3,0l0.1,0c0.1,0,0.1,0,0.2,0l0.2,0l0.1,0
			C501,511.3,501.1,511.2,501.1,511.2 M507.3,503.5L507.3,503.5c0.1-0.1,0.1-0.1,0.2-0.1l0,0v0l-0.1,0l-0.2,0l-0.1,0
			c-0.1,0-0.2,0-0.2,0l-0.2,0.1l-0.1,0l0,0c-0.2,0.1-0.3,0.2-0.3,0.2c-0.1,0.1,0.3,0,0.4-0.1C506.9,503.5,507.2,503.5,507.3,503.5
			 M505.7,503.8l0.1-0.1c0.4-0.2,0.4-0.3,0.8-0.4l0,0c-0.2,0-0.4,0.1-0.6,0.2l0.1,0c-0.1,0-0.2,0.1-0.3,0.1c-0.2,0-0.4,0.1-0.4,0.1
			l-0.1,0l-0.1,0.1l0,0l0,0c0.1,0,0.1-0.1,0.2,0l0.1,0l0,0l0,0C505.6,503.9,505.7,503.8,505.7,503.8 M504.5,504.2l0.2-0.1
			C504.6,504.1,504.5,504.1,504.5,504.2l-0.1-0.1l-0.1,0h-0.1l0,0l0,0c-0.2,0.1-0.2,0.1-0.2,0.1v0h0.1l0.1,0L504.5,504.2
			L504.5,504.2 M504.7,504l0.1-0.1l0.1-0.1c-0.1,0-0.2,0-0.3,0c-0.3,0-0.5,0.1-0.8,0.2c-0.1,0.1-0.3,0.1-0.4,0.2c0.1,0,0.2,0,0.2,0
			c0.2-0.1,0.3-0.1,0.5-0.2c-0.3,0.1-0.4,0.2-0.4,0.2l0.2,0c0.2-0.1,0.3-0.1,0.5-0.2L504.7,504 M505.7,503.5l0.2-0.1l0.2-0.1
			c-0.1,0-0.2,0-0.2,0l0,0c0.2-0.1,0.5-0.1,0.7-0.2l0.2-0.1h0l-0.2,0l0,0c-0.3,0.1-0.3,0.1-0.5,0.1c-0.4,0.1-0.4,0.1-0.5,0.1l0,0
			l-0.1,0h-0.1l-0.7,0.2c-0.1,0-0.2,0.1-0.3,0.1c-0.2,0-0.4,0.1-0.6,0.1l0,0h0h0l0,0h0l0,0h0h0c-0.1,0-0.1,0-0.3,0.1l-0.2,0.1
			l-0.1,0l0.1,0c0.1,0,0.2-0.1,0.3-0.1c0.1,0,0.2,0,0.3-0.1c0.3-0.1,0.5-0.1,0.8-0.2l0,0l0,0.1l0,0l0.1,0c0.7-0.3,0.7-0.3,0.7-0.2
			l0,0c-0.2,0.1-0.2,0.1-0.2,0.1C505.5,503.6,505.5,503.6,505.7,503.5 M503.6,503.7c0.1,0,0.2-0.1,0.4-0.1l0,0l-0.1,0
			c0.2-0.1,0.4-0.1,0.6-0.2l0.1,0c-0.2,0-0.2,0-0.3,0.1l-0.6,0.1c0,0,0,0-0.4,0.1l0,0l0,0l0.1-0.1c-0.6,0.2-0.6,0.2-0.6,0.2
			c0.1,0,0.1,0,0.1-0.1v0l-0.1,0c-0.4,0.1-0.6,0.2-0.7,0.2l0,0c0.2,0,0.3-0.1,0.4-0.1c0.3-0.1,0.3-0.1,0.4,0l0,0l0.1,0
			c-0.5,0.2-0.5,0.2-0.6,0.2c-0.1,0-0.3,0.1-0.4,0.1c-0.1,0-0.2,0.1-0.3,0.1c-0.1,0.1-0.1,0.1-0.1,0.1c0.2,0,0.7-0.2,1.1-0.3
			l0.2-0.1l0.2,0l0,0l0,0C503,503.8,503.4,503.7,503.6,503.7 M497.5,503.9c0.4-0.1,0.6-0.2,0.6-0.2c-0.1,0-0.2,0-0.3,0l0,0
			c0.4-0.1,0.7-0.2,1.1-0.3c-0.4,0-0.8,0.2-1.1,0.2l0.2-0.1l0.6-0.1l0.1,0c0.1,0,0.2,0,0.3-0.1c-0.1,0-0.2,0.1-0.4,0.1l0,0l0,0
			l0.1,0l-0.1,0c-0.5,0.1-1,0.2-1.5,0.3c0.4-0.2,0.8-0.1,1.2-0.3c-0.4-0.1-1.3,0.2-1.4,0.3l0,0l-0.1,0.1c0.1,0,0.2,0,0.3,0
			c-0.1,0-0.1,0-0.5,0.2l-0.2,0c-0.2,0-0.4,0.1-0.6,0.2c-0.1,0-0.3,0.1-0.4,0.1l0.2,0c0.1,0,0.1,0,0.1,0c-0.1,0.1-0.3,0-0.4,0.2
			c0.3,0,0.6-0.1,0.9-0.2l-0.2,0.1c0.1,0,0.2,0,0.7-0.1C496.7,504,496.7,504,497.5,503.9 M495,504.1l0.1,0L495,504.1L495,504.1
			 M490.8,505.8l0.3-0.1c0.3-0.1,0.3-0.1,0.4-0.2l-0.1,0c0.1-0.1,0.1-0.1,0.8-0.3c-0.1,0-0.1,0-0.2,0c0.5-0.2,1.1-0.4,1.6-0.5
			c0.3-0.1,0.5-0.2,0.8-0.3c0,0,0,0-0.4,0.1c0.1-0.1,0.1-0.1,0.2-0.1c0.2-0.1,0.5-0.1,0.7-0.2l-0.1,0c0.5-0.3,1-0.2,1.5-0.4l0,0
			c-0.2,0-0.7,0.1-0.9,0.2c-0.1,0-0.2,0-0.3,0.1c-0.5,0.1-0.9,0.3-1.4,0.3c0,0,0.1,0,0.7-0.2c0.1,0,0.2,0,0.3-0.1
			c0.1,0,0.2,0,0.3-0.1c0.1,0,0.2-0.1,0.3-0.1c0.5-0.1,0.5-0.1,0.5-0.1c-0.3,0.1-0.7,0.1-1,0.2l-0.1,0c0.2,0,0.3-0.1,0.5-0.1
			c0.3-0.1,0.5-0.1,0.8-0.2c-0.1,0-0.5,0.1-0.7,0.1c-0.1,0-0.1,0-0.2,0c-0.2,0-0.2,0-3.8,1c0.4-0.1,0.8-0.2,1.2-0.4
			c-0.2,0-1.4,0.4-1.8,0.5c0.1,0,0.1,0,0.9-0.2c-0.3,0.2-0.6,0.2-0.9,0.3l0,0c0.1,0,1-0.2,1.3-0.3c0.2-0.1,0.3-0.1,0.5-0.1l0.1,0
			c-0.3,0.1-0.7,0.2-1,0.3l0.1,0l0.5-0.1l-0.2,0.1c-0.6,0.2-0.6,0.2-0.7,0.2c-0.1,0-0.2,0.1-0.3,0.1l0,0l0,0c0,0-0.3,0-1.1,0.2
			c-0.2,0.1-0.4,0.1-0.6,0.2l0.2,0l0.1,0l0,0c0,0,0,0,0.8-0.1l0,0c-0.2,0.1-1.2,0.3-1.2,0.3h0l0,0c-0.2,0-1.1,0.3-1.3,0.4l0,0
			c0,0,0,0-1.4,0.6l0.1,0c0,0,2.5-0.8,2.8-0.8c0.5-0.1,0.9-0.3,1.4-0.4c0.1,0,0.1,0,1.8-0.5l0.2,0c-0.4,0.1-0.8,0.2-1.2,0.3l0.1,0
			c-0.1,0.1-0.1,0.1-1,0.3c-0.4,0.1-0.8,0.2-1.2,0.4l0.1,0c0.3,0,0.6-0.2,0.9-0.2c-0.3,0.1-0.6,0.2-0.9,0.3l0.1,0
			c0.1,0,0.1,0,0.7-0.2c0.1,0,0.1,0,0.2,0L490.8,505.8 M464.9,580.5c0.3-3,0.6-6,1.1-9c-3.8-0.1-7.5-0.3-11-0.5
			c-4.5-0.2-8.6-0.5-12-0.8c0,0-0.5,1.4-0.8,1.7L442,572l-0.1,0.1l-0.1,0c-0.1,0-0.1,0-0.5,0.1l-0.1,0l-0.1,0l-0.1,0.1l-0.1,0.1
			l-0.2,0l-0.1-0.1l-0.1-0.2c-0.1-0.1-0.1-0.1-0.2-0.1c-0.1,0-0.4-0.1-0.7-0.2l-0.1,0l-0.1,0l-0.1,0.1c0.3,0.4,0.3,0.4,0.7,0.5
			c0.1,0.1,0.1,0.2,0,0.3l0,0.2c0,0.1,0.1,0.3,0.1,0.4c0,0.1,0,0.3-0.1,0.4l0,0.1l0,0.2c-0.1,0.7,0.2,1.4,0.2,2
			c0.2,0.8,0.3,0.9,0.3,1c0.2,0.1,0.2,0.1,0.3,0.1c0.4,0.1,0.4-0.5,0.6-0.7l0.1,0.2c0.3,1.5,1.3,3,1.2,4.6c0,0.2,0,0.2,0,0.3
			c-0.2,0.7-0.1,1.1-0.1,1.3c0.1,0.4,0.6,0.3,0.8,0.7l0.8,2.6c0.1,0.3,0.3,1.1,0,1.5c-0.4,0.6-0.2,0.8,0.6,1.9
			c0.5,0.7,0.7,1,0.9,1.9c0.1,0.4,0.1,0.4,1.4,2.6c0.4,0.7,0.2,1.5,0.5,2.2c0.1,0.3,0.1,0.3,0.2,0.5c0.1,0.1,0.1,0.2,0.1,0.3
			c0,0.9,0,1.8,0.1,2.7c0.3,1.3,1.8,1.8,2.3,1.2c0.9-1.2,0.9-1.2,1-1.2c0.4,0,0.9,0,1.3,0.1l0.1,0c0.1,0.1,0.2,0.2,0.3,0.3l0.2,0
			c0.1-0.2,0.2-0.4,0.3-0.6c0.7-1.5,2.7-0.8,3.6-2c0.2-0.3,0.2-0.3,1.2-0.3c0-0.8,0-1.2,0.4-1.1c0.6-0.5,0.6-0.5,3-0.3
			c0,0,0-1.1,0.3-1.6c0.5-0.1,0.9,0,1.3,0c0,0,0.4-1.3,0.6-1.5c0-2.7,0.2-5.4,0.4-8.1c-0.1,0.1-0.2,0.2-0.2,0.2
			c-0.1-0.3,0-0.7-0.1-1c-0.2-0.1-0.2-0.1-0.3-0.4c0-0.5,0.1-1,0.1-1.5c-0.2-0.3-0.2-0.3-0.4-0.5c-0.1,0.3-0.1,0.3-0.5,0.5
			c-0.4,0.2-0.4,0.2-0.8,2.2c-0.4-0.1-0.4-0.1-0.9-0.1c-0.2,0-0.3,0-0.4,0c-0.2-0.1-0.4-0.2-0.6-0.3c-0.2,0-0.2,0-0.3,0
			c-0.6,0.5-0.6,0.5-1,0.9c0,0-0.9-0.1-0.9-1.4c0.1,0,0.2-0.1,0.3-0.2c0.3-0.2,0.4-0.2,0.6-0.3l0.1,0c0.3,0.2,0.9,0.5,1.4,0.1
			c0-0.3,0-0.3-0.1-0.5c-0.2-0.1-0.3-0.1-0.3-0.1c-0.1,0-0.3,0-0.4,0c-0.2,0-0.3,0-0.4,0c-0.7-0.2-1.4-0.3-2-0.5c-0.2,0-0.3,0-0.4,0
			c0-0.5,0.1-1,0.2-1.5c0-0.1-0.1-0.2-0.1-0.3l-1.5-0.8c0.1-1.3-0.6-2.6-0.1-3.9c0.3-0.8,1.4-0.4,1.6-0.1c0.6,0.9,0.6,2,1.4,2.8
			c2,2,2,2,3.7,2.3c0.2,0,0.2,0,0.3,0c0.1,0,0.2,0,0.2,0c0.3-0.2,0.7,0,1-0.2c0.2,0,0.2,0,0.3,0
			C464.4,579.9,464.4,579.9,464.9,580.5L464.9,580.5 M551.1,560.8c-2-10.8-4.9-20.7-8.5-29.2c-20.1,0.5-44.6,0.3-64.1-0.4
			c-5.8,11.3-10.2,25.1-12.5,40.3c25.3,1,56.9,1.2,83.5,0.6c0-0.7,0-0.7-2.3-2.9c0-0.3,0-0.4,0-0.5c0.1-0.2,0.3-0.5,0.5-0.7
			c0-0.1,0-0.3,0-0.4c-0.1-0.4-0.1-0.6-0.1-0.8c0.2,0,0.5,0,0.7,0c0.2-0.2,0.3-0.5,0.4-0.7c0.1,0,0.3,0,0.4-0.1
			c0.4-0.1,0.5-0.1,0.6-0.1c0.1,0,0.3,0,0.4,0c0.1-0.1,0.2-0.2,0.3-0.4c0-0.1,0-0.3-0.1-0.4c-0.5-0.1-0.9-0.1-1.3-0.1
			c-0.2-0.2-0.4-0.5-0.6-0.7c-0.4-0.1-0.7-0.1-1-0.1c0,0.3,0,0.6,0,0.9c-0.2,0.1-0.6,0.2-0.8,0.2c-0.2-0.5-0.2-1-0.3-1.6
			c-0.5,0-1.1,0-1.6,0c-1.1-0.7-0.2-1.6,0.1-1.7c0.3,0,0.6,0,0.9,0c0.7-1.1,1.9-1.6,2.7-2.5c0.1,0,0.1,0,0.2,0l0.4,0.4
			c-0.5,0.8-0.9,2.6-0.9,2.6c0.1-0.1,0.2-0.2,0.3-0.3c0.5-0.1,0.9-0.1,1.3-0.1C550.3,561.6,550.5,561.1,551.1,560.8L551.1,560.8
			L551.1,560.8L551.1,560.8L551.1,560.8L551.1,560.8L551.1,560.8L551.1,560.8L551.1,560.8 M454.9,529.6c0.2,0,0.3,0,0.5,0.1l0,0l0,0
			l-0.1,0l0,0c0,0,0-0.1,0-0.2l0.2-0.2l0,0h-0.1l-0.1,0c0,0,0,0-0.1,0.1l-0.1,0.1l-0.2,0.2C454.9,529.5,454.9,529.5,454.9,529.6
			 M474.7,513.9c0.3-0.2,0.7-0.4,1-0.7v0l-0.1,0l-0.1,0l-0.1,0.1c-0.3,0.2-0.6,0.4-0.9,0.6C474.5,513.9,474.6,513.9,474.7,513.9
			 M478.5,531.2c2.8-5.4,5.9-10.2,9.3-14.2c-0.2,0-0.2,0-0.5,0.3c-0.2,0-0.3,0-0.3,0c-0.2,0-0.2,0-0.2,0c-0.1,0-0.2,0-0.3,0
			c-0.3,0.2-0.4,0.3-0.5,0.4c-0.1,0-0.3,0-0.4,0c0-0.1,0-0.3,0-0.4c0.3-0.3,0.8-0.8,0.8-0.8c-0.1,0-0.1,0-1.5,0.5
			c-0.2,0-0.3,0-0.3,0c-0.5,0-0.6,0.1-0.8,0.3l-0.2,0.1c-0.2,0-0.2,0-0.3,0c-1.5,0.3-2.8,1.3-4.2,1.8c-0.2,0.1-0.2,0.1-0.2,0
			c0-0.1,0-0.3,0-0.4c0.3-0.5,0.3-0.5,0.6-0.8c0.3-0.1,0.6-0.1,0.8-0.1c0.2-0.2,0.3-0.3,0.5-0.5l0-0.2c0.1-0.1,0.1-0.3,0.2-0.4
			l-0.2-0.1c-0.1,0-0.2,0-0.2,0l0-0.2l-0.2,0c-0.2,0-0.3,0-0.3,0l-0.2,0c-0.1,0.1-0.3,0.2-0.4,0.3l0.2,0.1c-0.3,0.4-0.7,0.7-1,1.1
			c-0.6,0.5-0.6,0.5-0.8,0.6l0.1,0.1c0,0.1,0,0.3-0.1,0.4c-0.1,0.1-0.1,0.2-0.1,0.2c-0.4,0.2-0.6,0.6-1,0.9c-0.1,0-0.3-0.1-0.4-0.1
			c0.1-0.1,0.1-0.2,0.2-0.2l0.1-0.2c-1.3-0.1-2.2,1.1-3.4,1.1l0,0c-0.4,0.4-0.4,0.4-0.6,0.6c0.1,0.3,0,0.4-0.3,0.7
			c-0.1,0.1-0.1,0,0,0c-0.4,0-0.4,0-0.6-0.1c-0.1-0.1-0.2-0.1-0.2-0.1l-0.2-0.1c0-0.1-0.2-0.2-0.3-0.3c0-0.2,0-0.2,0.3-0.6
			c-0.9,0.4-1,0.4-1.2,0.8l0.1,0.2c-0.1,0.1-0.2,0.2-0.3,0.3l0.1,0.1l0.2,0l0.1,0.1c-0.1,0.2-0.1,0.3-0.3,0.5c-0.3,0.1-0.5,0-0.7,0
			c-0.1,0.1-0.2,0.2-0.3,0.2c0-0.2,0-0.4,0-0.6l-0.2-0.1c0-0.3,0-0.3,0.9-1.2c-0.1,0-0.2,0-0.3,0l0.6-0.6c1-0.9,1-0.9,1.2-1.1
			l-0.2-0.1c0.2-0.4,0.2-0.4,0.5-0.7l-0.1-0.1c0.1-0.2,0.2-0.4,0.3-0.5c0,0.5,0,0.5-0.1,0.6l0.1,0.1h0.2c0,0.1,0,0.3,0,0.4
			c0.2,0,0.5,0,0.7,0.1c0.1,0.1,0.1,0.2,0.2,0.3l0.2,0.1c0.2,0,0.2,0,0.2,0l0.1,0c3.5-1.4,3.6-1.5,3.7-2.5c-0.2-0.1-0.4-0.1-0.6-0.1
			c0-0.3,0.2-0.5,0.2-0.8l0.1-0.2l-0.1-0.1l0-0.2c-0.2,0-0.2,0-0.6,0l-0.1,0c0-0.1,0.1-0.3,0.1-0.4c0-0.1-0.1-0.1-0.2-0.1
			c-0.2,0.2-0.2,0.2-0.5,0.4c-0.2,0-0.2,0-0.2,0c0.1-0.1,0.1-0.1,0.6-0.5l0.1-0.1c0-0.2,0-0.2,0.4-0.4c0-0.1-0.1-0.1-0.1-0.1
			c-0.1,0-0.3,0.1-0.4,0.2l0-0.2l-0.2-0.1c0-0.2,0.1-0.2,0.2-0.3c0.2,0,0.5-0.2,0.7-0.3c0.1-0.1,0.2-0.2,0.3-0.3l-0.2,0
			c0-0.1,0.1-0.3,0.2-0.3l-0.1,0c-0.2,0.1-0.4,0.3-0.7,0.4l-0.2,0c0.1-0.1,0.2-0.2,0.4-0.3c0.2-0.1,0.2-0.1,0.5-0.3l0.2-0.1
			c-0.2,0-0.3,0-0.5,0c-0.7,0.4-0.7,0.4-0.9,0.6c-0.1,0.1-0.2,0.1-0.3,0.2l-0.2,0.1l-0.1,0c0.7-0.4,0.7-0.4,0.9-0.6
			c0-0.1,0-0.1-0.1-0.1l0.6-0.4l0,0l-0.1,0c-0.5,0.2-1.1,0.4-1.6,0.7c-0.2,0-0.2,0-0.2,0c0.1-0.2,0.1-0.2,0.5-0.4
			c0.1-0.1,0-0.1,0-0.1c-0.7,0.1-1,0.3-1.3,0.6v0.2c-0.2,0.1-0.3,0.2-0.5,0.3l-0.1,0l-0.1-0.2l-0.1-0.1c-0.9,0.6-0.9,0.6-1.2,0.7
			c0.4-0.3,0.7-0.7,1-1c-0.3,0.1-0.4,0.2-0.6,0.3c0,0-1.2,0.8-1.8,1c0.2-0.2,0.2-0.2,0.7-0.5c-0.2,0.1-0.3,0.1-1.1,0.5
			c-0.2,0.1-0.3,0.3-0.5,0.4c-0.1,0.1-0.2,0.1-0.2,0.2l-0.2,0.1l0-0.2c0.1,0,0.1,0,0.9-0.6c-0.3,0.1-0.5,0.3-0.8,0.4
			c-0.5,0-1.7,0.7-1.8,0.8l-0.1,0c-0.2,0.1-0.4,0.2-0.5,0.3l0,0l-0.2,0.1c-0.1,0.1-0.1,0.1-0.1,0.1c0.4-0.2,0.8-0.3,1.1-0.5
			c0.1,0,0.1,0,0.1,0c0.4-0.1,0.4-0.1,0.5-0.1c-0.1,0.1-0.3,0.2-0.4,0.3c-0.6,0-4.9,2.7-6,3.4l0.1-0.1c-0.6,0.3-1.2,0.5-1.7,0.9
			c0.1,0,0.2,0,0.2,0c-0.8,0.6-1.8,1.1-2.6,1.7c0-0.2,0-0.2-0.1-0.2l-0.4,0.3c-0.4,0.4-0.4,0.4-0.7,0.5l-0.1,0h0l0,0h0l0,0l0,0v0h0
			c-0.5,0.3-1.9,1.1-3.9,3c-0.1,0.1-0.2,0.1-0.2,0.1l-0.2,0.1c-0.2,0.2-0.3,0.3-0.5,0.4l0.1,0c-0.2,0.4-2,2.1-2,2.1
			c0.1,0.1,0.4,0.2,0.7,0.3c0.6-0.5,0.6-0.5,0.8-0.6c0.2-0.2,0.4-0.3,0.5-0.5c0,0.2-0.1,0.3-0.8,1c0.5,0.2,1.1,0.3,1.9,0.4
			c1.5-1,1.5-1,1.6-1.2c0.1-0.2,0.2-0.2,0.3-0.3l0.1-0.2l-0.1-0.2c0.2-0.6,0.8-1.2,0.8-1.2c0.5-0.5,1.1-1.1,1.6-1.6
			c0.3-0.1,0.9-0.6,1.2-0.8c0.9-0.8,2.1-1.2,3.1-1.8c0.7-0.4,1.3-1,2-1.5l2-1.1l0.1,0h0l0,0h0h0h0l0,0h0c-0.2,0.2-0.3,0.3-0.4,0.5
			c0.1,0,0.3-0.1,0.4-0.2l0,0.2c-0.1,0.1-0.2,0.2-0.3,0.3c-0.3,0.3-0.5,0.5-0.8,0.7c-0.1,0-0.2,0-0.3,0c-2,1.8-4.6,2.8-6.5,4.7
			l-0.2,0.2c-0.2,0.2-0.2,0.2-0.6,0.6l0.2,0.1c0,0.4-0.2,0.7-0.3,1.1l0.1,0.1c0.3-0.1,0.5-0.3,0.8-0.4l0.1,0.2c0.4,0,0.4,0,0.7-0.3
			l0.2-0.1c0.3,0,0.5,0.1,0.8,0.1c0.1-0.1,0.3-0.1,0.4-0.2c0.1,0,0.1,0,0.1,0c-0.1,0.2-0.2,0.3-0.2,0.5c0.2,0,0.4,0,0.5,0l-0.1,0.2
			c0,0-2.2,1.3-2.6,1.2c0-0.1,0-0.3,0.1-0.4c-0.2-0.1-0.4,0-0.6,0c-0.1-0.1-0.1-0.1-0.1-0.1c-0.2,0.1-0.3,0.1-0.5,0.3l-0.1-0.2
			c-0.5,0.3-0.6,0.3-1,0.7c3.5,0.5,8.5,0.8,14.9,1.2C472.9,530.9,475.7,531,478.5,531.2 M565.7,518.4c-0.3-0.2-0.6-0.3-0.8-0.5
			c-0.3-0.2-0.3-0.2-0.6-0.3l0,0l-0.1,0l0,0c-0.1-0.1-0.3-0.2-0.4-0.2c0.2,0.2,0.5,0.4,0.8,0.5c0.1,0.1,0.2,0.1,0.2,0.2
			c0.1,0.1,0.3,0.2,0.4,0.3c-0.2-0.1-0.2-0.1-0.6-0.4c-0.5-0.4-1-0.7-1.5-1c-0.1-0.1-0.3-0.2-0.4-0.2c-0.1-0.1-0.1-0.1-0.1-0.1
			c-0.5-0.1-1.7-0.9-1.7-0.9c-0.8-0.3-1-0.3-2.9-1.3c-0.2-0.1-0.2-0.1-0.2-0.1l0,0c-0.3-0.1-0.6-0.2-0.8-0.3c-0.2,0-0.2,0-0.2,0
			l0.2,0.2c-0.2,0.1-0.2,0.1-0.2,0.1c-1.2-0.4-1.2-0.4-1.3-0.4c0.7,0.9,1.8,1.2,2.7,1.8c0,0.1-0.1,0.1-0.2,0.1
			c-0.3-0.2-0.6-0.4-0.8-0.6c-0.1,0-0.2,0-0.3,0c-0.3-0.2-0.5-0.3-0.8-0.5l0,0c0-0.2-0.2-0.3-0.3-0.4l-0.2-0.1c-0.2,0-0.3,0-0.4,0
			c0.8,0.5,0.8,0.5,1,0.7l0,0.1c-0.5-0.2-0.6-0.2-0.9-0.2c-0.1,0-0.2,0-0.3,0l0,0.2c-0.1,0-0.1,0-0.9-0.3l-0.1,0
			c0.1,0.1,0.3,0.2,0.4,0.3c0.4,0.3,0.7,0.4,0.9,0.6l-0.1,0l-0.2-0.1c-0.2-0.1-0.3-0.2-0.4-0.3c0,0-2.7-1.6-3.6-2
			c-0.2-0.1-0.3-0.2-0.5-0.3c-0.3,0-0.6-0.1-0.9-0.1l-0.1,0.2c0,0.2-0.1,0.2-0.1,0.2c-0.1,0-0.3,0.1-0.4,0.1c0,0.1,0,0.1,0,0.1
			c-0.4-0.1-0.7-0.3-1.1-0.4c-0.1,0-0.1,0-0.2,0c-0.7-0.1-0.7-0.1-0.9-0.3c-0.4-0.1-0.7-0.3-1.1-0.4c-0.1,0-0.2,0-0.2,0l-0.2-0.1
			c-0.1-0.1-0.3-0.3-0.4-0.4l-0.2,0c-0.5,0-0.8,0-1.2,0h0c0.3,0.2,0.3,0.2,0.5,0.5c0,0.2-0.1,0.2-0.1,0.2c-0.2-0.1-0.4-0.2-0.9-0.7
			l0-0.1c-1-0.7-2.2-0.4-3.3-0.6c0.1,0.2,0.1,0.2,0.5,0.5c-0.1,0.1-0.3,0.1-0.5,0.1l0,0.2c0.6,0.4,1.2,0.6,1.8,1
			c0.1,0.1,0,0.1,0,0.1c-0.9-0.2-1.3-0.2-1.3-0.2c-0.1,0.1,0,0.1,0.1,0.2l0.2,0.1c0.4,0.1,0.4,0.1,0.6,0.3c-0.2,0-0.2,0-1-0.3
			c-0.2-0.2-0.3-0.2-0.4-0.2c-0.1,0-0.3,0-0.4,0c0,0.1-0.1,0.3-0.1,0.4c-0.6-0.1-1.3-0.4-1.3-0.4l-0.1,0.2c-0.1,0-0.2-0.1-0.2-0.1
			l-0.1,0.2c0.3,0.2,0.5,0.4,0.8,0.8c-0.1,0.1-0.3,0.1-0.5,0.1c-0.7-0.7-1.7-0.8-2.4-1.4l-0.1-0.1c-0.1-0.3-1.4-1.7-2.5-2
			c-0.1,0-0.1,0-0.1,0l0,0h0h0h0h0l0,0h0l0.1,0.3c-0.9,0.1-1.4-0.7-2.2-0.8l-0.2,0.1c0.1,0.3,0.3,0.5,0.5,0.7
			c0.3,0.2,0.3,0.2,0.5,0.5l-0.1,0c4.5,5,8.5,11.8,11.9,19.8c5.6-0.1,10.8-0.3,15.4-0.5c0-0.3,0-0.6,0.1-0.9c0.3,0,0.3,0,0.6,0.1
			l0.2-0.1c0.1,0,0.1,0,0.2,0l0.2,0.1c0.1,0,0.1,0,0.2,0l0.2-0.1c0.1-0.1,0.1-0.1,0.1-0.1c0.8,0.3,0.8,0.3,1,0.1l0.2,0
			c0.6,0,1.1-0.1,1.6-0.1c-0.1-0.1-0.2-0.3-0.3-0.4c-0.3-0.4-0.3-0.4-0.3-0.6c0.4,0.2,0.4,0.2,0.6,0.3c0.9-0.5,1.2,0.9,1.9,1.2
			c0.2,0,0.5,0,0.7,0c0.1-0.2,0.1-0.2-0.1-0.7c0.2,0,0.2,0,0.8,0.4l-0.1-0.2c0.1,0,0.2,0,0.2,0c0.2,0.1,0.4,0,0.5,0
			c-0.1-0.1-0.1-0.1-0.6-0.6l-0.2,0c-0.3-0.2-0.4-0.4-0.6-0.6l-0.1-0.2l0.1-0.2c-0.4-0.9-0.4-0.9-0.3-1.2c-0.1-0.3-0.4-0.8-0.6-1.4
			l0.1-0.2l0.2,0.1c0.2,0.1,0.2,0.1,0.2,0.1l-0.1-0.2c0-0.1,0-0.1,0-0.1c0.4,0.3,0.9,0.3,1.1,0.8c0.1,0.1,0.1,0.2,0.2,0.2
			c0.4,0.3,1.2,0.9,1.2,0.9c-0.1-0.5-0.5-1.5-0.5-1.5l0.2-0.1c-0.1-0.2-0.1-0.2-1-1.3l0.1-0.2c0.2-0.1,0.3-0.1,0.4-0.1
			c0.1,0.1,0.2,0.2,0.3,0.3l0.1,0.4c0.2,0.5,1.7,2.7,1.8,2.7c0.6,0.8,0.4,1.7,0.7,2.6c0.6,0,1.1-0.1,1.6-0.1
			c-0.2-0.3-0.5-0.8-0.8-1.1c-0.1-0.1-0.1-0.1-0.1-0.1c-0.4-0.5-0.4-0.5-0.5-0.8c0.2,0,0.2,0,0.8,0.4l0.1-0.2
			c-0.1-0.1-0.1-0.3-0.2-0.4c0.1,0.1,0.1,0.1,0.5,0.4c0.2,0.1,0.2,0.1,0.2,0.1c0-0.3,0-0.3-0.4-0.8l0.2-0.2l0.2,0.1
			c0.3,0,0.4,0,0.6-0.1c0.7,0.7,0.7,0.7,1,1c-0.5-0.8-1.5-1.3-1.6-2.4l0.1-0.1c0.2-0.5-0.7-1.6-1-2.1c0.2,0,0.2,0,0.8,0.3
			c0.2,0,0.2,0,0.3,0c-0.2-0.2-0.4-0.4-0.7-0.6c-0.3-0.2-0.3-0.2-0.9-0.6c-0.5-0.4-0.5-0.4-1.4-1.1c-0.2-0.1-0.2-0.1-0.9-0.6
			c-0.2,0-0.2,0-0.3,0l-0.4-0.2c-0.1-0.1-0.2-0.2-0.3-0.3c0-0.1,0-0.1,0-0.1c0.1,0.1,0.3,0.2,0.4,0.2c0.1,0,0.2,0,0.2-0.1
			c-0.1-0.4-0.6-0.8-1.5-1.4c-0.2-0.2-0.5-0.3-0.7-0.5c0.2,0,0.2,0,1.5,0.9c0.1,0,0.2,0,0.3,0c0.3,0.1,0.3,0.1,1,0.7
			c0.1,0.1,0.2,0,0.2,0c0.3,0.2,0.7,0.4,1,0.6c0.2,0.1,0.2,0.1,0.2,0.1c-0.1-0.1-0.1-0.1-1-0.8c-0.1-0.1-0.1-0.1-0.1-0.1
			c-0.1-0.1-0.1-0.1-1.5-1.1c0.1,0.1,0.3,0.2,0.4,0.2c0.1,0,0.1,0,0.1,0C566.5,519,565.7,518.4,565.7,518.4 M450.6,528.9
			L450.6,528.9c-0.3-0.1-0.5-0.1-0.8-0.2l0,0c-0.1,0.1-0.1,0.1-0.5,0.6c0.1,0,0.1,0,0.1,0l0,0l0,0l-0.1,0.1
			c-0.1,0.1-0.2,0.2-0.2,0.3l0.2-0.1l0,0.2l0.1,0c0.2-0.1,0.2-0.1,0.3-0.2l0.1-0.1l0,0l0.1,0l0,0
			C449.9,529.4,449.9,529.4,450.6,528.9 M453,529.4c-0.8-0.1-1.4-0.2-2-0.4c-0.2,0.2-0.4,0.5-0.6,0.8l-0.1,0.1
			c-0.5,0.5-0.5,0.5-0.6,0.7c-0.2,0.2-0.2,0.5-0.4,0.7l-0.2,0.2l-0.2,0.2c-0.3,0.3-0.4,0.7-0.6,1c-0.2,0.3-0.5,0.5-0.7,0.8l-0.1,0.1
			c-0.1,0.1-0.2,0.3-0.3,0.4c0.1,0,0.3,0.1,0.5,0.1c0.4-0.5,0.9-1,1-1l0.1,0c0,0.1,0,0.1,0,0.2l0,0c0.5-0.3,0.5-0.3,0.6-0.3
			c0.2-0.2,0.4-0.4,0.6-0.7c0.1,0,0.2,0,0.3,0.1c0.3-0.4,0.3-0.4,0.5-0.5l-0.1,0c-0.1,0-0.1,0-0.2,0c0-0.1,0.1-0.1,0.2-0.2l0-0.1
			l0.1-0.1c0.2-0.1,0.3-0.3,0.5-0.4C451.8,530.5,452.2,529.7,453,529.4 M466,571.5c2.3-15.2,6.7-29.1,12.5-40.3
			c-2.8-0.1-5.5-0.2-8.1-0.4c-6.4-0.3-11.4-0.7-15-1.1c-0.2,0-0.3,0-0.5-0.1l0,0.1h0h0h0h0h0l0,0h0c-1.1,0.8-1.1,0.8-1.2,0.9
			c0.2,0.1,0.2,0.1,1.2-0.5c0,0.3,0,0.3-1.7,2.3c-0.1,0.1-0.2,0.1-0.3,0.1c0-0.1-0.1-0.2-0.1-0.3c0.1-0.1,0.2-0.3,0.3-0.4
			c0-0.1,0-0.1-0.1-0.1c0.1-0.1,0.3-0.3,0.4-0.4l-0.2,0c-0.8,0.7-3.3,2.8-3.6,3.8l-0.2,0.2c0-0.1-0.1-0.2-0.1-0.2
			c-0.3-0.1-0.3-0.1-1.3,1.1l-0.1,0c0.1-0.5,0.1-0.5,0.3-1.1c-0.5,0.2-2.2,1.2-2.3,1.2c0-0.1-0.1-0.2-0.1-0.3
			c0.2-0.3,0.2-0.3,0.5-0.7l-0.1,0l-0.2,0.2c-0.3,0-0.3,0-0.3,0c-0.2,0.1-0.2,0.1-0.6,0.6c-0.1,0.1-0.2,0.1-0.2,0.1
			c0-0.3,0-0.3,0.4-0.8l-0.1,0.1l-0.1,0c0.1-0.1,0.2-0.3,0.3-0.4s0.2-0.3,0.4-0.4c0.1,0,0.2,0,0.3,0c0,0.1,0,0.2,0,0.3
			c0.1,0,0.2,0,0.3,0c0.4-0.5,1.7-2,1.7-2l-0.1,0c-0.3,0.1-0.3,0.1-0.9,0.6l0,0h0c0.2-0.3,0.2-0.4,0.7-0.8c0.2-0.2,0.3-0.3,0.4-0.4
			c0.1-0.8,0.9-1.1,1.3-1.7c-0.6,0.3-1.6,1.2-1.6,1.2c-0.2,0.2-0.2,0.2-0.2,0.3c-0.7,0.8-1.4,1.6-2,2.3c-0.2,0.2-0.2,0.3-0.3,0.4
			c-0.1,0.2-0.3,0.4-0.4,0.5c-0.2,0.3-0.4,0.6-0.6,0.9c-0.1,0.1-0.2,0.3-0.3,0.4l-0.1,0c-0.1,0-0.2,0-0.3,0.1l-0.1,0l-0.2-0.1
			c-0.4,0.4-0.8,0.8-1.2,1.2c-0.1-0.1-0.1-0.1-0.1-0.1l0,0c-0.2,0.1-0.3,0.3-0.4,0.4l-0.1,0.3c-0.2,0.3-0.4,0.5-0.6,0.8
			c-0.3,0.2-0.3,0.2-1,0.9c-0.1,0.1-0.1,0.1-0.1,0.1c-0.4,0.4-0.8,0.9-1.1,1.4l-0.2,0.1c-0.2,0.3-0.4,0.5-0.5,0.8l-0.1-0.1
			c0.1-0.3,0.1-0.4,0.2-0.5l0.1-0.2c-0.2,0.3-0.4,0.5-0.5,0.7L437,543l-0.1,0.3c-0.1,0.1-0.1,0.2-0.2,0.3c0-0.2,0.1-0.4,0.1-0.5
			c-0.3,0.2-0.3,0.2-0.5,0.6c-0.1,0.2-0.1,0.2-0.1,0.2c-0.1,0.1-0.2,0.3-0.3,0.5c0,0.1,0,0.1,0,0.1c-0.2,0.4-0.4,0.8-0.6,1.3
			c-0.3,0.4-0.5,0.9-0.8,1.3c-1.6,3.1-1.6,3.1-2.3,4.4l-0.2,0.2c-0.1,0.2-0.1,0.2-0.1,0.1c0.1-0.3,0.1-0.5,0.2-0.8
			c0.1-0.3,0.1-0.3,0.1-0.3c0-0.1,0.1-0.2,0.1-0.3c0.1-0.1,0.1-0.1,0.1-0.1c-1.5,3.1-3.3,7.2-4.6,10.4l0,0c0,0.1-0.1,0.3-0.1,0.4
			c-0.1,0.3-0.2,0.7-0.3,1c0-0.1,0.1-0.2,0.1-0.3l0-0.1c0.5-0.9,0.3-2.1,1.5-2.6c0.1-0.3,0.2-0.6,0.4-0.9c0.4-1.1,0.4-1.1,1-2.3
			c0.5-1.1,1.1-1.4,1.1-1.4c0.2-0.3,0.4-0.6,0.5-0.8c0-0.1,0.1-0.2,0.1-0.3c0,0,0.6-1.4,0.9-1.7c0.2,0.1,0.2,0.1,0.2,0.1v0h0l0,0
			l0,0l0,0h0l0,0c0,0.2,0,0.4,0,0.5l0.1,0c0.1-0.1,0.1-0.1,0.8-1.1l0.1,0c0.3-0.2,0.3-0.2,0.8-0.8c0.2,1-0.6,1.8-0.6,2.8
			c0,0.2-0.1,0.5-0.1,0.7c-0.1,1.6-0.1,1.6,0.1,1.8c-0.5,3.6-0.5,3.6-0.7,4.1c-0.5,0.1-1,0.5-1.5,0.4c-0.1,0.1-0.2,0.2-0.2,0.3
			c0.1,0.4-0.1,0.9,0,1.3l0.2,0.2c0.2,0,0.3,0.1,0.5,0.1c0.1-0.3,0.2-0.7,0.4-1c0.7-0.5,1.9-2.5,1.9-2.5c0.1-0.3,0.1-0.4,0.2-0.5
			c-0.2,0-0.3,0-0.3,0c0-0.1,0-0.2,0-0.4c0-0.1,0.1-0.2,0.1-0.2c0.2-0.1,0.3-0.1,0.4-0.1c0.1,0.1,0.1,0.4,0.2,0.5c0,0,0,0,0.6-1.3
			l-0.2-0.1c0-0.6,0-1.6,0-1.6l-0.2-0.2c0-0.9,0.2-1.7,0.3-2.5c0-0.1,0-0.1,0-0.2c0.1-0.3,0.2-0.4,0.4-0.8c-0.1,0-0.2-0.1-0.2-0.1
			c0-0.2,0.2-0.4,0.3-0.7l0.2-0.2c0.2-0.2,0.2-0.3,0.2-0.3c0.4-0.8,0.4-0.8,0.5-1l0.1,0.2c0,0.1-0.6,1.6-0.3,4
			c-0.1,0.6,0.3,1.2,0.2,1.9c-0.3,1.4-1,2.5-1.3,3.9c0.1,0,0.2,0.1,0.3,0.1c0,0.5-0.2,0.9-0.3,1.2c-0.1,0-0.2,0-0.3,0
			c0-0.1,0.1-0.2,0.1-0.3c-0.1,0-0.2,0-0.3,0.1c-0.2,0.7-0.1,1.1,0,1.4c0.1-0.1,0.2-0.2,0.3-0.3l0.2-0.2c-0.2,0.6-0.2,1.3-0.4,1.9
			c0.2,0.3,0.2,0.3,0.3,0.3c0.1,0,0.2,0,0.3,0c0.1-0.2,0.3-0.4,0.4-0.7c0.1-0.2,0.1-0.3,0.1-0.4c0-0.3,0.1-0.4,0.4-0.7
			c0,0.1,0.1,0.2,0.1,0.3c0.2,0.1,0.2,0.1,0.3,0.1c0.2-0.2,0.2-0.2,0.6-1.1c0.1,0,0.2,0,0.3,0c0.4-0.4,0.1-0.8-0.1-0.9
			c-0.1,0.5-0.1,0.5-0.3,0.8c-0.1,0-0.2,0-0.3-0.1c0-0.5,0-0.5,0.3-1.6c-0.3-0.3-0.2-0.8-0.2-1c0-0.1,0.1-0.2,0.1-0.3l0.2-0.2
			l0.1,0.1c0,0.1,0.1,0.3,0.2,0.5c0.1,0,0.2,0,0.2,0l0.1,0c0.3-0.3,0.2-0.8,0.6-1.1c0.2,0,0.4,0.1,0.5,0.1c0.1,0.1,0.2,0.3,0.2,0.5
			c0.1,0,0.2,0.1,0.2,0.1c0,0.2-0.1,0.4-0.2,0.5l0.1,0.1l-0.1,0.5c-1,0.5-0.3,1.5-0.6,2.2c0,0.2-0.1,0.4-0.2,0.5
			c0,0.1-0.1,0.2-0.1,0.3c0,0.1,0,0.1,0,0.8l0,0.1l0,0.1l0,0.1l0,0.2l0,0.1c0,0.2-0.1,0.4-0.2,0.6l-0.1,0.1L439,564
			c-0.1,0.5-0.1,0.5-0.2,0.8l0,0.1l0,0.1c0.1-0.1,0.2-0.3,0.3-0.4l0.2-0.3c0.1-0.2,0.1-0.4,0.2-0.6c0-0.1,0.1-0.2,0.1-0.3
			c0.1-0.2,0.1-0.1,0.2-0.1l0.1,0l0,0.1l0,0.1l0,0.1c0,0.1,0.1,0.3,0.1,0.4l0,0.2l0,0.1l0.1,0.1l0.1,0c0.1,0,0.2,0,0.3,0l0.1,0.1
			c0.2,0,0.2,0.1,0.2,0.1l0.1-0.1l0.1-0.1l0-0.1l0.1-0.1c0.1-0.5,0.1-0.5,0.3-0.7l0.1-0.1l0.2-0.1c0.1,0,0.2,0,0.3,0l0.2,0.2
			c0,0.1,0,0.3,0.1,0.4c0,0.1,0.1,0.3,0.2,0.4l0,0.1l0.1,0.1l0.1,0l0.1,0.1c0.4,0,0.7,0.1,1.1,0.1c0-0.2,0.1-0.3,0.1-0.5l0.1-0.2
			c0-0.2,0.1-0.4,0.1-0.5l0.2,0l0.1,0l0.1,0c0.1,0,0.2,0.1,0.3,0.1c0,0.1,0,0.3,0.1,0.4c0.2,0,0.2,0.1,0.3,0.1l0.1-0.1l0.1-0.1
			l0.1-0.1l0.1,0c0,0.1,0,0.3,0.1,0.4l0,0.1c-0.2,0.6-0.2,0.6-0.3,0.9c-0.5,0.9-0.5,1.4-0.5,1.6l0,0.1c0.1,0.4,0,0.5-0.2,0.8
			l-0.1,0.1l-0.1,0.1c0,0.2-0.1,0.4-0.2,0.5l-0.1,0.1c-0.6,0.8-0.6,0.8-0.8,0.9l-0.1,0.1l-0.1,0.1l0,0.1c3.4,0.4,7.5,0.7,12,0.9
			C458.5,571.2,462.2,571.3,466,571.5 M568.2,545.8c-0.9-1.7-2.4-2.9-3.2-4.6c-0.1-0.2-0.1-0.3-0.2-0.4c0,0-0.3-0.8-0.7-1l0,0h0l0,0
			l0,0h0l0,0h0l0,0c-0.6-0.5-0.9-1.3-1.3-2c-0.1,0-0.2,0-0.3,0c0.3,0.6,0.6,1.1,0.9,1.7c-0.1,0-0.3,0-0.4,0.1c0,0.1,0,0.2,0.1,0.3
			l0.1,0.2c0.1,0.1,0.1,0.2,0.2,0.3c0.2,0.2,0.3,0.3,0.4,0.6c0,0.1-0.2,0.1-0.3,0.1c-0.2,0-0.2,0-0.7-1.2c0-0.1-0.1-0.2-0.1-0.2
			c-0.7-0.7-1.7-1-2.5-1.6c-0.3-0.1-0.5-0.1-0.7-0.1c0.2,0.4,0.4,0.8,0.6,1.2c-0.3,0-0.5,0-0.8,0c0,0-0.6-1.1-1.3-1.1l0.1,0.2
			c0.1,0.2,0.2,0.4,0.3,0.5l0.1,0.2c-0.1,0-0.3,0-0.4,0c-0.1-0.1-0.2-0.2-0.2-0.3c-0.2-0.8-0.2-0.8-0.7-1.1c0,0.1-0.1,0.3-0.2,0.4
			c-0.1,0-0.2,0-0.2,0l-0.2,0c-0.4-0.2-0.4-0.6-0.4-1c0.6-0.3,0.4-1.3,1.2-1.4c0.1-0.5-0.5-0.9-0.1-1.4c-0.1-0.6-0.1-0.6,0.2-1.1
			l-0.1-0.2c0.2-0.1,0.2-0.1,0-1.5l0.1-0.2c0.1,0,0.3,0,0.4,0c-4.6,0.1-9.8,0.3-15.4,0.4c3.6,8.5,6.5,18.4,8.5,29.2
			c0.3,0,0.5,0.2,0.8,0.3c0.1,0,0.1,0,0.1,0h0h0h0h0h0h0l0,0c0.8,0.2,0.9,0.4,1,0.7c0,0.2,0.1,0.3,0.1,0.4c-0.1,0.2-0.1,0.3-0.3,0.6
			c0.1,0.4-0.1,0.9,0,1.3c0.2,0,0.3,0,0.5,0l0.2-0.1c0.9-0.9,1.2,1.4,1.9,2c0.1,0.6,0.2,1.1,0.3,1.6c-0.1,0.4-0.4,0.7-0.4,1.2
			c0.1,0.3,0.1,0.6,0.1,0.9c0.5,0,0.9,0,1.4,0c0.4-0.1,0.6-0.5,0.9-0.7c0.4-0.3,0.8-0.6,1.2-1c0.4,0,0.4,0,0.5-0.3
			c-0.2-1.1-0.2-1.1-0.1-1.5c-0.1-0.3-0.1-0.6-0.2-0.9c-0.3,0-2.3-2.3-2.3-2.3c-0.2-0.4-0.2-0.4-0.4-2.6c0.1,0,0.1,0,0.7-0.2
			c0.1,0,0.2,0,0.3,0c0.1,0,0.3-0.1,0.5-0.1c-0.2-0.8-0.4-1.6-0.6-2.4c0-0.6,0-0.6,0.1-0.8c0.9,0,0.5-1.2,1.1-1.5
			c0.8-0.5,1,1.1,1.8,0.7c0.7-0.4,1.1-1.1,1.1-1.1c0.8,0,0.8,0,1.8-2.5c0.4-1-0.3-2.3,0.8-3.2l0-0.2c0.9-0.2,0.4-1.2,0.8-1.8
			c0-0.1-0.1-0.3-0.2-0.4l0-0.1c-0.1-0.4-0.1-0.4-0.3-0.8c-0.1-0.2-0.1-0.2-0.1-0.3c0.1-0.6,0.1-0.6-0.1-1.1
			c-0.1-0.2-0.2-0.4-0.2-0.5l-0.1-0.2c-0.1-0.1-0.1-0.2-0.1-0.3c-0.2-0.4-0.3-1.9-0.3-1.9l0.2,0c0.1,0.1,0.3,0.2,0.4,0.3
			c0,0,1.5,1,3.6,8.7c0.1,0.1,0.3,0.1,0.4,0l0.1-0.1c0-0.2,0-0.4,0-0.5c0-0.1,0-0.3,0-0.4l0.2,0c0.3,0.7,0.4,0.9,1.1,0.9
			c-0.3-0.8-1.3-1.1-1.6-1.9c-0.4-0.8-0.5-1.6-0.8-2.4c0.1-0.1,0.1-0.1,0.1-0.6l0.2-0.1c0.3,0.1,0.5,0.4,0.8,0.5
			C568.2,546.1,568.2,545.9,568.2,545.8 M574.7,534.4l-0.3-0.4c-1.5-1.3-1.5-1.3-1.9-1.9c0-0.1,0-0.1,0.1-0.2
			c-0.2-0.2-0.4-0.4-0.5-0.4l0,0.1l0.1,0.1l-0.2,0.1c-1-1.2-0.9-1.4-0.9-1.5c-0.5,0-1.1,0.1-1.6,0.1c0,0,0.3,0.8,0.3,0.9
			c-0.1,0-0.2,0-0.3,0c0,0.2-0.2,0.4-0.2,0.5l-0.1,0c0,0.1,0,0.3,0.2,0.5c0.1,0.1,0.3,0.2,0.5,0.6c0.2,0.3,0.2,0.7,0.3,1
			c0,0.1,0.1,0.2,0.4,0.5l2.9,4.4c0.1,0.1,0.1,0.1,0.1,0.3c0.3,0.3,0.7,0.7,1,1c0.4,0.6,0.8,1.3,1.1,1.9l0.2,0.1l0,0v-0.1
			c0.2-0.1,0.3-0.3,0.5-0.3c-0.2-0.4-0.5-0.6-0.6-1c-0.1-0.3,0-0.7-0.2-1c-0.1-0.4-0.1-0.4-0.1-0.5l0.1,0l0.2,0.1l0.1,0l0.1,0
			c0-0.1-0.1-0.4-0.1-0.4c-0.3-0.4-0.5-0.8-0.8-1.2c0-0.2-0.1-0.4-0.1-0.6c0.3-0.1,0.5-0.1,0.8-0.1c-0.1-0.2-0.3-0.4-0.5-0.6
			c-0.2-0.2-0.5-0.4-0.7-0.6c0-0.1-0.1-0.2-0.2-0.2c-0.1-0.1-0.1-0.2-0.2-0.2l-0.4-1c0.2,0,0.2,0,0.4,0.2l0.2,0.1
			C574.6,534.5,574.6,534.4,574.7,534.4 M530.2,511.3c-0.2-0.2-0.3-0.4-0.5-0.6v0l0,0v0.1c0.1,0.1,0.2,0.2,0.3,0.3L530.2,511.3
			L530.2,511.3 M542.6,531.6c-3.4-8-7.4-14.7-11.9-19.8c-0.2,0-0.4,0-0.6,0c-0.2,0.1-0.5,0.3-1.6-0.2c-0.1,0-0.2,0.1-0.3,0.2
			c-0.1,0-0.2-0.1-0.3-0.2c-0.2-0.3-0.3-0.4-0.4-0.5c-0.5-0.3-0.5-0.3-0.9-0.1l-0.1,0c-0.3-0.1-0.5-0.1-0.7-0.1l-0.2,0.1
			c-0.1,0-0.2,0-0.3-0.1c-0.3,0.1-0.4,0.1-0.5,0.1c-0.3-0.1-0.5-0.4-0.8-0.5c0,0.1-0.1,0.2-0.1,0.3c-0.1,0-0.3,0-0.4,0l-0.2-0.2h0.3
			l0.1-0.3c0-0.3,0-0.3,0-0.3c-0.1,0-0.2-0.1-0.3-0.1c-0.1,0-0.2,0.1-0.3,0.1c0,0.1,0,0.2,0,0.3c-0.3,0.3-0.6,0.3-0.8,0.3l-0.1,0.1
			c0.1,0.1,0.1,0.2,0.2,0.2c0.1,0.1,0.1,0.1,0.1,0.1l-0.2,0.2c-0.1,0-0.1,0-0.1,0c-0.2,0-0.4,0-0.6,0.1c-0.3,0-0.3,0-0.4,0
			c-0.3,0.1-0.3,0.1-0.3,0.1l-0.1,0c0.3-0.3,0.9-1.1,1-1.2c0.2,0,0.2,0,0.3,0l0.2-0.2c0.2-0.2,0.3-0.2,0.3-0.2
			c0.1,0,0.2-0.1,0.3-0.1c0-0.1,0-0.2,0-0.3c0.1-0.2,0.2-0.2,0.4-0.2c-0.1-0.1-0.1-0.2-0.2-0.3c0-0.1,0-0.1,0.1-0.1
			c-0.1-0.2-0.3-0.4-0.5-0.5c-0.2-0.1-0.2-0.1-0.2-0.1c-0.3-0.3-0.8-0.4-1.1-0.8c-0.2,0-0.4,0-0.6,0c-0.2,0-0.4,0-0.6,0.1
			c-0.2-0.1-0.4-0.2-0.6-0.2c0,0.1,0.1,0.2,0.1,0.3c-0.1,0-0.2,0-0.3,0l-0.1-0.1l0.1-0.1c0-0.1-0.1-0.2-0.1-0.3c-0.2,0-0.3,0-0.5,0
			c-0.1,0-0.2,0-0.3-0.1c0-0.1-0.1-0.2-0.2-0.3c0.1-0.2,0.1-0.2,0-0.3c-0.3,0-0.6,0-0.9,0c-0.2,0.1-0.4,0.2-0.6,0.3
			c0,0.3,0,0.3,0,0.3c0,0.1-0.1,0.2-0.1,0.3c0.1,0.1,0.1,0.2,0.2,0.3c-0.3,0-0.6,0-0.9,0c-0.1,0.3-0.1,0.3-0.1,0.3l0,0h0h0l0,0h0v0
			l0,0c-0.1,0.1-0.1,0.1-0.1,0.1c-0.2,0.1-0.2,0.1-1.2-0.1c-0.2,0-0.2,0-0.2,0c-0.1,0-0.2,0-0.3-0.1c-0.1,0.2-0.3,0.4-0.4,0.5
			c-0.2,0-0.4,0-0.5,0c-0.3,0.1-0.6,0.3-0.9,0.4c-0.1,0-0.2-0.1-0.3-0.1c-0.7,0.3-2.3,1.2-2.3,1.2c0.1,0.2,0.3,0.3,0.5,0.4
			c0,0.1,0,0.2,0,0.2c-1,0.2-1,0.2-1.3,0.3c-0.4-0.2-0.4-0.2-1-0.1c-0.3,0-0.4,0-0.6,0l-0.3,0.1c-0.3,0.1-0.5,0.1-0.7,0.1
			c-0.1,0.1-0.2,0.1-0.3,0.2c0,0.2,0.1,0.4,0.2,0.6c0,0.1-0.1,0.1-0.1,0.1c0,0.1,0,0.2-0.1,0.3c0.1,0.1,0.2,0.1,0.3,0.2l0.2,0
			c0.1,0,0.2,0.1,0.3,0.1c0,0.1,0.1,0.2,0.1,0.3c0,0.1,0,0.1-0.1,0.2c-0.1,0.1-0.2,0.1-0.2,0.2c-0.3-0.1-0.6-0.3-0.9-0.4l0-0.3
			c-0.3-0.1-0.6-0.1-0.8-0.1l-0.2-0.3c-0.7-0.2-1.1,0.2-1.1,0.3c0.2,0,0.4,0.1,0.6,0.3c-0.1,0.1-0.2,0.1-0.3,0.2
			c-0.1-0.1-0.2-0.1-0.3-0.2c-0.2,0-0.3,0-0.3,0c-0.2,0.1-0.4,0.3-0.5,0.4c0,0.1,0,0.2,0.1,0.3c0.2,0,0.2,0,0.2,0h0h0h0h0h0l0,0h0
			c0.4,0.2,0.4,0.2,0.7,0.7c-0.1-0.1-0.1-0.1-1.5-0.5c0-0.1-0.1-0.2-0.1-0.3c0.2-0.2,0.2-0.3,0.2-0.4c0.5-1,0.5-1,0.5-1.2
			c-0.2-0.1-0.2-0.1-0.2-0.1h0h0h0h0h0h0h0c-0.3,0.6-0.3,0.6-0.5,0.9l-0.1,0.2c-0.7,0-1.3,0.7-1.4,0.8l0,0.1
			c0.1,1.2,0.1,1.2-0.5,1.7l0,0.1c-0.1,0.3-0.2,0.6-0.3,1c0.4,0.3,0.6,0.3,0.9,0.3c0.2-0.1,0.4-0.3,0.5-0.4c0.1,0,0.1,0,0.1,0
			c1.2,1.4,1.1,1.6,0.4,2.1c0.1,0.1,0.2,0.2,0.3,0.3c0.1,0.1,0.4,0.2,0.6,0.2l-0.1,0.2c-0.1,0-0.2,0.1-0.3,0.1c-0.3,0-0.3,0-0.4,0
			c-0.1-0.1-0.3-0.4-0.4-0.5c0.1-0.3,0.1-0.4,0.2-0.4c0-0.1,0.1-0.2,0.1-0.3l-0.2-0.2c0-0.1,0-0.2,0-0.3c-0.6-0.3-2-0.8-3.4,2.4
			c-0.2,0.1-0.2,0.1-1.3,0.6c-0.1,0.1-0.1,0.2-0.2,0.3c-0.4,0.2-0.4,0.3-0.9,0c-0.5-0.2-0.8-0.2-1.1-0.2l-0.1-0.1
			c1-0.8,2.4-0.6,3.3-1.5c0.3-0.1,0.6-0.2,1.3-1.5c-0.2,0-0.4-0.1-0.6-0.2c0-0.1,0-0.1,0.6-1.3l0.1-0.2c0.7-0.9,0.7-0.9,0.8-1.8
			c0.2-0.5,0.4-0.8,0.5-1.1c0.1,0,0.3,0,0.4,0l0.5-0.9c-0.2-0.1-0.4-0.2-0.6-0.2c-0.1,0-0.2,0-0.3,0c-0.5,0-0.9,0.2-1.3,0.2
			c-0.8,0.9-1.4,1.5-2,1.8c-0.3,0-0.3,0-0.4,0c-0.1,0-0.2,0.1-0.3,0.2c-0.1,0.2-0.1,0.2-0.2,0.2c-0.1,0.2,0,0.2,0,0.2
			c0,0.8-0.6,0.9-0.6,0.9c-0.2,0.1-0.4,0.3-0.5,0.5c0.4,0.2,0.4,0.4,0.3,0.7c0.1,0.1,0.2,0.2,0.2,0.3c0.2,0.6,0.2,0.6-0.5,1
			c-0.1,0-0.1,0-0.2,0c-0.1,0-0.2,0-0.3,0c-0.1-0.1-0.1-0.2-0.2-0.3c0-0.1,0.1-0.3,0.2-0.4c-0.6-0.3-0.6-0.3-0.7-0.5
			c-0.4-0.1-0.5-0.1-0.7-0.5c-0.4-0.2-0.6-0.2-0.8-0.2c0-0.1,0-0.2-0.1-0.3c-0.3,0-0.5,0-0.7,0c-0.1-0.2-0.2-0.5-0.3-0.6
			c0-0.1-0.1-0.2-0.1-0.3c-0.1,0-0.1,0-0.2,0c-0.1,0-0.1,0-0.8,1c0.1,0.1,0.2,0.1,0.3,0.2c0.2,1,0.2,1-0.3,1.4
			c-0.4,0.1-0.4,0.1-0.4,0.1c-0.4,0.1-0.6,0.6-1,0.5c0.2-0.3,0.5-0.5,0.7-0.8c0-0.2,0-0.2-0.1-0.2c-0.3,0.1-0.3,0.1-0.9,0.5
			c-0.3,0-0.3,0-0.3,0c-3.7,4-6.8,8.8-9.6,14.2C498,531.9,522.5,532.1,542.6,531.6 M468,588.3L468,588.3c0-0.5,0-0.7-0.1-0.9
			c-0.1-0.2-0.4-0.1-0.6-0.2c-0.2-0.2-0.2-0.2-0.3-0.6c0-0.2,0-0.3-0.1-0.5c-0.2-0.5-0.5-0.7-1-0.7c0,0-0.6,0-0.2-0.7
			c0.2-0.4,0.1-0.6,0.1-0.7c0-0.1-0.5-0.3-0.5-0.3c-0.2,0-0.3,0-0.5,0c0,0.7,0,0.7-0.2,0.9c-0.2,2.7-0.3,5.4-0.4,8.1
			c0.1,0,0.1,0,0.3,0c0.1,0,0.2,0,0.3,0c0.1,0,0.2,0,0.3,0c0-0.2,0.1-0.4,0.1-0.6c0.4-1.2,0.5-1.4,0.9-1.4l0.1,0
			c0.1,0.1,0.1,0.2,0.2,0.3c0.1,0.1,0.2,0.1,0.3,0.1c0-1.7,0.3-2.4,0.4-2.5c0.1-0.1,0.1-0.1,0.5-0.1
			C467.6,588.5,467.8,588.4,468,588.3 M551.3,577c0-0.3-0.2-0.6-0.4-0.8c-0.3,0-0.6-0.1-0.9-0.2c0-0.3-0.1-0.6,0-0.9
			c0.1-0.2,0.3-0.2,0.4-0.2c-0.3-0.9-0.7-1.7-1-2.6c-26.5,0.4-58.1,0.2-83.5-0.8c-0.4,2.9-0.8,5.9-1.1,9c0.4,1.3,0.4,1.3,0.7,1.5
			c0.5,0,1,0,1.4,0.1c0.1,0,0.1,0,1.4,0.8c0.6,0,1,0.1,1.5,0.1c0.1,0.1,0.3,0.1,0.4,0.2c0.9,0.1,1.6,0.1,2.4,0.1l1.7-0.3
			c0.5,0,1,0,1.5,0c0.8,0.6,1.3,1,3.1,3.7c0.3,0,0.4,0,0.5,0c0.5,0.1,0.5,0.1,1.7,0.6c-1.3-0.1-1.4,0.1-1.7,0.5
			c0.1,0.1,0.1,0.3,0.2,0.4c1.1,0.3,1.2,1.7,2.4,1.9c0.4,0.1,1.7-1.3,1.7-1.3c1.3,0.2,1.5,2.4,1.4,3.6c0,0.2,0,0.4,0,0.7
			c-0.4,2.5-0.4,2.5,3,9.4c0,0.5,0,0.6,0,0.7c-0.3,2.2,1.6,3.6,2.3,5.4c1,0.8,1,0.8,2.2-1.5c1.3-0.1,1.4-0.9,2.1-5.5
			c0-0.6,0-1.1,0-1.7c-0.1-1.6-0.1-1.6,1.9-2.1c1.1-2.1,3.7-2.9,4.7-5.2c0.3-0.1,0.6-0.1,0.9-0.2c0.2-0.7,0.3-0.8,0.9-0.9h0.1h0h0h0
			l0,0h0h0h0c0.7-0.2,0.7-0.2,0.9-1.9c0.5-0.3,0.9-0.3,1.4-0.3c0.1,0.1,0.3,0.1,0.4,0.2c0.4,0,0.4,0,0.5,0c0.5-0.3,1.1-0.5,1.5-0.9
			c0.6-0.2,1.1-0.2,1.6-0.2c0-0.3,0-0.6,0-0.9c0.3,0,0.6,0.1,0.9,0.2c0.5,1.2,0.8,2.5,1.6,3.6c1,0.8,1,0.8,1.3,1.3
			c0,0.2,0,0.3,0,0.4c0,0.3-0.1,0.7-0.1,1V594c0.5-0.1,0.6-0.1,1.2,0.3c-0.3,3.7-0.3,3.7,1,3.7c0.2,0,0.3,0,0.4,0
			c0.5-0.3,0.5-0.3,1.3-0.6c0.4-0.2,0.4-0.3,0.4-0.4c0-0.1,0-0.2,0-0.3c0.1-0.1,0.2-0.2,0.3-0.3c1.7,0.5,0.9,2.5,2,3.3
			c0.1,0.5,0.1,0.5-0.4,1.3c1,4.2,1,4.2,0.4,4.5c-0.2,0.6-0.2,0.6-0.1,1.4c0,0.1,0,0.2,0,0.3c-1,3.4,2.9,4.6,3.4,7.3
			c0,0.5,0,1,0,1.6c0.8,2.1,4,3.4,4,3.4c0.2,0,0.3,0,0.3,0c0.1-0.1,0.1-0.3,0.2-0.4c-0.1-0.2-0.4-0.5-0.6-0.7
			c-0.6-0.9-0.8-4.1-0.8-4.1c0-0.1,0-0.2,0-0.3c0-0.4,0-0.5,0-0.6c-0.1-0.6,0-0.8,0-1c-2.7,0.2-2.5-2.9-4.2-3.7c0-0.1,0-0.3-0.1-0.4
			c0-0.3,0-0.4,0-0.5c-0.2-0.2-0.5-0.5-0.8-0.6c0-0.5,0-1,0-1.5c0.5-1.1,1.9-3.9,1.9-3.9c0.6,0.5,0.7,1.3,1.3,1.7c0.3,0,0.3,0,0.4,0
			c0.2-0.1,0.6-0.2,0.8-0.1c1.8,3.3,1.8,3.3,3,3.5c0.1,0.1,0.2,0.3,0.3,0.4c-0.7,1.1-0.3,1.8,0,2.4c0.7-0.9,2.8-3.4,2.8-3.4
			c0.5,0.1,3.1,0.3,3.1-3.6c0-0.6,0-0.9,0-1.3c0.1-1-0.5-1.9-0.5-2.9c-0.8-0.3-0.8-0.3-1.9-1.7c-0.9-0.7-1.2-1.9-2-2.8
			c0.1-1.3,0.1-1.3,0.9-1.8c0.5-2.4,0.5-2.4,4.2-2.8c0.1,0.1,0.1,0.2,0.1,0.4c-0.1,0.9-0.1,1.4-0.1,2c-1.5,1.9-1.5,1.9-1.3,2.4
			c1,0.1,1.7,0.1,2.5,0.1c0.1-0.8,0.4-1.6,0.4-2.4c-0.1-0.1-0.3-0.1-0.5-0.2c-0.1-0.6-0.1-1.3-0.1-1.9c0.1,0,0.3,0,0.4,0
			c0.3,0,0.3,0,0.4,0c1.3-0.9,1.3-0.9,2-0.9c0.1,0,0.2,0,0.3,0C543.8,589.6,550.6,582,551.3,577 M448.3,528.5L448.3,528.5
			c0,0-0.3,0.2-1.2,1.2l-0.1,0.1c0.2-0.2,0.3-0.3,0.5-0.5l0,0l0.1-0.1C447.8,529,448.1,528.7,448.3,528.5 M440.8,538.3
			c0.1-0.2,0.2-0.3,0.4-0.5c0.2-0.4,0.4-0.7,0.6-1c-0.2,0.2-0.4,0.4-0.6,0.7c0-0.1,0-0.1,1-1.3l-0.1,0c0.1-0.1,0.1-0.1,1.1-1.5
			c0,0,1.9-2.6,2.2-2.7c0.1-0.1,0.1-0.1,0.2-0.2c0.2-0.2,0.5-0.5,0.7-0.7c0.3-0.3,0.5-0.6,0.8-0.9l-0.1-0.1c0.5-0.5,1-0.9,1.4-1.4
			l0,0l0,0l-0.1,0l0-0.1c-0.3,0.3-0.6,0.6-0.9,0.9c-0.7,0.7-0.7,0.7-0.8,0.8c0.1-0.1,0.2-0.2,0.2-0.3c-0.4,0.4-0.7,0.8-1.1,1.2
			l-0.2,0.2c-0.4,0.4-0.8,0.8-1.2,1.3l0,0l0.1,0c-0.1,0.1-0.2,0.3-0.4,0.4v0c0.1-0.1,0.3-0.3,0.4-0.4c-0.5,0.6-1,1.1-1.5,1.7l0,0.1
			l0.2-0.2c-0.3,0.5-0.8,1-1.1,1.5c-0.3,0.4-0.5,0.8-0.9,1.1c0-0.1,0.1-0.2,0.1-0.2l0,0c-0.1,0.1-0.1,0.1-0.2,0.2l-0.2,0.2
			c-0.2,0.3-0.2,0.3-0.3,0.4l0.1,0c0,0.1-0.1,0.1-0.4,0.5l0,0c-0.1,0.1-0.2,0.3-0.4,0.4l0,0l0,0l0,0l0,0v0h0v0v0
			c-0.4,0.6-0.5,0.7-0.5,0.7c0.1-0.1,0.1-0.1,0.2-0.2c-0.5,0.8-0.5,0.8-0.8,1.1l0,0c0,0-0.8,1.1-0.9,1.2l0.1-0.1
			c0.1-0.1,0.2-0.2,0.2-0.3l-0.1,0.2l0,0c0.1-0.2,0.3-0.4,0.4-0.6l0,0.1l0.1,0l0,0.1l0,0c0.1-0.1,0.2-0.3,0.3-0.4
			c0,0.2-0.2,0.3-0.2,0.5l0,0l0.1,0c0.1-0.1,0.2-0.3,0.3-0.4l0.1,0l0.1-0.1c0.2-0.3,0.4-0.6,0.6-0.8l0.1-0.1
			C440.3,538.7,440.6,538.5,440.8,538.3L440.8,538.3 M442.9,534.3L442.9,534.3L442.9,534.3L442.9,534.3L442.9,534.3 M442.7,534.7
			c0.6-0.7,0.7-0.8,1.2-1.5v0c-0.2,0.1-0.3,0.3-0.4,0.4c0.1-0.2,0.2-0.3,0.4-0.4l0,0c-0.8,1-0.8,1-3.7,4.6l-0.6,0.7v0
			c0.2-0.2,0.4-0.5,0.5-0.7l0,0.1c0.1-0.1,0.2-0.2,0.2-0.3c0.6-0.7,1.7-2.2,1.7-2.2c0.1-0.2,0.3-0.3,0.4-0.4
			C442.4,535,442.5,535,442.7,534.7 M463.7,639.4c0-0.1-0.1-0.2-0.1-0.2c-1.3-3.2-1.3-3.2-2.8-3.7c0.3,1,0.3,1,0.3,1.1
			c0,0-0.2,0.6-0.6,1c-0.4,0.4,0.3,0.8,0.2,1.2c-0.3,0-0.3,0-0.3,0c0,0.3,0.4,0.7,0,1c-1.8-0.1-1.8-0.1-2.1,0.2
			c-0.1,0.1-0.1,0.1,0.3,0.8c0.1,0.1,0.1,0.1,0.1,0.9c0,0,0.6,1.6,1.1,1.9c0.1,0.1,0.4,0.3,0.7,1.1l0,0.1c-0.3-0.1-0.3-0.1-0.3-0.1
			c0,0.8,0.4,1.5,0.6,2.3c0,0.1,0.1,0.2,0.1,0.2c0.2,0.4,0.6,0.7,0.9,1.1c0.1,0.1,0.2,0.3,0.2,0.4c0.5,0.8,0.5,0.8,0.8,1.3
			c0.3,0,0.7,0,1,0.1c0.2,0.1,0.2,0.3,0.4,0.4c0.2,0.1,1.6,0.3,1.7-0.1c0.3-1.1-0.7-1.7-1-2.5c-0.2-0.5,0.1-1-0.1-1.5
			c-0.3-0.6-0.7-1.1-0.8-1.7l0.1-0.2c0,0,0.7-0.6,0.7-0.7c0-0.6-0.7-0.8-0.9-1.4c-0.1-0.4,0-0.7,0-1.1c-0.1-0.2-0.1-0.3-0.2-0.5
			c-0.1-0.2-0.2-0.3-0.3-0.5c0-0.1-0.1-0.2-0.1-0.2l0-0.1C463.8,640,463.8,640,463.7,639.4 M456.8,604.6c0-0.4-0.1-0.8-0.3-1.2
			c-1.5-0.3-2.5,1.7-4.2,0.9c-0.2,0-0.3,0-0.5,0c-1.4,0.1-1.7,0.2-2.5-0.3c-0.6-1.4-0.6-1.4-0.7-1.8c-0.1-0.1-0.3-0.2-0.4-0.3
			c-0.5-1.7-0.5-1.7-1.3-1.9c-4.6-7.9-4.6-7.9-4.4-9.1c0-0.2,0-0.4,0-1.1c-0.6-11.2-3.3-17-3.6-17.7c-0.1,0-0.1,0-0.6,0.2
			c-0.1,0.1-0.3,0.2-0.5,0.3l-0.2,0c-0.8-0.4-1.9-1-2.8-1.1c-0.7-2.1-0.7-2.1-1.2-2.4c-0.2,0.1-0.3,0.1-0.5,0.2
			c-0.1-0.1-0.3-0.2-0.5-0.2c-0.9,3.5-0.9,3.5-1.3,3.8c-0.1,0-0.1,0-0.3,0c-0.2-0.5-0.2-1-0.5-1.4c-0.3-0.1-0.7-0.1-0.9-0.6
			c0.3-1.6-0.3-1.9-0.8-2.2c-0.5-2.5,2.1-4.4,1.4-7c-0.4,0.1-0.8,0.4-1.2,0.4c-0.1,0.1-0.3,0.3-0.4,0.4c0.1-0.3,0-0.7-0.1-1
			c-0.2,0.2-0.5,0.6-0.6,0.9c-0.1,0-0.2-0.1-0.4,0.1c-0.4,1-0.4,1-0.7,1.4c0,0,0,0,0-0.2c0,0,0,0,0-0.2c0-0.1,0.1-0.3,0.1-0.5
			c0-0.1,0.1-0.2,0.1-0.3c-0.3,0.8-0.3,0.9-0.8,2.6c-0.9,3.4-2,7.9-2.7,11.4c-0.8,4.8-0.8,4.8-1.2,14.6c0,2.4,0.2,5.6,0.3,8
			c0.3,2.9,0.9,6.8,1.4,9.7l0-0.1c0,0,0,0,0.1,0.2c0.1,0.1,0.2,0.3,0.3,0.4c0-0.3,0-0.7,0.2-0.9c0,0,0,0,0-0.2
			c0.1-0.1,0.2-0.3,0.3-0.4c0.6,2.6,0.6,2.6,0.9,3c0.3,0.1,0.7,0.2,1.1,0.3c0.1,0.6,0.2,1.2,0.4,1.8c1,5.9,4.5,10.9,6.5,16.5
			c0.1,0.2,0.2,0.4,0.2,0.5c5.8,12.2,5.8,12.2,10.1,16.7c0.6,0.8,1.1,1.5,1.7,2.3c2.8,3.3,8.1,7.9,8.1,7.9l0.2,0.2
			c0.4,0.7,0.5,0.7,1.1,1.2c0.1,0,0.1,0,0.4,0.2c0.5,0.5,0.6,0.6,1.3,1c0.3,0,0.5,0.1,1-0.3c0.4,0,0.7,0.1,0.9-0.2
			c0-0.3,0-0.7,0.1-0.9l-3.7-7.6c0.1,0,0.3-0.1,0.5-0.1c0-1.3,0-1.3,0.1-1.6c-3-4.4-3-4.4-3.2-7.3c0.2-0.2,0.6-0.4,0.9-0.4
			c0.7-1,0.7-1,0.1-3.3c-0.1-0.2-0.2-0.5-0.5-1.1c-0.1-0.3-0.4-0.7-0.6-0.9c-0.4-1-0.8-2-1.5-3.3c-1.3-1.5-1.5-3.5-2.5-5.1
			c0-0.1-0.1-0.2-0.2-0.6c0-0.3-0.1-0.7-0.2-1l4.4-10.3C456.1,613.6,456.7,607.9,456.8,604.6 M505.5,501.8L505.5,501.8l-0.1,0
			L505.5,501.8 M500.7,502.4c-0.4,0.1-0.8,0.1-1.2,0.2c-0.1,0-0.1,0-0.1,0c-0.5,0.1-0.9,0.1-1.4,0.2v0c0.1,0,0.2,0,0.4-0.1
			c-0.5,0.1-0.6,0.1-0.8,0.1l-0.1,0l-0.4,0.1c-2,0.3-2.3,0.4-3.7,0.7c-0.1,0-0.1,0-0.1,0c-0.3,0.1-0.6,0.1-0.9,0.2
			c-0.1,0-0.1,0-0.1,0c-1,0.2-1.6,0.4-1.9,0.5c-0.4,0.1-0.9,0.2-1.3,0.4c0.3-0.1,0.5-0.1,0.7-0.2c-0.4,0.1-1.1,0.3-1.2,0.3l0,0
			l0.1,0c-0.3,0.1-0.6,0.2-0.9,0.3c-0.1,0-0.1,0-0.1,0l0.1,0c-0.2,0.1-0.4,0.1-0.6,0.2c-0.1,0-0.2,0.1-0.2,0.1
			c-0.2,0.1-0.4,0.1-0.5,0.2c-0.1,0-0.2,0.1-0.3,0.1l0.4-0.1l0.1,0c4-1.1,8.6-2.4,16.9-3.4l0,0c0.1,0,0.3,0,0.4,0l0.1,0l0.1,0l0.2,0
			c0.1,0,0.3,0,0.4,0c0.1,0,0.2,0,0.3,0l0.1,0l0.1,0l0,0l0.1,0l0.1,0l0,0c0.1,0,0.3,0,0.4,0l0.1,0c0.1,0,0.2,0,0.4,0l0.1,0l0.1,0
			l0,0l0,0h0l-0.1,0h0l-0.1,0l0,0l0,0h0l-0.1,0l-0.1,0l-0.1,0c0.2,0,0.5,0,0.7-0.1l0.1,0l0.1,0l0.1,0l0.1,0l0.1,0l0.1,0
			c0.2,0,0.3,0,0.5,0h0l0,0l-0.1,0l0.1,0l-0.1,0c-0.1,0-0.1,0-0.1,0c0.1,0,0.2,0,0.4,0c-0.2,0-0.5,0-0.7,0l-0.1,0
			c-0.1,0-0.2,0-0.3,0c0.5,0,1-0.1,1.5-0.1l0,0c-0.1,0-0.1,0-0.1,0c0.2,0,0.4,0,0.5,0c-0.1,0-0.2,0-0.3,0c-0.1,0-0.1,0-0.1,0
			c-0.1,0-0.3,0-0.4,0h0c-0.3,0-0.6,0-0.9,0c0,0,0.1,0,0.2,0c-0.2,0-0.3,0-0.5,0l0,0l-0.3,0l-0.1,0c0.1,0,0.2,0,0.3,0l0,0l0,0l0,0
			l-0.1,0c-0.1,0-0.3,0-0.4,0c-0.1,0-0.1,0-0.1,0l0.1,0c0.1,0,0.1,0,0.1,0c-0.4,0-0.8,0.1-1.2,0.1l0,0l0.1,0l-0.1,0
			c-0.2,0-0.4,0-0.7,0.1c-0.3,0-0.5,0-0.7,0.1l0.1,0c-0.1,0-0.2,0-0.4,0c0,0,0.1,0,0.2,0c-0.2,0-0.7,0.1-1.5,0.2l0.2,0l0,0l0,0h0
			l0,0l0,0l0,0h0h0c0.1,0,0.1,0,0.1,0l0,0l0,0l0,0l0,0h0l0,0h0c0.2,0,0.3,0,0.5-0.1l-0.1,0l-0.1,0l0.1,0c-0.1,0-0.3,0-0.5,0.1
			l-0.2,0l0,0c-0.3,0-0.7,0.1-1,0.1c0.1,0,0.2,0,0.4,0l-0.1,0c0.5-0.1,1-0.1,1.6-0.2l-0.1,0l0,0c-0.5,0.1-1.1,0.1-1.7,0.2
			c-0.3,0-0.5,0.1-0.8,0.1c-0.7,0.1-1.3,0.2-2.2,0.3c0.8-0.1,1.1-0.2,1.7-0.3h0h0l0,0l0,0h0l0,0l0,0l0,0
			C500.2,502.4,500.5,502.4,500.7,502.4c-0.1,0-0.3,0-0.4,0c0.5,0,1-0.1,1.4-0.2c0.1,0,0.1,0,0.1,0h0l0,0l0,0l0,0l0.1,0
			c-0.1,0-0.2,0-0.3,0c-0.1,0-0.2,0-0.3,0c0.1,0,0.2,0,0.3,0C501.3,502.3,501,502.3,500.7,502.4"/>
	</g>
	<g>
		<path class="st24" d="M815.6,595.1H761c-4.2,0-7.6-3.4-7.6-7.6v-36c0-4.2,3.4-7.6,7.6-7.6h54.6c4.2,0,7.6,3.4,7.6,7.6v36
			C823.1,591.7,819.7,595.1,815.6,595.1z"/>
		<path class="st10" d="M815.6,595.1H761c-4.2,0-7.6-3.4-7.6-7.6v-36c0-4.2,3.4-7.6,7.6-7.6h54.6c4.2,0,7.6,3.4,7.6,7.6v36
			C823.1,591.7,819.7,595.1,815.6,595.1z"/>
		<path class="st3" d="M784.7,558.3l15.7,9.1c1.6,0.9,1.6,3.3,0,4.3l-15.7,9.1c-1.6,0.9-3.7-0.2-3.7-2.1v-18.1
			C781,558.5,783.1,557.4,784.7,558.3z"/>
		<path class="st25" d="M764.7,595.1h47.2c6.2,0,11.2-5.1,11.2-11.2v-14.8h-69.7v14.8C753.5,590.1,758.5,595.1,764.7,595.1z"/>
	</g>
	<circle class="st3" cx="1476.4" cy="643.2" r="52.3"/>
	<g>
		<g>
			<g>
				<g>
					<g>
						<g>
							<path class="st9" d="M1339.6,609.8c1.8,1.2,2.2,3.7,1,5.4l-6,8.5c-1.2,1.8-3.7,2.2-5.4,1l-21.8-15.3c-1.8-1.2-2.2-3.7-1-5.4
								l6-8.5c1.2-1.8,3.7-2.2,5.4-1L1339.6,609.8z"/>
							<g>
								<path class="st26" d="M1344.2,537.9c-4.1,0-7.3,3.3-7.3,7.4c0,4.1,3.3,7.3,7.3,7.3l0,0l0,0c4.1,0,7.4-3.3,7.3-7.4
									C1351.5,541.2,1348.2,537.9,1344.2,537.9L1344.2,537.9L1344.2,537.9z"/>
							</g>
							<path class="st3" d="M1296.2,563.7l21.6,21.6l28.8-28.8l-33.4-33.4c0.7,10.8-1.8,21.6-7.8,30.7
								C1302.8,557.7,1299.7,561,1296.2,563.7z"/>
							<path class="st14" d="M1296.8,563l-15.9,15.8c-6.1,6.1-6.1,16,0,22l7.6,7.6c6.1,6.1,16,6.1,22,0l15.8-15.8L1296.8,563z"/>
							<path class="st14" d="M1369.5,576.4c-1.4,1.4-3.8,1.2-5.4-0.4l-50.8-50.8c-1.6-1.6-1.7-4-0.4-5.4l2.5-2.5
								c1.4-1.4,3.8-1.2,5.4,0.4l50.8,50.8c1.6,1.6,1.7,4,0.4,5.4L1369.5,576.4z"/>
							<path class="st27" d="M1366.2,576.1l-26.6-26.6l-28.8,28.8l14.8,14.8c2.7-3.5,6-6.6,10-9.3
								C1344.6,577.8,1355.4,575.3,1366.2,576.1z"/>
							<path class="st9" d="M1311.5,577.6l-26.9,26.9l3.9,3.9c6.1,6.1,16,6.1,22,0l15.8-15.8L1311.5,577.6z"/>
							<path class="st9" d="M1371.6,568.5l-25.5-25.5l-7.5,7.5l25.5,25.5c1.6,1.6,4,1.7,5.4,0.4l2.5-2.5
								C1373.4,572.5,1373.2,570.1,1371.6,568.5z"/>
							<path class="st13" d="M1316.6,607.1c-1.1-0.8-2.7-0.5-3.5,0.6l0,0c-0.8,1.1-0.5,2.7,0.6,3.5l16.3,11.2
								c1.1,0.8,2.7,0.5,3.5-0.6l0,0c0.8-1.1,0.5-2.7-0.6-3.5L1316.6,607.1z"/>
						</g>
						<g>
							<g>
								<path class="st3" d="M1353.8,536.7c-0.2,0-0.4-0.1-0.6-0.2c-0.3-0.3-0.3-0.8,0-1.2l21.4-21.4c0.3-0.3,0.8-0.3,1.2,0
									c0.3,0.3,0.3,0.8,0,1.2l-21.4,21.4C1354.2,536.6,1354,536.7,1353.8,536.7L1353.8,536.7z"/>
							</g>
							<g>
								<g>
									<path class="st3" d="M1348.8,532.5c-0.1,0-0.2,0-0.3-0.1c-0.4-0.1-0.7-0.6-0.5-1l9.8-28.7c0.1-0.4,0.6-0.7,1-0.5
										c0.4,0.1,0.7,0.6,0.5,1l-9.8,28.7C1349.4,532.3,1349.1,532.5,1348.8,532.5L1348.8,532.5z"/>
								</g>
								<g>
									<path class="st3" d="M1358,541.7c-0.3,0-0.7-0.2-0.8-0.6c-0.1-0.4,0.1-0.9,0.5-1l28.7-9.8c0.4-0.2,0.9,0.1,1,0.5
										c0.1,0.4-0.1,0.9-0.5,1l-28.7,9.8C1358.2,541.7,1358.1,541.7,1358,541.7L1358,541.7z"/>
								</g>
							</g>
						</g>
					</g>
				</g>
			</g>
		</g>
	</g>
	<g>
		<path class="st28" d="M809.2,711.2c0,2.5-1.9,4.5-4.2,4.5h-8.1v16.9l-19.9-16.9H725c-2.3,0-4.2-2-4.2-4.5v-51.1
			c0-2.5,1.9-4.5,4.2-4.5h80c2.3,0,4.2,2,4.2,4.5V711.2z"/>
		<path class="st3" d="M685.4,695.1c0,2.5,1.9,4.5,4.2,4.5h8.1v16.9l19.9-16.9h51.9c2.3,0,4.2-2,4.2-4.5v-51.1
			c0-2.5-1.9-4.5-4.2-4.5h-79.9c-2.3,0-4.2,2-4.2,4.5V695.1z"/>
		<rect x="698.6" y="656" class="st29" width="61.9" height="3.9"/>
		<rect x="698.6" y="668.2" class="st29" width="61.9" height="3.9"/>
		<rect x="698.6" y="680.4" class="st29" width="48.2" height="3.9"/>
	</g>
	<g>
		<circle class="st3" cx="1163.4" cy="569.9" r="55.8"/>
		<path class="st10" d="M1199.8,566.6c-1.7-19.8-19-34.5-38.8-32.8c-19.8,1.7-34.5,19-32.8,38.8c1.7,19.8,19,34.5,38.8,32.8l4.5-0.4
			c2.5-0.2,4.3-2.4,4.1-4.9c-0.2-2.5-2.4-4.3-4.9-4.1l-4.5,0.4c-14.8,1.2-27.9-9.8-29.1-24.6c-1.2-14.8,9.8-27.9,24.6-29.1
			c14.8-1.2,27.9,9.8,29.1,24.6l1.1,13.4c0.2,2.5-1.6,4.6-4.1,4.9c-2.5,0.2-4.6-1.6-4.9-4.1l-1.1-13.4c-0.8-9.9-9.5-17.2-19.4-16.4
			c-9.9,0.8-17.2,9.5-16.4,19.4c0.8,9.9,9.5,17.2,19.4,16.4c3.4-0.3,6.4-1.5,8.9-3.4c1.5,6.4,7.4,11,14.2,10.4
			c7.4-0.6,12.9-7.1,12.3-14.6L1199.8,566.6z M1164.8,578.5c-5,0.4-9.3-3.3-9.7-8.2c-0.4-5,3.3-9.3,8.2-9.7c4.9-0.4,9.3,3.3,9.7,8.2
			C1173.4,573.8,1169.7,578.1,1164.8,578.5z"/>
	</g>
	<g>
		<path class="st9" d="M677.5,773.1l44.6-25.9c-1-1.2-2.4-2.1-4.1-2.6l-83.3-22.1c-1.7-0.4-3.4-0.3-4.8,0.2l25.9,44.6
			C660.3,774.9,670,777.5,677.5,773.1z"/>
		<path class="st10" d="M652.9,773.4l-27-46.4c0,0,0,0,0,0L610.6,785c-0.9,3.6,1.5,7.3,5.4,8.3l83.3,22.1c3.9,1,7.9-1,8.8-4.6
			l15.3-57.9c0,0,0,0,0,0l-46.4,27C668.6,784.7,657.8,781.9,652.9,773.4z"/>
	</g>
	<g>
		<path class="st9" d="M689.5,867.7l44.6-25.9c-1-1.2-2.4-2.1-4.1-2.6l-83.3-22.1c-1.7-0.4-3.4-0.3-4.8,0.2l25.9,44.6
			C672.3,869.5,682,872.1,689.5,867.7z"/>
		<path class="st10" d="M664.9,868l-27-46.4c0,0,0,0,0,0l-15.3,57.9c-0.9,3.6,1.5,7.3,5.4,8.3l83.3,22.1c3.9,1,7.9-1,8.8-4.6
			l15.3-57.9c0,0,0,0,0,0l-46.4,27C680.6,879.3,669.8,876.4,664.9,868z"/>
	</g>
	<g>
		<path class="st9" d="M759.5,815.8l23.5-13.7c-0.5-0.6-1.3-1.1-2.1-1.4L737,789.1c-0.9-0.2-1.8-0.2-2.5,0.1l13.7,23.5
			C750.4,816.7,755.5,818.1,759.5,815.8z"/>
		<path class="st10" d="M746.5,816l-14.2-24.5c0,0,0,0,0,0l-8.1,30.5c-0.5,1.9,0.8,3.8,2.9,4.4l43.9,11.6c2.1,0.5,4.2-0.5,4.7-2.4
			l8.1-30.5c0,0,0,0,0,0l-24.5,14.2C754.8,821.9,749.1,820.4,746.5,816z"/>
	</g>
	<g>
		<path class="st9" d="M598.1,826.3l23.5-13.7c-0.5-0.6-1.3-1.1-2.1-1.4l-43.9-11.6c-0.9-0.2-1.8-0.2-2.5,0.1l13.7,23.5
			C589,827.2,594.2,828.6,598.1,826.3z"/>
		<path class="st10" d="M585.2,826.4L570.9,802c0,0,0,0,0,0l-8.1,30.5c-0.5,1.9,0.8,3.8,2.9,4.4l43.9,11.6c2.1,0.5,4.2-0.5,4.7-2.4
			l8.1-30.5c0,0,0,0,0,0l-24.5,14.2C593.5,832.4,587.7,830.9,585.2,826.4z"/>
	</g>
	<g>
		<g>
			<circle class="st10" cx="1246.6" cy="834.8" r="76.2"/>
		</g>
		<g>
			<path class="st3" d="M1288.7,877c0-28.2-18.6-51-41.6-51c-23,0-41.6,22.9-41.6,51H1288.7z"/>
			<path class="st3" d="M1270.9,799.7c0-12.5-10.9-22.6-24.4-22.6c-13.5,0-24.4,10.1-24.4,22.6c0,12.5,10.9,22.6,24.4,22.6
				C1260,822.3,1270.9,812.2,1270.9,799.7z"/>
		</g>
	</g>
	<g>
		<path class="st3" d="M1440.5,780.9c-0.6,0.5-1.7,1.4-2.3,1.9l-2.9,2.3c-0.6,0.5-1.6,0.4-2.1-0.2l-18.4-22.9
			c-0.5-0.6-1.3-0.6-1.7,0.1l-10.9,17.2c-0.4,0.7-1,0.6-1.2-0.2l-17.1-66.1c-0.2-0.8,0.2-1.1,1-0.8l60.5,31.6
			c0.7,0.4,0.7,0.9-0.1,1.2l-20.3,7.8c-0.8,0.3-1,1-0.4,1.7l19.1,22c0.5,0.6,0.5,1.6-0.2,2.1L1440.5,780.9z"/>
	</g>
	<path class="st10" d="M1450.9,630.4v25.7c0,2.7,2.2,5,5,5h41.9c2.7,0,5-2.2,5-5v-25.7c0-2.7-2.2-5-5-5h-41.9
		C1453.2,625.4,1450.9,627.7,1450.9,630.4z M1454.1,656.1v-25.7l16.4,13.6l-16.3,12.2C1454.1,656.2,1454.1,656.1,1454.1,656.1z
		 M1499.6,656.3l-16.3-12.3l16.4-13.5v25.6C1499.7,656.2,1499.7,656.3,1499.6,656.3z M1456.8,628.6h40.2l-18.6,15.3
		c-0.8,0.7-2.3,0.7-3.2,0L1456.8,628.6z M1496.5,657.9h-39.3l15.8-11.8l0.3,0.3c1,0.8,2.3,1.3,3.6,1.3c1.3,0,2.6-0.4,3.6-1.3
		l0.3-0.2L1496.5,657.9z"/>
</g>
</svg>
