<?xml version="1.0" encoding="utf-8"?>
<!-- Generator: Adobe Illustrator 19.2.0, SVG Export Plug-In . SVG Version: 6.00 Build 0)  -->
<svg version="1.1" xmlns="http://www.w3.org/2000/svg" xmlns:xlink="http://www.w3.org/1999/xlink" x="0px" y="0px" width="1920px"
	 height="1080px" viewBox="0 0 1920 1080" style="enable-background:new 0 0 1920 1080;" xml:space="preserve">
<style type="text/css">
	.st0{fill:#8ABCB1;}
	.st1{fill:#95C1B5;}
	.st2{fill:#D6E8F6;}
	.st3{fill:#9ABCCD;}
	.st4{fill:#FFFFFF;}
	.st5{opacity:0.3;}
	.st6{fill:#CDE4EB;}
	.st7{fill:#DFE9F3;}
	.st8{fill:#C1D5DF;}
	.st9{fill-rule:evenodd;clip-rule:evenodd;fill:#C85A64;}
	.st10{fill-rule:evenodd;clip-rule:evenodd;fill:#A12A2D;}
	.st11{fill-rule:evenodd;clip-rule:evenodd;fill:#FFFFFF;}
	.st12{fill-rule:evenodd;clip-rule:evenodd;fill:#CFCFCE;}
	.st13{fill-rule:evenodd;clip-rule:evenodd;fill:#ECE1B4;}
	.st14{fill-rule:evenodd;clip-rule:evenodd;fill:#DCA236;}
	.st15{fill-rule:evenodd;clip-rule:evenodd;fill:#D8AB6F;}
	.st16{fill-rule:evenodd;clip-rule:evenodd;fill:#B28751;}
	.st17{fill-rule:evenodd;clip-rule:evenodd;fill:#232222;}
	.st18{fill-rule:evenodd;clip-rule:evenodd;fill:#C29129;}
	.st19{fill-rule:evenodd;clip-rule:evenodd;fill:#FFFEFB;}
	.st20{fill-rule:evenodd;clip-rule:evenodd;fill:#F0D897;}
	.st21{fill-rule:evenodd;clip-rule:evenodd;fill:#E1A732;}
	.st22{fill-rule:evenodd;clip-rule:evenodd;fill:#EAC669;}
	.st23{fill-rule:evenodd;clip-rule:evenodd;fill:#C86257;}
	.st24{fill-rule:evenodd;clip-rule:evenodd;fill:#6A8DBC;}
	.st25{fill:url(#SVGID_1_);}
	.st26{fill:#EDEFF0;}
	.st27{fill:#6D6D70;}
	.st28{fill:#C86257;}
	.st29{fill:#D78F89;}
	.st30{fill:#E3C9A7;}
	.st31{fill:#F7ECDC;}
	.st32{fill:#738AB1;}
	.st33{opacity:0.42;fill:#E6E6E5;}
	.st34{fill:url(#SVGID_2_);}
	.st35{fill:#EAC669;}
	.st36{fill:#E1A732;}
	.st37{fill:#636363;}
	.st38{fill:#6BAFB2;}
	.st39{fill:#B8CD76;}
	.st40{fill:#D28D3F;}
	.st41{fill:#CBCBCB;}
	.st42{fill:#C65473;}
	.st43{fill:#CE7F77;}
	.st44{fill:#506D96;}
	.st45{fill-rule:evenodd;clip-rule:evenodd;fill:url(#SVGID_3_);}
	.st46{fill-rule:evenodd;clip-rule:evenodd;fill:url(#SVGID_4_);}
	.st47{fill-rule:evenodd;clip-rule:evenodd;fill:url(#SVGID_5_);}
	.st48{fill-rule:evenodd;clip-rule:evenodd;fill:url(#SVGID_6_);}
	.st49{fill-rule:evenodd;clip-rule:evenodd;fill:#ACB8A0;}
	.st50{fill-rule:evenodd;clip-rule:evenodd;fill:url(#SVGID_7_);}
	.st51{fill-rule:evenodd;clip-rule:evenodd;fill:url(#SVGID_8_);}
	.st52{fill-rule:evenodd;clip-rule:evenodd;fill:#CBCBCB;}
	.st53{fill:#629FCE;}
	.st54{fill-rule:evenodd;clip-rule:evenodd;fill:#E6E6E5;}
	.st55{fill-rule:evenodd;clip-rule:evenodd;fill:#B1B1B1;}
	.st56{fill-rule:evenodd;clip-rule:evenodd;fill:#7D663A;}
	.st57{fill-rule:evenodd;clip-rule:evenodd;fill:#62502E;}
	.st58{fill-rule:evenodd;clip-rule:evenodd;fill:#B0996E;}
	.st59{fill:#3E576C;}
	.st60{fill:#21333F;}
	.st61{opacity:0.3;fill:#FFFFFF;}
</style>
<g id="Camada_1">
	<rect y="2" class="st0" width="1921" height="1078"/>
</g>
<g id="Camada_2">
	<g>
		<g>
			<g>
				<path class="st1" d="M855,483.4c3.3,0,2.1-4.1,6.7-3c6.1,2,9.7,6.4,18.3,6.1c5.6-3.6-8-6.7-3.3-9.1c2.5,0.8,4.2,2.2,6.6,3
					c1.3-5.2-1.9-6.4-3.3-9.1c13.7-0.6,9.2-15.9,6.7-24.2c4.1-1.2,8.9-2,14.9-1.5c-0.4-6.7-8.9-6-13.3-9.1c5.2,0.7,3.7-4.6,9.9-3
					c1.2-4.6-2.8-4.4-1.6-9.1c5.9,0.8,4.1-5.3,10-4.5c4.2-1.2,14.3,3,13.3-3c1.5-5.5-7.2-1.5-8.3-4.6c-3.9-0.4-3.1-5.2-8.3-4.5
					c-7.2-0.9-14.9,5.4-18.3,3c1-7.6,14.7-3.9,16.6-10.6c-3.5-4.4-10.8-5.3-20-4.5c-5.4-1.7-12-4-14.9,0c-1.4-2.2-5.3-2.2-8.3-3.1
					c-6.7,4-23-0.7-29.9,3.1c-7.7,0.2-16.9-1.2-20,3c-0.2,3.3,4.5,9.8,1.6,10.5c-12-1.7-18.8,1.1-29.8-1.5
					c-16.7,2.1-24.4,12-41.6,13.6c-1.6,5.5,7.5,1.2,6.6,6.1c-4.8,3.6-13.7,3.5-18.2,7.5c-4.1-2-9.5-1.7-11.7,4.5
					c5.3-1.3,5.1,2.4,8.3,3c-0.1-4,8.3-4,8.3,0c4-0.9,11.3-6.7,11.6,1.6c-7.1,0.6-17.1-1.5-21.6,1.5c1.5,5.7,7.8,7,13.3,9
					c5.1,1.1,3.1-4.1,8.3-3c5.1,3,10.2,5.9,20,4.5c-1.3,6.7,1.2,10,3.3,13.6c-0.5,3.5-2.6,5.7-1.7,10.6c6.6,2.9,7.7-6.9,11.7-1.5
					c0.9,5.4-5,4.6-10,4.5c1.4,6.8,12.6,4.7,14.9,10.6c-3.8,2.6-8.4,4.4-11.6,7.6c4.7,2-5.2,3.1-3.3,7.5
					c11.8,7.3,2.7,24.6,11.6,34.7c3.9,0,7.8,0,11.7,0c4.8,0.2,2.9,6.4,8.3,6c1.7-3,2.9-6.4,6.7-7.6c-2-11.4,8.3-11.5,6.7-22.6
					c4.2-0.1,2.3-5.9,6.6-6c6.3,3.1,6.3-3.6,13.3,0c2.6-2.1,5.2-4.3,8.3-6c8-1.8,11.6-7.7,19.9-9.1c0.7-5.5,14.7-6.8,10-12.1
					C866.6,489.9,859.6,483.9,855,483.4z M871.6,477.4c-4.4-2.7,0-10,5-9C875.8,472.1,872.2,473.4,871.6,477.4z M883.2,404.9
					c-0.1,4.5-3.7,5.6-6.6,7.5c-5.1-2.9-12.6-3.6-21.6-3C860.6,403.2,876.2,405.8,883.2,404.9z"/>
				<path class="st1" d="M648.9,427.6c0,3,0,6,0,9c5-1,6,1.6,9.9,1.5c0.8-6.9,10.8-13.3,16.7-10.5c2.5,6.3-8.6,0.2-8.3,4.5
					c5,2.3-5.7,2.7-5,6c4.3-0.9,5.9,0.6,5,4.5c-3.9,0-4.9-2.6-10-1.5c0.2,4.3-5.6,3-3.3,9.1c9.9-1.2,17.1-2.1,21.6,4.5
					c-13.2,2.6-21.7-6-29.9-3c-1.3,7.3,10.1,3,10,9.1c12.5-1.6,29.4,6.7,33.2-4.6c4.3,0.5,7.1-0.6,6.7-4.5c1.2-4.1-7.8,1.1-6.7-3
					c3.9,0,7.8,0,11.7,0c0-8,10.1-6.9,8.3-16.6c8.6-0.2,9.4-7.5,20-6.1c2-3.6,5.3-6.1,11.5-6c2.1-3.7-3.7-7.3,0-7.6
					c7-2.9,17.2,1.5,20-7.5c0-2.5-4.6-0.8-4.9-3c-27.2,3.4-64.3-4.4-93.2,6c-2.2,9.1,7.2,7.6,8.3,13.6c-10.8,0.8-7.5-11.3-19.9-9.1
					c-0.5,2.1-2.4,2.9-1.7,6.1c-2.7,0.1-5.8-0.2-5,3C642.4,426.4,648.2,424.7,648.9,427.6z M683.8,454.7c0.8,0.8-1.2,2-1.7,1.5
					C681.2,455.5,683.3,454.3,683.8,454.7z"/>
				<path class="st1" d="M1057.8,424.5c0.9-4.2,8.7-2.2,6.7-9c-15.2-2.2-29.8-2.7-43.2-3.1c-0.1,2.7,0.4,4.7,1.6,6.1
					C1033.4,421.6,1042,426.3,1057.8,424.5z"/>
				<path class="st1" d="M993,432.1c-0.2,3.7-3.1,4.7,0,7.6c6.8-0.3,7.1-6.7,14.9-6.1c-0.4,6.7-8.2,6.7-8.3,13.6c2.8,2,5.6,4,11.7,3
					c-0.8,4.7,3.5,4.8,8.3,4.5c1.5-5.7,2.9-11.4,5-16.6c4.4,4,6.9,9.8,18.3,7.6c1.5-11.5-8.8-12.2-13.3-18.1
					c-0.5,3.5-4.5-1.8-6.7-1.6c-4,0.3-6.8-0.8-8.2-3c3.9-4-1.4-8.9-8.4-7.6c-4.9,2.4,2.6,7.8-1.7,9c-3.5-7.2-19.4-14.2-20,0
					C985.4,428.9,991.8,428.1,993,432.1z"/>
				<path class="st1" d="M1160.9,421.5c-0.2-9.5-15.5-6.3-14.9,1.5C1151.6,427.7,1154.7,420.9,1160.9,421.5z"/>
				<path class="st1" d="M1254,430.6c13.1-2,26.8,5.3,29.9-4.6c-3.9-5.8-19.1-8.3-28.2-4.5C1252,421.7,1254.9,427.9,1254,430.6z"/>
				<path class="st1" d="M1589.8,521.2c3.9-0.5,3.1-5.2,8.2-4.5c8.7,0.2,7.5,9.3,18.3,7.5c2.2-2.7-1.5-7.6,1.7-12
					c-4.4-1.8-10.9-9.9-14.9-3c0.5-3.5-0.3-5.8-1.7-7.5c-9-2.9-13.9-9.7-28.3-7.6c-1.9-2.8-6.4-3.2-8.3-6c-10.9,1.3-13.2-5.2-25-3
					c-2.3,4.4,4.6,7.7,0,9.1c-4.8-0.7-3.9-6.5-8.3-7.5c-4.9,4.7-13.9,0.4-23.4,3c-5.9-3.5-5.5-13-18.2-10.6
					c-2.4,0.3-0.6,4.5-3.4,4.5c-6.9-2.7-13.7-5.7-19.9-9c-0.7,1.3-1.5,2.6-3.3,3c2.1-5.9-4-4.5-8.4-4.5c4.1-3.6-1.8-3.4-3.3-6.1
					c-8,2.7-7.4-0.9-15-1.5c-0.6,2-4.2,1.2-6.6,1.5c-1.7,2.8,5,5.1,0,6.1c-14.3-2.1-32.4,2.7-45,0c-4.2-1-5.8-5.6-9.9-4.5
					c-7.7,1.6-12.8-1.6-18.3-3c-1.9-0.6-4.6,0.3-6.6,0c-4.2-0.7-7.3-4.8-16.6-3.1c0.6-3.9,4.9-4.5,4.9-9c-2.3-4.4-7.7-6.1-9.9-10.6
					c-5,2-12.7,1.6-20,1.6c-4.1-1.3-3.5-6.9-10-6.1c-3.9,1.5-5.3,5.2-5,10.6c-8.2-2.4-5.3,5.3-11.6,4.5c-3.2-0.6-1.3-5.9-6.7-4.5
					c-4.3,4.2-10.3,6.8-19.9,6c-3,1.9-4.4,5.1-10,4.6c-2.4,1.9-0.8,7.4-5.1,7.5c-3.4,1-11.5-2.4-9.9,3c0,5.5,9.7,2.2,8.3,9.1
					c-6.1-1.6-7.7-7.1-16.7-6c0,3.9,0.9,8.9-3.3,9c-1.9-1.8-1.9-5.4-1.7-9c-6.5-1.3-2.7,6.6-9.9,4.5c-2.6-2.7-2.3-8.1-10-6.1
					c-4.7,6.4-11.1,11.2-16.7,16.6c-10.8,0.7-9.9-2.8-21.6-3c-2.7,7.5,8.6,2.3,6.6,9.1c-6.9-1.5-14.4,0.8-24.9,0
					c-7.5,2.8-11.6,8.6-19.9,10.6c0-3,0-6,0-9.1c-4.1,0.2-8,0.3-10-1.5c0.4,8.5,0.1,16.1-10,15.1c0.6,5.6-6.1,4.5-10,6
					c-4.1,2,3,4.5-1.7,6c-9.7,1.8-10.3-10.9-9.9-13.6c7.7,0,16.2-0.7,21.6,1.5c4.4-9.5-9.3-14.3-20-15.1c-2.6-3.7-7.1-5.6-13.2-6
					c-2.3-3.5-4.7-6.8-8.3-9c-5,0-10,0-15,0c-4.5,2.9-8.8,6.1-13.2,9c-0.8-2.2-2.2,0.6-5.1,0c-6,5.7-13.4,10-19.9,15.1
					c-1.9,6.9-5.2,12.4-10,16.6c-0.3-1.7-3.1-1.2-5-1.5c0,2,0,4,0,6c-10.6,0.6-11.7,9.6-15,16.7c3.4,3.6,3.8,9.6,3.4,16.6
					c1.6,4.1,10.5,1.6,13.3,4.6c-3.6,4.4-6.7,6.1-6.7,10.6c3.5-0.7,3.1,2.1,3.3,4.5c-5.9,0.1-9.6,2.3-14.9,3
					c-1.5,2.7-4.7,3.9-3.4,9.1c-9.4-2.6-3.7,8.7-11.6,7.5c0.3,1.8-0.3,2.7-1.7,3c-7.3-0.7-8.8,4.1-13.3,6.1c-4,0.8-8.5,1.3-8.2,6
					c2.1,2.1,7.2,1.5,11.6,1.5c-0.8,6.8,7.7,5.1,6.7,12.1c-1.7,2-1.7,5.6-5.1,6c-7.7-3.6-14.6,1.4-24.9,0c-1.7,5,3.7,16.4-3.4,16.6
					c1.2,4.4,5.1,6.5,3.4,13.6c7.7-1.5,10.1,2,15,3c6.2-2.9,7-2.9,13.3,0c3.8-6.1,9.5-10.5,8.3-21.1c7.3-1.9,6.1-11.6,15-12.1
					c7.1,3.8,9.9-1.1,16.7-1.5c-4.7,5.9-2.3,15.3,0,22.7c10.5-0.9,4-8.6,4.9-16.6c-1.7,0-2.1-2.7,0-3c0,1,0,2,0,3
					c3.4,0.5,3.3,4,5,6.1c8,0.2,13.1,3.1,14.9,9.1c-0.3,3.3-4.1,3.2-8.3,3c-0.2,5.3,5.9,4.8,8.3,7.6c-0.8-6.8,4.5-8,8.3-10.6
					c0.9-3.4-3.1-2.2-3.3-4.6c3.1-4.7,5.6,5.1,8.4,0c-4.6-8-25.2-9.3-19.9-21.1c4.9,6.9,14.3,10.2,19.9,16.6
					c0.9,1.2,2.3,4.7,3.3,6.1c1.3,1.9,4,3.6,3.4,6c0,3.1,0,6.1,0,9c2.2,2.1,7.2,1.5,11.6,1.5c2.8-5.2-3-12.6,1.6-18.1
					c1.8,0,3.4,0,5,0c-1.9,6-0.3,5.6-1.6,12c3.7-0.5,2.2,4.4,5,6.1c6.1,3.9,17.2,2.7,21.6,0c5,2.2-4.3,7.9,3.3,7.6
					c6.9,1.1,0.4-9.8,8.4-7.6c0,3,0,6.1,0,9c-4.9,2.6-1.5,12.8-8.4,13.6c-12.1-4-27.2-5.4-43.2-6c-4.8,1.1-4,7.4-8.3,9.1
					c-7.6-7.2-22.8-7.6-29.9-15.1c1.3-5.2-1.9-6.4-3.3-9.1c3.9-0.4,3.8-4,1.6-6c-10-0.1-18,1.7-24.9,4.5
					c-13.5-0.7-25.2,0.2-31.6,6.1c-1.4-3.2-4.8-4.7-9.9-4.6c-1.4,5.3-7.4,6.4-11.6,9.1c-4.5,7.1-2.8,16.3-6.6,22.6
					c-2.5,4-11.4,8.1-15,12.1c-0.3,8.8-4.1,14.4-8.3,19.6c0,13.1,0,26.1,0,39.2c5.8,5.9,10.8,12.4,13.4,21.1
					c7.6,4.1,12.8,10.6,23.2,12.1c6.7-1.5,14.7-1.8,23.3-1.5c3.4-2.4,3.2-8.1,10-7.6c3,0.2,0.9,5.1,3.4,6c7.6-1,10.6,2.4,16.6,3
					c2.8-1.3,4.2-4.2,10-3c1.7,11.7-3.5,17-3.4,27.2c4.7,7.7,12.8,13.6,10,24.2c4.4,5.1,4.7,13.8,6.7,21.1
					c-4.1,6.9-3.2,18.2-6.7,25.7c7.1,6.1,12.3,14,15,24.2c0,4.6,0,9.1,0,13.6c7.4,7.9,7.2,22.6,14.9,30.2c16-1,24-9.3,38.2-12.1
					c2.5-8.3,7.6-14.2,14.9-18.1c-0.8-5.8,3-7.4,1.6-13.6c3-1.4,4.3-4.2,10-3c0.2-17.4,7-28.8,20-34.7c2.4-12.3,2.4-30,0-42.3
					c3.5-5.8,6.4-12.3,8.2-19.6c4-2.4,7.3-5.4,11.7-7.6c7.9-10.4,15.1-21.6,23.3-31.7c1.3-5.7,3.5-13.4-1.7-16.6
					c-7.1-0.9-6.7,4.9-13.2,4.5c-5.1,0-10,0-15,0c-0.8-10.3-9.1-13.9-15-19.6c1.5-9.9-9.9-8.1-6.6-19.7c-2.8-3.4-8-4.8-10-9
					c1.6-4.5-2.4-11.7,0-12.1c4,2.6,8.4,10.5,6.6,13.6c7,6.3,11.6,14.6,18.3,21.2c4,6.3,3.3,15.7,11.7,21.1
					c11.6-3.5,19.7-10.2,33.2-12.1c2.3-0.9,0.3-5.8,3.3-6c7.2-1.1,10.2-5.9,16.7-7.6c-1.2-6.6,4.9-6.7,5-12
					c-2.9-5.4-11.4-5.8-10-15.1c-6.3-0.7-10.6,0.4-13.3,3c-1.4-5.7-7.5-7.2-6.7-15.1c-5.4,0.4-4.8-4.6-8.3-6c2.5-0.8,4.2-2.2,6.6-3
					c9.2,5.2,6.4,21.3,23.3,19.7c0.7,2.9,4.7,2.8,3.3,7.6c8,0.7,9.2-4.7,16.7-4.5c1.7,1,1.7,3.4,5,3c11.6-1.6,14.4,5,21.5,7.5
					c-2.7-0.5-3.1,1.2-3.2,3c1.7,2.9,7.6,2.1,10,4.5c-0.9,4.7,3,5.3,1.6,10.6c5,5,7.2,12.6,10,19.6c3.5,2.9,6.9,5.8,8.4,10.5
					c0,3.1,0,6.1,0,9.1c2.1,2.1,7.2,1.4,11.6,1.5c2.2-9.6,8.2-15.7,6.6-28.7c2.3,0,4.4,0,6.7,0c0-2,0-4,0-6.1c6.3,2.2,3.2-4.1,8.3-3
					c-0.5-6.9,6.1-7.6,8.3-12.1c4-2.9,8.8-5.1,14.9-6c3.8,4.1,3.8,11.7,10,13.7c0.6,3.5-3.1,3.2-1.8,7.5c1.9,4.9,13.2,1.1,16.7,4.5
					c-2.2,3.2,0.8,4.5-1.7,9.1c4.3,1.6,7.4,4.3,8.3,9.1c-0.6,2.8-4.7,2.7-3.3,7.6c0.5,4.6,5.1,5.4,3.3,12.1
					c8,6.3,15.6,13.1,24.9,18.1c0.4-10-7.8-12-8.3-21.2c-4.6-2.9-9.1-5.9-11.7-10.6c0.8-4.9-2.2-13,3.3-13.6
					c3.6,4.3,6.2,9.5,13.4,10.6c1.2,1.4,1.7,3.4,1.6,6c16.2-1.9,20.1-15,18.3-33.2c-2.1-1.5-6.1-1.5-8.3-3c2.1-6.6-8-6.2-3.3-10.6
					c4.9-4.2,4.3,5,11.6,3c1.2-6.5,9.7-6.4,18.3-6.1c5.3-7.3,12.4-12.9,14.9-22.7c2.7,0.4,2.8-1.4,5-1.4c2.8-6.1-0.4-17.5,5-21.1
					c-3.5-1.4-5-4.5-5-9.1c-2.8-1.9-6.5-3.1-6.6-7.5c-0.7-3.6,3.1-3.3,1.6-7.5c3.4,0.5,5.2-0.3,5-3.1c4.8-1.9-7.5-9,3.4-9
					c1.9,4.8,7.6,6.1,10,10.6c-1.6,8,3.1,10.3,8.3,12.1c10-6.6-0.4-23.2,5-34.7c3.5-2.9,8.5-4.4,13.3-6.1
					c3.8-7.1,7.2-14.5,13.2-19.6c2.3-12.2-3.8-24.7,0-33.2c-2.3,8.6,3.8,9.6,5,15.1c0.3,9.4,0.8,18.4,8.3,21.1c3.1-2.7-1.3-3.8,0-9
					c4.5-0.2,3.4,2.5,6.6,0c0.3-4.8-4.4-5.1-3.3-10.6c-6-1-7.6-6.2-10-10.6c-0.6-5.4,0.6-12.6-4.9-13.6c-3.5,0.4-0.4,6.7-5,6.1
					c-2.8-11.1-14.1,6.9-18.4-4.5c1.1-3.5,4.2-5.2,6.7-7.6c1.9-4.8,1.2-11.9,6.7-13.7c3.8,3.7,3-2.2,8.2-1.5c7.8,1,15.1,4,25,3
					c-0.6,2.6,1.3,2.9,3.3,3c2.2-2.1,7.3-1.4,11.7-1.5c0.8-4.8-3-5.3-1.7-10.5c3.4-0.4,3.2-4.1,6.6-4.5c3.4,0.5,3.3,4.1,6.7,4.5
					c-0.8-3.3,5-8.3,6.6-4.5c-5.3,9.7-13.1,17.2-14.9,30.2c1.1,4.1,4.7,5.8,6.7,9.1c0.7,5.8,2,11.3,6.6,13.6
					c4.1-3.8,6.6-9.1,11.6-12.1c-1.5-7.5,5.3-6.4,1.8-12c0.4-3.1,4.4-3,4.9-6c-2.4-1.8-7.4-1.4-6.7-6.1c1.7-13.3,12.6-10.4,25-9.1
					c2.4-2.3,2.2-7,5-9c9.7-0.7,17-4.8,23.2-4.6C1598.1,526.8,1589.8,527.7,1589.8,521.2z M1031.3,537.8c3.1,3.1,7.5,5.2,13.2,6
					c0,5,0,10.1,0,15.1c-3.7-0.6,0.9-8.9-6.6-6c-3.7,5.2-1.4,15.8-6.6,19.7c-5.5,0.5-9.6-0.7-13.4,0c-4.6,0.8-5.6,4.4-10,4.5
					c0.5-1.9-4.8-5.2-4.9-1.5c-3.9-0.4-3.9-4.1,0-4.5c-3.8-3.6-6.4-8.3-6.7-15.1c8.3,0.7,5.1,21.3,19.9,15.1
					c3.7-6.1,6.3-13.4,9.9-19.7c-0.6-3.5-2-6.2-3.3-9.1c1-14.2,12.8-18.5,18.3-28.7c2-0.2,3,0.3,3.3,1.5
					C1043.1,525.5,1029.7,524.9,1031.3,537.8z M1049.5,548.4c-0.1-4.6,5.9-3.7,10-4.5C1059.6,548.5,1054.5,548.4,1049.5,548.4z
					 M1062.8,489.5c-0.9-0.8,1.2-1.9,1.6-1.5C1065.3,488.8,1063.3,489.9,1062.8,489.5z M1092.8,707c-0.9-0.8,1.2-2,1.6-1.5
					C1095.3,706.2,1093.2,707.4,1092.8,707z M1094.4,519.7c-0.9-0.8,1.2-1.9,1.7-1.5C1096.9,519,1094.8,520.1,1094.4,519.7z
					 M1217.4,495.5c-3.2-0.6-7.1-0.5-6.6-4.5c-5-0.3,1.6-6.3,0,0C1211.9,493.4,1218.9,490.7,1217.4,495.5z M1320.4,468.4
					c-0.8-0.8,1.3-2,1.8-1.6C1323.1,467.6,1320.9,468.8,1320.4,468.4z M1325.5,466.8c-0.8-0.8,1.2-1.9,1.7-1.5
					C1328,466.1,1325.9,467.3,1325.5,466.8z M1330.5,463.8c-0.9-0.8,1.2-1.9,1.7-1.5C1333,463.1,1330.9,464.2,1330.5,463.8z
					 M1405.3,654.1c2.3-2.9,3.7-6.7,10-6c0.1,2.3-0.8,5.7,1.6,6C1414.4,658.6,1409.6,652.8,1405.3,654.1z"/>
				<path class="st1" d="M815.1,832.4c-2.9-2.8-4.9,0.6-8.3,1.5c-2.6-5.2-9.1-6.9-14.9-9.1c-4,0-7.8,0-11.6,0
					c-3-4.4-14.1-1.3-15-7.5c-4.4,0-9.8,0.8-9.9-3c4.8-7.1-4.9-26.3-20-19.6c-5.3-2.8-9.1-6.9-10-13.7c-8.7-2.2-14.9-6.6-23.3-9
					c-2.2,0.6-2.6,2.6-5,3c-2.3-5.4-10.3-5.7-11.7-12.1c-5.3-1.4-3.4,3.9-6.6,4.5c-3.9-1.1-4.4-5-8.3-6c-1.5,2.6-3,5.2-8.3,4.5
					c-2.5,6.3-9.2,8.7-13.3,13.6c0.4-5-2-7.3-6.7-7.6c-4.3,1.6-6.2,5.4-11.7,6c-3.9-7.4,1.7-14.4,0-24.2c-3-5.2-14-3.2-19.9-6
					c1.7-6.6,6.5-10.2,5-19.6c-8,0.9-8.5,0.9-16.6,0c-3.1,3.3-1.6,10.6-6.7,12c-22.2,1.1-8.3-25.9-13.3-37.7c5.9-1.3,9.4-4.5,15-6
					c9.1-0.7,11.2,4.8,19.9,4.5c-0.1-2.1-0.3-4.2,1.7-4.5c8,0.3,18.7-1.9,19.9,4.5c-0.7,8.8,3.7,12.8,11.6,13.6
					c-2-7.8-1.1-10.2,0-15.1c-1.9-2.3-4.7-3.7-5-7.6c2.8-10,10.1-16,21.6-18.1c1.5-4.4,1.5-4.6,0-9c3.9,0.4,6.4-0.2,8.4-1.5
					c-4.1-8.3,5.4-6.4,3.3-16.6c5.5-2,10.8-4.2,16.6-6c0.9-4.7-5-3.4-3.3-9c6.1-4.6,15.3-6.3,23.3-9.1c1.2,4.1-3.4,3.1-3.4,6
					c6.7-2.5,13.7-4.6,18.3-9c-4.1-2.4-12.4-0.9-11.7-7.6c0.9-4.2,6.4-4.2,10-6c0.7-3.7-3.1-3.3-1.7-7.6c8.1,5,17.4-7.3,23.3-4.5
					c-3.8,8.1-11.7,12.5-14.9,21.1c6.2,1.1,7.2-2.6,13.3-1.5c0.2,2.3-0.7,5.8,1.7,6c1.7-3.7,6.4,2.1,11.7,0c-0.8-3.5-3.3-7.7,0-10.6
					c-6.1-0.5-7.6-5.2-10-9.1c0.6-9.4,0.6-10.2,0-19.7c-3.2-2.8-4.1-0.1-8.3,0c0.2-7.1-7.7-7.1-8.3-13.6c1.3-1.3,1.8-3.4,1.7-6
					c-6.4-3.3-4.1-14.5-13.3-15.1c-0.8,2.2,2,7.8-1.6,7.6c-3.4-0.9-10.9,1.9-11.7-1.6c0-5,0-10,0-15.1c-8.9,3.6-7.3-3.5-15-4.5
					c-4.4,4.2-3.6-1.8-8.3-1.5c-4-0.6-3.6,2.7-8.3,1.5c2.5,15.1-4.5,23.5-1.7,34.7c-2.8,0.4-8.3-4.3-10,0c1.7,4.3,5.5,1,6.7,3
					c-5.8,3.3-6,11.7-8.3,18.2c-3.8-4.6-4.5-12-6.6-18.2c-3.4-3-3.3,0.7-6.6,1.5c-1.5-4.4-2.5-1.6-6.7-1.5
					c-5-4.6-10.6-8.5-18.2-10.6c2.6-7.5-5.9-4.8-5.1-10.6c3.6,0.7,3.2-2.1,3.4-4.5c5.5-2.6,7.8-7.9,13.3-10.6
					c3.7-5.3,6.2-11.5,15-12.1c0.1-2.7-2.1-3.2-1.7-6c11.2-2,17.5-3.3,24.9-6c-0.4-5.8,0-11.2,1.7-15.1c-2-2.2-6.3-2.4-8.3-4.5
					c6.6-0.5,12.3-0.1,14.9,3c3.1-4.6,8,1.8,13.3,0c-2.3,7.7,7.6,4.2,6.6,10.6c-1.6,11.1-19.7,7.2-21.6,18.1c2.8,3.6,9.7,3.3,16.7,3
					c10.3,4.3,14.4,14.2,28.3,15.1c-3.7-7.8,2.8-7.6,1.7-16.6c-0.7-3.9-5-4.6-5-9.1c6.3,0.3,8.1,4.8,13.3,6c-0.5-3.9-0.6-7.5,5-6
					c-1.2-4.6,1.7-5.5,1.6-9.1c-4.5,1.1-3.1-3.1-5-4.5c-5.7-0.8-10-2.9-15-4.5c0.5-3.1,4.5-2.9,5-6c-2.1-3.6-7.3-4.5-6.7-10.6
					c-4.9,0-10,0-14.9,0c0.8-4.8-4.5-4-5-7.6c-7.1-0.9-11,1.1-16.6,1.6c1-9.4-13.1-6.4-15-1.6c0.6-5.6-1.3-8.8-6.6-9.1
					c-8.6,4.8-18.6,20.3-8.3,28.7c2.4,0.9,8.5-1.7,8.3,1.5c-1.8,4.4-5.3,7.3-8.3,10.6c-4.2-3.7,3.5-3.3,1.7-9.1
					c-5.7-3.4-11.1-7.1-13.3-13.6c-6.3,0.7-5.3-5.2-13.2-3c0.6,3.6-3.1,3.3-1.7,7.5c5.7,2,3.6,14.1,0,16.6c-2.4-1.3-3.6-3.8-3.2-7.6
					c-8.4-1.1-8.4,5.6-15.1,6c-6.2-2.4-13-4.3-16.6-9.1c7.4-1.1,10,2,16.6,1.5c3.7-3.1-0.7-4.3,0-9.1c9.2-1.7,12.9-8.5,21.6-10.5
					c-3-4.7-2.4-8.3-3.3-12.1c-8.4,0-16.6,0-24.9,0c-3.7,4.2-12,4.2-13.4,10.5c-0.8-2.2-2.4-3.7-3.3-6c-4.4-0.1-10.4,1.4-8.3-4.5
					c12.3,2.3,27-5.5,38.2-9.1c0,7,14.2,5.2,16.6,1.5c-1.2-3.5-1.5-7.7-3.3-10.6c-9.8,1.2-14.6,7-25,7.6c0-3,0-6,0-9.1
					c-9.1-2.8-10.7,7.1-5,9.1c-9.5,1.1-14.9-1.7-23.2-1.5c2.5,7.8-7.7,4.2-8.3,9.1c4.1,1.9,5.1-0.8,6.6,1.5c-1.1,2-3.6,2.8-6.6,2.9
					c-2.7-8.6-15.9-7.8-28.3-7.5c-0.9,7.3-5.1,11.5-10,15.1c-0.3,4.8,4.4,5.1,3.4,10.6c8.2,0.4,12.3-2.9,18.2-4.5
					c-3.4,8.2,9.1,1.8,10,6.1c1.2,4.1-7.8-1.1-6.7,3c0,8.2,18.2-0.4,15,10.6c6.2-3.4,8.1-2.4,14.9,0c0.6,0,1.2,0,1.7,0
					c-0.5-1.8,4.8-5.2,5-1.5c-0.3,1.8-2.6,1.7-5,1.5c0.4,3.8,7.1,8.6,0,10.6c-2-0.3-1.3-2.8-1.7-4.6c-14.8-1.2-22.2-9-39.9-7.6
					c-5.1-1.4-5.2-7.3-11.6-7.5c-0.8,4.3-5.2,5.3-10,6c0.5-3.5-0.3-5.8-1.6-7.6c-6.4,0.3-6.4,6.4-13.3,6.1
					c-6.3,1.2-7.9-1.8-13.3-1.5c-1.8,0.4-1.1,3-3.3,3c-1.6,0-1.3-1.8-1.6-3c-4,0.5-6.3,2.4-11.7,1.5c-13.3-7.5-38.8-3.9-53.1-10.6
					c-12.4,4.9-28.6,6.3-36.6,7.6c-3.8,5.9,3,6,4.9,10.6c6.4-0.7,10.4,0.6,11.7,4.5c-6.7-2.1-6,2.7-8.3,4.5c-3-1.3-4.5-3.9-8.3-4.5
					c-6.3,5.8-21.5,3.7-26.6,10.5c9.2-0.3,12.4,4.8,13.3,12.2c8.8-2.9,15.4,0.4,23.3-1.6c-8.2,13.3-42.7,2.6-40,25.7
					c5.5,3.6,6.9,4.1,5,12.1c3,0.2,3.5-1.9,6.6-1.5c0.1,2.4-0.8,5.8,1.7,6c2.4-4.8,0.8,6.2,5,4.5c2-5.9,9.5-7.2,14.9-3
					c-7.2,5.1-9.8,14.3-18.2,18.1c-7.6,2.2-10.2,8.8-19.9,9c1.3,4.8-2.7,4.7-3.4,7.6c7.6,0.9,10.4-2.7,18.3-1.5
					c1.9-4.4,7.1-5.6,13.3-6.1c6.2-10.4,17.1-16.7,26.6-24.1c1,0,2.2,0,3.4,0c1.7-1.4,0.5-5.5,4.9-4.5c0.1-0.9,0.3-1.8,1.6-1.5
					c-0.1,0.9-0.2,1.8-1.6,1.5c0.7,6.8-4.5,8-6.6,12.1c13.7,1.4,17-6.6,28.3-7.6c0.7-6.8-0.9-11.4-1.7-16.6c7.6,1.4,8.1-3.8,14.9-3
					c4.7,2.9,8.5,6.4,11.7,10.6c10.6,3,19.6,7.4,18.3,21.1c8.1-1,0.4-8.4,6.7-9.1c0.4,12.8-0.5,26.6,4.9,34.8c-5,3.9-1.7,5.6,0,10.6
					c0,3-4.5,1.9-3.2,6.1c-0.8,16.6-1.9,27.7,0,43.8c4.4,2.5,7.3,6.4,11.6,9.1c4.6,5.8,4.3,16.2,10,21.1c-1.9,0.3-1.4,2.8-1.7,4.5
					c7,2.3,8.5,9.3,11.7,15.1c5.1-1.2,4.8,2.6,9.9,1.5c0.2-6.4-3.2-5-3.3-13.5c-0.9,0-1.9-1.3,0-1.5c0,0.5,0,1.1,0,1.5
					c3.5-0.8,3.1,2.1,3.3,4.5c5.2,3.4,9.7,7.4,13.4,12.1c-1.2,10.7,3.2,16.2,6.6,22.7c13.7,3.1,21.8,10.8,38.3,7.5
					c1.9,3.9,4.1,7.4,6.7,10.6c6.3-1.2,8,1.8,13.2,1.5c1.6,3.6,4.9,5.6,8.3,7.5c0,1.5,0,3.1,0,4.5c9.6,0.9,11.6,8.7,20,10.6
					c1.7-2,1.6-5.6,5-6c0.6,5.4,3.4,9,5,13.5c0,3-4.5,2-3.3,6.1c0.8,7.8-5.3,9.3-6.6,15.1c-3.2,10.5,6.7,16.3,0,21.1
					c2.9,2.9,8.2,3.6,11.7,6.1c-1.4,2.2-5.4,2.1-8.3,3c-1.2,12.2,6.1,16.6,15,19.7c0.7,3.6-3.1,3.3-1.7,7.5
					c6.2,4.4,8.4,12.5,18.3,13.6c3,6.7,8.3,11.5,8.2,21.1c-1.7,2-1.6,5.6-3.2,7.5c2.2,1,3,3.3,3.2,6.1c-4.5,6.8,2,14.7,0,24.2
					c-9,4.9-4.8,21.8-8.2,31.7c2.4,4.2,6.8-2.6,8.2,1.5c1.5,7.4-5.7,6.9-8.2,10.5c-2.1,4.9,5.3,1.2,3.3,6.1c-3.2,3.7,1.8,7.3-1.7,12
					c1.6,10.3,7.2,15.5,3.4,24.2c4.9,3.5,4.4,12,9.9,15.1c-0.2,2.7,2,3.2,1.6,6c4.2,0.8,6.9,2.8,10,4.5c6.2-0.9,17.1,2.5,18.3-3
					c-4.5-0.9-7.7-2.9-9.9-6c1.2-5.1-6.7-1.9-5-7.5c-0.6-6.6,4.8-7.8,5-13.6c4.3-0.2,6.5-2.2,6.7-6c0.8-5.4-5.9-3.7-5-9.1
					c4.5-4.7,11.3-19.6,0-21.1c11.1,2.6,10.8-5.3,13.3-10.5c8.9,0.5,12-4.3,18.3-6.1c1.1-7-2.7-9.7-3.3-15.1c4.5,0,8.8,0,13.3,0
					c0.1-1.5,2-1.2,3.4-1.5c0.9-3.7,1.4-7.8,6.6-7.5c-0.6-8.6,6.3-10.4,9.9-15.1c0-3.5,0-7,0-10.5c3.2-2.7,5.2-6.4,8.3-9.1
					c7.9-2.1,7.9-2.1,15-4.5c0.8-9.7,8.8-18.1,3.3-28.7c2.5-1.3,3.6-3.8,3.3-7.6c2.7,0.5,2.9-1.4,5-1.5c0.6-5,4.9-6.7,6.7-10.5
					c4.4-3.9-0.2-7.3,4.9-9.1c-1.1-4.6,1.7-5.5,1.7-9.1C818.5,840.3,816.7,836.3,815.1,832.4z M738.6,581.6c0.8,0.8-1.2,1.9-1.7,1.5
					C736.1,582.3,738.1,581.2,738.6,581.6z M610.6,463.8c5.1,1.5-1.8,4.1-1.7,6.1C603.9,468.4,609.7,464.7,610.6,463.8z M604,471.3
					c5.3-0.7,5.9,2.8,11.6,1.6c0,6-6.5,6.2-11.6,7.5C604,477.4,604,474.4,604,471.3z M552.5,474.4c-0.9-0.8,1.1-2,1.6-1.5
					C554.9,473.7,552.9,474.8,552.5,474.4z M517.5,691.8c0.3-1.7,1.6-0.8,1.6,0C518.9,693.6,517.5,692.7,517.5,691.8z M519.1,694.9
					c4,0.5,3.8,4.7,6.7,6C523.7,704.7,517.7,699.3,519.1,694.9z"/>
				<path class="st1" d="M1154.3,486.5c-2.4-7-10.2-8.9-8.4-19.7c11.7-0.9,16.1-8.5,24.9-12.1c10.5,1,15.8-2.7,16.7-10.5
					c-2.9,0-5.6,0-8.4,0c-0.4,1.2,0,3-1.7,3c-12.5,1.3-21.8,5.4-31.6,9.1c0.8,7.8-8,6.8-6.7,15.1c-2,3.2-6.2,4.4-6.6,9.1
					c5.3,3.2,10.5,6.6,16.5,9.1C1149.9,487.6,1151.4,486.4,1154.3,486.5z"/>
				<path class="st1" d="M1431.9,459.3c4-2.4,5.9-6.7,10-9.1c-6.3-0.7-7.7-6.9-13.4-6c-0.7,0.1-1.6,3.6-3.3,3c-3.2,0-6.7,0-9.9,0
					C1413.1,458.2,1427.1,454.5,1431.9,459.3z"/>
				<path class="st1" d="M901.5,527.2c0.2-3.8,6.2-2.4,8.3-4.5c1.7-7.7-3.8-8.7-3.3-15.1c-7.2,2-9.8-1-16.6,1.5
					c-4.5-0.9-4.2-6.3-10-6c2,7.3-6.6,5-6.6,10.5c4.6,1.3,4.3-2.1,8.2-1.5c-0.9,3.7-6.4,3.2-4.9,9c8.3-2,6.5,5.2,11.7,6
					C889.7,524.1,899.8,525.7,901.5,527.2z"/>
				<path class="st1" d="M673.7,527.2c-6.6-1.6-2.2-3.8-6.6-7.5c-5,1.1-4.9-2.6-10-1.5c-2.4,2.9-0.9,9.2-8.3,7.6
					c0.1,5.3,5.4,6,11.6,6C659.9,520,671.8,536.7,673.7,527.2z"/>
				<path class="st1" d="M966.5,581.6c-2.3-1.6-5.1-2.5-6.8-4.5c2.1-9-11-10.4-5-18.1c-2.2-1.5-5.1-2.5-6.7-4.6c2.4-1.3,5.3-2.2,5-6
					c-6.1-0.5-9.3,1.7-13.3,3c1.2,8.2-2.6,11.7-1.7,19.7c4,2.2,6.1,2.4,8.3,3c0.7,5.4-5.6,8.3-8.3,6c-1.3,6.8,1.2,10.1,3.3,13.6
					c-2.9,1.4-8.9-0.1-8.4,4.5c8.3-1.1,16.6-2.1,26.6-1.5C961.1,590.2,960.2,586,966.5,581.6z"/>
				<path class="st1" d="M921.4,587.7c3.8-1.6,10.1-1,13.3-3c-1.8-6.3-0.4-6.7,0-13.6c-2.7,0-5.5,0-8.3,0c-0.1,6.8-3.8,1.9-6.6,4.5
					C920.1,579.9,918.9,585.4,921.4,587.7z"/>
				<path class="st1" d="M1491.7,631.5c3.2,0.2,1.2,5,5,4.5c3.7-3.7,3.1-11.2,10-12.1c-8.7-1.1-14.2-5.3-23.3-6.1
					c1.2,7.2-1.9,10.4-1.7,16.6C1486.3,638.6,1485.8,630.6,1491.7,631.5z"/>
				<path class="st1" d="M1453.5,678.3c-0.3,5.3,3.9,6.5,6.6,9c1.2-5.5,5.2-8.3,10-10.6c2.2,0,3.6,0.7,4.9,1.6
					c5.3-5.8,16.3-6.4,21.6-12.1c-0.3-10.8-3.7-18.9-3.3-30.2c-2.3,0-4.5,0-6.7,0c2,7.1-0.8,10.5,1.7,18.1c-1.3,0.4-1.9,1.3-1.7,3.1
					c-6,2.3-8.9,4.1-15,9c-5.8,2.8-16.4,1.2-16.6,9.1c-0.8,4.2,9.1-1.2,8.4,3C1460.1,678.3,1456.8,678.3,1453.5,678.3z"/>
				<path class="st1" d="M1047.8,666.2c0.5,4.2,5.5,1.2,9.9,4.6c1.2-5.6-2.5-6.7-8.3-6.1C1049.8,666,1048.8,666.1,1047.8,666.2z"/>
				<path class="st1" d="M1418.5,717.6c2.7,2.1,4.3,5.1,5,9c6.9-0.3,6.4-7.4,6.7-13.6C1426.1,709.7,1420.3,714.1,1418.5,717.6z"/>
				<path class="st1" d="M648.9,713c0,2,0,4,0,6c2.2,0,4.4,0,6.6,0C655.3,715.3,653.1,713.2,648.9,713z"/>
				<path class="st1" d="M667.1,720.5c0.5-3.5-0.2-5.7-1.7-7.5c-1.7,0-3.3,0-5,0C659.8,718.2,661,721.6,667.1,720.5z"/>
				<path class="st1" d="M668.8,719.1c0,2.5,0,5,0,7.5c3.5,0.6,4.4-1,6.7-1.5C675.2,721.3,673.1,719.2,668.8,719.1z"/>
				<path class="st1" d="M665.5,743.2c6-0.9,8.1,1.7,11.7,3c0.1-4.4,6.9-2.8,11.5-3c-2.4-10-11.5-8.6-21.6-9.1c1.2-4.1-3.4-3-3.4-6
					c-3.6-1.7-9.1-1.8-9.9-6c-8.3,0-16.6,0-24.9,0c-0.7,2.9-3.6,3.8-3.4,7.6c6.8,0.6,6.7-5,15-3c7,1.2,7.8,8.1,15,9.1
					c4,0.9,12-1.9,13.3,1.5C662.7,737.3,664.6,739.4,665.5,743.2z"/>
				<path class="st1" d="M682.1,726.6c-0.5-2.1-4.1-1.3-6.6-1.5C671.9,730.7,683.9,731.9,682.1,726.6z"/>
				<path class="st1" d="M1425.2,743.2c2.6,3.7,5.9,6.7,10,9c2.1-4.7,7.7-6,6.7-13.6C1437.4,733.2,1425,735.7,1425.2,743.2z"/>
				<path class="st1" d="M1385.3,747.8c4.7-0.9,4.7-5.9,6.7-9.1c-1.5-1.2-3.8-1.6-6.7-1.5C1382.2,743.1,1383.1,738.4,1385.3,747.8z"
					/>
				<path class="st1" d="M647.2,740.2c0,2.1,0,4.1,0,6.1c5.6-1.6,5.7,0.5,11.6-1.5C659.9,738.7,652.5,740.4,647.2,740.2z"/>
				<path class="st1" d="M692,746.3c6,0.4,11.5,0.3,10-6.1c-3.3,0-6.6,0-10,0C692,742.2,692,744.2,692,746.3z"/>
				<path class="st1" d="M866.6,746.3c0,3-4.5,1.9-3.3,6c2.2,0,4.4,0,6.6,0C870.4,748.8,869.5,746.6,866.6,746.3z"/>
				<path class="st1" d="M1438.6,770.4c3.4,3.3,4.7-0.8,9.9,0c-0.5,3.5-3.6,6.5,1.7,7.5c2.3-4.4,7-6.7,14.9-6c1.6-7-5.3-6.3-8.3-9.1
					c0.4-5-2-7.3-6.6-7.6c-2.3,2-1.7,6.5-1.7,10.6C1442.9,763.3,1441.3,766.8,1438.6,770.4z"/>
				<path class="st1" d="M1273.9,774.9c2.4,8.9-6.3,10.8,0,15.1c5.3,0.7,4.4-4,8.4-4.5C1280.9,780.7,1277.4,777.8,1273.9,774.9z"/>
				<path class="st1" d="M1383.7,815.8c1.6,6.1,8.9,7,8.3,15.1c10.8-2.3,9.1,6.8,19.9,4.5c-0.5-3.5,4.8-1.7,5-4.5
					c-1.3-0.4-3.3,0-3.3-1.6c5.4-2.1,2.7-11.5,8.4-13.5c-3.8-4.9,1.4-10.1-1.7-13.6c2.9-1.3,5.7-2.8,5-7.5c-4-2.9-7.3-6.5-15-6.1
					C1408.7,804.3,1386.6,801.3,1383.7,815.8z"/>
				<path class="st1" d="M1352,805.1c-2.5-3.5-7.8-5.9-6.6-10.5c-4.5,1-3.4-3-6.7-3c0.2,6.6-4.1-0.2-8.3,1.5
					c0,17.6,23.3,14.1,20,34.7c8.2,0.8,10.5,10.8,18.2,7.5c3.8-5.8-3.4-12.4-3.2-19.6C1360.3,812.6,1354.4,808.3,1352,805.1z"/>
				<path class="st1" d="M1445.2,817.2c-0.4-6.7-10.5-4.6-13.4-9.1c-8.5,6.2-14.5,23-1.6,28.7c-0.4-4.3,0.4-7.7,3.3-9
					c3.6,2.9,3.9,7.7,10,4.6c-0.8-6.3-6.4-8.3-6.6-15.1C1439.1,819.2,1442.9,819.2,1445.2,817.2z"/>
				<path class="st1" d="M1481.7,811.2c-5.4-3.1-18.7-2.5-18.2,4.6C1469.1,819,1481.3,817.5,1481.7,811.2z"/>
				<path class="st1" d="M1500.1,817.2c-3.9,0-7.8,0-11.7,0c-1.5,2.2-2.5,4.8-6.7,4.5c-5.1,1.1-3.1-4.2-8.2-3c0.5,4-6.6,1.2-5,6
					c0.2,3.4,4.1-1.9,8.2,0c7.4,5.4,17.1,8.7,23.4,15.1c0,3,0,6,0,9.1c8.9-4.9,11.5,3.1,18.3,4.5c5.8-0.2,4-7.5,11.6-6
					c3.9,2.1,8.3,11.5,14.9,6c-3.5-1.3-5-4.5-5-9c-4.4-3.6-10.5-5.6-13.3-10.6c0-1.5,0-3,0-4.6
					C1513.8,828.9,1510.3,820,1500.1,817.2z"/>
				<path class="st1" d="M1411.9,852c0.9-5.4-5.8-3.7-4.9-9.1c-13.6,0.3-23.2-3.1-33.3-6.1c-1.5,2.7-4.7,3.9-3.3,9.1
					C1386.2,846.1,1393.8,853.9,1411.9,852z"/>
				<path class="st1" d="M1534.9,910.9c0.7-7.1-2.9-10.4-1.6-18.1c-3.3-1-3.8-4.6-6.6-6c-0.6-11.6-11.9-13.4-10-27.2
					c-3.1,0.3-3.6-1.7-6.6-1.5c-4.3,6.2,1.8,21.8-5.1,25.7c-6.5,2-3.4-5-10-3c-0.3-4.2-7.9-1.8-6.6-7.5c-0.9-4.8,8.2-0.6,6.6-6
					c-5.8-5.9-22.8-1.5-31.5-4.6c-2.9,0.9,0.1,7.2-3.3,7.5c-6.2,1-11.7,2.4-16.6,4.6c-2.1,4.6-0.6,12.6-6.6,13.6
					c-4-3.6-8.2,0.2-13.4,0c-3.2,1,0.4,8.4-3.3,9c-3.4-0.8-3.2-4.5-6.6-1.5c-4.1,3.8-2.2,13.1-8.3,15.1c-3.7,2.2-11.1,1-13.3,4.5
					c1.8,6.7,5.8,15.1,1.7,22.6c3.2,1.1,4.4,4.1,5,7.6c0.9,6.9-3,9.4-1.7,16.6c5-0.4,5.2,3.4,10.1,3c6.9-2.7,11-8.1,23.3-6.1
					c5.9-6.7,17.5-8.2,31.6-7.5c4.7,3.2,7.8,8,9.9,13.6c6.5-2.8,4.5,3.5,11.7,0c-0.1,4,0.6,8.6-1.7,10.6c10.6,5.6,16.9,5.9,33.3,6.1
					c4.2-2.7,7.3-6.5,13.3-7.6c-0.8-7.7,7.9-6.8,6.6-15c5.8-0.3,4.3-7.2,10-7.5c-1.9-5.4,2.9-8.6,3.3-13.6c0.9-9.2-3.2-18.6-5-27.2
					C1539.1,908.9,1536.4,915.3,1534.9,910.9z"/>
				<path class="st1" d="M1147.6,862.6c-2.9,4.4-5.5,9.1-6.7,15.1c-7.2,1.5-10.9,6.1-14.9,10.6c-1.3,5.2,2.4,5.8,1.7,10.6
					c-1.5,3.2-2.7,6.7-5,9.1c3.6,6.8-1.2,12.8,5,18.1c5.4,0.3,7-2.7,13.3-1.5c3.6-6.8,2.2-9.8,6.7-16.6c0-2.6,0-5,0-7.6
					c0.4-1.7,1.8-2.4,3.3-3.1c-3-6.6,3.1-12.9,3.4-24.1C1148.1,873.2,1154.5,861.9,1147.6,862.6z"/>
				<path class="st1" d="M1626.4,975c0.3-4.3,0.2-8.3-5-7.5c0,4,0,8,0,12c-1.3,4.5-7.9,4-6.7,10.6c11.2-1.5,3.8,4.5,3.3,9
					c10.5-0.5,10.9-10.3,15-16.6c2.5-2.3,6.9-2.7,8.3-6.1C1637.3,971.8,1634.3,975.6,1626.4,975z"/>
				<path class="st1" d="M1608.1,993.1c-1.4,3.2-5,4.5-4.9,9c-2.9-0.1-5.2,0.4-6.7,1.5c-2.8,3-3.9,7.6-8.3,9
					c-6.9,2.4-8.9,9-11.7,15.1c5.4-2.4,9-0.8,14.9,0c1.6-3.6,6.7-4,5-10.6c2.2,0,4.5,0,6.7,0c0.5-8.6,13.1-6.2,13.2-15.1
					C1615.8,997.1,1611.5,995.6,1608.1,993.1z"/>
				<path class="st1" d="M1495,997.6c-1.9,2.3,5.6,9.1,6.7,13.6c8.1-0.7,13.3-4,11.6-13.6C1506.1,998.8,1497.9,995.8,1495,997.6z"/>
				<path class="st1" d="M741.9,1044.4c2.2,0,4.5,0,6.7,0C749.7,1038.5,741.6,1039.5,741.9,1044.4z"/>
			</g>
			<g>
				<g>
					<path class="st2" d="M1387.1,604.1c1.7-2.4,5-3,7.5-1.4l59,40.8c2.4,1.7,3,5,1.4,7.5l-26.7,38.6c-1.7,2.4-5,3-7.5,1.4l-59-40.8
						c-2.4-1.7-3-5-1.4-7.5L1387.1,604.1z"/>
					<path class="st3" d="M1397.8,638.5l-38,5.8c-0.6,2.2,0.2,4.5,2,5.9l59,40.8c1.9,1.3,4.4,1.2,6.2-0.2l-8.1-38L1397.8,638.5z"/>
					<path class="st4" d="M1396.9,639.8l-37.2,4.6c-0.5,2.1,0.3,4.4,2.1,5.7l59,40.8c1.9,1.3,4.3,1.2,6.1,0L1418,654L1396.9,639.8z"
						/>
					<path class="st3" d="M1388.3,603l10.9,56.1l56.3-9.6c0.6-2.3-0.1-4.7-2-6l-59-40.8C1392.7,601.4,1390.2,601.6,1388.3,603z"/>
					<path class="st4" d="M1388.5,602.7l12.9,53.2l54.3-6.8c0.5-2.1-0.3-4.4-2.1-5.7l-59-40.8
						C1392.7,601.4,1390.3,601.5,1388.5,602.7z"/>
				</g>
			</g>
			<g class="st5">
				<path class="st6" d="M646.2,698.1c-1.3-0.3-2.2-0.8-3.2-1.5c-2.7-1.9-5.8-4.3-8.1-7.3c-2.4-3.2-3.6-6.6-3.7-10.5
					c-0.1-2.9,1-5.4,2.8-6.9c0.9-0.7,1.9-1.1,3.1-1.2c0.6-0.1,1.2-0.1,1.7-0.1c0.9,0,1.6,0.1,2.3,0.3c2,0.5,3.6,1.8,5.4,3.3l0.3,0.2
					l0.3-0.2c1.9-1.4,3.6-2.6,5.6-3.1c0.7-0.2,1.5-0.3,2.4-0.3c0.5,0,1.1,0.1,1.7,0.1c1.1,0.2,2.2,0.7,3,1.4c1.7,1.5,2.6,4.1,2.4,7
					c-0.3,3.9-1.7,7.3-4.3,10.4c-2.5,2.9-5.7,5.2-8.5,7C648.4,697.4,647.5,697.9,646.2,698.1z"/>
				<g>
					<polygon class="st6" points="1275.4,617 1296.5,638.1 1296.5,666.2 1282.5,666.2 1282.5,645.1 1268.4,645.1 1268.4,666.2 
						1254.3,666.2 1254.3,638.1 					"/>
					<path class="st6" d="M1303.6,641.2c-0.8,0-1.6-0.3-2.2-0.9l-25.9-25.9l-25.9,25.9c-1.2,1.2-3.2,1.2-4.4,0
						c-1.2-1.2-1.2-3.2,0-4.4l28.1-28.1c1.2-1.2,3.2-1.2,4.4,0l28.1,28.1c1.2,1.2,1.2,3.2,0,4.4
						C1305.2,640.9,1304.4,641.2,1303.6,641.2z"/>
				</g>
				<path class="st6" d="M918,501.6c-8.4,9.2-7.7,23.5,1.5,31.9c4.3,3.9,9.8,5.9,15.2,5.9l0.9,19.2c0,0.8,0.4,1.4,0.9,1.9
					c0.5,0.5,1.2,0.8,2,0.7c1.5-0.1,2.7-1.3,2.6-2.9l-0.9-19.6c4.2-1,8.1-3.3,11.2-6.7c8.4-9.2,7.7-23.5-1.5-31.9
					C940.7,491.7,926.4,492.4,918,501.6z M920.9,504.2c6.9-7.6,18.7-8.1,26.2-1.2c7.6,6.9,8.1,18.7,1.2,26.2
					c-6.9,7.6-18.7,8.1-26.2,1.2C914.6,523.6,914.1,511.8,920.9,504.2z"/>
				<path class="st6" d="M1384.8,819v22.6c0,2.4,2,4.4,4.4,4.4h36.9c2.4,0,4.4-2,4.4-4.4V819c0-2.4-2-4.4-4.4-4.4h-36.9
					C1386.8,814.6,1384.8,816.6,1384.8,819z M1387.6,841.6V819l14.4,12L1387.6,841.6C1387.6,841.7,1387.6,841.6,1387.6,841.6z
					 M1427.7,841.8l-14.4-10.8l14.4-11.9v22.5C1427.7,841.7,1427.7,841.8,1427.7,841.8z M1390,817.4h35.4l-16.3,13.5
					c-0.7,0.6-2.1,0.6-2.8,0L1390,817.4z M1424.9,843.2h-34.6l13.9-10.4l0.3,0.2c0.9,0.7,2.1,1.1,3.2,1.1c1.1,0,2.3-0.4,3.2-1.1
					l0.3-0.2L1424.9,843.2z"/>
				<g>
					<path class="st6" d="M499.3,738.2c0.7,3.7,3.5,6.3,6.5,6.3c3,0,5.8-2.7,6.5-6.4c0.3-0.2,0.6-0.8,0.7-1.5
						c0.1-0.9-0.2-1.7-0.7-1.8c-0.1,0-0.1,0-0.1,0c-0.7-2.9-3-5.2-6-5.4c0.6-0.4,1.1-0.5,1.2-0.5c-0.8,0.1-1.4,0.2-1.9,0.4
						c-0.4-0.1-0.9-0.2-1.5-0.3c0.1,0,0.5,0.1,1,0.4c-0.1,0-0.1,0-0.2,0c-0.6,0-1.4,0-2.3,0.3c0.1,0,0.5-0.1,1.1,0
						c-2.2,0.8-3.9,2.7-4.4,5.1c-0.1-0.1-0.2-0.1-0.3-0.1c-0.5,0.1-0.8,0.8-0.7,1.8C498.4,737.5,498.8,738.2,499.3,738.2z"/>
					<path class="st6" d="M525.7,753c-1-0.9-2.6-0.8-3.5,0.2l-3.2,3.6l-1.9-5.1l-1-2.7c-0.2-0.6-0.7-1.1-1.3-1.4l0,0
						c-1-0.6-2.2-0.9-3.4-0.9h-1.8c0.1,0.7,0.2,1.4,0.2,2.1c0,2.5-0.7,4.7-1.8,6l-0.9-5c0-0.1-0.1-0.2-0.1-0.3
						c0.1,0,0.1-0.1,0.2-0.2l0.9-2.6c0.1-0.1,0-0.2-0.2-0.2h-4.4c-0.1,0-0.2,0.1-0.2,0.2l0.9,2.6c0,0.1,0.1,0.1,0.2,0.2
						c-0.1,0.1-0.1,0.2-0.1,0.3l-0.9,5c-1.1-1.3-1.8-3.5-1.8-6c0-0.8,0.1-1.5,0.2-2.1h-1.8c-1.3,0-2.5,0.3-3.5,0.9c0,0,0,0,0,0
						c-0.6,0.3-1,0.8-1.3,1.4l-1,2.7l-6.3,16.7c-0.5,1.4,0.3,2.9,2,3.4c1.6,0.5,3.3-0.3,3.9-1.7l3.8-10.1v6.1c0,0,0,0.1,0,0.1
						c0,0,0,0.1,0,0.1v30.4c0,2.2,1.6,4,3.6,4c2,0,3.6-1.8,3.6-4v-24.4h1.8v24.4c0,2.2,1.6,4,3.5,4c2,0,3.6-1.8,3.6-4v-30.4
						c0,0,0-0.1,0-0.1c0,0,0-0.1,0-0.1v-6.6l1.3,3.4c0.3,0.7,0.4,0.9,0.8,1.4c0.9,1.1,2.6,0.8,3.5-0.2l1.7-2l4.9-5.5
						C526.8,755.5,526.7,753.9,525.7,753z"/>
				</g>
				<g>
					<path class="st6" d="M1113.2,434.1c0.7,3.7,3.5,6.3,6.5,6.3c3,0,5.8-2.7,6.5-6.4c0.3-0.2,0.6-0.8,0.7-1.5
						c0.1-0.9-0.2-1.7-0.7-1.8c-0.1,0-0.1,0-0.1,0c-0.7-2.9-3-5.2-6-5.4c0.6-0.4,1.1-0.5,1.2-0.5c-0.8,0.1-1.4,0.2-1.9,0.4
						c-0.4-0.1-0.9-0.2-1.5-0.3c0.1,0,0.5,0.1,1,0.4c-0.1,0-0.1,0-0.2,0c-0.6,0-1.4,0-2.3,0.3c0.1,0,0.5-0.1,1.1,0
						c-2.2,0.8-3.9,2.7-4.4,5.1c-0.1-0.1-0.2-0.1-0.3-0.1c-0.5,0.1-0.8,0.8-0.7,1.8C1112.3,433.4,1112.7,434.1,1113.2,434.1z"/>
					<path class="st6" d="M1139.6,449c-1-0.9-2.6-0.8-3.5,0.2l-3.2,3.6l-1.9-5.1l-1-2.7c-0.2-0.6-0.7-1.1-1.3-1.4l0,0
						c-1-0.6-2.1-0.9-3.4-0.9h-1.8c0.1,0.7,0.2,1.4,0.2,2.1c0,2.5-0.7,4.7-1.8,6l-0.9-5c0-0.1-0.1-0.2-0.1-0.3
						c0.1,0,0.1-0.1,0.2-0.2l0.9-2.6c0.1-0.1,0-0.2-0.1-0.2h-4.4c-0.1,0-0.2,0.1-0.2,0.2l0.9,2.6c0,0.1,0.1,0.1,0.2,0.2
						c-0.1,0.1-0.1,0.2-0.1,0.3l-0.9,5c-1.1-1.3-1.8-3.5-1.8-6c0-0.8,0.1-1.5,0.2-2.1h-1.8c-1.3,0-2.5,0.3-3.5,0.9c0,0,0,0,0,0
						c-0.6,0.3-1,0.8-1.3,1.4l-1,2.7l-6.3,16.7c-0.5,1.4,0.3,2.9,2,3.4c1.6,0.5,3.3-0.3,3.9-1.7l3.8-10.1v6.1c0,0,0,0.1,0,0.1
						c0,0,0,0.1,0,0.1v30.4c0,2.2,1.6,3.9,3.6,3.9c2,0,3.6-1.8,3.6-3.9v-24.4h1.8v24.4c0,2.2,1.6,3.9,3.5,3.9c2,0,3.6-1.8,3.6-3.9
						v-30.4c0,0,0-0.1,0-0.1c0,0,0-0.1,0-0.1v-6.6l1.3,3.4c0.3,0.7,0.4,0.9,0.8,1.4c0.9,1.1,2.6,0.8,3.5-0.2l1.7-2l4.9-5.5
						C1140.7,451.5,1140.6,449.9,1139.6,449z"/>
				</g>
				<path class="st6" d="M464.8,630.2c0.8-1,1.3-2.2,1.3-3.6c0-3.3-2.9-6.1-6.4-6.1c-1.9,0-3.5,0.7-4.7,1.9c-2-4.7-6.9-8-12.6-8
					c-6.1,0-11.3,3.8-13,9.1c-0.6-0.1-1.2-0.2-1.9-0.2c-6.1,0-11.1,4.6-11.1,10.4c0,0.4,0,0.8,0.1,1.2c-3,1-5.1,3.6-5.2,6.6
					c0,2.4,1.3,4.5,3.3,5.8l56,0.1c2.1-1.8,3.5-4.4,3.5-7.3C474,635,470,630.9,464.8,630.2z"/>
				<path class="st6" d="M896.7,476.5c0.8-1,1.3-2.2,1.3-3.6c0-3.3-2.9-6.1-6.4-6.1c-1.9,0-3.6,0.7-4.7,2c-2-4.7-6.9-8-12.6-8
					c-6.1,0-11.3,3.8-13,9.1c-0.6-0.1-1.2-0.2-1.9-0.2c-6.1,0-11.1,4.6-11.1,10.4c0,0.4,0,0.8,0.1,1.2c-3,1-5.1,3.6-5.2,6.6
					c0,2.4,1.3,4.5,3.3,5.8l56,0.1c2.1-1.8,3.5-4.4,3.5-7.3C905.9,481.3,901.9,477.1,896.7,476.5z"/>
				<g>
					<path class="st6" d="M700,826.5c3.3-2.5,4.9-5.5,4.9-9c0-3.5-1.6-6.5-4.9-9c-3.3-2.5-7.2-3.8-11.9-3.8c-4.6,0-8.6,1.3-11.8,3.8
						c-3.3,2.5-4.9,5.5-4.9,9c0,3.4,1.5,6.3,4.6,8.7c0,0.3,0,0.6,0,0.8c0,1.8-0.5,3.3-1.5,4.4c-1,1.2-2.3,1.9-3.8,2.1
						c0.9,1.5,2,2.3,3.3,2.3c2,0,3.8-0.6,5.3-1.9c1.5-1.2,2.3-2.8,2.5-4.7c2,0.7,4.2,1,6.4,1C692.8,830.2,696.7,829,700,826.5z"/>
					<path class="st6" d="M708,839.6c-0.7-0.8-1-1.9-1-3.1c0-0.2,0-0.4,0-0.6c2.1-1.7,3.1-3.7,3.1-6c0-2.4-1.1-4.5-3.4-6.2
						c-0.8-0.6-1.7-1.1-2.6-1.5c0,0.1-0.1,0.2-0.2,0.3c-0.8,1.5-2.1,3-3.8,4.2c-1.7,1.3-3.5,2.3-5.5,2.9c-2,0.7-4.2,0.9-6.6,0.9
						c-0.3,0-0.7,0-1,0c0.2,2.2,1.3,4,3.4,5.6c2.2,1.7,5,2.6,8.2,2.6c1.5,0,3-0.2,4.4-0.7c0.1,1.3,0.6,2.4,1.7,3.2
						c1.1,0.9,2.3,1.3,3.7,1.3c0.9,0,1.7-0.5,2.3-1.6C709.6,840.9,708.7,840.4,708,839.6z"/>
					<path class="st6" d="M716.7,823c-1-1.2-1.5-2.6-1.5-4.5c0-0.3,0-0.5,0-0.8c3-2.4,4.6-5.4,4.6-8.7c0-3.5-1.6-6.5-4.9-9
						c-3.3-2.5-7.2-3.7-11.8-3.7c-4.6,0-8.6,1.2-11.9,3.7c-1.7,1.3-3,2.8-3.8,4.4c0.2,0,0.5,0,0.7,0c2.4,0,4.5,0.3,6.6,0.9
						c2,0.6,3.9,1.6,5.5,2.9c1.7,1.3,2.9,2.7,3.8,4.2c0.8,1.6,1.3,3.3,1.3,5.1c0,1.5-0.3,2.9-0.9,4.3c1.7-0.1,3.4-0.4,5.1-1
						c0.1,1.9,0.9,3.5,2.4,4.7c1.5,1.2,3.3,1.8,5.3,1.8c1.3,0,2.4-0.7,3.3-2.3C719,824.9,717.7,824.2,716.7,823z"/>
				</g>
				<g>
					<path class="st6" d="M1545.5,699c3.3-2.5,4.9-5.5,4.9-9c0-3.5-1.6-6.5-4.9-9c-3.3-2.5-7.2-3.8-11.9-3.8
						c-4.6,0-8.6,1.3-11.8,3.8c-3.3,2.5-4.9,5.5-4.9,9c0,3.4,1.5,6.3,4.6,8.7c0,0.3,0,0.6,0,0.8c0,1.8-0.5,3.3-1.5,4.4
						c-1,1.2-2.3,1.9-3.8,2.1c0.9,1.5,2,2.3,3.3,2.3c2,0,3.8-0.6,5.3-1.9c1.5-1.2,2.3-2.8,2.5-4.7c2,0.7,4.2,1,6.4,1
						C1538.3,702.8,1542.2,701.5,1545.5,699z"/>
					<path class="st6" d="M1553.5,712.2c-0.7-0.8-1-1.9-1-3.1c0-0.2,0-0.4,0-0.6c2.1-1.7,3.1-3.7,3.1-6c0-2.4-1.1-4.5-3.4-6.2
						c-0.8-0.6-1.7-1.1-2.6-1.5c0,0.1-0.1,0.2-0.2,0.3c-0.8,1.5-2.1,3-3.8,4.2c-1.7,1.3-3.5,2.3-5.5,2.9c-2,0.7-4.2,0.9-6.6,0.9
						c-0.3,0-0.7,0-1,0c0.2,2.2,1.3,4,3.4,5.6c2.2,1.7,5,2.6,8.2,2.6c1.5,0,3-0.2,4.4-0.7c0.1,1.3,0.7,2.4,1.7,3.2
						c1.1,0.9,2.3,1.3,3.7,1.3c0.9,0,1.7-0.5,2.3-1.6C1555.1,713.4,1554.2,712.9,1553.5,712.2z"/>
					<path class="st6" d="M1562.2,695.6c-1-1.2-1.5-2.6-1.5-4.5c0-0.3,0-0.5,0-0.8c3-2.4,4.6-5.4,4.6-8.7c0-3.5-1.6-6.5-4.9-9
						c-3.3-2.5-7.2-3.7-11.8-3.7c-4.6,0-8.6,1.2-11.9,3.7c-1.7,1.3-3,2.8-3.8,4.4c0.2,0,0.5,0,0.7,0c2.4,0,4.5,0.3,6.6,1
						c2,0.6,3.9,1.6,5.5,2.9c1.7,1.3,2.9,2.7,3.8,4.2c0.8,1.6,1.3,3.3,1.3,5.1c0,1.5-0.3,2.9-0.9,4.3c1.7-0.1,3.4-0.4,5.1-1
						c0.1,1.9,0.9,3.5,2.4,4.7c1.5,1.2,3.3,1.8,5.3,1.8c1.3,0,2.4-0.7,3.3-2.3C1564.5,697.4,1563.2,696.7,1562.2,695.6z"/>
				</g>
				<g>
					<path class="st7" d="M1366.8,776.6c-1.6,0.6-2.4,1.1-2.4,1.1v45.1h2.4V776.6z"/>
					<g>
						<g>
							<g>
								<path class="st8" d="M1367.3,785.6v1.2c0,0,12.2-6.3,27.1-1.1c0-0.4,0-0.8,0-1.2C1379.6,779.3,1367.3,785.6,1367.3,785.6z"
									/>
							</g>
							<g>
								<path class="st8" d="M1367.3,788.7v1.2c0,0,12.2-6.3,27.1-1.1c0-0.4,0-0.8,0-1.2C1379.6,782.4,1367.3,788.7,1367.3,788.7z"
									/>
							</g>
							<g>
								<path class="st8" d="M1367.3,791.8v1.2c0,0,12.2-6.3,27.1-1.1c0-0.4,0-0.8,0-1.2C1379.6,785.5,1367.3,791.8,1367.3,791.8z"
									/>
							</g>
							<g>
								<path class="st8" d="M1367.3,794.9v1.2c0,0,12.2-6.3,27.1-1.1c0-0.4,0-0.8,0-1.2C1379.6,788.7,1367.3,794.9,1367.3,794.9z"
									/>
							</g>
							<g>
								<path class="st8" d="M1367.3,798v1.2c0,0,12.2-6.3,27.1-1.1c0-0.4,0-0.8,0-1.2C1379.6,791.8,1367.3,798,1367.3,798z"/>
							</g>
							<g>
								<path class="st8" d="M1367.3,801.2v1.2c0,0,12.2-6.3,27.1-1.1c0-0.4,0-0.8,0-1.2C1379.6,794.9,1367.3,801.2,1367.3,801.2z"
									/>
							</g>
							<g>
								<path class="st8" d="M1367.3,804.3v1.2c0,0,12.2-6.3,27.1-1.1c0-0.4,0-0.8,0-1.2C1379.6,798,1367.3,804.3,1367.3,804.3z"/>
							</g>
							<g>
								<path class="st8" d="M1367.3,807.4v1.2c0,0,12.2-6.3,27.1-1.1c0-0.4,0-0.8,0-1.2C1379.6,801.1,1367.3,807.4,1367.3,807.4z"
									/>
							</g>
							<g>
								<path class="st8" d="M1367.3,810.5v1.2c0,0,12.2-6.3,27.1-1.1c0-0.4,0-0.8,0-1.2C1379.6,804.2,1367.3,810.5,1367.3,810.5z"
									/>
							</g>
							<g>
								<path class="st8" d="M1367.3,813.6v1.2c0,0,12.2-6.3,27.1-1.1c0-0.4,0-0.8,0-1.2C1379.6,807.3,1367.3,813.6,1367.3,813.6z"
									/>
							</g>
							<g>
								<path class="st8" d="M1367.3,816.7v1.2c0,0,12.2-6.3,27.1-1.1c0-0.4,0-0.8,0-1.2C1379.6,810.4,1367.3,816.7,1367.3,816.7z"
									/>
							</g>
							<g>
								<path class="st8" d="M1367.3,819.8v1.2c0,0,12.2-6.3,27.1-1.1c0-0.4,0-0.8,0-1.2C1379.6,813.5,1367.3,819.8,1367.3,819.8z"
									/>
							</g>
							<g>
								<path class="st8" d="M1379.8,778.3c-7.5,0.5-12.5,3.1-12.5,3.1v2.2c0,0,5-2.6,12.5-3.1V778.3z"/>
							</g>
						</g>
					</g>
					<g>
						<path class="st8" d="M1361.8,785.6v1.2c0,0-12.2-6.3-27.1-1.1c0-0.4,0-0.8,0-1.2C1349.6,779.3,1361.8,785.6,1361.8,785.6z"/>
						<path class="st8" d="M1361.8,788.7v1.2c0,0-12.2-6.3-27.1-1.1c0-0.4,0-0.8,0-1.2C1349.6,782.4,1361.8,788.7,1361.8,788.7z"/>
						<path class="st8" d="M1361.8,791.8v1.2c0,0-12.2-6.3-27.1-1.1c0-0.4,0-0.8,0-1.2C1349.6,785.5,1361.8,791.8,1361.8,791.8z"/>
						<path class="st8" d="M1361.8,794.9v1.2c0,0-12.2-6.3-27.1-1.1c0-0.4,0-0.8,0-1.2C1349.6,788.7,1361.8,794.9,1361.8,794.9z"/>
						<path class="st8" d="M1361.8,798v1.2c0,0-12.2-6.3-27.1-1.1c0-0.4,0-0.8,0-1.2C1349.6,791.8,1361.8,798,1361.8,798z"/>
						<path class="st8" d="M1361.8,801.2v1.2c0,0-12.2-6.3-27.1-1.1c0-0.4,0-0.8,0-1.2C1349.6,794.9,1361.8,801.2,1361.8,801.2z"/>
						<path class="st8" d="M1361.8,804.3v1.2c0,0-12.2-6.3-27.1-1.1c0-0.4,0-0.8,0-1.2C1349.6,798,1361.8,804.3,1361.8,804.3z"/>
						<path class="st8" d="M1361.8,807.4v1.2c0,0-12.2-6.3-27.1-1.1c0-0.4,0-0.8,0-1.2C1349.6,801.1,1361.8,807.4,1361.8,807.4z"/>
						<path class="st8" d="M1361.8,810.5v1.2c0,0-12.2-6.3-27.1-1.1c0-0.4,0-0.8,0-1.2C1349.6,804.2,1361.8,810.5,1361.8,810.5z"/>
						<path class="st8" d="M1361.8,813.6v1.2c0,0-12.2-6.3-27.1-1.1c0-0.4,0-0.8,0-1.2C1349.6,807.3,1361.8,813.6,1361.8,813.6z"/>
						<path class="st8" d="M1361.8,816.7v1.2c0,0-12.2-6.3-27.1-1.1c0-0.4,0-0.8,0-1.2C1349.6,810.4,1361.8,816.7,1361.8,816.7z"/>
						<path class="st8" d="M1361.8,819.8v1.2c0,0-12.2-6.3-27.1-1.1c0-0.4,0-0.8,0-1.2C1349.6,813.5,1361.8,819.8,1361.8,819.8z"/>
						<path class="st8" d="M1349.4,778.3c7.5,0.5,12.5,3.1,12.5,3.1v2.2c0,0-5-2.6-12.5-3.1V778.3z"/>
					</g>
				</g>
				<g id="idea_1_">
					<g>
						<g>
							<path class="st6" d="M775.1,610.7c-0.4,0-0.7-0.3-0.7-0.7c0-4.4-3.5-7.9-7.9-7.9c-0.4,0-0.7-0.3-0.7-0.7
								c0-0.4,0.3-0.7,0.7-0.7c5.1,0,9.3,4.2,9.3,9.3C775.8,610.4,775.5,610.7,775.1,610.7z"/>
						</g>
					</g>
					<g>
						<g>
							<g>
								<polygon class="st6" points="769.2,628.5 768.1,628.3 770.3,615.6 771.3,615.8 769.2,628.5 								"/>
							</g>
							<g>
								<polygon class="st6" points="763.8,628.5 761.7,615.8 762.8,615.6 764.9,628.3 763.8,628.5 								"/>
							</g>
						</g>
						<g>
							<path class="st6" d="M770.7,617.4c-0.4,0-0.6-0.4-0.8-0.7c-0.1-0.1-0.2-0.4-0.2-0.4s-0.2,0.3-0.2,0.4
								c-0.1,0.3-0.3,0.7-0.8,0.7c-0.4,0-0.6-0.4-0.8-0.7c-0.1-0.1-0.2-0.4-0.2-0.4c-0.1,0-0.2,0.3-0.2,0.4
								c-0.1,0.3-0.3,0.7-0.8,0.7c-0.4,0-0.6-0.4-0.8-0.7c-0.1-0.1-0.2-0.4-0.3-0.4c-0.1,0-0.2,0.3-0.2,0.4
								c-0.1,0.3-0.3,0.7-0.8,0.7c-0.4,0-0.6-0.4-0.8-0.7c-0.1-0.1-0.2-0.4-0.3-0.4c-0.1,0-0.2,0.3-0.2,0.4
								c-0.1,0.3-0.3,0.7-0.8,0.7v-0.6c0.1,0,0.2-0.3,0.2-0.4c0.1-0.3,0.3-0.7,0.8-0.7c0.4,0,0.6,0.4,0.8,0.7
								c0.1,0.1,0.2,0.4,0.2,0.4c0.1,0,0.2-0.3,0.2-0.4c0.1-0.3,0.3-0.7,0.8-0.7c0.4,0,0.6,0.4,0.8,0.7c0.1,0.1,0.2,0.4,0.2,0.4
								c0.1,0,0.2-0.3,0.2-0.4c0.1-0.3,0.3-0.7,0.8-0.7c0.4,0,0.6,0.4,0.8,0.7c0.1,0.1,0.2,0.4,0.3,0.4c0.1,0,0.2-0.3,0.2-0.4
								c0.1-0.3,0.3-0.7,0.8-0.7c0.4,0,0.6,0.4,0.8,0.7c0.1,0.1,0.2,0.4,0.3,0.4V617.4L770.7,617.4z"/>
						</g>
					</g>
					<g>
						<path class="st6" d="M766.5,594.4c-0.4,0-0.7-0.3-0.7-0.7v-7.4c0-0.4,0.3-0.7,0.7-0.7c0.4,0,0.7,0.3,0.7,0.7v7.4
							C767.2,594.1,766.9,594.4,766.5,594.4z"/>
					</g>
					<g>
						<path class="st6" d="M775,596.7c-0.1,0-0.2,0-0.4-0.1c-0.3-0.2-0.5-0.6-0.3-1l3.7-6.4c0.2-0.3,0.6-0.5,1-0.3
							c0.3,0.2,0.5,0.6,0.3,1l-3.7,6.4C775.5,596.5,775.2,596.7,775,596.7z"/>
					</g>
					<g>
						<path class="st6" d="M781.2,602.9c-0.2,0-0.5-0.1-0.6-0.4c-0.2-0.3-0.1-0.8,0.3-1l6.4-3.7c0.3-0.2,0.8-0.1,1,0.3
							c0.2,0.3,0.1,0.8-0.3,1l-6.4,3.7C781.4,602.8,781.3,602.9,781.2,602.9z"/>
					</g>
					<g>
						<path class="st6" d="M791.1,611.3h-7.6c-0.4,0-0.7-0.3-0.7-0.7c0-0.4,0.3-0.7,0.7-0.7h7.6c0.4,0,0.7,0.3,0.7,0.7
							C791.8,611,791.5,611.3,791.1,611.3z"/>
					</g>
					<g>
						<path class="st6" d="M787.6,623.5c-0.1,0-0.2,0-0.4-0.1l-6.4-3.7c-0.3-0.2-0.5-0.6-0.3-1c0.2-0.3,0.6-0.5,1-0.3l6.4,3.7
							c0.3,0.2,0.5,0.6,0.3,1C788.1,623.4,787.8,623.5,787.6,623.5z"/>
					</g>
					<g>
						<path class="st6" d="M758.1,596.7c-0.2,0-0.5-0.1-0.6-0.4l-3.7-6.4c-0.2-0.3-0.1-0.8,0.3-1c0.3-0.2,0.8-0.1,1,0.3l3.7,6.4
							c0.2,0.3,0.1,0.8-0.3,1C758.3,596.6,758.2,596.7,758.1,596.7z"/>
					</g>
					<g>
						<path class="st6" d="M751.9,602.9c-0.1,0-0.2,0-0.4-0.1l-6.4-3.7c-0.3-0.2-0.5-0.6-0.3-1c0.2-0.3,0.6-0.5,1-0.3l6.4,3.7
							c0.3,0.2,0.4,0.6,0.3,1C752.3,602.7,752.1,602.9,751.9,602.9z"/>
					</g>
					<g>
						<path class="st6" d="M749.6,611.3h-7.4c-0.4,0-0.7-0.3-0.7-0.7c0-0.4,0.3-0.7,0.7-0.7h7.4c0.4,0,0.7,0.3,0.7,0.7
							C750.3,611,750,611.3,749.6,611.3z"/>
					</g>
					<g>
						<path class="st6" d="M745.5,623.5c-0.2,0-0.5-0.1-0.6-0.4c-0.2-0.3-0.1-0.8,0.3-1l6.4-3.7c0.3-0.2,0.8-0.1,1,0.3
							c0.2,0.3,0.1,0.8-0.3,1l-6.4,3.7C745.7,623.5,745.6,623.5,745.5,623.5z"/>
					</g>
					<g>
						<g>
							<path class="st6" d="M772.8,628.7L772.8,628.7h-12.5c-0.7,0-1.2-0.5-1.2-1.2c0-0.1,0-0.1,0-0.2c0.1-0.8,0-3.4-0.9-4.6
								c-5-6.5-5.2-12.7-5.2-12.8c0-7.4,6-13.5,13.5-13.5c7.4,0,13.5,6,13.5,13.5c0,0.1-0.1,6.3-5.2,12.8c-0.9,1.2-0.9,3.8-0.9,4.5
								c0,0.1,0,0.1,0,0.2C774,628.2,773.4,628.7,772.8,628.7z M760.2,626.3c-0.7,0-1.1,0.5-1.2,1
								C759.2,626.8,759.6,626.3,760.2,626.3z M773,626.4c0.2,0,0.3,0.1,0.5,0.2C773.3,626.5,773.2,626.4,773,626.4z M761.4,626.3
								h10.2c0-0.5,0.1-1,0.1-1c0.2-1.7,0.6-3,1.3-4c4.5-5.8,4.7-11.3,4.7-11.4c0-6.1-5-11.1-11.1-11.1c-6.1,0-11.1,5-11.1,11.1
								c0,0.1,0.2,5.5,4.7,11.3c0.7,0.9,1.1,2.3,1.3,4C761.4,625.4,761.4,625.8,761.4,626.3z"/>
						</g>
						<g>
							<path class="st6" d="M772.4,631.2h-11.7c-0.7,0-1.2-0.5-1.2-1.2c0-0.7,0.5-1.2,1.2-1.2h11.7c0.7,0,1.2,0.5,1.2,1.2
								C773.6,630.7,773,631.2,772.4,631.2z"/>
						</g>
						<g>
							<path class="st6" d="M771.5,633.7h-10c-0.7,0-1.2-0.5-1.2-1.2c0-0.7,0.5-1.2,1.2-1.2h10c0.7,0,1.2,0.5,1.2,1.2
								C772.7,633.2,772.2,633.7,771.5,633.7z"/>
						</g>
						<g>
							<path class="st6" d="M770,636.2h-7c-0.7,0-1.2-0.5-1.2-1.2c0-0.7,0.5-1.2,1.2-1.2h7c0.7,0,1.2,0.5,1.2,1.2
								C771.2,635.7,770.7,636.2,770,636.2z"/>
						</g>
					</g>
				</g>
				<g>
					<path class="st6" d="M1432.8,516.2c-5.1,0-9.3,11.2-9.3,25.1c0,13.9,4.1,25.1,9.3,25.1c5.1,0,9.3-11.3,9.3-25.1
						C1442.1,527.5,1437.9,516.2,1432.8,516.2z M1432.8,562.4c-4.3,0-7.8-9.4-7.8-21c0-11.6,3.5-21,7.8-21c4.3,0,7.8,9.4,7.8,21
						C1440.6,553,1437.1,562.4,1432.8,562.4z"/>
					<path class="st6" d="M1457.9,541.4c0-5.1-11.3-9.3-25.1-9.3c-13.9,0-25.1,4.1-25.1,9.3c0,5.1,11.2,9.3,25.1,9.3
						C1446.7,550.6,1457.9,546.5,1457.9,541.4z M1411.8,541.4c0-4.3,9.4-7.8,21-7.8c11.6,0,21,3.5,21,7.8c0,4.3-9.4,7.8-21,7.8
						C1421.2,549.1,1411.8,545.7,1411.8,541.4z"/>
					<path class="st6" d="M1450.6,523.6c-3.6-3.6-14.5,1.4-24.3,11.2c-9.8,9.8-14.8,20.7-11.2,24.3c3.6,3.6,14.5-1.4,24.3-11.2
						C1449.2,538.1,1454.2,527.2,1450.6,523.6z M1417.9,556.3c-3-3,1.2-12.1,9.4-20.4c8.2-8.2,17.3-12.4,20.4-9.4
						c3,3-1.2,12.1-9.4,20.4C1430.1,555.1,1421,559.3,1417.9,556.3z"/>
					<path class="st6" d="M1450.6,559.1c3.6-3.6-1.4-14.5-11.2-24.3c-9.8-9.8-20.7-14.8-24.3-11.2c-3.6,3.6,1.4,14.5,11.2,24.3
						C1436.1,557.7,1447,562.8,1450.6,559.1z M1417.9,526.5c3-3,12.1,1.2,20.4,9.4c8.2,8.2,12.4,17.3,9.4,20.4
						c-3,3-12.1-1.2-20.4-9.4C1419.1,538.6,1414.9,529.5,1417.9,526.5z"/>
					<path class="st6" d="M1436.7,541.4c0-2.1-1.7-3.9-3.9-3.9c-2.1,0-3.9,1.7-3.9,3.9c0,2.1,1.7,3.9,3.9,3.9
						C1435,545.2,1436.7,543.5,1436.7,541.4z"/>
				</g>
				<g>
					<polygon class="st6" points="499.7,552.2 499.7,534.4 489.8,543.8 488.8,542.9 488.8,552.2 					"/>
					<polygon class="st6" points="512.5,552.2 512.5,537.3 504.7,529.1 501.7,531.9 501.7,552.2 					"/>
					<polygon class="st6" points="525.4,552.2 525.4,532.8 516.1,540.9 514.5,539.2 514.5,552.2 					"/>
					<polygon class="st6" points="538.2,552.2 538.2,521.6 527.3,531.1 527.3,552.2 					"/>
					<path class="st6" d="M537.9,511.4l-21.4,18.4l-10-9.7c-0.5-0.4-1.1-0.7-1.7-0.7c-0.6,0-1.3,0.2-1.7,0.7l-14.2,13.8v4.8l0.9,0.8
						l15-14.5l9.9,9.7c0.9,0.9,2.4,0.9,3.3,0.1l20.1-17.4v-5.7L537.9,511.4z"/>
				</g>
				<g>
					<polygon class="st6" points="752.2,523.8 752.7,517.7 738.7,517.7 739.2,523.8 					"/>
					<polygon class="st6" points="754.8,515.7 767.5,515.7 770.2,505.3 755.7,505.3 					"/>
					<polygon class="st6" points="724.4,517.7 726,523.8 737.3,523.8 736.8,517.7 					"/>
					<polygon class="st6" points="767,517.7 754.7,517.7 754.2,523.8 765.4,523.8 					"/>
					<path class="st6" d="M777.1,486.8c-0.6,0-1.2,0.2-1.6,0.5c-0.2,0.1-0.5,0.3-0.7,0.6c-2.7,2.7-5.3,5.3-8,8
						c-0.3,0.3-0.5,0.6-0.6,0.9h-9.8l-0.5,6.6h14.9l1.1-4.2c2.1-2.1,4.3-4.3,6.4-6.3h5.1c3.8,0,3.8-6.2,0-6.2H777.1z"/>
					<polygon class="st6" points="737.6,503.4 753.9,503.4 754.4,496.9 737,496.9 					"/>
					<polygon class="st6" points="736.6,515.7 735.8,505.3 721.2,505.3 723.9,515.7 					"/>
					<polygon class="st6" points="719,496.9 720.7,503.4 735.6,503.4 735,496.9 					"/>
					<polygon class="st6" points="753.7,505.3 737.7,505.3 738.6,515.7 752.8,515.7 					"/>
					<path class="st6" d="M731.9,525.6c2.9,0,5.2,2.3,5.2,5.2c0,2.9-2.3,5.2-5.2,5.2c-2.9,0-5.2-2.3-5.2-5.2
						C726.8,527.9,729.1,525.6,731.9,525.6"/>
					<path class="st6" d="M759.5,525.6c2.9,0,5.2,2.3,5.2,5.2c0,2.9-2.3,5.2-5.2,5.2c-2.9,0-5.2-2.3-5.2-5.2
						C754.3,527.9,756.6,525.6,759.5,525.6"/>
				</g>
				<path class="st6" d="M526.2,887.2c-5.6-0.3-10.6-2.7-10.6-9.8v-2.5h8.8v1.3c0,2.8,0.8,4.9,3.9,4.9c3.2,0,4.1-2.3,4.1-4.3
					c0-8.1-16.7-3.6-16.7-17.8c0-5.7,2.8-10.4,10.5-11.1v-4h4.2v4c7.6,0.6,10.4,4.8,10.4,10.3v0.9H532c0-1.6-0.2-3-0.8-3.9
					c-0.5-0.9-1.4-1.2-2.8-1.2c-2.3,0-3.6,1.2-3.6,3.9c0,7.9,16.7,4,16.7,17.3c0,7.9-4.1,11.4-11.1,12v4.8h-4.2V887.2z"/>
			</g>
			<g>
				<path class="st9" d="M603.8,620l5.1,11.3l-11.8-3.8l-69-61.7c-1.1-1-1.2-2.7-0.2-3.9l3-3.4c1-1.1,2.7-1.2,3.9-0.2L603.8,620z"/>
				<path class="st10" d="M603.8,620l5.1,11.3l-8.8-7.9l-70.7-63.2l1.5-1.7c1-1.1,2.7-1.2,3.9-0.2L603.8,620z"/>
				<path class="st11" d="M603.8,620l5.1,11.3l-11.8-3.8l-66-59c1.9-3,4.1-5.5,6.7-7.5L603.8,620z"/>
				<path class="st12" d="M603.8,620l5.1,11.3l-8.8-7.9l-66-59c1.1-1.3,2.4-2.4,3.7-3.4L603.8,620z"/>
				<path class="st13" d="M603.8,620l5.1,11.3l-11.8-3.8l-63.6-56.9c1.9-3.1,4.1-5.5,6.7-7.5L603.8,620z"/>
				<path class="st14" d="M603.8,620l5.1,11.3l-8.8-7.9l-63.7-56.9c1.1-1.3,2.4-2.4,3.7-3.4L603.8,620z"/>
				<path class="st15" d="M603.8,620l5.1,11.3l-11.8-3.8c0.8-1.4,1.8-2.7,3-4C601.2,622.1,602.5,620.9,603.8,620z"/>
				<path class="st16" d="M603.8,620l5.1,11.3l-8.8-7.9C601.2,622.1,602.5,620.9,603.8,620z"/>
				<path class="st17" d="M607.2,627.5l1.7,3.7L605,630c0.3-0.5,0.6-0.9,1-1.3C606.4,628.2,606.8,627.8,607.2,627.5z"/>
			</g>
			<g>
				<polygon class="st18" points="1023.3,492.7 990.7,516.2 958.1,492.7 990.7,469.1 				"/>
				<rect x="967" y="473.3" class="st19" width="47.4" height="57.9"/>
				<g>
					<rect x="974.4" y="481.2" class="st20" width="13.5" height="2.7"/>
					<rect x="974.3" y="486.5" class="st20" width="32.9" height="2.7"/>
					<rect x="974.3" y="491.6" class="st20" width="32.9" height="2.7"/>
					<rect x="974.3" y="496.6" class="st20" width="32.9" height="2.7"/>
					<rect x="974.3" y="501.7" class="st20" width="32.9" height="2.7"/>
					<rect x="974.3" y="506.8" class="st20" width="32.9" height="2.7"/>
					<rect x="974.3" y="511.9" class="st20" width="32.9" height="2.7"/>
				</g>
				<polygon class="st21" points="958.1,531.1 1023.3,531.1 1023.3,492.7 990.7,516.2 958.1,492.7 				"/>
				<polygon class="st22" points="958.1,531.1 1023.3,531.1 996.6,511.9 984.7,511.9 984.7,511.9 				"/>
			</g>
			<g>
				
					<rect x="1281.4" y="575.3" transform="matrix(0.1253 -0.9921 0.9921 0.1253 512.7216 1810.5886)" class="st21" width="3.7" height="78.5"/>
				
					<rect x="1219.7" y="562.1" transform="matrix(0.1254 -0.9921 0.9921 0.1254 533.8666 1747.3934)" class="st11" width="76.6" height="17.6"/>
				
					<rect x="1252.5" y="579" transform="matrix(0.1252 -0.9921 0.9921 0.1252 533.4711 1780.5251)" class="st21" width="47.7" height="17.6"/>
				
					<rect x="1279.7" y="589.5" transform="matrix(0.1253 -0.9921 0.9921 0.1253 539.5438 1808.618)" class="st23" width="31.5" height="17.6"/>
				
					<rect x="1293.4" y="584.7" transform="matrix(0.1252 -0.9921 0.9921 0.1252 562.812 1825.3763)" class="st24" width="46.3" height="17.6"/>
			</g>
			<g>
				<g>
					<ellipse class="st22" cx="704.5" cy="505.3" rx="28.9" ry="28.9"/>
					<path class="st21" d="M704.5,476.5c15.9,0,28.9,12.9,28.9,28.9c0,15.9-12.9,28.9-28.9,28.9V476.5z"/>
				</g>
				<path class="st4" d="M697.6,509.3c1.1,1.3,2.2,2.2,3.3,2.9c1.1,0.6,2.3,1,3.5,1c1,0,1.8-0.3,2.4-0.8c0.6-0.6,0.9-1.3,0.9-2.1
					c0-0.9-0.3-1.6-0.8-2.1c-0.5-0.5-1.7-1-3.6-1.5c-2.9-0.8-4.9-1.8-6.1-3c-1.2-1.2-1.7-2.8-1.7-4.9c0-2.5,0.8-4.6,2.4-6.2
					c1.6-1.6,3.8-2.5,6.7-2.8v-2.7h2.5l0,2.6c1.1,0.1,2.2,0.4,3.3,0.8c1.1,0.4,2.1,1,3.2,1.7l-2.4,5.5c-0.9-0.7-1.7-1.3-2.7-1.7
					c-0.9-0.4-1.8-0.6-2.7-0.6c-0.9,0-1.7,0.2-2.2,0.6c-0.6,0.4-0.8,1-0.8,1.7c0,0.7,0.3,1.3,0.7,1.7c0.5,0.4,1.5,0.8,2.9,1.2
					l0.2,0.1c3.1,0.8,5.2,1.8,6.2,2.8c0.7,0.7,1.2,1.5,1.5,2.5c0.4,1,0.5,2,0.5,3.2c0,2.7-0.8,4.9-2.4,6.6c-1.6,1.8-3.8,2.8-6.5,3.1
					v4.7h-2.5V519c-1.8,0-3.5-0.4-5-1c-1.5-0.7-3-1.7-4.4-3L697.6,509.3z"/>
			</g>
			<g>
				<g>
					<g>
						<g>
							<g>
								<linearGradient id="SVGID_1_" gradientUnits="userSpaceOnUse" x1="1180.0573" y1="735.622" x2="1390.9427" y2="812.378">
									<stop  offset="0.5" style="stop-color:#595A5B"/>
									<stop  offset="0.5" style="stop-color:#474748"/>
								</linearGradient>
								<path class="st25" d="M1367,876.7c0,4.6-3.7,8.3-8.3,8.3h-146.4c-4.6,0-8.3-3.7-8.3-8.3V671.3c0-4.6,3.7-8.3,8.3-8.3h146.4
									c4.6,0,8.3,3.7,8.3,8.3V876.7z"/>
								<path class="st4" d="M1288.9,672.5c0,1.4-1.1,2.5-2.5,2.6c-1.4,0-2.5-1.1-2.6-2.5c0-1.4,1.1-2.5,2.5-2.5
									C1287.8,669.9,1288.9,671,1288.9,672.5z"/>
								<path class="st26" d="M1293.2,871.5c0,2.8-2.2,5.1-5.1,5.1c-2.8,0-5.1-2.2-5.1-5c0-2.8,2.2-5.1,5-5.1
									C1290.8,866.4,1293.1,868.7,1293.2,871.5z"/>
								<path class="st27" d="M1290.6,871.5c0,1.4-1.1,2.6-2.5,2.6c-1.4,0-2.6-1.1-2.6-2.5c0-1.4,1.1-2.5,2.5-2.6
									C1289.5,869,1290.6,870.1,1290.6,871.5z"/>
							</g>
							<g>
								<rect x="1222.1" y="678.3" class="st28" width="138.5" height="178.3"/>
							</g>
							<g>
								<polygon class="st29" points="1360.6,856.6 1222.1,678.3 1360.6,678.3 								"/>
							</g>
							<polygon class="st11" points="1268.7,734.5 1317.7,762.8 1268.7,791.9 							"/>
						</g>
					</g>
					<g>
						<g>
							<path class="st30" d="M1269.1,958.9c1.4,3.7,5.4,5.6,9.2,4.2l0,0c3.7-1.4,5.6-5.5,4.2-9.2l-25.5-59.3
								c-1.4-3.7-5.5-5.6-9.2-4.2l0,0c-3.7,1.4-5.6,5.5-4.2,9.2L1269.1,958.9z"/>
							<path class="st31" d="M1247.5,903.3l-1.1-3c-1-2.7-0.7-6.5,2-7.5l0.5-0.2c2.7-1,5.4,1.7,6.4,4.4l1.1,3L1247.5,903.3z"/>
						</g>
						<path class="st30" d="M1326.3,896.8c-0.6-7.4-5.9-13-11.7-12.5l-40.6,3.5c-5.8,0.5-10,6.9-9.3,14.3l4.3,49.3
							c0.6,7.4,5.9,13,11.7,12.5l40.6-3.5c5.8-0.5,10-6.9,9.3-14.3L1326.3,896.8z"/>
						<rect x="1278" y="959" class="st30" width="49" height="21"/>
						<g>
							<path class="st30" d="M1273,845.4c-0.3-3.6-3.5-6.2-7-5.9l0,0c-3.6,0.3-6.2,3.5-5.9,7l9.2,106.9c0.3,3.6,3.5,6.2,7,5.9l0,0
								c3.6-0.3,6.2-3.5,5.9-7L1273,845.4z"/>
							<path class="st31" d="M1271.4,846.4c-0.2-2.2-2.4-3.9-4.9-3.7l-0.5,0c-2.5,0.2-4.4,2.2-4.2,4.4l0.1,1.6
								c0.2,2.2,2.4,3.9,4.9,3.7l0.5,0c2.5-0.2,4.4-2.2,4.2-4.4L1271.4,846.4z"/>
						</g>
						<path class="st30" d="M1292.4,881.3c-0.3-3.6-3.5-6.2-7-5.9l0,0c-3.6,0.3-6.2,3.5-5.9,7l6,69.7c0.3,3.6,3.5,6.2,7,5.9l0,0
							c3.6-0.3,6.2-3.5,5.9-7L1292.4,881.3z"/>
						<path class="st30" d="M1308.6,879.9c-0.3-3.6-3.5-6.2-7-5.9l0,0c-3.6,0.3-6.2,3.5-5.9,7l6,69.7c0.3,3.6,3.5,6.2,7,5.9l0,0
							c3.6-0.3,6.2-3.5,5.9-7L1308.6,879.9z"/>
						<path class="st30" d="M1324.8,878.5c-0.3-3.6-3.5-6.2-7-5.9l0,0c-3.6,0.3-6.2,3.5-5.9,7l6,69.6c0.3,3.6,3.5,6.2,7,5.9l0,0
							c3.6-0.3,6.2-3.5,5.9-7L1324.8,878.5z"/>
						<g>
							<rect x="1269" y="989" class="st32" width="68" height="90"/>
							<rect x="1302" y="989" class="st33" width="35" height="90"/>
							<rect x="1271" y="980" class="st4" width="64" height="9"/>
						</g>
					</g>
				</g>
				<g>
					<g>
						<path class="st30" d="M552.6,864.7c0.4,6.2,5.7,10.9,11.9,10.5l0,0c6.2-0.4,10.9-5.7,10.5-11.9l-11.5-100.7
							c-0.4-6.2-5.7-10.9-11.8-10.5l0,0c-6.2,0.4-10.9,5.7-10.5,11.9L552.6,864.7z"/>
					</g>
					<path class="st30" d="M653.5,785.5c0-11.7-7.4-21.2-16.5-21.2l-63.9,0c-9.1,0-16.6,9.5-16.6,21.1l-0.1,77.7
						c0,11.7,7.4,21.2,16.5,21.2l63.9,0c9.1,0,16.5-9.5,16.6-21.1L653.5,785.5z"/>
					<rect x="579.5" y="876.6" class="st30" width="53.4" height="40.9"/>
					<g>
						
							<linearGradient id="SVGID_2_" gradientUnits="userSpaceOnUse" x1="248.8384" y1="381.0163" x2="195.7293" y2="381.0163" gradientTransform="matrix(1 7.000000e-004 -7.000000e-004 1 383.782 402.2389)">
							<stop  offset="0.5" style="stop-color:#595A5B"/>
							<stop  offset="0.5" style="stop-color:#474748"/>
						</linearGradient>
						<path class="st34" d="M656,868.9c0,2.8-2.3,5.1-5.2,5.1l-89.3-0.1c-2.8,0-5.1-2.3-5.1-5.2l0.1-171c0-2.8,2.3-5.1,5.1-5.1
							l89.3,0.1c2.8,0,5.1,2.3,5.1,5.1L656,868.9z"/>
						<rect x="564.2" y="705.5" class="st35" width="81.7" height="148.1"/>
						<polygon class="st36" points="645.8,853.6 564.2,705.5 645.9,705.6 						"/>
						<g>
							<rect x="565.2" y="706.5" class="st37" width="78.5" height="14.4"/>
							<path class="st38" d="M573,713.7c0,1.2-1,2.2-2.2,2.2c-1.2,0-2.2-1-2.2-2.2c0-1.2,1-2.2,2.2-2.2
								C572,711.5,573,712.5,573,713.7z"/>
							<path class="st39" d="M579.1,713.7c0,1.2-1,2.2-2.2,2.2c-1.2,0-2.3-1-2.3-2.2c0-1.2,1-2.2,2.3-2.2
								C578.1,711.5,579.1,712.5,579.1,713.7z"/>
							<path class="st40" d="M585.2,713.7c0,1.2-1,2.2-2.3,2.2c-1.2,0-2.2-1-2.2-2.2c0-1.2,1-2.2,2.2-2.2
								C584.2,711.5,585.2,712.5,585.2,713.7z"/>
							<rect x="589.7" y="711.5" class="st4" width="41.7" height="4.5"/>
						</g>
					</g>
					<g>
						<g>
							<path class="st30" d="M633.3,834.3c-5.1,0.9-8.4,6.2-7.4,11.7l0,0c1,5.5,6,9.3,11,8.4l36.9-6.3c5.1-0.9,8.4-6.2,7.4-11.7l0,0
								c-1-5.6-5.9-9.3-11-8.4L633.3,834.3z"/>
							<path class="st31" d="M634.9,836.6c-3.2,0.6-5.2,4.2-4.5,8.2l0.2,0.8c0.7,3.9,3.9,6.7,7.1,6.1l2.3-0.4
								c3.2-0.6,5.2-4.2,4.5-8.2l-0.2-0.8c-0.7-3.9-3.9-6.7-7.1-6.1L634.9,836.6z"/>
						</g>
						<g>
							<path class="st30" d="M629.7,812.6c-5.1,0.9-8.4,6.2-7.4,11.7l0,0c1,5.6,6,9.3,11,8.4l36.8-6.3c5.1-0.9,8.4-6.2,7.4-11.7l0,0
								c-1-5.5-6-9.3-11.1-8.4L629.7,812.6z"/>
							<path class="st31" d="M631.3,814.9c-3.2,0.6-5.2,4.2-4.5,8.2l0.2,0.8c0.7,3.9,3.9,6.6,7.1,6.1l2.3-0.4
								c3.2-0.6,5.2-4.2,4.5-8.2l-0.2-0.8c-0.7-3.9-3.9-6.6-7.1-6.1L631.3,814.9z"/>
						</g>
						<g>
							<path class="st30" d="M626.2,791.7c-5.1,0.9-8.4,6.2-7.4,11.7l0,0c1,5.6,6,9.3,11.1,8.4l36.8-6.3c5.1-0.9,8.4-6.2,7.4-11.7
								l0,0c-1-5.5-6-9.3-11-8.4L626.2,791.7z"/>
							<path class="st31" d="M627.8,794c-3.2,0.6-5.2,4.2-4.5,8.2l0.2,0.8c0.7,3.9,3.9,6.7,7.1,6.1l2.3-0.4c3.2-0.6,5.2-4.2,4.5-8.2
								l-0.2-0.8c-0.7-3.9-3.9-6.6-7.1-6.1L627.8,794z"/>
						</g>
						<g>
							<path class="st30" d="M623,769.9c-5.1,0.9-8.4,6.2-7.4,11.7l0,0c1,5.6,6,9.3,11,8.4l36.8-6.3c5.1-0.9,8.4-6.2,7.4-11.7l0,0
								c-1-5.6-6-9.3-11-8.4L623,769.9z"/>
							<path class="st31" d="M624.6,772.2c-3.2,0.6-5.2,4.2-4.5,8.2l0.2,0.8c0.7,3.9,3.9,6.7,7.1,6.1l2.3-0.4
								c3.2-0.6,5.2-4.2,4.5-8.2l-0.2-0.8c-0.7-3.9-3.9-6.7-7-6.1L624.6,772.2z"/>
						</g>
					</g>
					<g>
						<polygon class="st28" points="649.8,1079.9 563.7,1080 563.7,925.9 649.9,926 						"/>
						<polygon class="st33" points="649.8,1079.9 610.8,1080 611.4,926 650,926 						"/>
						<polygon class="st4" points="642.6,912.4 567.9,912.3 567.9,925.9 642.6,926 						"/>
					</g>
					<g>
						<path class="st41" d="M554,725.9l0,15.9c0,2.6,2.1,4.5,4.7,4.5l16.3,0c2.6,0,4.6-1.9,4.6-4.5l0-15.9L554,725.9z"/>
						<path class="st42" d="M579.5,725.9l0,15.9c0,2.6,2.1,4.5,4.7,4.5l16.3,0c2.6,0,4.6-1.9,4.6-4.5l0-15.9L579.5,725.9z"/>
						<path class="st41" d="M605,726l0,15.9c0,2.6,2.1,4.5,4.7,4.5l16.3,0c2.6,0,4.6-1.9,4.6-4.5l0-15.9L605,726z"/>
						<path class="st42" d="M630.6,726l0,15.9c0,2.6,2.2,4.5,4.7,4.5l16.3,0c2.6,0,4.5-1.9,4.5-4.5l0-15.9L630.6,726z"/>
						<g>
							<polygon class="st4" points="605.1,705.5 605,726 630.6,726 627.2,705.6 							"/>
							<polygon class="st4" points="563.7,705.5 554.7,725.9 579.5,725.9 581.4,705.5 							"/>
							<polygon class="st43" points="581.4,705.5 579.5,725.9 605,726 605.1,705.5 							"/>
							<polygon class="st43" points="646.1,705.6 627.2,705.6 630.6,726 656.1,726 							"/>
						</g>
					</g>
					<path class="st44" d="M590.2,808.4c1.7,1.9,3.5,3.4,5.3,4.3c1.8,0.9,3.5,1.4,5.4,1.3c1.5,0,2.7-0.5,3.6-1.4
						c1-0.9,1.4-2,1.4-3.2c0-1.4-0.5-2.5-1.3-3.2c-0.8-0.7-2.7-1.5-5.6-2.2c-4.5-1.1-7.6-2.6-9.4-4.3c-1.8-1.8-2.8-4.2-2.8-7.4
						c-0.1-3.9,1.1-7.1,3.5-9.5c2.4-2.5,5.8-4,10.2-4.5l-0.1-4.1l3.8-0.1l0.1,4c1.7,0.1,3.4,0.5,5.1,1.1c1.7,0.6,3.3,1.4,5,2.4
						l-3.6,8.5c-1.3-1.1-2.7-1.9-4.1-2.4c-1.4-0.5-2.8-0.8-4.2-0.8c-1.4,0-2.6,0.4-3.4,1.1c-0.9,0.7-1.3,1.5-1.2,2.6
						c0,1.1,0.4,1.9,1.2,2.6c0.8,0.6,2.3,1.2,4.6,1.8l0.4,0.1c4.9,1.2,8.1,2.6,9.6,4.1c1,1,1.9,2.3,2.4,3.8c0.6,1.5,0.9,3.1,0.9,4.9
						c0.1,4.1-1.1,7.5-3.5,10.3c-2.4,2.8-5.7,4.4-9.8,4.9l0.2,7.2l-3.8,0.1l-0.2-7c-2.8,0-5.4-0.4-7.7-1.4c-2.4-1-4.7-2.5-6.9-4.5
						L590.2,808.4z"/>
				</g>
				<g>
					<g>
						<linearGradient id="SVGID_3_" gradientUnits="userSpaceOnUse" x1="712.786" y1="812.2994" x2="1170.1642" y2="812.2994">
							<stop  offset="0.5" style="stop-color:#595A5B"/>
							<stop  offset="0.5" style="stop-color:#474748"/>
						</linearGradient>
						<path class="st45" d="M724.4,659.8l435.6,2.2c5.6,0,10.1,4.6,10.1,10.2l-1.4,282.6c0,5.6-4.6,10.1-10.2,10.1l-435.6-2.2
							c-5.6,0-10.1-4.6-10.1-10.2l1.4-282.6C714.2,664.3,718.8,659.7,724.4,659.8z"/>
						
							<linearGradient id="SVGID_4_" gradientUnits="userSpaceOnUse" x1="1046.7346" y1="1006.6617" x2="1046.7346" y2="990.2963" gradientTransform="matrix(1 5.000000e-003 -5.000000e-003 1 -285.0109 -326.4197)">
							<stop  offset="0.5" style="stop-color:#595A5B"/>
							<stop  offset="0.5" style="stop-color:#474748"/>
						</linearGradient>
						<path class="st46" d="M744.2,659.9l25.3,0.1l-0.1,14.4c0,1.3-1.1,2.4-2.4,2.4l-20.5-0.1c-1.3,0-2.4-1.1-2.4-2.4L744.2,659.9z"
							/>
						
							<linearGradient id="SVGID_5_" gradientUnits="userSpaceOnUse" x1="1417.5564" y1="1003.8577" x2="1417.5564" y2="984.2273" gradientTransform="matrix(1 5.000000e-003 -5.000000e-003 1 -285.0109 -326.4197)">
							<stop  offset="0.5" style="stop-color:#595A5B"/>
							<stop  offset="0.5" style="stop-color:#474748"/>
						</linearGradient>
						<path class="st47" d="M1115,661.7l25.3,0.1l-0.1,14.4c0,1.3-1.1,2.4-2.4,2.4l-20.5-0.1c-1.3,0-2.4-1.1-2.4-2.4L1115,661.7z"/>
						
							<linearGradient id="SVGID_6_" gradientUnits="userSpaceOnUse" x1="1226.5613" y1="884.54" x2="1261.1455" y2="988.2953" gradientTransform="matrix(1 5.000000e-003 -5.000000e-003 1 -285.0109 -326.4197)">
							<stop  offset="0.5" style="stop-color:#595A5B"/>
							<stop  offset="0.5" style="stop-color:#474748"/>
						</linearGradient>
						<path class="st48" d="M682.7,572.4l519,2.6c12.5,0.1,16.3,5.9,11.1,13.9l-43.8,67.9l-454.8-2.3l-38.4-61.3
							C667.3,579.4,669,572.3,682.7,572.4z"/>
						<polygon class="st49" points="1186.2,595.7 1154.4,647.6 729.4,645.5 697.8,593.2 						"/>
						
							<linearGradient id="SVGID_7_" gradientUnits="userSpaceOnUse" x1="1035.5985" y1="980.8103" x2="1057.8706" y2="980.8103" gradientTransform="matrix(1 5.000000e-003 -5.000000e-003 1 -285.0109 -326.4197)">
							<stop  offset="0.5" style="stop-color:#595A5B"/>
							<stop  offset="0.5" style="stop-color:#474748"/>
						</linearGradient>
						<path class="st50" d="M747.8,646.8l18.1,0.1c1.1,0,2.1,1,2.1,2.1l-0.1,21.4c0,1.2-0.9,2.1-2.1,2.1l-18.1-0.1
							c-1.2,0-2.1-1-2.1-2.1l0.1-21.4C745.7,647.7,746.7,646.8,747.8,646.8z"/>
						
							<linearGradient id="SVGID_8_" gradientUnits="userSpaceOnUse" x1="1406.4265" y1="980.8113" x2="1428.6938" y2="980.8113" gradientTransform="matrix(1 5.000000e-003 -5.000000e-003 1 -285.0109 -326.4197)">
							<stop  offset="0.5" style="stop-color:#595A5B"/>
							<stop  offset="0.5" style="stop-color:#474748"/>
						</linearGradient>
						<path class="st51" d="M1118.7,648.7l18.1,0.1c1.2,0,2.1,1,2.1,2.1l-0.1,21.4c0,1.1-1,2.1-2.1,2.1l-18.1-0.1
							c-1.1,0-2.1-1-2.1-2.1l0.1-21.4C1116.6,649.6,1117.5,648.7,1118.7,648.7z"/>
						<path class="st52" d="M1125.6,702.1l14.1,0.1c1.6,0,2.9,1.3,2.9,2.9l-0.1,10.5c0,1.6-1.3,2.9-2.9,2.9l-14.1-0.1
							c-1.6,0-2.9-1.3-2.9-2.9l0.1-10.5C1122.7,703.4,1124,702.1,1125.6,702.1z"/>
						<path class="st52" d="M1126.2,722.1l12.8,0.1c2,0,3.5,1.6,3.5,3.6l-0.1,14.2c0,2-1.6,3.5-3.6,3.5l-12.8-0.1
							c-2,0-3.5-1.6-3.5-3.6l0.1-14.2C1122.6,723.7,1124.2,722.1,1126.2,722.1z"/>
						<path class="st52" d="M1126.1,747l12.8,0.1c2,0,3.5,1.6,3.5,3.6l-0.1,14.2c0,2-1.6,3.5-3.6,3.5l-12.8-0.1
							c-2,0-3.5-1.6-3.5-3.6l0.1-14.2C1122.5,748.6,1124.1,747,1126.1,747z"/>
						<path class="st52" d="M1125.9,772l12.8,0.1c2,0,3.5,1.6,3.5,3.6l-0.1,14.2c0,1.9-1.6,3.5-3.6,3.5l-12.8-0.1
							c-2,0-3.5-1.6-3.5-3.6l0.1-14.2C1122.4,773.6,1124,772,1125.9,772z"/>
						<path class="st52" d="M1125.8,796.9l12.8,0.1c2,0,3.5,1.6,3.5,3.6l-0.1,14.2c0,2-1.6,3.5-3.6,3.5l-12.8-0.1
							c-2,0-3.6-1.6-3.5-3.6l0.1-14.2C1122.2,798.5,1123.9,796.9,1125.8,796.9z"/>
						<path class="st52" d="M1125.7,821.9l12.8,0.1c2,0,3.5,1.6,3.5,3.6l-0.1,14.2c0,2-1.6,3.5-3.6,3.5l-12.8-0.1
							c-2,0-3.5-1.6-3.5-3.6l0.1-14.2C1122.1,823.5,1123.7,821.9,1125.7,821.9z"/>
						<path class="st52" d="M1100.8,702l14.1,0.1c1.6,0,2.9,1.3,2.9,2.9l0,10.5c0,1.6-1.3,2.9-2.9,2.9l-14.1-0.1
							c-1.6,0-2.9-1.3-2.9-2.9l0-10.5C1097.9,703.3,1099.2,702,1100.8,702z"/>
						<path class="st52" d="M1078.6,721.9l35.2,0.2c2.1,0,3.8,1.7,3.8,3.8l-0.1,13.7c0,2.1-1.7,3.8-3.8,3.8l-35.2-0.2
							c-2.1,0-3.8-1.7-3.8-3.8l0.1-13.7C1074.8,723.5,1076.5,721.8,1078.6,721.9z"/>
						<path class="st52" d="M1094.7,746.9l19.1,0.1c2.1,0,3.8,1.7,3.8,3.8l-0.1,13.7c0,2.1-1.7,3.8-3.8,3.8l-19.1-0.1
							c-2.1,0-3.8-1.7-3.8-3.8l0.1-13.7C1090.9,748.6,1092.6,746.9,1094.7,746.9z"/>
						<path class="st52" d="M1075.6,771.7l38,0.2c2.1,0,3.8,1.7,3.8,3.8l-0.1,13.7c0,2.1-1.7,3.8-3.8,3.8l-38-0.2
							c-2.1,0-3.8-1.7-3.8-3.8l0.1-13.7C1071.8,773.4,1073.5,771.7,1075.6,771.7z"/>
						<path class="st52" d="M1101,796.8l12.8,0.1c2,0,3.5,1.6,3.5,3.6l-0.1,14.2c0,2-1.6,3.5-3.6,3.5l-12.8-0.1
							c-2,0-3.5-1.6-3.5-3.6l0.1-14.2C1097.4,798.4,1099,796.8,1101,796.8z"/>
						<path class="st52" d="M1100.8,821.8l12.8,0.1c2,0,3.5,1.6,3.5,3.6l-0.1,14.2c0,2-1.6,3.5-3.6,3.5l-12.8-0.1
							c-2,0-3.5-1.6-3.5-3.6l0.1-14.2C1097.3,823.3,1098.9,821.7,1100.8,821.8z"/>
						<path class="st52" d="M1077.8,701.9l12.2,0.1c1.6,0,2.9,1.3,2.9,2.9l-0.1,10.5c0,1.6-1.3,2.9-2.9,2.9l-12.2-0.1
							c-1.6,0-2.9-1.3-2.9-2.9l0-10.5C1074.9,703.2,1076.2,701.9,1077.8,701.9z"/>
						<path class="st52" d="M1054.5,701.8l12.2,0.1c1.6,0,2.9,1.3,2.9,2.9l-0.1,10.5c0,1.6-1.3,2.9-2.9,2.9l-12.2-0.1
							c-1.6,0-2.9-1.3-2.9-2.9l0.1-10.5C1051.6,703.1,1052.9,701.8,1054.5,701.8z"/>
						<path class="st52" d="M1031.2,701.7l12.2,0.1c1.6,0,2.9,1.3,2.9,2.9l-0.1,10.5c0,1.6-1.3,2.9-2.9,2.9l-12.2-0.1
							c-1.6,0-2.9-1.3-2.9-2.9l0.1-10.5C1028.3,703,1029.6,701.7,1031.2,701.7z"/>
						<path class="st52" d="M1007.8,701.6l12.2,0.1c1.6,0,2.9,1.3,2.9,2.9l-0.1,10.5c0,1.6-1.3,2.9-2.9,2.9l-12.2-0.1
							c-1.6,0-2.9-1.3-2.9-2.9l0.1-10.5C1004.9,702.8,1006.2,701.6,1007.8,701.6z"/>
						<path class="st52" d="M984.5,701.4l12.2,0.1c1.6,0,2.9,1.3,2.9,2.9l-0.1,10.5c0,1.6-1.3,2.9-2.9,2.9l-12.2-0.1
							c-1.6,0-2.9-1.3-2.9-2.9l0.1-10.5C981.6,702.7,982.9,701.4,984.5,701.4z"/>
						<path class="st52" d="M961.2,701.3l12.2,0.1c1.6,0,2.9,1.3,2.9,2.9l-0.1,10.5c0,1.6-1.3,2.9-2.9,2.9l-12.2-0.1
							c-1.6,0-2.9-1.3-2.9-2.9l0.1-10.5C958.3,702.6,959.6,701.3,961.2,701.3z"/>
						<path class="st52" d="M937.8,701.2l12.2,0.1c1.6,0,2.9,1.3,2.9,2.9l-0.1,10.5c0,1.6-1.3,2.9-2.9,2.9l-12.2-0.1
							c-1.6,0-2.9-1.3-2.9-2.9l0.1-10.5C934.9,702.5,936.2,701.2,937.8,701.2z"/>
						<path class="st52" d="M914.5,701.1l12.2,0.1c1.6,0,2.9,1.3,2.9,2.9l-0.1,10.5c0,1.6-1.3,2.9-2.9,2.9l-12.2-0.1
							c-1.6,0-2.9-1.3-2.9-2.9l0.1-10.5C911.6,702.4,912.9,701.1,914.5,701.1z"/>
						<path class="st52" d="M891.2,701l12.2,0.1c1.6,0,2.9,1.3,2.9,2.9l-0.1,10.5c0,1.6-1.3,2.9-2.9,2.9l-12.2-0.1
							c-1.6,0-2.9-1.3-2.9-2.9l0.1-10.5C888.3,702.3,889.6,701,891.2,701z"/>
						<path class="st52" d="M867.8,700.9l12.2,0.1c1.6,0,2.9,1.3,2.9,2.9l-0.1,10.5c0,1.6-1.3,2.9-2.9,2.9l-12.2-0.1
							c-1.6,0-2.9-1.3-2.9-2.9l0.1-10.5C864.9,702.2,866.2,700.8,867.8,700.9z"/>
						<path class="st52" d="M844.5,700.7l12.2,0.1c1.6,0,2.9,1.3,2.9,2.9l-0.1,10.5c0,1.6-1.3,2.9-2.9,2.9l-12.2-0.1
							c-1.6,0-2.9-1.3-2.9-2.9l0.1-10.5C841.6,702,842.9,700.7,844.5,700.7z"/>
						<path class="st52" d="M821.2,700.6l12.2,0.1c1.6,0,2.9,1.3,2.9,2.9l-0.1,10.5c0,1.6-1.3,2.9-2.9,2.9l-12.2-0.1
							c-1.6,0-2.9-1.3-2.9-2.9l0.1-10.5C818.3,701.9,819.6,700.6,821.2,700.6z"/>
						<path class="st52" d="M797.9,700.5l12.2,0.1c1.6,0,2.9,1.3,2.9,2.9l-0.1,10.5c0,1.6-1.3,2.9-2.9,2.9l-12.2-0.1
							c-1.6,0-2.9-1.3-2.9-2.9l0.1-10.5C794.9,701.8,796.3,700.5,797.9,700.5z"/>
						<path class="st52" d="M774.5,700.4l12.2,0.1c1.6,0,2.9,1.3,2.9,2.9l-0.1,10.5c0,1.6-1.3,2.9-2.9,2.9l-12.2-0.1
							c-1.6,0-2.9-1.3-2.9-2.9l0.1-10.5C771.6,701.7,772.9,700.4,774.5,700.4z"/>
						<path class="st52" d="M748.3,700.3l14.1,0.1c1.6,0,2.9,1.3,2.9,2.9l-0.1,10.5c0,1.6-1.3,2.9-2.9,2.9l-14.1-0.1
							c-1.6,0-2.9-1.3-2.9-2.9l0.1-10.5C745.4,701.6,746.7,700.3,748.3,700.3z"/>
						<path class="st52" d="M1053.4,721.7l12.5,0.1c1.9,0,3.5,1.6,3.5,3.5l-0.1,14.3c0,1.9-1.6,3.5-3.5,3.5l-12.5-0.1
							c-1.9,0-3.5-1.6-3.5-3.5l0.1-14.3C1050,723.3,1051.5,721.7,1053.4,721.7z"/>
						<path class="st52" d="M1028.1,721.6l12.5,0.1c1.9,0,3.5,1.6,3.5,3.5l-0.1,14.3c0,1.9-1.6,3.5-3.5,3.5l-12.5-0.1
							c-1.9,0-3.5-1.6-3.5-3.5l0.1-14.3C1024.6,723.2,1026.2,721.6,1028.1,721.6z"/>
						<path class="st52" d="M1002.8,721.5l12.5,0.1c1.9,0,3.5,1.6,3.5,3.5l-0.1,14.3c0,1.9-1.6,3.5-3.5,3.5l-12.5-0.1
							c-1.9,0-3.5-1.6-3.5-3.5l0.1-14.3C999.3,723,1000.9,721.5,1002.8,721.5z"/>
						<path class="st52" d="M977.5,721.4l12.5,0.1c1.9,0,3.5,1.6,3.5,3.5l-0.1,14.3c0,1.9-1.6,3.5-3.5,3.5l-12.5-0.1
							c-1.9,0-3.5-1.6-3.5-3.5l0.1-14.3C974,722.9,975.6,721.3,977.5,721.4z"/>
						<path class="st52" d="M952.2,721.2l12.5,0.1c1.9,0,3.5,1.6,3.5,3.5l-0.1,14.3c0,1.9-1.6,3.5-3.5,3.5l-12.5-0.1
							c-1.9,0-3.5-1.6-3.5-3.5l0.1-14.3C948.7,722.8,950.3,721.2,952.2,721.2z"/>
						<path class="st52" d="M926.9,721.1l12.5,0.1c1.9,0,3.5,1.6,3.5,3.5l-0.1,14.3c0,1.9-1.6,3.5-3.5,3.5l-12.5-0.1
							c-1.9,0-3.5-1.6-3.5-3.5l0.1-14.3C923.4,722.7,925,721.1,926.9,721.1z"/>
						<path class="st52" d="M901.6,721l12.5,0.1c1.9,0,3.5,1.6,3.5,3.5l-0.1,14.3c0,1.9-1.6,3.5-3.5,3.5l-12.5-0.1
							c-1.9,0-3.5-1.6-3.5-3.5l0.1-14.3C898.1,722.5,899.7,721,901.6,721z"/>
						<path class="st52" d="M876.3,720.8l12.5,0.1c1.9,0,3.5,1.6,3.5,3.5l-0.1,14.3c0,1.9-1.6,3.5-3.5,3.5l-12.5-0.1
							c-1.9,0-3.5-1.6-3.5-3.5l0.1-14.3C872.8,722.4,874.3,720.8,876.3,720.8z"/>
						<path class="st52" d="M850.9,720.7l12.5,0.1c1.9,0,3.5,1.6,3.5,3.5l-0.1,14.3c0,1.9-1.6,3.5-3.5,3.5l-12.5-0.1
							c-1.9,0-3.5-1.6-3.5-3.5l0.1-14.3C847.5,722.3,849,720.7,850.9,720.7z"/>
						<path class="st52" d="M825.6,720.6l12.5,0.1c1.9,0,3.5,1.6,3.5,3.5l-0.1,14.3c0,1.9-1.6,3.5-3.5,3.5l-12.5-0.1
							c-1.9,0-3.5-1.6-3.5-3.5l0.1-14.3C822.1,722.1,823.7,720.6,825.6,720.6z"/>
						<path class="st52" d="M800.3,720.5l12.5,0.1c1.9,0,3.5,1.6,3.5,3.5l-0.1,14.3c0,1.9-1.6,3.5-3.5,3.5l-12.5-0.1
							c-1.9,0-3.5-1.6-3.5-3.5l0.1-14.3C796.8,722,798.4,720.5,800.3,720.5z"/>
						<path class="st52" d="M775,720.3l12.5,0.1c1.9,0,3.5,1.6,3.5,3.5l-0.1,14.3c0,1.9-1.6,3.5-3.5,3.5l-12.5-0.1
							c-1.9,0-3.5-1.6-3.5-3.5l0.1-14.3C771.5,721.9,773.1,720.3,775,720.3z"/>
						<path class="st52" d="M748.9,720.2l12.8,0.1c2,0,3.5,1.6,3.5,3.6l-0.1,14.2c0,1.9-1.6,3.5-3.6,3.5l-12.8-0.1
							c-1.9,0-3.5-1.6-3.5-3.6l0.1-14.2C745.3,721.8,746.9,720.2,748.9,720.2z"/>
						<path class="st52" d="M749,745.2l26.3,0.1c2.1,0,3.8,1.7,3.8,3.8l-0.1,13.7c0,2.1-1.7,3.8-3.8,3.8l-26.3-0.1
							c-2.1,0-3.8-1.7-3.8-3.8l0.1-13.7C745.2,746.8,746.9,745.1,749,745.2z"/>
						<path class="st52" d="M748.9,770.1l31.3,0.2c2.1,0,3.8,1.7,3.8,3.8l-0.1,13.7c0,2.1-1.7,3.8-3.8,3.8l-31.3-0.2
							c-2.1,0-3.8-1.7-3.8-3.8l0.1-13.7C745,771.8,746.8,770.1,748.9,770.1z"/>
						<path class="st52" d="M748.7,795l44.8,0.2c2.1,0,3.8,1.7,3.8,3.8l-0.1,13.7c0,2.1-1.7,3.8-3.8,3.8l-44.8-0.2
							c-2.1,0-3.8-1.7-3.8-3.8l0.1-13.7C744.9,796.7,746.6,795,748.7,795z"/>
						<path class="st52" d="M748.6,820l18.6,0.1c2.1,0,3.8,1.7,3.8,3.8l-0.1,13.7c0,2.1-1.7,3.8-3.8,3.8l-18.6-0.1
							c-2.1,0-3.8-1.7-3.8-3.8l0.1-13.7C744.8,821.7,746.5,820,748.6,820z"/>
						<path class="st52" d="M786,745.3l13.4,0.1c2.1,0,3.7,1.7,3.7,3.7L803,763c0,2.1-1.7,3.7-3.8,3.7l-13.4-0.1
							c-2,0-3.7-1.7-3.7-3.8l0.1-13.8C782.2,747,783.9,745.3,786,745.3z"/>
						<path class="st52" d="M811.8,745.5l13.4,0.1c2.1,0,3.7,1.7,3.7,3.7l-0.1,13.8c0,2.1-1.7,3.7-3.7,3.7l-13.4-0.1
							c-2.1,0-3.7-1.7-3.7-3.8l0.1-13.8C808,747.1,809.7,745.5,811.8,745.5z"/>
						<path class="st52" d="M837.5,745.6l13.4,0.1c2.1,0,3.7,1.7,3.7,3.7l-0.1,13.8c0,2.1-1.7,3.7-3.8,3.7l-13.4-0.1
							c-2,0-3.7-1.7-3.7-3.8l0.1-13.8C833.8,747.3,835.5,745.6,837.5,745.6z"/>
						<path class="st52" d="M863.3,745.7l13.4,0.1c2.1,0,3.7,1.7,3.7,3.7l-0.1,13.8c0,2.1-1.7,3.7-3.8,3.7l-13.4-0.1
							c-2.1,0-3.7-1.7-3.7-3.8l0.1-13.8C859.6,747.4,861.3,745.7,863.3,745.7z"/>
						<path class="st52" d="M889.1,745.9l13.4,0.1c2,0,3.7,1.7,3.7,3.7l-0.1,13.8c0,2.1-1.7,3.7-3.8,3.7l-13.4-0.1
							c-2.1,0-3.7-1.7-3.7-3.8l0.1-13.8C885.4,747.5,887.1,745.8,889.1,745.9z"/>
						<path class="st52" d="M914.9,746l13.4,0.1c2.1,0,3.7,1.7,3.7,3.7l-0.1,13.8c0,2.1-1.7,3.7-3.8,3.7l-13.4-0.1
							c-2.1,0-3.7-1.7-3.7-3.8l0.1-13.8C911.2,747.6,912.9,746,914.9,746z"/>
						<path class="st52" d="M940.7,746.1l13.4,0.1c2.1,0,3.7,1.7,3.7,3.8l-0.1,13.8c0,2.1-1.7,3.7-3.8,3.7l-13.4-0.1
							c-2,0-3.7-1.7-3.7-3.8l0.1-13.8C937,747.8,938.7,746.1,940.7,746.1z"/>
						<path class="st52" d="M966.5,746.2l13.4,0.1c2.1,0,3.7,1.7,3.7,3.7l-0.1,13.8c0,2.1-1.7,3.7-3.8,3.7l-13.4-0.1
							c-2.1,0-3.7-1.7-3.7-3.8l0.1-13.8C962.8,747.9,964.4,746.2,966.5,746.2z"/>
						<path class="st52" d="M992.3,746.4l13.4,0.1c2,0,3.7,1.7,3.7,3.7l-0.1,13.8c0,2.1-1.7,3.7-3.8,3.7l-13.4-0.1
							c-2.1,0-3.7-1.7-3.7-3.8l0.1-13.8C988.5,748,990.2,746.4,992.3,746.4z"/>
						<path class="st52" d="M1018.1,746.5l13.4,0.1c2.1,0,3.7,1.7,3.7,3.7l-0.1,13.8c0,2.1-1.7,3.7-3.8,3.7l-13.4-0.1
							c-2,0-3.7-1.7-3.7-3.8l0.1-13.8C1014.3,748.2,1016,746.5,1018.1,746.5z"/>
						<path class="st52" d="M1043.9,746.6l13.4,0.1c2.1,0,3.7,1.7,3.7,3.7l-0.1,13.8c0,2.1-1.7,3.7-3.8,3.7l-13.4-0.1
							c-2.1,0-3.7-1.7-3.7-3.8l0.1-13.8C1040.1,748.3,1041.8,746.6,1043.9,746.6z"/>
						<path class="st52" d="M1069.6,746.8l13.4,0.1c2.1,0,3.7,1.7,3.7,3.7l-0.1,13.8c0,2.1-1.7,3.7-3.8,3.7l-13.4-0.1
							c-2.1,0-3.7-1.7-3.7-3.8l0.1-13.8C1065.9,748.4,1067.6,746.8,1069.6,746.8z"/>
						<path class="st52" d="M793,770.3l13.4,0.1c2.1,0,3.7,1.7,3.7,3.8l-0.1,13.8c0,2-1.7,3.7-3.8,3.7l-13.4-0.1
							c-2.1,0-3.7-1.7-3.7-3.7l0.1-13.8C789.3,772,791,770.3,793,770.3z"/>
						<path class="st52" d="M818.8,770.4l13.4,0.1c2.1,0,3.7,1.7,3.7,3.8l-0.1,13.8c0,2.1-1.7,3.7-3.8,3.7l-13.4-0.1
							c-2,0-3.7-1.7-3.7-3.8l0.1-13.8C815.1,772.1,816.8,770.4,818.8,770.4z"/>
						<path class="st52" d="M844.6,770.6l13.4,0.1c2,0,3.7,1.7,3.7,3.8l-0.1,13.8c0,2.1-1.7,3.7-3.8,3.7l-13.4-0.1
							c-2.1,0-3.7-1.7-3.7-3.7l0.1-13.8C840.9,772.2,842.5,770.6,844.6,770.6z"/>
						<path class="st52" d="M870.4,770.7l13.4,0.1c2,0,3.7,1.7,3.7,3.8l-0.1,13.8c0,2.1-1.7,3.7-3.8,3.7l-13.4-0.1
							c-2.1,0-3.7-1.7-3.7-3.8l0.1-13.8C866.6,772.4,868.3,770.7,870.4,770.7z"/>
						<path class="st52" d="M896.2,770.8l13.4,0.1c2.1,0,3.7,1.7,3.7,3.8l-0.1,13.8c0,2.1-1.7,3.7-3.8,3.7l-13.4-0.1
							c-2.1,0-3.7-1.7-3.7-3.8l0.1-13.8C892.4,772.5,894.1,770.8,896.2,770.8z"/>
						<path class="st52" d="M922,771l13.4,0.1c2.1,0,3.7,1.7,3.7,3.8l-0.1,13.8c0,2.1-1.7,3.7-3.8,3.7l-13.4-0.1
							c-2.1,0-3.7-1.7-3.7-3.7l0.1-13.8C918.2,772.6,919.9,771,922,771z"/>
						<path class="st52" d="M947.8,771.1l13.4,0.1c2.1,0,3.7,1.7,3.7,3.8l-0.1,13.8c0,2-1.7,3.7-3.7,3.7l-13.4-0.1
							c-2.1,0-3.7-1.7-3.7-3.7l0.1-13.8C944,772.8,945.7,771.1,947.8,771.1z"/>
						<path class="st52" d="M973.5,771.2l13.4,0.1c2,0,3.7,1.7,3.7,3.8l-0.1,13.8c0,2-1.7,3.7-3.7,3.7l-13.4-0.1
							c-2,0-3.7-1.7-3.7-3.8l0.1-13.8C969.8,772.9,971.5,771.2,973.5,771.2z"/>
						<path class="st52" d="M999.3,771.4l13.4,0.1c2.1,0,3.7,1.7,3.7,3.8l-0.1,13.8c0,2-1.7,3.7-3.7,3.7l-13.4-0.1
							c-2.1,0-3.7-1.7-3.7-3.7l0.1-13.8C995.6,773,997.3,771.3,999.3,771.4z"/>
						<path class="st52" d="M1025.1,771.5l13.4,0.1c2,0,3.7,1.7,3.7,3.8l-0.1,13.8c0,2.1-1.7,3.7-3.8,3.7l-13.4-0.1
							c-2.1,0-3.7-1.7-3.7-3.8l0.1-13.8C1021.4,773.1,1023.1,771.5,1025.1,771.5z"/>
						<path class="st52" d="M1050.9,771.6l13.4,0.1c2.1,0,3.7,1.7,3.7,3.8l-0.1,13.8c0,2-1.7,3.7-3.7,3.7l-13.4-0.1
							c-2,0-3.7-1.7-3.7-3.8l0.1-13.8C1047.2,773.3,1048.9,771.6,1050.9,771.6z"/>
						<path class="st52" d="M806.4,795.3l13.4,0.1c2.1,0,3.7,1.7,3.7,3.7l-0.1,13.8c0,2.1-1.7,3.7-3.8,3.7l-13.4-0.1
							c-2.1,0-3.7-1.7-3.7-3.8l0.1-13.8C802.7,797,804.3,795.3,806.4,795.3z"/>
						<path class="st52" d="M832.2,795.5l13.4,0.1c2,0,3.7,1.7,3.7,3.7l-0.1,13.8c0,2.1-1.7,3.7-3.8,3.7l-13.4-0.1
							c-2.1,0-3.7-1.7-3.7-3.8l0.1-13.8C828.4,797.1,830.1,795.5,832.2,795.5z"/>
						<path class="st52" d="M858,795.6l13.4,0.1c2.1,0,3.7,1.7,3.7,3.7l-0.1,13.8c0,2.1-1.7,3.7-3.8,3.7l-13.4-0.1
							c-2.1,0-3.7-1.7-3.7-3.8l0.1-13.8C854.2,797.2,855.9,795.6,858,795.6z"/>
						<path class="st52" d="M883.8,795.7l13.4,0.1c2.1,0,3.7,1.7,3.7,3.7l-0.1,13.8c0,2.1-1.7,3.7-3.7,3.7l-13.4-0.1
							c-2.1,0-3.7-1.7-3.7-3.8l0.1-13.8C880,797.4,881.7,795.7,883.8,795.7z"/>
						<path class="st52" d="M909.6,795.9l13.4,0.1c2.1,0,3.7,1.7,3.7,3.7l-0.1,13.8c0,2.1-1.7,3.7-3.8,3.7l-13.4-0.1
							c-2.1,0-3.7-1.7-3.7-3.7l0.1-13.8C905.8,797.5,907.5,795.8,909.6,795.9z"/>
						<path class="st52" d="M935.3,796l13.4,0.1c2.1,0,3.7,1.7,3.7,3.8l-0.1,13.8c0,2.1-1.7,3.7-3.7,3.7l-13.4-0.1
							c-2.1,0-3.7-1.7-3.7-3.8l0.1-13.8C931.6,797.6,933.3,796,935.3,796z"/>
						<path class="st52" d="M961.1,796.1l13.4,0.1c2.1,0,3.7,1.7,3.7,3.7l-0.1,13.8c0,2.1-1.7,3.7-3.8,3.7l-13.4-0.1
							c-2.1,0-3.7-1.7-3.7-3.8l0.1-13.8C957.4,797.8,959.1,796.1,961.1,796.1z"/>
						<path class="st52" d="M986.9,796.2l13.4,0.1c2.1,0,3.7,1.7,3.7,3.7l-0.1,13.8c0,2.1-1.7,3.7-3.8,3.7l-13.4-0.1
							c-2.1,0-3.7-1.7-3.7-3.8l0.1-13.8C983.2,797.9,984.9,796.2,986.9,796.2z"/>
						<path class="st52" d="M1012.7,796.4l13.4,0.1c2.1,0,3.7,1.7,3.7,3.7l-0.1,13.8c0,2.1-1.7,3.7-3.8,3.7l-13.4-0.1
							c-2.1,0-3.7-1.7-3.7-3.8l0.1-13.8C1009,798,1010.7,796.4,1012.7,796.4z"/>
						<path class="st52" d="M1038.5,796.5l13.4,0.1c2,0,3.7,1.7,3.7,3.7l-0.1,13.8c0,2.1-1.7,3.7-3.7,3.7l-13.4-0.1
							c-2.1,0-3.7-1.7-3.7-3.8l0.1-13.8C1034.8,798.2,1036.4,796.5,1038.5,796.5z"/>
						<path class="st52" d="M1064.4,796.6l24.3,0.1c2.1,0,3.8,1.7,3.8,3.8l-0.1,13.7c0,2.1-1.7,3.8-3.8,3.8l-24.3-0.1
							c-2.1,0-3.8-1.7-3.8-3.8l0.1-13.7C1060.5,798.3,1062.3,796.6,1064.4,796.6z"/>
						<path class="st52" d="M780.1,820.1l13.4,0.1c2.1,0,3.7,1.7,3.7,3.8l-0.1,13.8c0,2.1-1.7,3.7-3.8,3.7l-13.4-0.1
							c-2.1,0-3.7-1.7-3.7-3.8l0.1-13.8C776.3,821.8,778,820.1,780.1,820.1z"/>
						<path class="st52" d="M805.8,820.3l13.4,0.1c2.1,0,3.7,1.7,3.7,3.8l-0.1,13.8c0,2.1-1.7,3.7-3.7,3.7l-13.4-0.1
							c-2,0-3.7-1.7-3.7-3.8l0.1-13.8C802.1,821.9,803.8,820.3,805.8,820.3z"/>
						<path class="st52" d="M831.6,820.4l13.4,0.1c2,0,3.7,1.7,3.7,3.7l-0.1,13.8c0,2.1-1.7,3.7-3.8,3.7l-13.4-0.1
							c-2.1,0-3.7-1.7-3.7-3.8l0.1-13.8C827.9,822.1,829.6,820.4,831.6,820.4z"/>
						<path class="st52" d="M857.4,820.5l13.4,0.1c2,0,3.7,1.7,3.7,3.8l-0.1,13.8c0,2.1-1.7,3.7-3.7,3.7l-13.4-0.1
							c-2,0-3.7-1.7-3.7-3.8l0.1-13.8C853.7,822.2,855.4,820.5,857.4,820.5z"/>
						<path class="st52" d="M883.2,820.7l13.4,0.1c2,0,3.7,1.7,3.7,3.7l-0.1,13.8c0,2.1-1.7,3.7-3.8,3.7l-13.4-0.1
							c-2.1,0-3.7-1.7-3.7-3.8l0.1-13.8C879.5,822.3,881.2,820.6,883.2,820.7z"/>
						<path class="st52" d="M909,820.8l13.4,0.1c2,0,3.7,1.7,3.7,3.8l-0.1,13.8c0,2.1-1.7,3.7-3.7,3.7l-13.4-0.1
							c-2.1,0-3.7-1.7-3.7-3.8l0.1-13.8C905.3,822.4,906.9,820.8,909,820.8z"/>
						<path class="st52" d="M934.8,820.9l13.4,0.1c2.1,0,3.7,1.7,3.7,3.8l-0.1,13.8c0,2.1-1.7,3.7-3.8,3.7l-13.4-0.1
							c-2.1,0-3.7-1.7-3.7-3.8l0.1-13.8C931.1,822.6,932.7,820.9,934.8,820.9z"/>
						<path class="st52" d="M960.6,821l13.4,0.1c2,0,3.7,1.7,3.7,3.8l-0.1,13.8c0,2.1-1.7,3.7-3.8,3.7l-13.4-0.1
							c-2.1,0-3.7-1.7-3.7-3.8l0.1-13.8C956.8,822.7,958.5,821,960.6,821z"/>
						<path class="st52" d="M986.4,821.2l13.4,0.1c2.1,0,3.7,1.7,3.7,3.8l-0.1,13.8c0,2.1-1.7,3.7-3.8,3.7l-13.4-0.1
							c-2.1,0-3.7-1.7-3.7-3.8l0.1-13.8C982.6,822.8,984.3,821.2,986.4,821.2z"/>
						<path class="st52" d="M1012.2,821.3l13.4,0.1c2.1,0,3.7,1.7,3.7,3.8l-0.1,13.8c0,2.1-1.7,3.7-3.8,3.7l-13.4-0.1
							c-2.1,0-3.7-1.7-3.7-3.8l0.1-13.8C1008.4,823,1010.1,821.3,1012.2,821.3z"/>
						<path class="st52" d="M1038,821.4l24.3,0.1c2.1,0,3.8,1.7,3.8,3.8L1066,839c0,2.1-1.7,3.8-3.8,3.8l-24.3-0.1
							c-2.1,0-3.8-1.7-3.8-3.8l0.1-13.7C1034.2,823.1,1035.9,821.4,1038,821.4z"/>
						<path class="st52" d="M1076,821.6l12.8,0.1c2,0,3.5,1.6,3.5,3.6l-0.1,14.2c0,2-1.6,3.5-3.6,3.5l-12.8-0.1
							c-2,0-3.5-1.6-3.5-3.6l0.1-14.2C1072.4,823.2,1074,821.6,1076,821.6z"/>
						<path class="st52" d="M874.2,859.8l134,0.7c2,0,3.7,1.7,3.7,3.7l-0.3,64.4c0,2-1.7,3.7-3.7,3.7l-134-0.7c-2,0-3.7-1.7-3.7-3.7
							l0.3-64.4C870.5,861.4,872.2,859.8,874.2,859.8z"/>
						<path class="st52" d="M870.9,936.4l66.7,0.3c0.4,0,0.8,0.4,0.8,0.8l-0.1,13.4c0,0.4-0.3,0.8-0.8,0.8l-66.7-0.3
							c-0.4,0-0.8-0.4-0.8-0.8l0.1-13.4C870.1,936.8,870.5,936.4,870.9,936.4z"/>
						<path class="st52" d="M944.1,936.8l66.7,0.3c0.4,0,0.8,0.4,0.8,0.8l-0.1,13.4c0,0.4-0.3,0.8-0.8,0.8l-66.6-0.3
							c-0.4,0-0.8-0.4-0.8-0.8l0.1-13.4C943.4,937.2,943.7,936.8,944.1,936.8z"/>
					</g>
					<g>
						<g>
							<path class="st30" d="M891.1,891.8c-1.3,4.7-6.2,7.5-10.9,6.2l0,0c-4.7-1.3-7.5-6.2-6.2-10.9l25.6-76.2
								c1.3-4.7,6.2-7.5,10.9-6.2l0,0c4.7,1.3,7.5,6.2,6.2,10.9L891.1,891.8z"/>
							<path class="st31" d="M912.3,820.5l1.1-3.8c1-3.5,0.2-8.1-3.3-9.1l-0.6-0.2c-3.5-1-6.5,2.6-7.5,6.1l-1.1,3.8L912.3,820.5z"/>
						</g>
						<path class="st30" d="M890.8,882.4c-0.1,9.3-6,16.7-13.2,16.7l-50.7-0.3c-7.2,0-13.1-7.6-13-16.8l0.3-61.6
							c0-9.3,6-16.7,13.2-16.7L878,804c7.2,0,13.1,7.6,13,16.8L890.8,882.4z"/>
						
							<rect x="835" y="879.7" transform="matrix(4.947678e-003 -1 1 4.947678e-003 -62.1044 1755.7031)" class="st30" width="32.4" height="58.7"/>
						<g>
							<path class="st30" d="M890.7,885c0,4.5-3.7,8.1-8.1,8.1l0,0c-4.5,0-8.1-3.7-8.1-8.1l0.7-133.6c0-4.5,3.7-8.1,8.1-8.1l0,0
								c4.5,0,8.1,3.7,8.1,8.1L890.7,885z"/>
							<path class="st31" d="M889.4,754.4c0,2.8-2.6,5-5.8,5l-0.7,0c-3.2,0-5.7-2.3-5.7-5.1l0-0.7c0-2.8,2.6-3.7,5.8-3.7h0.7
								c3.2,0,5.7,1,5.7,3.8L889.4,754.4z"/>
						</g>
						<g>
							<path class="st30" d="M870.5,884.9c0,4.5-3.7,8.1-8.1,8.1l0,0c-4.5,0-8.1-3.7-8.1-8.1l0.7-133.6c0-4.5,3.7-8.1,8.1-8.1l0,0
								c4.5,0,8.1,3.7,8.1,8.1L870.5,884.9z"/>
							<path class="st31" d="M869.1,755.7c0,2.8-2.6,6.3-5.8,6.3h-0.7c-3.2,0-5.7-3.6-5.7-6.4l0-2.7c0-2.8,2.6-5.4,5.8-5.4l0.7-0.2
								c3.2,0,5.7,2.9,5.7,5.7L869.1,755.7z"/>
						</g>
						<g>
							<path class="st30" d="M850.3,884.8c0,4.5-3.7,8.1-8.1,8.1l0,0c-4.5,0-8.1-3.7-8.1-8.1l0.7-133.6c0-4.5,3.7-8.1,8.1-8.1l0,0
								c4.5,0,8.1,3.7,8.1,8.1L850.3,884.8z"/>
							<path class="st31" d="M848.9,755.6c0,2.8-2.6,6.4-5.8,6.4h-0.7c-3.2,0-5.7-3.7-5.7-6.4l0-1.3c0-2.8,2.6-4.3,5.7-4.3h0.7
								c3.2,0,5.7,1.5,5.7,4.3L848.9,755.6z"/>
						</g>
						<g>
							<path class="st30" d="M830,884.7c0,4.5-3.7,8.1-8.1,8.1l0,0c-4.5,0-8.1-3.7-8.1-8.1l0.7-133.5c0-4.5,3.7-8.1,8.1-8.1l0,0
								c4.5,0,8.1,3.7,8.1,8.1L830,884.7z"/>
							<path class="st31" d="M828.7,755.6c0,2.8-2.6,6.4-5.8,6.4h-0.7c-3.2,0-5.7-3.7-5.7-6.5l0-1.2c0-2.8,2.6-4.2,5.8-4.2h0.7
								c3.2,0,5.7,1.5,5.7,4.3L828.7,755.6z"/>
						</g>
						<g>
							<polygon class="st53" points="892.5,1079.3 807.8,1079.3 807.5,933.3 892.5,933.8 							"/>
							<polygon class="st33" points="892.5,1080 854,1080 854.1,933.5 892.5,933.8 							"/>
							
								<rect x="843" y="889.8" transform="matrix(5.026283e-003 -1 1 5.026283e-003 -82.477 1771.625)" class="st4" width="12.1" height="74.9"/>
						</g>
					</g>
					<g>
						<g>
							<path class="st30" d="M974.9,892.2c1.3,4.7,6.1,7.6,10.9,6.3l0,0c4.7-1.3,7.5-6.1,6.3-10.9l-24.9-76.4
								c-1.3-4.7-6.1-7.5-10.9-6.3l0,0c-4.7,1.3-7.5,6.1-6.3,10.9L974.9,892.2z"/>
							<path class="st31" d="M954.5,820.7l-1-3.8c-0.9-3.5-0.1-8.1,3.4-9.1l0.6-0.2c3.5-0.9,6.5,2.7,7.5,6.2l1,3.8L954.5,820.7z"/>
						</g>
						<path class="st30" d="M1052.9,821.6c0-9.3-5.8-16.8-13-16.8l-50.7-0.3c-7.2,0-13.1,7.4-13.2,16.7l-0.3,61.6
							c0,9.3,5.8,16.8,13,16.8l50.7,0.3c7.2,0,13.2-7.4,13.2-16.7L1052.9,821.6z"/>
						
							<rect x="998.9" y="880.5" transform="matrix(4.974200e-003 -1 1 4.974200e-003 100.1439 1920.3969)" class="st30" width="32.4" height="58.7"/>
						<g>
							<path class="st30" d="M992.6,751.9c0-4.5-3.6-8.1-8.1-8.1l0,0c-4.5,0-8.1,3.6-8.1,8.1l-0.7,133.6c0,4.5,3.6,8.1,8,8.1l0,0
								c4.5,0,8.1-3.6,8.1-8.1L992.6,751.9z"/>
							<path class="st31" d="M990.5,754c0-2.8-2.5-4-5.7-4h-0.7c-3.2,0-5.7,1.2-5.8,3.9l0,2.5c0,2.8,2.5,5.6,5.7,5.6h0.7
								c3.2,0,5.7-2.7,5.8-5.5L990.5,754z"/>
						</g>
						<g>
							<path class="st30" d="M1012.8,752c0-4.5-3.6-8.1-8.1-8.1l0,0c-4.5,0-8.1,3.6-8.1,8.1L996,885.5c0,4.5,3.6,8.1,8.1,8.1l0,0
								c4.5,0,8.1-3.6,8.1-8.1L1012.8,752z"/>
							<path class="st31" d="M1010.8,752.6c0-2.8-2.5-2.6-5.7-5.6h-0.7c-3.2,0-5.7,2.7-5.8,5.5l0,3.2c0,2.8,2.5,6.3,5.7,6.3h0.7
								c3.2,0,5.7-3.4,5.8-6.2L1010.8,752.6z"/>
						</g>
						<g>
							<path class="st30" d="M1033,752.1c0-4.5-3.6-8.1-8.1-8.1l0,0c-4.5,0-8.1,3.6-8.1,8.1l-0.7,133.6c0,4.5,3.6,8.1,8.1,8.1l0,0
								c4.5,0,8.1-3.6,8.1-8.1L1033,752.1z"/>
							<path class="st31" d="M1031,754.1c0-2.8-2.5-4.1-5.7-4.1h-0.7c-3.2,0-5.7,1.3-5.8,4l0,2.4c0,2.8,2.5,5.5,5.7,5.5h0.7
								c3.2,0,5.7-2.7,5.8-5.4L1031,754.1z"/>
						</g>
						<g>
							<path class="st30" d="M1053.3,752.2c0-4.5-3.6-8.1-8.1-8.1l0,0c-4.5,0-8.1,3.6-8.1,8.1l-0.7,133.6c0,4.5,3.6,8.1,8.1,8.1l0,0
								c4.5,0,8.1-3.6,8.1-8.1L1053.3,752.2z"/>
							<path class="st31" d="M1051.3,754.2c0-2.8-2.5-4.2-5.7-4.2h-0.7c-3.2,0-5.7,1.3-5.8,4.1l0,2.4c0,2.8,2.5,5.5,5.7,5.5h0.7
								c3.2,0,5.7-2.6,5.8-5.4L1051.3,754.2z"/>
						</g>
						<g>
							<polygon class="st53" points="1057.7,1079.4 972.3,1079.4 973.5,934.4 1058.4,935 							"/>
							<polygon class="st33" points="1057.6,1079.4 1020.4,1079.4 1019.9,934.6 1058.3,934.9 							"/>
							
								<rect x="1008.9" y="890.7" transform="matrix(4.985118e-003 -1 1 4.985118e-003 81.8277 1938.4155)" class="st4" width="12.1" height="74.9"/>
						</g>
					</g>
				</g>
			</g>
			<g>
				
					<ellipse transform="matrix(0.9115 -0.4114 0.4114 0.9115 -135.0219 400.9818)" class="st11" cx="864.1" cy="514.2" rx="31.6" ry="31.6"/>
				<path class="st54" d="M876.3,541.2c-14.9,6.7-32.4,0.1-39.2-14.8c-6.7-14.9-0.1-32.5,14.8-39.2c14.9-6.7,32.4-0.1,39.2,14.8
					C897.8,516.9,891.2,534.5,876.3,541.2z"/>
				<path class="st11" d="M881.4,547.8l-1.9,0.9c-1.2,0.6-2.7,0-3.3-1.2l-6.4-14.1c-0.6-1.2,0-2.7,1.2-3.3l1.9-0.9
					c1.2-0.6,2.7,0,3.3,1.2l6.4,14.1C883.2,545.7,882.6,547.2,881.4,547.8z"/>
				<path class="st54" d="M880.5,546.8l-1.2,0.6c-0.8,0.4-1.7,0-2.1-0.8l-6-13.3c-0.4-0.8,0-1.7,0.8-2.1l1.2-0.6
					c0.8-0.4,1.7,0,2.1,0.8l6,13.3C881.7,545.5,881.3,546.5,880.5,546.8z"/>
				<path class="st11" d="M874.3,536.8c-12.5,5.6-27.2,0.1-32.9-12.4c-5.6-12.5-0.1-27.2,12.4-32.9c12.5-5.6,27.2-0.1,32.9,12.4
					C892.4,516.5,886.8,531.2,874.3,536.8z"/>
				
					<ellipse transform="matrix(0.9115 -0.4114 0.4114 0.9115 -135.0236 400.9999)" class="st55" cx="864.1" cy="514.2" rx="22.4" ry="22.4"/>
				
					<ellipse transform="matrix(0.9114 -0.4114 0.4114 0.9114 -135.0283 401.0382)" class="st56" cx="864.1" cy="514.2" rx="19" ry="19"/>
				
					<ellipse transform="matrix(0.9115 -0.4114 0.4114 0.9115 -135.0257 401.0148)" class="st57" cx="864.1" cy="514.2" rx="13.8" ry="13.8"/>
				<path class="st58" d="M856.3,529.2c-3.3-1.7-6-4.4-7.6-8.1c-3.8-8.5-0.1-18.5,8.5-22.4c3.6-1.6,7.5-1.9,11.1-1
					c-3.2-0.5-6.5-0.1-9.6,1.3c-8.6,3.9-12.5,14.1-8.6,22.7C851.4,525,853.6,527.5,856.3,529.2z"/>
			</g>
			<g>
				<g>
					<path class="st59" d="M1199,560.6c0-0.5-0.1-1-0.2-1.5c-12-12-28.1-24.7-36.9-26l-82.2-12.7c-2.6-0.4-5.2-0.4-7.8-0.1l-0.6,8
						c1,0,2.1,0,3.1,0.2l83.3,9.2c9.1,1,25.5,13.1,37.7,26.4C1197.3,564,1198.8,562.6,1199,560.6z"/>
					<path class="st60" d="M1196.2,563.2c-12.3-13.3-28.8-25.4-37.9-26.4l-83.8-9.2c-1.1-0.1-2.1-0.2-3.1-0.2l-0.1,0.9
						c1,0,2.1,0,3.1,0.2l83.3,9.2c9.1,1,25.5,13.1,37.7,26.4c1.2,0,2.2-0.6,2.9-1.5C1197.7,562.9,1197,563.2,1196.2,563.2z"/>
				</g>
				<g>
					<path class="st59" d="M1074.2,552c0-0.5,0.2-1,0.4-1.5c13.5-10.3,31.2-20.6,40.1-20.7l83.2-1.3c2.7,0,5.3,0.3,7.7,0.9l-0.5,8
						c-1-0.1-2.1-0.2-3.1-0.3l-83.8-2.3c-9.1-0.3-27,9.5-40.9,21C1075.5,555.6,1074.1,554,1074.2,552z"/>
					<path class="st60" d="M1076.6,554.9c14-11.5,32-21.2,41.2-21l84.3,2.4c1.1,0,2.1,0.1,3.1,0.3l-0.1,0.9c-1-0.1-2.1-0.2-3.1-0.3
						l-83.8-2.3c-9.1-0.3-27,9.5-40.9,21c-1.2-0.1-2.1-0.9-2.6-1.8C1075.2,554.5,1075.8,554.8,1076.6,554.9z"/>
				</g>
				<g>
					<g>
						<path class="st60" d="M1077.6,518.3c1.4-2.7,4.1-4.8,7-5c14-1.2,27.9-0.2,41.6,3.1c2.7,0.7,5.1,3,6.2,5.7l2.6,0.2
							c-1.1-4-4.4-7.6-8.4-8.6c-6.8-1.7-13.8-2.9-20.8-3.4c-7-0.5-14.1-0.4-21.1,0.2c-3.4,0.3-11.1,5.2-11.1,5.2
							c-0.8,0.1-1.4,0.8-1.5,1.6c0,0.2,0,0.5-0.1,0.7L1077.6,518.3z"/>
						<path class="st61" d="M1129.6,540.5c-1.4,3.8-5.7,7-9,7c-11.6-0.2-23.2-1-34.7-2.4c-3.2-0.4-7.1-4.2-8-8.2
							c-1-4.8-1.4-9.6-1.3-14.3c0.1-4,3.9-7.7,7.9-8.1c14-1.2,27.9-0.1,41.6,3.1c3.9,1,7.2,5.2,6.7,9.1
							C1132.4,531.3,1131.3,535.9,1129.6,540.5z"/>
						<path class="st60" d="M1126.5,514.9c-6.8-1.7-13.8-2.8-20.8-3.3c-7-0.5-14.1-0.5-21.1,0.2c-3.4,0.3-11.1,5-11.1,5
							c-0.8,0.1-1.4,0.7-1.5,1.6c-0.2,3.1-0.4,6.2-0.6,9.3c-0.1,0.8,0.6,1.1,1.3,1.4c0.9,0.4,1.9,2.2,2.1,3.4
							c0.2,1.8,0.5,3.5,0.9,5.3c1.1,4.9,5.7,9.6,10,10.2c5.8,0.7,11.6,1.3,17.4,1.7c5.8,0.4,11.7,0.6,17.5,0.7c4.4,0,9.6-4,11.3-8.7
							c1.7-4.7,2.8-9.5,3.4-14.3C1135.9,522.1,1131.9,516.3,1126.5,514.9z M1129.6,540.5c-1.4,3.8-5.7,7-9,7
							c-11.6-0.2-23.2-1-34.7-2.4c-3.2-0.4-7.1-4.2-8-8.2c-1-4.8-1.4-9.6-1.3-14.3c0.1-4,3.9-7.7,7.9-8.1c14-1.2,27.9-0.1,41.6,3.1
							c3.9,1,7.2,5.2,6.7,9.1C1132.4,531.3,1131.3,535.9,1129.6,540.5z"/>
						<path class="st59" d="M1079.9,540.8c-0.9-1.2-1.6-2.6-1.9-4c-1-4.8-1.4-9.6-1.3-14.3c0.1-4,3.9-7.7,7.9-8.1
							c14-1.2,27.9-0.1,41.6,3.1c1.8,0.4,3.5,1.6,4.8,3.2c-1.2-2-3.3-3.7-5.5-4.2c-13.7-3.2-27.6-4.2-41.6-3c-4,0.4-7.8,4.2-7.9,8.1
							c-0.1,4.7,0.3,9.5,1.3,14.3C1077.6,537.7,1078.6,539.4,1079.9,540.8z"/>
					</g>
					<g>
						<path class="st60" d="M1200.7,526.8c-1-2.8-3.4-5.3-6.3-6c-13.7-3.2-27.7-4-41.6-2.6c-2.8,0.3-5.5,2.3-6.9,4.8l-2.6-0.2
							c1.7-3.8,5.4-6.9,9.5-7.4c7-0.8,14.1-1,21.1-0.5c7,0.4,14,1.5,20.8,3.1c3.4,0.8,10.3,6.6,10.3,6.6c0.7,0.2,1.3,1,1.2,1.8
							c0,0.2,0,0.5-0.1,0.7L1200.7,526.8z"/>
						<path class="st61" d="M1146.1,541.6c0.9,4,4.7,7.7,8,8.2c11.5,1.4,23.1,2.1,34.7,2.4c3.3,0,7.6-3.2,9-7.1
							c1.6-4.7,2.7-9.3,3.3-14c0.5-3.9-2.8-8.2-6.7-9.1c-13.7-3.1-27.7-4-41.6-2.6c-4,0.4-7.8,4.2-7.9,8.1
							C1144.7,532.2,1145.1,536.8,1146.1,541.6z"/>
						<path class="st60" d="M1152.8,516.7c7-0.7,14.1-0.9,21.1-0.5c7,0.4,14,1.5,20.8,3.1c3.4,0.8,10.3,6.4,10.3,6.4
							c0.7,0.2,1.3,0.9,1.2,1.7c-0.2,3.1-0.4,6.2-0.6,9.3c-0.1,0.8-0.7,1-1.4,1.2c-0.9,0.3-2.2,1.9-2.5,3c-0.5,1.7-1,3.4-1.6,5.1
							c-1.8,4.7-7,8.8-11.4,8.8c-5.8-0.1-11.7-0.3-17.5-0.7c-5.8-0.4-11.7-1-17.4-1.7c-4.3-0.6-8.9-5.3-10-10.2
							c-1-4.9-1.5-9.8-1.4-14.6C1142.4,522.5,1147.2,517.3,1152.8,516.7z M1146.1,541.6c0.9,4,4.7,7.7,8,8.2
							c11.5,1.4,23.1,2.1,34.7,2.4c3.3,0,7.6-3.2,9-7.1c1.6-4.7,2.7-9.3,3.3-14c0.5-3.9-2.8-8.2-6.7-9.1c-13.7-3.1-27.7-4-41.6-2.6
							c-4,0.4-7.8,4.2-7.9,8.1C1144.7,532.2,1145.1,536.8,1146.1,541.6z"/>
						<path class="st59" d="M1195.4,548.8c1-1.1,1.9-2.4,2.4-3.7c1.6-4.7,2.7-9.3,3.3-14c0.5-3.9-2.8-8.2-6.7-9.1
							c-13.7-3.1-27.7-4-41.6-2.6c-1.9,0.2-3.7,1.1-5.2,2.5c1.5-1.8,3.7-3.2,6-3.4c14-1.3,28-0.4,41.6,2.8c3.9,0.9,7.2,5.2,6.7,9.1
							c-0.5,4.7-1.6,9.3-3.3,13.9C1198,546,1196.8,547.6,1195.4,548.8z"/>
					</g>
					<g>
						<path class="st60" d="M1140.3,520.5c-2.5,0-4.9-0.6-7.4-1.7c2.1,3.5,2.6,9.4,1.6,12.7c0.9-3.1,3.2-3.7,5.2-3.1L1140.3,520.5z"
							/>
						<path class="st60" d="M1138.3,520.4c2.5,0.3,5,0.1,7.5-0.7c-2.5,3.2-3.9,9-3.4,12.3c-0.4-3.2-2.6-4.1-4.7-3.8L1138.3,520.4z"
							/>
					</g>
				</g>
			</g>
		</g>
	</g>
</g>
</svg>
