<?xml version="1.0" encoding="utf-8"?>
<!-- Generator: Adobe Illustrator 19.2.0, SVG Export Plug-In . SVG Version: 6.00 Build 0)  -->
<svg version="1.1" id="Camada_1" xmlns="http://www.w3.org/2000/svg" xmlns:xlink="http://www.w3.org/1999/xlink" x="0px" y="0px"
	 width="1920px" height="900px" viewBox="0 0 1920 900" style="enable-background:new 0 0 1920 900;" xml:space="preserve">
<style type="text/css">
	.st0{fill:#15809C;}
	.st1{fill:#314D5E;}
	.st2{fill:#E5B949;}
	.st3{opacity:0.35;}
	.st4{fill:#F3F3F3;}
	.st5{fill:#E8C35E;}
	.st6{fill:#253952;}
	.st7{fill:#FFFFFF;}
	.st8{fill:#E1E3D8;}
	.st9{fill:#F4F4F4;}
	.st10{fill:#BFC0C1;}
	.st11{fill:#E1E1E1;}
	.st12{fill:#485165;}
	.st13{fill:#D8D7DC;}
	.st14{fill:#CB6031;}
	.st15{fill:#D07548;}
	.st16{fill:#65A3AA;}
	.st17{fill:#BC5F4C;}
	.st18{fill:#D2D0CE;}
	.st19{fill:#D38163;}
	.st20{fill:#DFDDDB;}
	.st21{fill:#E6C43B;}
	.st22{fill:#203955;}
	.st23{fill:#1E3443;}
	.st24{display:none;fill:#E8C0A5;}
	.st25{fill:#323132;}
	.st26{fill:#CBCACA;}
	.st27{fill:#EAE9E8;}
	.st28{fill:url(#SVGID_1_);}
	.st29{fill:#808285;}
	.st30{fill:#C95A3A;}
	.st31{fill:#D78B35;}
	.st32{fill:#FFFFFF;stroke:#C85448;stroke-width:8.7272;stroke-miterlimit:10;}
	.st33{fill:#C85448;}
	.st34{fill:#FFFFFF;stroke:#C85448;stroke-width:11.3386;stroke-miterlimit:10;}
	.st35{fill:#FFFFFF;stroke:#B2292E;stroke-width:0.5237;stroke-miterlimit:10;}
	.st36{fill:#414042;stroke:#414042;stroke-width:1.2926;stroke-miterlimit:10;}
	.st37{fill:#D0766B;}
	.st38{fill:#FFFFFF;stroke:#B2292E;stroke-width:1.2926;stroke-miterlimit:10;}
	.st39{fill:#C54741;}
	.st40{fill:#E0A54B;}
	.st41{fill:#F2DDC9;}
	.st42{fill:#216EAC;}
	.st43{fill:#21333F;}
	.st44{fill:#3B5063;}
	.st45{fill:#E4B838;}
	.st46{fill:#B2D3E0;}
	.st47{fill:#D99535;}
</style>
<g id="Camada_1_1_">
	<rect x="-1.1" class="st0" width="1922.3" height="900"/>
</g>
<g id="Camada_2">
	<g>
		<path class="st1" d="M1517.6,840.7c28,0,50.8-22.8,50.8-50.8s-22.8-50.8-50.8-50.8s-50.8,22.8-50.8,50.8
			C1466.8,817.9,1489.7,840.7,1517.6,840.7z"/>
		<path class="st2" d="M1544.1,801.5c-2.1,0-4-0.6-5.6-1.7l-24.8,12.5c-0.1,5.2-4.3,9.5-9.6,9.5c-5.3,0-9.7-4.3-9.7-9.6
			s4.3-9.7,9.6-9.7c2.7,0,5.2,1.1,7,2.9l23.5-11.8c-0.1-0.5-0.2-1.1-0.2-1.6c0-0.2,0-0.4,0-0.5l-24.4-10.8c-1.7,1.4-3.8,2.2-6.1,2.2
			c-5.3,0-9.7-4.3-9.7-9.6s4.3-9.7,9.6-9.7c5.3,0,9.7,4.3,9.7,9.6c0,0.3,0,0.7,0,1l24.1,10.6c1.7-1.5,3.9-2.5,6.4-2.5
			c5.3,0,9.7,4.3,9.7,9.6C1553.7,797.2,1549.4,801.5,1544.1,801.5z"/>
	</g>
	<g class="st3">
		<g>
			<g>
				<path class="st4" d="M1069.6,529.7h63.8v65.8h-71.1C1062.8,572,1065.3,549.8,1069.6,529.7L1069.6,529.7z M1069.6,675.2h63.8
					v-65.8h-71.1C1062.8,633,1065.3,655.1,1069.6,675.2L1069.6,675.2z M1133.4,515.6v-84.5c-25.8,5.1-48,37.7-60.5,84.5H1133.4z
					 M1226,675.2h70.4c9.4-20.1,15-42.3,15.9-65.8h-79.7C1232.2,633,1230,655.1,1226,675.2L1226,675.2z M1226,529.7
					c4,20.1,6.3,42.3,6.7,65.8h79.6c-1-23.5-6.5-45.6-15.9-65.8H1226z M1222.8,515.6h66.2c-23-39.2-61-68.4-106.2-79.8
					C1200.2,452.9,1214.1,480.7,1222.8,515.6L1222.8,515.6z M1133.4,773.8v-84.5h-60.5C1085.4,736.1,1107.6,768.8,1133.4,773.8
					L1133.4,773.8z M1208,515.6c-12.5-46.7-34.6-79.5-60.5-84.5v84.5H1208z M1218.5,609.5h-71.1v65.8h63.8
					C1215.6,655.1,1218.1,633,1218.5,609.5L1218.5,609.5z M968.6,609.5c1,23.5,6.5,45.6,16,65.8h70.3c-4-20.1-6.3-42.3-6.6-65.8
					H968.6z M1058.1,689.3H992c23,39.2,61,68.4,106.2,79.9C1080.8,752,1066.8,724.2,1058.1,689.3L1058.1,689.3z M1222.8,689.3
					c-8.7,34.8-22.6,62.6-40,79.9c45.2-11.4,83.1-40.6,106.2-79.9H1222.8z M1058.1,515.6c8.7-34.8,22.6-62.6,40-79.8
					c-45.2,11.4-83.2,40.7-106.1,79.8H1058.1z M1211.3,529.7h-63.8v65.8h71.1C1218.1,572,1215.6,549.8,1211.3,529.7L1211.3,529.7z
					 M984.6,529.7c-9.4,20.1-15,42.3-16,65.8h79.7c0.4-23.5,2.6-45.6,6.6-65.8H984.6z M1147.5,689.3v84.5
					c25.9-5.1,48-37.8,60.5-84.5H1147.5z"/>
			</g>
		</g>
	</g>
	<g>
		<path class="st5" d="M806,408.2c-5.1,0-9.2,4.1-9.2,9.2v11.7c0,5.1,4.1,9.2,9.2,9.2h7.2c1.9,0,4.2,1.8,4.9,3.8
			c0.7,1.9,1.5,3.9,2.4,5.7c1,2,0.6,4.8-0.8,6.2l-5.1,5.1c-3.6,3.6-3.6,9.4,0,13l8.3,8.3c1.7,1.7,4,2.7,6.5,2.7s4.8-1,6.5-2.7
			l5.1-5.1c0.8-0.8,2.2-1.3,3.7-1.3c0.9,0,1.8,0.2,2.5,0.5c1.9,0.9,3.8,1.7,5.7,2.4c2.1,0.7,3.8,3,3.8,4.9v7.2
			c0,5.1,4.1,9.2,9.2,9.2h11.7c5.1,0,9.2-4.1,9.2-9.2v-7.2c0-1.9,1.8-4.2,3.8-4.9c1.9-0.7,3.8-1.5,5.7-2.4c0.7-0.4,1.6-0.5,2.5-0.5
			c1.5,0,2.8,0.5,3.7,1.3l5.1,5.1c1.7,1.7,4,2.7,6.5,2.7s4.8-1,6.5-2.7l8.3-8.3c3.6-3.6,3.6-9.4,0-13l-5.1-5.1
			c-1.4-1.4-1.7-4.2-0.8-6.2c0.9-1.9,1.7-3.8,2.4-5.7c0.7-2.1,3-3.8,4.9-3.8h7.2c5.1,0,9.2-4.1,9.2-9.2v-11.7c0-5.1-4.1-9.2-9.2-9.2
			h-7.2c-1.9,0-4.2-1.8-4.9-3.8c-0.7-1.9-1.5-3.8-2.4-5.7c-1-2-0.6-4.8,0.8-6.2l5.1-5.1c1.7-1.7,2.7-4,2.7-6.5s-1-4.8-2.7-6.5
			l-8.3-8.3c-1.7-1.7-4-2.7-6.5-2.7c-2.4,0-4.8,1-6.5,2.7l-5.1,5.1c-0.8,0.8-2.2,1.3-3.7,1.3c-0.9,0-1.8-0.2-2.5-0.5
			c-1.9-0.9-3.8-1.7-5.7-2.4c-2.1-0.7-3.8-3-3.8-4.9v-7.2c0-5.1-4.1-9.2-9.2-9.2h-11.7c-5.1,0-9.2,4.1-9.2,9.2v7.2
			c0,1.9-1.8,4.2-3.8,4.9c-1.9,0.7-3.9,1.5-5.7,2.4c-0.7,0.4-1.6,0.5-2.5,0.5c-1.5,0-2.8-0.5-3.7-1.3l-5.1-5.1
			c-1.7-1.7-4-2.7-6.5-2.7c-2.4,0-4.8,1-6.5,2.7l-8.3,8.3c-3.6,3.6-3.6,9.4,0,13l5.1,5.1c1.4,1.4,1.7,4.2,0.8,6.2
			c-0.9,1.9-1.7,3.8-2.4,5.7c-0.7,2.1-3,3.8-4.9,3.8H806L806,408.2z M844.8,423.2c0-14.8,12.1-26.9,26.9-26.9
			c14.8,0,26.9,12.1,26.9,26.9c0,14.8-12.1,26.9-26.9,26.9C856.9,450.1,844.8,438,844.8,423.2L844.8,423.2z"/>
		<path class="st5" d="M927.3,349.3c0.4,1,0.8,2,1.3,3c0.2,0.5,0.1,1.1-0.1,1.3l-2.6,2.5c-2.4,2.4-2.4,6.3,0,8.7l4.1,4.1
			c1.2,1.2,2.7,1.8,4.3,1.8s3.2-0.6,4.3-1.8l2.6-2.6c0.1-0.1,0.4-0.2,0.7-0.2c0.2,0,0.4,0,0.6,0.1c1,0.5,2,0.9,3,1.3
			c0.5,0.2,0.9,0.8,0.9,1v3.6c0,3.4,2.7,6.1,6.1,6.1h5.9c3.4,0,6.1-2.7,6.1-6.1v-3.6c0-0.3,0.4-0.9,0.9-1c1-0.4,2-0.8,3-1.3
			c0.2-0.1,0.4-0.1,0.6-0.1c0.4,0,0.7,0.1,0.7,0.2l2.6,2.6c1.2,1.2,2.7,1.8,4.3,1.8s3.2-0.6,4.3-1.8l4.1-4.1
			c1.2-1.2,1.8-2.7,1.8-4.3s-0.6-3.2-1.8-4.3l-2.6-2.6c-0.2-0.2-0.3-0.9-0.1-1.3c0.5-1,0.9-2,1.3-3c0.2-0.5,0.8-0.9,1-0.9h3.6
			c3.4,0,6.1-2.7,6.1-6.1v-5.9c0-3.4-2.7-6.1-6.1-6.1h-3.6c-0.3,0-0.9-0.4-1-0.9c-0.4-1-0.8-2-1.3-3c-0.2-0.5-0.1-1.2,0.1-1.3
			l2.6-2.6c2.4-2.4,2.4-6.3,0-8.7l-4.1-4.1c-1.2-1.2-2.7-1.8-4.3-1.8s-3.2,0.6-4.3,1.8l-2.6,2.5c-0.1,0.1-0.4,0.2-0.7,0.2
			c-0.2,0-0.4,0-0.6-0.1c-1-0.5-2-0.9-3-1.3c-0.5-0.2-0.9-0.8-0.9-1v-3.6c0-3.4-2.7-6.1-6.1-6.1h-5.9c-3.4,0-6.1,2.7-6.1,6.1v3.6
			c0,0.3-0.4,0.9-0.9,1c-1,0.4-2,0.8-3,1.3c-0.2,0.1-0.4,0.1-0.6,0.1c-0.4,0-0.7-0.1-0.7-0.2l-2.5-2.5c-1.2-1.2-2.7-1.8-4.3-1.8
			s-3.2,0.6-4.3,1.8l-4.1,4.1c-2.4,2.4-2.4,6.3,0,8.7l2.6,2.6c0.2,0.2,0.3,0.9,0.1,1.3c-0.5,1-0.9,2-1.3,3c-0.2,0.5-0.8,0.9-1,0.9
			h-3.6c-3.4,0-6.1,2.7-6.1,6.1v5.9c0,3.4,2.7,6.1,6.1,6.1h3.6C926.6,348.4,927.1,348.8,927.3,349.3L927.3,349.3z M943.7,339.3
			c0-6.6,5.3-11.9,11.9-11.9c6.6,0,11.9,5.3,11.9,11.9c0,6.6-5.3,11.9-11.9,11.9C949,351.3,943.7,345.9,943.7,339.3L943.7,339.3z"/>
	</g>
	<g>
		<g>
			<g>
				<g>
					<g>
						<g>
							<g>
								<path class="st6" d="M1257.8,511.1c-15.3,0-219.1,0-219.1,0s-203.8,0-219.1,0S806,524.4,806,524.4v267.5h465.4V524.4
									C1271.4,524.4,1273.1,511.1,1257.8,511.1z"/>
								<path class="st7" d="M1254.3,780.9H823.5c-1.1,0-2-0.9-2-2V528.1c0-1.1,0.9-2,2-2h430.8c1.1,0,2,0.9,2,2v250.8
									C1256.3,780,1255.4,780.9,1254.3,780.9z"/>
							</g>
							<g>
								<rect x="750.6" y="789.9" class="st8" width="575.7" height="11.1"/>
								<rect x="1298.5" y="789.9" class="st9" width="27.8" height="11.1"/>
								<rect x="750.6" y="789.9" class="st9" width="27.8" height="11.1"/>
								<path class="st10" d="M1038.2,801H750.6c0,0,6.9,6.4,19.5,6.4s268.1,0,268.1,0s255.5,0,268.1,0s19.5-6.4,19.5-6.4H1038.2z"
									/>
							</g>
						</g>
						<circle class="st11" cx="1038.4" cy="518" r="3.2"/>
						<circle class="st12" cx="1038.4" cy="518" r="2.2"/>
					</g>
				</g>
			</g>
		</g>
	</g>
	<g>
		<path class="st7" d="M1545.8,626.7v-79.5c-8.1,0.2-15.1,1.4-22.9,3.9c-20.6,6.7-37.3,21-47.2,40.3c-9.5,18.7-11.4,39.8-5.5,59.8
			L1545.8,626.7z"/>
		<path class="st1" d="M1583.9,642.1l-36-11.7l-76.4,24.8c8.6,24.6,26.3,41.9,51.4,50c8.1,2.6,16.6,4,25.1,4
			c34.5,0,64.9-21.6,76.4-54L1583.9,642.1z"/>
		<path class="st13" d="M1597.2,563.9l-45.9,63.2l74.3,24.1C1635.3,618.5,1624.3,584.6,1597.2,563.9z"/>
		<path class="st14" d="M1550,621.8l43.8-60.3c-13.4-9.3-27.5-13.9-43.8-14.2V621.8z"/>
	</g>
	<g>
		<path class="st15" d="M1389.7,791.5c35.6,0,64.7-29.1,64.7-64.7c0-35.6-29.1-64.7-64.7-64.7s-64.7,29.1-64.7,64.7
			C1325,762.5,1354,791.5,1389.7,791.5z"/>
		<g>
			<polygon class="st7" points="1429.3,758 1429.3,762.5 1356.2,762.5 1356.2,689.4 1360.7,689.4 1360.7,758 			"/>
			<polygon class="st16" points="1388.9,714.8 1407.6,719.4 1414,708.7 1419.9,712.2 1420.2,694 1404.2,702.8 1410.1,706.3 
				1405.4,714.2 1387.5,709.7 1368.3,728.9 1371.5,732.2 			"/>
			<polygon class="st7" points="1383.6,753.4 1392.7,753.4 1392.7,720.5 1390.3,719.8 1383.6,726.5 			"/>
			<polygon class="st7" points="1369.9,737 1369.9,753.4 1379,753.4 1379,731.1 1371.5,738.6 			"/>
			<polygon class="st7" points="1411,722.5 1411,753.4 1420.2,753.4 1420.2,717.7 1415.6,715 			"/>
			<polygon class="st7" points="1406.5,753.4 1406.5,723.9 1397.3,721.6 1397.3,753.4 			"/>
		</g>
	</g>
	<g>
		<path class="st5" d="M1046.6,433.8c0.2-0.7,1-1.3,1.4-1.3h5c4.7,0,8.5-3.8,8.5-8.5v-8.2c0-4.7-3.8-8.5-8.5-8.5h-5
			c-0.4,0-1.2-0.6-1.4-1.3c-0.5-1.4-1.1-2.8-1.8-4.2c-0.3-0.6-0.1-1.6,0.1-1.9l3.6-3.6c3.3-3.3,3.3-8.7,0-12l-5.8-5.8
			c-1.6-1.6-3.7-2.5-6-2.5s-4.4,0.9-6,2.5l-3.5,3.5c-0.1,0.1-0.5,0.3-1,0.3c-0.3,0-0.6-0.1-0.8-0.2c-1.4-0.7-2.8-1.2-4.2-1.7
			c-0.7-0.2-1.3-1.1-1.3-1.4v-5c0-4.7-3.8-8.5-8.5-8.5h-8.2c-4.7,0-8.5,3.8-8.5,8.5v5c0,0.4-0.6,1.2-1.3,1.4
			c-1.4,0.5-2.8,1.1-4.2,1.7c-0.2,0.1-0.5,0.2-0.8,0.2c-0.5,0-0.9-0.2-1-0.3l-3.5-3.5c-1.6-1.6-3.7-2.5-6-2.5s-4.4,0.9-6,2.5
			l-5.8,5.8c-3.3,3.3-3.3,8.7,0,12l3.5,3.6c0.3,0.3,0.4,1.2,0.1,1.9c-0.7,1.4-1.2,2.8-1.7,4.2c-0.2,0.7-1.1,1.3-1.4,1.3h-5
			c-4.7,0-8.5,3.8-8.5,8.5v8.1c0,4.7,3.8,8.5,8.5,8.5h5c0.4,0,1.2,0.6,1.4,1.3c0.5,1.4,1.1,2.8,1.7,4.2c0.3,0.6,0.1,1.6-0.1,1.9
			l-3.5,3.5c-1.6,1.6-2.5,3.7-2.5,6s0.9,4.4,2.5,6l5.8,5.8c1.6,1.6,3.7,2.5,6,2.5s4.4-0.9,6-2.5l3.5-3.6c0.1-0.1,0.5-0.3,1-0.3
			c0.3,0,0.6,0.1,0.8,0.2c1.4,0.7,2.8,1.2,4.2,1.7c0.7,0.2,1.3,1.1,1.3,1.4v5c0,4.7,3.8,8.5,8.5,8.5h8.2c4.7,0,8.5-3.8,8.5-8.5v-5
			c0-0.4,0.6-1.2,1.3-1.4c1.4-0.5,2.8-1.1,4.2-1.7c0.2-0.1,0.5-0.2,0.8-0.2c0.5,0,0.9,0.2,1,0.3l3.6,3.5c1.6,1.6,3.7,2.5,6,2.5
			s4.4-0.9,6-2.5l5.8-5.8c3.3-3.3,3.3-8.7,0-12l-3.6-3.5c-0.3-0.3-0.4-1.2-0.1-1.9C1045.5,436.6,1046.1,435.2,1046.6,433.8
			L1046.6,433.8z M1023.8,420c0,9.1-7.4,16.6-16.6,16.6c-9.1,0-16.6-7.4-16.6-16.6c0-9.1,7.4-16.6,16.6-16.6
			C1016.4,403.4,1023.8,410.8,1023.8,420L1023.8,420z"/>
	</g>
	<g>
		<path class="st17" d="M444.2,318c-2.9,0-5.2,2.4-5.2,5.2V529c0,2.9,2.4,5.2,5.2,5.2h142.4c2.9,0,5.2-2.4,5.2-5.2V323.3
			c0-2.9-2.4-5.2-5.2-5.2H444.2V318z"/>
		<rect x="447.7" y="330.3" class="st7" width="135.5" height="191.7"/>
		<g>
			<g>
				<rect x="464.9" y="480.8" class="st18" width="101" height="3"/>
				<rect x="464.9" y="488.3" class="st18" width="101" height="3"/>
				<rect x="464.9" y="495.8" class="st18" width="50.5" height="3"/>
			</g>
		</g>
		<g>
			<g>
				<rect x="464.9" y="458.1" class="st18" width="101" height="3"/>
				<rect x="464.9" y="465.6" class="st18" width="101" height="3"/>
				<rect x="464.9" y="473.2" class="st18" width="100.7" height="3"/>
			</g>
		</g>
		<g>
			<g>
				<g>
					<rect x="491.9" y="364.8" class="st18" width="73.7" height="3.3"/>
					<rect x="491.9" y="387" class="st18" width="73.7" height="3.3"/>
					<rect x="491.9" y="409.2" class="st18" width="73.7" height="3.3"/>
					<rect x="491.9" y="431.4" class="st18" width="73.7" height="3.3"/>
				</g>
			</g>
			<g>
				<g>
					<path class="st18" d="M474.3,375.4c-4.9,0-8.9-4-8.9-8.9s4-8.9,8.9-8.9s8.9,4,8.9,8.9C483.2,371.4,479.2,375.4,474.3,375.4z
						 M474.3,359.3c-3.9,0-7.2,3.2-7.2,7.2c0,3.9,3.2,7.2,7.2,7.2c3.9,0,7.2-3.2,7.2-7.2C481.4,362.5,478.2,359.3,474.3,359.3z"/>
					<path class="st18" d="M474.3,397.6c-4.9,0-8.9-4-8.9-8.9s4-8.9,8.9-8.9s8.9,4,8.9,8.9C483.2,393.6,479.2,397.6,474.3,397.6z
						 M474.3,381.5c-3.9,0-7.2,3.2-7.2,7.2c0,3.9,3.2,7.2,7.2,7.2c3.9,0,7.2-3.2,7.2-7.2C481.4,384.7,478.2,381.5,474.3,381.5z"/>
					<path class="st18" d="M474.3,419.8c-4.9,0-8.9-4-8.9-8.9s4-8.9,8.9-8.9s8.9,4,8.9,8.9C483.2,415.8,479.2,419.8,474.3,419.8z
						 M474.3,403.7c-3.9,0-7.2,3.2-7.2,7.2c0,3.9,3.2,7.2,7.2,7.2c3.9,0,7.2-3.2,7.2-7.2C481.4,406.9,478.2,403.7,474.3,403.7z"/>
					<path class="st18" d="M474.3,442c-4.9,0-8.9-4-8.9-8.9s4-8.9,8.9-8.9s8.9,4,8.9,8.9C483.2,438,479.2,442,474.3,442z
						 M474.3,425.9c-3.9,0-7.2,3.2-7.2,7.2c0,3.9,3.2,7.2,7.2,7.2c3.9,0,7.2-3.2,7.2-7.2C481.4,429.1,478.2,425.9,474.3,425.9z"/>
				</g>
			</g>
			<polygon class="st19" points="468.6,387.1 470.1,385.6 474.4,389.8 483.2,381.1 484.7,382.6 474.4,392.9 			"/>
		</g>
		<g>
			<path class="st20" d="M527.1,318.4c0-6.4-5.2-11.6-11.6-11.6c-6.4,0-11.6,5.2-11.6,11.6h-14.7v23.8h52.6v-23.8H527.1z
				 M515.5,314.4c2.2,0,4,1.8,4,3.9c0,2.2-1.8,3.9-4,3.9s-4-1.8-4-3.9C511.5,316.2,513.3,314.4,515.5,314.4z"/>
			<path class="st18" d="M527.1,318.4c0-6.4-5.2-11.6-11.6-11.6c-6.4,0-11.6,5.2-11.6,11.6h-14.7v11.9h52.6v-11.9L527.1,318.4
				L527.1,318.4z M515.5,314.4c2.2,0,4,1.8,4,3.9c0,2.2-1.8,3.9-4,3.9s-4-1.8-4-3.9C511.5,316.2,513.3,314.4,515.5,314.4z"/>
			<rect x="489.2" y="327.8" class="st7" width="52.6" height="2.5"/>
			<rect x="489.2" y="330.3" class="st18" width="52.6" height="2.5"/>
		</g>
	</g>
	<g>
		<g>
			<g>
				<g>
					<path class="st21" d="M778.8,444.7h-16c-1,0-1.8,0.8-1.8,1.8s0.8,1.8,1.8,1.8h16c1,0,1.8-0.8,1.8-1.8S779.8,444.7,778.8,444.7z
						"/>
					<path class="st21" d="M757.7,421.5c0.3,0,0.6-0.1,0.9-0.2l13.8-8.1c0.8-0.5,1.1-1.6,0.6-2.4c-0.5-0.8-1.6-1.1-2.4-0.6
						l-13.8,8.1c-0.8,0.5-1.1,1.6-0.6,2.4C756.5,421.2,757.1,421.5,757.7,421.5z"/>
					<path class="st21" d="M735.8,397.7c0.3,0.2,0.6,0.2,0.9,0.2c0.6,0,1.2-0.3,1.5-0.9l7.9-13.9c0.5-0.8,0.2-1.9-0.7-2.4
						c-0.8-0.5-1.9-0.2-2.4,0.7l-7.9,13.9C734.6,396.1,734.9,397.2,735.8,397.7z"/>
					<path class="st21" d="M651.6,416.6l-13.8-8.1c-0.8-0.5-1.9-0.2-2.4,0.6s-0.2,1.9,0.6,2.4l13.8,8.1c0.3,0.2,0.6,0.2,0.9,0.2
						c0.6,0,1.2-0.3,1.5-0.9C652.7,418.2,652.4,417.1,651.6,416.6z"/>
					<path class="st21" d="M772.4,478.3l-13.8-8.1c-0.8-0.5-1.9-0.2-2.4,0.6s-0.2,1.9,0.6,2.4l13.8,8.1c0.3,0.2,0.6,0.2,0.9,0.2
						c0.6,0,1.2-0.3,1.5-0.9C773.5,479.8,773.2,478.7,772.4,478.3z"/>
					<path class="st21" d="M649.8,471.8l-13.8,8.1c-0.8,0.5-1.1,1.6-0.6,2.4c0.3,0.6,0.9,0.9,1.5,0.9c0.3,0,0.6-0.1,0.9-0.2
						l13.8-8.1c0.8-0.5,1.1-1.6,0.6-2.4C651.7,471.6,650.7,471.3,649.8,471.8z"/>
					<path class="st21" d="M670.2,395.4c0.3,0.6,0.9,0.9,1.5,0.9c0.3,0,0.6-0.1,0.9-0.2c0.8-0.5,1.1-1.6,0.7-2.4l-7.9-13.9
						c-0.5-0.8-1.6-1.1-2.4-0.7c-0.8,0.5-1.1,1.6-0.7,2.4L670.2,395.4z"/>
					<path class="st21" d="M704.8,389.8c1,0,1.8-0.8,1.8-1.8v-16c0-1-0.8-1.8-1.8-1.8S703,371,703,372v16
						C703.1,389,703.9,389.8,704.8,389.8z"/>
					<path class="st21" d="M650.5,446.5c0-1-0.8-1.8-1.8-1.8h-16c-1,0-1.8,0.8-1.8,1.8s0.8,1.8,1.8,1.8h16
						C649.7,448.2,650.5,447.4,650.5,446.5z"/>
				</g>
			</g>
			<g>
				<path class="st21" d="M705.8,405.5c-23.2,0-42,18.8-42,42c0,7.6,2.1,14.7,5.6,20.9c10.3,18.6,13,20.6,14.7,30.7
					c1.4,8.5,3.4,10.4,9.7,10.4c2.7,0,7.2,0,11.9,0s9.2,0,11.9,0c6.4,0,8.3-2,9.8-10.4c1.7-10.1,4.4-12.1,14.7-30.7
					c3.5-6.2,5.6-13.3,5.6-20.9C747.8,424.3,729,405.5,705.8,405.5z"/>
				<g>
					<g>
						<path class="st22" d="M726.8,513.8c0,2.4-1.9,4.3-4.3,4.3H689c-2.4,0-4.3-1.9-4.3-4.3l0,0c0-2.4,1.9-4.3,4.3-4.3h33.6
							C724.9,509.5,726.8,511.4,726.8,513.8L726.8,513.8z"/>
					</g>
					<path class="st23" d="M722.6,509.5h-16.8v8.6h16.8c2.4,0,4.3-1.9,4.3-4.3C726.8,511.4,724.9,509.5,722.6,509.5z"/>
				</g>
				<g>
					<g>
						<path class="st22" d="M725.9,522.3c0,2.4-1.8,4.3-4.1,4.3h-32.1c-2.3,0-4.1-1.9-4.1-4.3l0,0c0-2.4,1.8-4.3,4.1-4.3h32.1
							C724.1,518.1,725.9,520,725.9,522.3L725.9,522.3z"/>
					</g>
					<path class="st23" d="M721.8,518.1h-16v8.6h16c2.3,0,4.1-1.9,4.1-4.3C725.9,520,724.1,518.1,721.8,518.1z"/>
				</g>
				<g>
					<g>
						<path class="st22" d="M725,530.9c0,2.4-1.7,4.3-3.9,4.3h-30.7c-2.2,0-3.9-1.9-3.9-4.3l0,0c0-2.4,1.8-4.3,3.9-4.3h30.7
							C723.3,526.6,725,528.5,725,530.9L725,530.9z"/>
					</g>
					<path class="st23" d="M721.1,526.6h-15.3v8.6h15.3c2.2,0,3.9-1.9,3.9-4.3S723.3,526.6,721.1,526.6z"/>
				</g>
				<g>
					<g>
						<path class="st22" d="M691.7,535.2h28.2c0,4.7-7.5,7.8-14.1,7.8C699.2,543,691.7,539.9,691.7,535.2z"/>
					</g>
					<path class="st23" d="M705.8,543L705.8,543c6.6,0,14.1-3.1,14.1-7.8h-14.1V543z"/>
				</g>
				<g>
					<g>
						<g>
							<path class="st7" d="M697.6,508.3c-2.5-11.1-4.9-22.3-7.4-33.4c-0.7-3.2-1.4-6.4-2.1-9.6c-0.4-1.9-0.5-4.6-1.4-6.4
								c-0.2-0.3-0.1-0.8-0.2-1.1c0.4,1-1.5,1.3,0,0.8c0.6-0.2,1.2-1,1.6-1.4c2.2-1.8,4.4-3.7,6.6-5.5c-1,0-2,0-3,0
								c2.2,2.6,4.4,5.2,6.5,7.7c0.8,0.9,2.7,0.6,3.4-0.3c2-2.6,4-5.2,6-7.7c-1.1,0.1-2.3,0.2-3.4,0.3c2.3,2.6,4.6,5.2,6.9,7.7
								c0.9,1,2.6,0.6,3.4-0.3c2.4-2.6,4.7-5.2,7.1-7.7c-1.1,0.1-2.3,0.2-3.4,0.3c1.9,2.2,3.8,4.4,5.7,6.6c0.5,0.6,1.5,2.3,1.3,1.1
								c0,0.3-0.2,0.8-0.2,1.1c-1.1,5.4-2.3,10.7-3.5,16c-2.3,10.8-4.7,21.6-7,32.4c-0.4,1.9,3.5,1.4,3.9-0.3
								c2.4-11.3,4.9-22.5,7.3-33.8c0.7-3.2,1.4-6.4,2.1-9.6c0.4-1.7,1.3-3.9,1.2-5.6c-0.1-3.4-5.1-7.1-7.3-9.6
								c-0.9-1-2.6-0.6-3.4,0.3c-2.4,2.6-4.7,5.2-7.1,7.7c1.1-0.1,2.3-0.2,3.4-0.3c-2.3-2.6-4.6-5.2-6.9-7.7
								c-0.8-0.9-2.7-0.6-3.4,0.3c-2,2.6-4,5.2-6,7.7c1.1-0.1,2.3-0.2,3.4-0.3c-2.2-2.6-4.4-5.2-6.5-7.7c-0.7-0.8-2.3-0.7-3,0
								c-3,2.5-5.9,5-8.9,7.4c-0.4,0.3-0.8,0.8-0.7,1.4c3.7,16.9,7.4,33.7,11.2,50.6C694.1,511,698,510,697.6,508.3L697.6,508.3z"/>
						</g>
					</g>
				</g>
				<g>
					<g>
						<g>
							<path class="st7" d="M687,460.8c3-2.5,5.9-5,8.9-7.5c-1.6,0-3.3,0-4.9,0c2.2,2.6,4.4,5.2,6.5,7.8c1.6,1.9,4.3,0.9,5.5-0.7
								c2-2.6,4-5.2,6-7.8c-1.8,0.2-3.7,0.5-5.5,0.7c2.3,2.6,4.6,5.2,6.9,7.8c1.2,1.4,3.7,1.3,4.9,0c2.4-2.6,4.7-5.2,7.1-7.8
								c-1.6,0-3.3,0-4.9,0c2.4,2.8,4.8,5.6,7.3,8.4c2.9,3.4,7.9-1.5,4.9-4.9c-2.4-2.8-4.8-5.6-7.3-8.4c-1.2-1.4-3.8-1.3-4.9,0
								c-2.4,2.6-4.7,5.2-7.1,7.8c1.6,0,3.3,0,4.9,0c-2.3-2.6-4.6-5.2-6.9-7.8c-1.6-1.9-4.2-0.9-5.5,0.7c-2,2.6-4,5.2-6,7.8
								c1.8-0.2,3.7-0.5,5.5-0.7c-2.2-2.6-4.4-5.2-6.5-7.8c-1.3-1.5-3.6-1.1-4.9,0c-3,2.5-5.9,5-8.9,7.5
								C678.6,458.8,683.5,463.7,687,460.8L687,460.8z"/>
						</g>
					</g>
				</g>
			</g>
		</g>
	</g>
	<g>
		<path class="st24" d="M1382.7,351.3c0,0,11-11.3,19.5,0l-2.7,2h-12.3l-3.4-0.6L1382.7,351.3z"/>
		<g id="Layer1_2_">
			<g transform="matrix(0.94538,0,0,1.08839,38.0767,-27.0988)">
				<path class="st25" d="M1484,378.5c0-8.2-3-16-8.5-21.8c-5.4-5.8-12.8-9-20.4-9c-23.7,0-57.2,0-81,0c-7.7,0-15,3.2-20.4,9
					s-8.5,13.6-8.5,21.8c0,50.6,0,150.5,0,201.1c0,8.2,3,16,8.5,21.8c5.4,5.8,12.8,9,20.4,9c23.7,0,57.2,0,81,0c7.7,0,15-3.2,20.4-9
					s8.5-13.6,8.5-21.8C1484,529,1484,429,1484,378.5z"/>
			</g>
			<g transform="matrix(0.5,0,0,0.772144,88.5397,24.9844)">
				<path class="st26" d="M2442.6,468.6c0-0.2-0.2-0.3-0.4-0.3h-0.8c-0.2,0-0.4,0.1-0.4,0.3v9.2c0,0.2,0.2,0.3,0.4,0.3h0.8
					c0.2,0,0.4-0.1,0.4-0.3V468.6z"/>
			</g>
			<g transform="matrix(0.5,0,0,0.369503,88.5397,75.5685)">
				<path class="st26" d="M2442.6,865.1c0-0.3-0.2-0.6-0.4-0.6h-0.8c-0.2,0-0.4,0.3-0.4,0.6v8.6c0,0.3,0.2,0.6,0.4,0.6h0.8
					c0.2,0,0.4-0.3,0.4-0.6V865.1z"/>
			</g>
			<g transform="matrix(0.5,0,0,0.369503,88.5397,83.425)">
				<path class="st26" d="M2442.6,855.3c0-0.3-0.2-0.6-0.4-0.6h-0.8c-0.2,0-0.4,0.3-0.4,0.6v8.6c0,0.3,0.2,0.6,0.4,0.6h0.8
					c0.2,0,0.4-0.3,0.4-0.6V855.3z"/>
			</g>
			<g transform="matrix(1,0,0,1,1.06381,9.33653)">
				<path class="st7" d="M1395,354.1c0-0.4-0.3-0.8-0.7-0.8h-36c-0.4,0-0.7,0.3-0.7,0.8v1.5c0,0.4,0.3,0.8,0.7,0.8h36
					c0.4,0,0.7-0.3,0.7-0.8V354.1z"/>
			</g>
			<g transform="matrix(1,0,0,1,0,8.67497)">
				<ellipse class="st27" cx="1377.4" cy="349.2" rx="1.9" ry="2"/>
			</g>
			<g transform="matrix(1,0,0,1,-53.6577,26.9335)">
				<ellipse class="st27" cx="1403.8" cy="340.8" rx="1.9" ry="2"/>
			</g>
			<g transform="matrix(1,0,0,1,-5.46228,3.24956)">
				
					<linearGradient id="SVGID_1_" gradientUnits="userSpaceOnUse" x1="684.4041" y1="-88.3195" x2="684.9225" y2="-88.3195" gradientTransform="matrix(29.1079 -20.8578 20.8578 29.1079 -16705.6094 17469.0586)">
					<stop  offset="0" style="stop-color:#979797"/>
					<stop  offset="0.5" style="stop-color:#FFFFFF"/>
					<stop  offset="1" style="stop-color:#666566"/>
				</linearGradient>
				<ellipse class="st28" cx="1381.2" cy="617.8" rx="9.3" ry="10"/>
			</g>
			<g transform="matrix(0.907491,0,0,0.907491,22.632,51.6256)">
				<ellipse class="st7" cx="1491" cy="627.6" rx="8.5" ry="9"/>
			</g>
			<g transform="matrix(1.09117,0,0,1.02541,-53.8259,0.876064)">
				<rect x="1254.8" y="373.2" class="st29" width="110" height="218.3"/>
			</g>
		</g>
		<g>
			<path class="st30" d="M1354,519.1c14.3,0,28.6,0,43,0c9.2-0.2,9.2,19.6,0,19.4c-14.3,0-28.6,0-43,0
				C1344.6,538.5,1344.6,519.1,1354,519.1z"/>
			<path class="st31" d="M1396.9,534.3c-14.3,0-28.6,0-43,0c-4,0-6.3-3.5-6.8-7.6c-0.8,5.4,1.5,11.8,6.8,11.8c14.3,0,28.6,0,43,0
				c5.3,0.1,7.5-6.3,6.8-11.8C1403.1,530.8,1400.9,534.4,1396.9,534.3z"/>
		</g>
	</g>
	<g>
		<path class="st7" d="M1362.6,522.9c0.6-0.1,1.3-0.2,2.4-0.2s1.9,0.2,2.4,0.6c0.5,0.4,0.9,1.1,0.9,1.8c0,0.8-0.3,1.4-0.7,1.9
			c-0.6,0.6-1.5,0.8-2.6,0.8c-0.2,0-0.5,0-0.6,0v2.9h-1.8L1362.6,522.9L1362.6,522.9z M1364.4,526.5c0.2,0,0.3,0,0.6,0
			c1,0,1.6-0.5,1.6-1.3c0-0.7-0.5-1.2-1.4-1.2c-0.4,0-0.6,0-0.7,0.1L1364.4,526.5L1364.4,526.5z"/>
		<path class="st7" d="M1369.4,522.8h1.8v6.5h3.2v1.5h-5V522.8z"/>
		<path class="st7" d="M1377.4,528.7l-0.6,2.1h-1.9l2.4-8h2.4l2.5,8h-1.9l-0.6-2.1H1377.4z M1379.5,527.4l-0.5-1.7
			c-0.1-0.5-0.3-1.1-0.4-1.5l0,0c-0.1,0.5-0.2,1.1-0.4,1.5l-0.5,1.7H1379.5z"/>
		<path class="st7" d="M1384.1,530.8v-3.3l-2.5-4.7h2.1l0.8,1.9c0.2,0.6,0.4,1,0.6,1.5l0,0c0.2-0.5,0.4-1,0.6-1.5l0.8-1.9h2
			l-2.6,4.7v3.3H1384.1z"/>
	</g>
	<circle class="st32" cx="1373.3" cy="444.6" r="24.1"/>
	<polygon class="st33" points="1369.4,433.4 1369.4,455.9 1384.1,444.6 	"/>
	<g>
		<rect x="1319.5" y="386.7" class="st7" width="111.3" height="125.4"/>
		<circle class="st34" cx="1375.5" cy="441.1" r="31.3"/>
		<polygon class="st33" points="1370.5,426.5 1370.5,455.7 1389.6,441.1 		"/>
		<polygon class="st33" points="1324.7,501.4 1324.7,509 1329.7,505.2 		"/>
		<rect x="1334.2" y="502" class="st35" width="89.8" height="6.4"/>
		<rect x="1335.1" y="502.9" class="st33" width="51.8" height="4.6"/>
	</g>
	<g>
		<path class="st36" d="M639.8,769.9c0,9.9-8.1,17.9-17.9,17.9H363.1c-9.9,0-17.9-8.1-17.9-17.9V575.6c0-9.9,8.1-17.9,17.9-17.9
			h258.8c9.9,0,17.9,8.1,17.9,17.9L639.8,769.9L639.8,769.9z"/>
		<rect x="369.2" y="580.7" class="st7" width="246.6" height="182.4"/>
	</g>
	<g>
		<g>
			<rect x="485.2" y="616.7" class="st37" width="110" height="103.2"/>
			<g>
				<g>
					<circle class="st7" cx="538.2" cy="668.3" r="20.3"/>
					<path class="st33" d="M538.2,691c-12.5,0-22.7-10.2-22.7-22.7s10.2-22.7,22.7-22.7s22.7,10.2,22.7,22.7S550.7,691,538.2,691z
						 M538.2,650.4c-9.9,0-17.9,8-17.9,17.9s8,17.9,17.9,17.9s17.9-8,17.9-17.9C556,658.4,548,650.4,538.2,650.4z"/>
				</g>
				<polygon class="st33" points="534.9,658.8 534.9,677.7 547.3,668.3 				"/>
			</g>
		</g>
		<polygon class="st33" points="384.6,731.4 384.6,745.7 393.9,738.6 		"/>
		<rect x="399.5" y="730.8" class="st38" width="181.6" height="15"/>
		<polygon class="st33" points="593.1,744.5 584.3,739.5 584.3,737.6 593.1,732.1 		"/>
		<rect x="594.6" y="736.8" class="st33" width="1.5" height="3.6"/>
		<rect x="596.8" y="734.3" class="st33" width="1.5" height="8.4"/>
		<rect x="599.1" y="733.2" class="st33" width="1.5" height="10.6"/>
		<rect x="401.6" y="732.9" class="st33" width="120.3" height="10.6"/>
	</g>
	<g>
		<rect x="388.3" y="620.2" class="st39" width="89.6" height="13.3"/>
		<rect x="388.3" y="637.4" class="st31" width="89.6" height="6.7"/>
		<rect x="388.3" y="647.8" class="st31" width="89.6" height="6.7"/>
		<rect x="388.3" y="658.2" class="st31" width="89.6" height="6.7"/>
		<rect x="388.3" y="668.6" class="st31" width="89.6" height="6.7"/>
		<rect x="388.3" y="682.5" class="st40" width="89.6" height="32.1"/>
	</g>
	<path class="st41" d="M605.9,682.5c0,0-5.8,3.4-5,6.5c0,0,2.2,4.7,5.3,4.8l6.5-6.9C612.6,686.8,607.7,681.2,605.9,682.5z"/>
	<g>
		<path class="st42" d="M428.9,592.8h3.3l1.2,6.3l1.7-6.3h3.3l1.7,6.3l1.2-6.3h3.3l-2.5,11.2h-3.4l-2-7.1l-2,7.1h-3.4L428.9,592.8z"
			/>
		<path class="st42" d="M452.6,602.2h-3.9l-0.5,1.9h-3.5l4.2-11.2h3.8l4.2,11.2h-3.6L452.6,602.2z M451.9,599.7l-1.2-4l-1.2,4H451.9
			z"/>
		<path class="st42" d="M456,592.8h10.6v2.8h-3.5v8.5h-3.5v-8.5H456V592.8z"/>
		<path class="st42" d="M475.1,599.4l3,0.9c-0.2,0.9-0.5,1.6-1,2.1c-0.4,0.6-1,1-1.6,1.3c-0.7,0.3-1.5,0.4-2.5,0.4
			c-1.2,0-2.2-0.2-3-0.5c-0.8-0.4-1.4-1-2-1.9s-0.8-2-0.8-3.4c0-1.9,0.5-3.3,1.5-4.3s2.4-1.5,4.2-1.5c1.4,0,2.5,0.3,3.3,0.9
			c0.8,0.6,1.4,1.5,1.8,2.6l-3.1,0.7c-0.1-0.3-0.2-0.6-0.3-0.8c-0.2-0.3-0.4-0.5-0.7-0.6c-0.3-0.1-0.6-0.2-0.9-0.2
			c-0.8,0-1.4,0.3-1.8,0.9c-0.3,0.5-0.5,1.2-0.5,2.2c0,1.2,0.2,2.1,0.6,2.6s0.9,0.7,1.6,0.7s1.2-0.2,1.5-0.6
			C474.7,600.7,475,600.1,475.1,599.4z"/>
		<path class="st42" d="M479.9,592.8h3.5v3.9h3.8v-3.9h3.5V604h-3.5v-4.5h-3.8v4.5h-3.5V592.8z"/>
		<path class="st42" d="M497.7,598.4c0-1.8,0.5-3.3,1.5-4.3s2.4-1.5,4.3-1.5s3.3,0.5,4.3,1.5s1.5,2.4,1.5,4.2c0,1.3-0.2,2.4-0.7,3.2
			c-0.4,0.8-1.1,1.5-1.9,2s-1.9,0.7-3.1,0.7c-1.3,0-2.3-0.2-3.1-0.6c-0.8-0.4-1.5-1-2-1.9C498,600.8,497.7,599.7,497.7,598.4z
			 M501.2,598.4c0,1.1,0.2,1.9,0.6,2.4s1,0.7,1.7,0.7s1.3-0.2,1.7-0.7c0.4-0.5,0.6-1.4,0.6-2.6c0-1.1-0.2-1.8-0.6-2.3
			s-1-0.7-1.7-0.7s-1.3,0.2-1.7,0.7C501.4,596.5,501.2,597.3,501.2,598.4z"/>
		<path class="st42" d="M511.3,592.8h3.2l4.2,6.2v-6.2h3.3V604h-3.3l-4.2-6.2v6.2h-3.3L511.3,592.8L511.3,592.8z"/>
		<path class="st42" d="M524.3,592.8h3.5v8.5h5.4v2.8h-8.9V592.8z"/>
		<path class="st42" d="M534.9,592.8h3.5V604h-3.5V592.8z"/>
		<path class="st42" d="M540.9,592.8h3.2l4.2,6.2v-6.2h3.3V604h-3.3l-4.2-6.2v6.2h-3.3L540.9,592.8L540.9,592.8z"/>
		<path class="st42" d="M553.9,592.8h9.3v2.4h-5.8v1.8h5.4v2.3h-5.4v2.2h6v2.5h-9.5V592.8z"/>
	</g>
	<g>
		<g>
			<rect x="1029.7" y="551.8" class="st37" width="178.9" height="167.9"/>
			<g>
				<g>
					<circle class="st7" cx="1115.9" cy="635.8" r="33"/>
					<path class="st33" d="M1115.9,672.7c-20.4,0-36.9-16.6-36.9-36.9c0-20.4,16.6-36.9,36.9-36.9c20.4,0,36.9,16.6,36.9,36.9
						C1152.8,656.2,1136.2,672.7,1115.9,672.7z M1115.9,606.7c-16,0-29.1,13-29.1,29.1c0,16,13,29.1,29.1,29.1s29.1-13,29.1-29.1
						C1144.9,619.8,1131.9,606.7,1115.9,606.7z"/>
				</g>
				<polygon class="st33" points="1110.6,620.4 1110.6,651.2 1130.7,635.8 				"/>
			</g>
		</g>
		<polygon class="st33" points="866,738.5 866,761.7 881.2,750.1 		"/>
		<rect x="890.3" y="737.5" class="st38" width="295.4" height="24.3"/>
		<polygon class="st33" points="1205.2,759.8 1190.9,751.6 1190.9,748.4 1205.2,739.6 		"/>
		<rect x="1207.6" y="747.2" class="st33" width="2.4" height="5.9"/>
		<rect x="1211.3" y="743.2" class="st33" width="2.4" height="13.6"/>
		<rect x="1214.9" y="741.4" class="st33" width="2.4" height="17.2"/>
		<rect x="893.8" y="740.8" class="st33" width="195.7" height="17.2"/>
	</g>
	<g>
		<rect x="872.1" y="557.6" class="st39" width="145.7" height="21.7"/>
		<rect x="872.1" y="585.6" class="st31" width="145.7" height="10.8"/>
		<rect x="872.1" y="602.5" class="st31" width="145.7" height="10.8"/>
		<rect x="872.1" y="619.4" class="st31" width="145.7" height="10.8"/>
		<rect x="872.1" y="636.3" class="st31" width="145.7" height="10.8"/>
		<rect x="872.1" y="658.9" class="st40" width="145.7" height="52.1"/>
	</g>
	<g>
		<g>
			<g>
				<g>
					<g>
						<g>
							<path class="st43" d="M739.5,736.1c0.8,4.3-2.1,8.5-6.5,9.3l-21,3.7c-4.4,0.8-8.5-2.1-9.3-6.5l-9.5-53.8
								c-0.8-4.4,2.1-8.5,6.5-9.3l21-3.7c4.4-0.8,8.5,2.1,9.3,6.5L739.5,736.1z"/>
							<g>
								<path class="st44" d="M850.5,638.4c-5.9-5.9-15.4-5.9-21.3,0c-5.9,5.9-5.9,15.4,0,21.3l0,0l0,0c5.9,5.9,15.5,5.9,21.3,0
									C856.4,653.8,856.4,644.3,850.5,638.4L850.5,638.4L850.5,638.4z"/>
							</g>
							<path class="st7" d="M743.4,606.3V669h83.7v-96.9c-14.6,16.8-33.9,28.8-55.8,33.2C761.8,607.1,752.4,607.4,743.4,606.3z"/>
							<path class="st44" d="M745.3,606h-46c-17.7,0-32,14.3-32,32v22c0,17.7,14.3,32,32,32h46V606z"/>
							<path class="st45" d="M831.3,731c-4,0-7.2-3.7-7.2-8.3V575.4c0-4.6,3.2-8.3,7.2-8.3h7.2c4,0,7.3,3.7,7.3,8.3v147.3
								c0,4.6-3.2,8.3-7.3,8.3L831.3,731L831.3,731z"/>
							<path class="st46" d="M827.1,725.8v-77.2h-83.7v43c9-1.1,18.4-0.9,27.9,1C793.2,697,812.4,709.1,827.1,725.8z"/>
							<path class="st43" d="M745.3,648.6h-78v11.5c0,17.7,14.3,32,32,32h46V648.6z"/>
							<path class="st47" d="M845.8,722.7v-74.1h-21.7v74.1c0,4.6,3.2,8.3,7.2,8.3h7.2C842.6,731,845.8,727.3,845.8,722.7z"/>
							<path class="st44" d="M710,698.8c-0.5-2.8-3.2-4.6-6-4.1l0,0c-2.8,0.5-4.6,3.2-4.1,6l7.4,40c0.5,2.8,3.2,4.7,6,4.1l0,0
								c2.8-0.5,4.6-3.2,4.1-6L710,698.8z"/>
						</g>
						<g>
							<g>
								<path class="st21" d="M866.1,650.6c-0.3-0.3-0.5-0.7-0.5-1.2c0-0.9,0.8-1.7,1.7-1.7h62.1c0.9,0,1.7,0.8,1.7,1.7
									s-0.8,1.7-1.7,1.7h-62.1C866.8,651.1,866.4,650.9,866.1,650.6L866.1,650.6z"/>
							</g>
							<g>
								<g>
									<path class="st21" d="M864.9,637.2c-0.1-0.1-0.2-0.3-0.3-0.5c-0.4-0.8-0.1-1.8,0.8-2.3l55.8-27.4c0.8-0.4,1.8-0.1,2.3,0.8
										c0.4,0.8,0.1,1.8-0.8,2.3L867,637.5C866.2,637.9,865.4,637.7,864.9,637.2L864.9,637.2z"/>
								</g>
								<g>
									<path class="st21" d="M864.9,664c-0.5-0.5-0.6-1.3-0.3-1.9c0.4-0.8,1.4-1.2,2.3-0.8l55.8,27.4c0.9,0.4,1.2,1.4,0.8,2.3
										c-0.4,0.8-1.4,1.2-2.3,0.8l-55.8-27.4C865.2,664.2,865,664.1,864.9,664L864.9,664z"/>
								</g>
							</g>
						</g>
					</g>
				</g>
			</g>
		</g>
	</g>
	<g>
		<path class="st5" d="M1236.6,738.6c-0.6,0.5-1.7,1.4-2.3,1.9l-3.7,3c-0.6,0.5-1.6,0.4-2.1-0.2l-21.3-26.6
			c-0.5-0.6-1.3-0.6-1.7,0.1l-12.7,20.1c-0.4,0.7-1,0.6-1.2-0.2l-19.7-76.3c-0.2-0.8,0.2-1.1,1-0.8l69.8,36.5
			c0.7,0.4,0.7,0.9-0.1,1.2l-23.7,9.1c-0.8,0.3-1,1-0.4,1.7l22.2,25.6c0.5,0.6,0.5,1.6-0.2,2.1L1236.6,738.6z"/>
	</g>
</g>
</svg>
