<?xml version="1.0" encoding="utf-8"?>
<!-- Generator: Adobe Illustrator 19.2.0, SVG Export Plug-In . SVG Version: 6.00 Build 0)  -->
<svg version="1.1" id="Camada_1" xmlns="http://www.w3.org/2000/svg" xmlns:xlink="http://www.w3.org/1999/xlink" x="0px" y="0px"
	 width="1920px" height="900px" viewBox="0 0 1920 900" style="enable-background:new 0 0 1920 900;" xml:space="preserve">
<style type="text/css">
	.st0{fill:#A8C89F;}
	.st1{fill:#CCCCCC;}
	.st2{fill:#545454;}
	.st3{fill:#333333;}
	.st4{fill:#FFFFFF;}
	.st5{fill:#B3B3B3;}
	.st6{fill:#66B0C4;}
	.st7{fill:#C7E0E8;}
	.st8{fill:#2D556D;}
	.st9{fill:#F2F2F2;}
	.st10{fill:#E6E6E6;}
</style>
<g id="Camada_1_1_">
	<rect class="st0" width="1922.3" height="900.1"/>
</g>
<g id="Camada_2">
	<g>
		<g>
			<g>
				<path class="st1" d="M434.5,776c0.3,2.9,2.7,5.3,5.6,5.3h115.2c3,0,5.3-2.3,5.7-5.3H434.5z"/>
				<g>
					<path class="st2" d="M333,775h329.7h8.6V565.5c0-4.7-3.8-8.6-8.6-8.6H333c-4.8,0-8.6,3.9-8.6,8.6V775H333z"/>
					<path class="st3" d="M671.2,775.7H324.3c-0.4,0-0.7-0.3-0.7-0.7V565.5c0-5.2,4.2-9.4,9.4-9.4h329.7c5.2,0,9.4,4.2,9.4,9.4V775
						C672,775.4,671.6,775.7,671.2,775.7z M325.1,774.2h345.4V565.5c0-4.3-3.5-7.9-7.9-7.9H333c-4.3,0-7.9,3.5-7.9,7.9V774.2z"/>
				</g>
				<g>
					<rect x="345.8" y="577.6" class="st4" width="303.9" height="176.1"/>
					<path class="st5" d="M649.8,754.5h-304c-0.4,0-0.7-0.3-0.7-0.7V577.6c0-0.4,0.3-0.7,0.7-0.7h303.9c0.4,0,0.7,0.3,0.7,0.7v176.1
						C650.5,754.1,650.2,754.5,649.8,754.5z M346.6,753H649V578.3H346.6V753z"/>
				</g>
				<g>
					<path class="st4" d="M703.2,776H561c-0.3,2.9-2.7,5.3-5.7,5.3H440.2c-3,0-5.3-2.3-5.6-5.3H292.3c-0.1,0.7-0.2,1.4-0.2,2.1v6.3
						c0,10.3,8.4,10.9,18.7,10.9h373.9c10.3,0,18.7-0.6,18.7-10.9v-6.3C703.5,777.3,703.3,776.7,703.2,776z"/>
					<path class="st5" d="M684.7,796H310.9c-9.1,0-19.5,0-19.5-11.7v-6.2c0-0.5,0.1-0.9,0.1-1.3c0-0.3,0.1-0.5,0.1-0.8
						c0-0.4,0.4-0.7,0.7-0.7h142.2c0.4,0,0.7,0.3,0.7,0.7c0.3,2.6,2.4,4.6,4.9,4.6h115.2c2.5,0,4.6-2,4.9-4.6c0-0.4,0.4-0.7,0.7-0.7
						h142.2c0.4,0,0.7,0.3,0.7,0.7c0,0.3,0.1,0.5,0.1,0.7c0.1,0.5,0.1,0.9,0.1,1.4v6.3C704.2,796,693.4,796,684.7,796z M293,776.7
						c0,0.1,0,0.1,0,0.2c-0.1,0.4-0.1,0.7-0.1,1.1v6.3c0,9.5,7.5,10.2,18,10.2h373.9c10.5,0,18-0.7,18-10.2v-6.2
						c0-0.4-0.1-0.8-0.1-1.2v-0.1h-141c-0.6,3-3.2,5.3-6.3,5.3H440.2c-3.1,0-5.7-2.2-6.3-5.3H293V776.7z"/>
				</g>
			</g>
			<g>
				<rect x="345.5" y="577.7" class="st1" width="304.5" height="16.4"/>
				<rect x="406.6" y="581.2" class="st4" width="208.4" height="9.4"/>
				<ellipse class="st5" cx="353.3" cy="585.9" rx="3.6" ry="3.6"/>
				<ellipse class="st5" cx="364.6" cy="585.9" rx="3.6" ry="3.6"/>
				<ellipse class="st5" cx="375.8" cy="585.9" rx="3.6" ry="3.6"/>
				<g>
					<rect x="345.5" y="607.2" class="st4" width="304.7" height="145.2"/>
					<rect x="351.9" y="613.9" class="st6" width="291.9" height="57.4"/>
					<g>
						<rect x="351.9" y="684.3" class="st7" width="93.5" height="41.4"/>
						<path class="st6" d="M445.4,726.6h-93.5c-0.5,0-0.8-0.4-0.8-0.8v-41.4c0-0.5,0.4-0.8,0.8-0.8h93.5c0.5,0,0.8,0.4,0.8,0.8v41.4
							C446.3,726.2,445.9,726.6,445.4,726.6z M352.8,724.9h91.8v-39.8h-91.8V724.9z"/>
					</g>
					<g>
						<rect x="450.8" y="684.3" class="st7" width="93.5" height="41.4"/>
						<path class="st6" d="M544.3,726.6h-93.5c-0.5,0-0.8-0.4-0.8-0.8v-41.4c0-0.5,0.4-0.8,0.8-0.8h93.5c0.5,0,0.8,0.4,0.8,0.8v41.4
							C545.1,726.2,544.8,726.6,544.3,726.6z M451.7,724.9h91.8v-39.8h-91.8V724.9z"/>
					</g>
					<g>
						<rect x="549.7" y="684.3" class="st7" width="93.5" height="41.4"/>
						<path class="st6" d="M643.1,726.6h-93.5c-0.5,0-0.8-0.4-0.8-0.8v-41.4c0-0.5,0.4-0.8,0.8-0.8h93.5c0.5,0,0.8,0.4,0.8,0.8v41.4
							C644,726.2,643.6,726.6,643.1,726.6z M550.5,724.9h91.8v-39.8h-91.8V724.9z"/>
					</g>
					<rect x="345.5" y="593.8" class="st8" width="304.7" height="13.2"/>
					<g>
						<g>
							<rect x="351.9" y="736.2" class="st6" width="53.8" height="3.4"/>
						</g>
						<g>
							<rect x="351.9" y="745.5" class="st6" width="78.2" height="1.7"/>
						</g>
					</g>
					<g>
						<g>
							<rect x="450.8" y="736.2" class="st6" width="53.8" height="3.4"/>
						</g>
						<g>
							<rect x="450.8" y="745.5" class="st6" width="78.2" height="1.7"/>
						</g>
					</g>
					<g>
						<g>
							<rect x="549.7" y="736.2" class="st6" width="53.8" height="3.4"/>
						</g>
						<g>
							<rect x="549.7" y="745.5" class="st6" width="78.2" height="1.7"/>
						</g>
					</g>
					<g>
						<rect x="354.7" y="598.6" class="st7" width="53.8" height="3.4"/>
					</g>
					<g>
						<rect x="620.4" y="599.5" class="st7" width="20.7" height="1.7"/>
					</g>
					<g>
						<rect x="592.5" y="599.5" class="st7" width="20.7" height="1.7"/>
					</g>
					<g>
						<rect x="564.7" y="599.5" class="st7" width="20.7" height="1.7"/>
					</g>
					<g>
						<rect x="536.9" y="599.5" class="st7" width="20.7" height="1.7"/>
					</g>
					<g>
						<rect x="509.1" y="599.5" class="st7" width="20.7" height="1.7"/>
					</g>
					<g>
						<rect x="481.3" y="599.5" class="st7" width="20.7" height="1.7"/>
					</g>
				</g>
			</g>
		</g>
		<g>
			<g>
				<path class="st1" d="M1596.2,797.2c0.3,2.9,2.7,5.3,5.6,5.3H1717c3,0,5.3-2.3,5.7-5.3H1596.2z"/>
				<g>
					<path class="st2" d="M1494.6,796.2h329.7h8.6V586.7c0-4.7-3.8-8.6-8.6-8.6h-329.7c-4.8,0-8.6,3.9-8.6,8.6v209.5H1494.6z"/>
					<path class="st3" d="M1832.9,797H1486c-0.4,0-0.7-0.3-0.7-0.7V586.7c0-5.2,4.2-9.4,9.4-9.4h329.7c5.2,0,9.4,4.2,9.4,9.4v209.5
						C1833.6,796.6,1833.3,797,1832.9,797z M1486.7,795.5h345.4V586.7c0-4.3-3.5-7.9-7.9-7.9h-329.7c-4.3,0-7.9,3.5-7.9,7.9
						L1486.7,795.5L1486.7,795.5z"/>
				</g>
				<g>
					<rect x="1507.5" y="598.8" class="st4" width="303.9" height="176.1"/>
					<path class="st5" d="M1811.4,775.7h-303.9c-0.4,0-0.7-0.3-0.7-0.7V598.8c0-0.4,0.3-0.7,0.7-0.7h303.9c0.4,0,0.7,0.3,0.7,0.7
						v176.1C1812.2,775.4,1811.8,775.7,1811.4,775.7z M1508.2,774.2h302.4V599.6h-302.4V774.2z"/>
				</g>
				<g>
					<path class="st4" d="M1864.9,797.2h-142.2c-0.3,2.9-2.7,5.3-5.7,5.3h-115.2c-3,0-5.3-2.3-5.6-5.3H1454
						c-0.1,0.7-0.2,1.4-0.2,2.1v6.3c0,10.3,8.4,10.9,18.7,10.9h373.9c10.3,0,18.7-0.6,18.7-10.9v-6.3
						C1865.1,798.6,1865,797.9,1864.9,797.2z"/>
					<path class="st5" d="M1846.4,817.3h-373.9c-9.1,0-19.5,0-19.5-11.7v-6.3c0-0.5,0.1-0.9,0.1-1.3c0-0.3,0.1-0.5,0.1-0.8
						c0-0.4,0.4-0.7,0.7-0.7h142.2c0.4,0,0.7,0.3,0.7,0.7c0.3,2.6,2.4,4.6,4.9,4.6H1717c2.5,0,4.6-2,4.9-4.6c0-0.4,0.4-0.7,0.7-0.7
						h142.2c0.4,0,0.7,0.3,0.7,0.7c0,0.3,0.1,0.5,0.1,0.7c0.1,0.5,0.1,0.9,0.1,1.4v6.3C1865.9,817.3,1855.1,817.3,1846.4,817.3z
						 M1454.7,798c0,0.1,0,0.1,0,0.2c-0.1,0.4-0.1,0.7-0.1,1.1v6.3c0,9.5,7.5,10.2,18,10.2h373.9c10.5,0,18-0.7,18-10.2v-6.3
						c0-0.4-0.1-0.8-0.1-1.2V798h-140.9c-0.6,3-3.2,5.3-6.3,5.3H1602c-3.1,0-5.7-2.2-6.3-5.3H1454.7z"/>
				</g>
			</g>
			<g>
				<rect x="1507.2" y="598.9" class="st1" width="304.5" height="16.4"/>
				<rect x="1568.2" y="602.4" class="st4" width="208.4" height="9.4"/>
				<ellipse class="st5" cx="1514.9" cy="607.1" rx="3.6" ry="3.6"/>
				<ellipse class="st5" cx="1526.2" cy="607.1" rx="3.6" ry="3.6"/>
				<ellipse class="st5" cx="1537.5" cy="607.1" rx="3.6" ry="3.6"/>
				<g>
					<rect x="1507.2" y="628.4" class="st4" width="304.7" height="145.2"/>
					<rect x="1513.6" y="635.1" class="st6" width="291.9" height="57.4"/>
					<g>
						<rect x="1513.6" y="705.5" class="st7" width="93.5" height="41.4"/>
						<path class="st6" d="M1607.1,747.8h-93.5c-0.5,0-0.8-0.4-0.8-0.8v-41.4c0-0.5,0.4-0.8,0.8-0.8h93.5c0.5,0,0.8,0.4,0.8,0.8V747
							C1607.9,747.4,1607.5,747.8,1607.1,747.8z M1514.5,746.1h91.8v-39.7h-91.8V746.1z"/>
					</g>
					<g>
						<rect x="1612.5" y="705.5" class="st7" width="93.5" height="41.4"/>
						<path class="st6" d="M1706,747.8h-93.5c-0.5,0-0.8-0.4-0.8-0.8v-41.4c0-0.5,0.4-0.8,0.8-0.8h93.5c0.5,0,0.8,0.4,0.8,0.8V747
							C1706.8,747.4,1706.4,747.8,1706,747.8z M1613.3,746.1h91.8v-39.7h-91.8V746.1z"/>
					</g>
					<g>
						<rect x="1711.3" y="705.5" class="st7" width="93.5" height="41.4"/>
						<path class="st6" d="M1804.8,747.8h-93.5c-0.5,0-0.8-0.4-0.8-0.8v-41.4c0-0.5,0.4-0.8,0.8-0.8h93.5c0.5,0,0.8,0.4,0.8,0.8V747
							C1805.6,747.4,1805.3,747.8,1804.8,747.8z M1712.2,746.1h91.8v-39.7h-91.8V746.1z"/>
					</g>
					<rect x="1507.2" y="615" class="st8" width="304.7" height="13.2"/>
					<g>
						<g>
							<rect x="1513.6" y="757.4" class="st6" width="53.8" height="3.4"/>
						</g>
						<g>
							<rect x="1513.6" y="766.7" class="st6" width="78.2" height="1.7"/>
						</g>
					</g>
					<g>
						<g>
							<rect x="1612.5" y="757.4" class="st6" width="53.8" height="3.4"/>
						</g>
						<g>
							<rect x="1612.5" y="766.7" class="st6" width="78.2" height="1.7"/>
						</g>
					</g>
					<g>
						<g>
							<rect x="1711.3" y="757.4" class="st6" width="53.8" height="3.4"/>
						</g>
						<g>
							<rect x="1711.3" y="766.7" class="st6" width="78.2" height="1.7"/>
						</g>
					</g>
					<g>
						<rect x="1516.4" y="619.9" class="st7" width="53.8" height="3.4"/>
					</g>
					<g>
						<rect x="1782" y="620.7" class="st7" width="20.7" height="1.7"/>
					</g>
					<g>
						<rect x="1754.2" y="620.7" class="st7" width="20.7" height="1.7"/>
					</g>
					<g>
						<rect x="1726.4" y="620.7" class="st7" width="20.7" height="1.7"/>
					</g>
					<g>
						<rect x="1698.6" y="620.7" class="st7" width="20.7" height="1.7"/>
					</g>
					<g>
						<rect x="1670.8" y="620.7" class="st7" width="20.7" height="1.7"/>
					</g>
					<g>
						<rect x="1642.9" y="620.7" class="st7" width="20.7" height="1.7"/>
					</g>
				</g>
			</g>
		</g>
		<g>
			<g>
				<g>
					<g>
						<g>
							<g>
								<path class="st2" d="M71.2,568.3v157.5c0,6.3,5.1,11.5,11.5,11.5H290c6.3,0,11.5-5.1,11.5-11.5V568.3
									c0-6.3-5.1-11.5-11.5-11.5H82.7C76.3,556.8,71.2,562,71.2,568.3z"/>
								<path class="st3" d="M290,738H82.7c-6.7,0-12.2-5.5-12.2-12.2V568.3c0-6.7,5.5-12.2,12.2-12.2H290c6.7,0,12.2,5.5,12.2,12.2
									v157.5C302.3,732.6,296.8,738,290,738z M82.7,557.6c-5.9,0-10.7,4.8-10.7,10.7v157.5c0,5.9,4.8,10.7,10.7,10.7H290
									c5.9,0,10.7-4.8,10.7-10.7V568.3c0-5.9-4.8-10.7-10.7-10.7H82.7z"/>
							</g>
							<g>
								<path class="st9" d="M295.6,647.1c0,2.5-2.1,4.6-4.6,4.6c-2.6,0-4.6-2.1-4.6-4.6c0-2.6,2.1-4.6,4.6-4.6
									C293.6,642.4,295.6,644.5,295.6,647.1z"/>
								<path class="st5" d="M291,652.4c-3,0-5.4-2.4-5.4-5.4s2.4-5.4,5.4-5.4s5.4,2.4,5.4,5.4C296.4,650,294,652.4,291,652.4z
									 M291,643.2c-2.1,0-3.9,1.7-3.9,3.9c0,2.1,1.7,3.9,3.9,3.9s3.9-1.7,3.9-3.9S293.2,643.2,291,643.2z"/>
							</g>
							<g>
								<rect x="93.4" y="577.3" class="st4" width="185.8" height="139.5"/>
								<path class="st5" d="M279.2,717.6H93.4c-0.4,0-0.7-0.3-0.7-0.7V577.3c0-0.4,0.3-0.7,0.7-0.7h185.8c0.4,0,0.7,0.3,0.7,0.7
									v139.5C280,717.2,279.7,717.6,279.2,717.6z M94.2,716.1h184.3v-138H94.2V716.1z"/>
							</g>
						</g>
					</g>
				</g>
			</g>
			<g>
				<rect x="94.2" y="578.3" class="st1" width="184.2" height="16.4"/>
				<rect x="100.6" y="581.8" class="st4" width="164" height="9.4"/>
				<rect x="100.6" y="614.5" class="st6" width="171.6" height="41.9"/>
				<g>
					<rect x="100.6" y="663.8" class="st7" width="83.3" height="27.9"/>
					<path class="st6" d="M183.9,692.4h-83.3c-0.4,0-0.7-0.3-0.7-0.7v-27.9c0-0.4,0.3-0.7,0.7-0.7h83.3c0.4,0,0.7,0.3,0.7,0.7v27.9
						C184.6,692.1,184.3,692.4,183.9,692.4z M101.3,691h82v-26.6h-82V691z"/>
				</g>
				<g>
					<rect x="188.8" y="663.8" class="st7" width="83.3" height="27.9"/>
					<path class="st6" d="M272.1,692.4h-83.3c-0.4,0-0.7-0.3-0.7-0.7v-27.9c0-0.4,0.3-0.7,0.7-0.7h83.3c0.4,0,0.7,0.3,0.7,0.7v27.9
						C272.8,692.1,272.5,692.4,272.1,692.4z M189.4,691h82v-26.6h-82V691z"/>
				</g>
				<rect x="94.2" y="594.4" class="st8" width="184.3" height="13.2"/>
				<g>
					<g>
						<rect x="100.6" y="699.3" class="st6" width="48" height="3"/>
					</g>
					<g>
						<rect x="100.6" y="707.5" class="st6" width="69.7" height="1.5"/>
					</g>
				</g>
				<g>
					<g>
						<rect x="188.8" y="699.3" class="st6" width="48" height="3"/>
					</g>
					<g>
						<rect x="188.8" y="707.5" class="st6" width="69.7" height="1.5"/>
					</g>
				</g>
				<g>
					<rect x="103.4" y="599.6" class="st7" width="32.2" height="2.6"/>
				</g>
				<g>
					<rect x="262.4" y="600.3" class="st7" width="12.4" height="1.3"/>
				</g>
				<g>
					<rect x="245.8" y="600.3" class="st7" width="12.4" height="1.3"/>
				</g>
				<g>
					<rect x="229.1" y="600.3" class="st7" width="12.4" height="1.3"/>
				</g>
				<g>
					<rect x="212.5" y="600.3" class="st7" width="12.4" height="1.3"/>
				</g>
				<g>
					<rect x="195.8" y="600.3" class="st7" width="12.4" height="1.3"/>
				</g>
				<g>
					<rect x="179.2" y="600.3" class="st7" width="12.4" height="1.3"/>
				</g>
			</g>
		</g>
		<g>
			<g>
				<g>
					<g>
						<g>
							<g>
								<path class="st2" d="M1387.1,393v157.5c0,6.3,5.2,11.5,11.5,11.5H1606c6.3,0,11.5-5.1,11.5-11.5V393
									c0-6.3-5.1-11.5-11.5-11.5h-207.4C1392.3,381.5,1387.1,386.7,1387.1,393z"/>
								<path class="st3" d="M1606,562.8h-207.4c-6.8,0-12.2-5.5-12.2-12.2V393c0-6.7,5.5-12.2,12.2-12.2H1606
									c6.7,0,12.2,5.5,12.2,12.2v157.5C1618.2,557.3,1612.7,562.8,1606,562.8z M1398.6,382.3c-5.9,0-10.7,4.8-10.7,10.7v157.5
									c0,5.9,4.8,10.7,10.7,10.7H1606c5.9,0,10.7-4.8,10.7-10.7V393c0-5.9-4.8-10.7-10.7-10.7H1398.6z"/>
							</g>
							<g>
								<path class="st9" d="M1611.6,471.8c0,2.5-2.1,4.6-4.6,4.6c-2.6,0-4.6-2.1-4.6-4.6c0-2.6,2-4.6,4.6-4.6
									C1609.6,467.2,1611.6,469.2,1611.6,471.8z"/>
								<path class="st5" d="M1607,477.1c-3,0-5.4-2.4-5.4-5.4s2.4-5.4,5.4-5.4s5.4,2.4,5.4,5.4S1610,477.1,1607,477.1z M1607,467.9
									c-2.1,0-3.9,1.7-3.9,3.9c0,2.1,1.7,3.9,3.9,3.9s3.9-1.7,3.9-3.9S1609.1,467.9,1607,467.9z"/>
							</g>
							<g>
								<rect x="1409.4" y="402" class="st4" width="185.8" height="139.5"/>
								<path class="st5" d="M1595.2,542.3h-185.8c-0.4,0-0.7-0.3-0.7-0.7V402c0-0.4,0.3-0.7,0.7-0.7h185.8c0.4,0,0.7,0.3,0.7,0.7
									v139.5C1596,542,1595.6,542.3,1595.2,542.3z M1410.2,540.8h184.3v-138h-184.3V540.8z"/>
							</g>
						</g>
					</g>
				</g>
			</g>
			<g>
				<rect x="1410.2" y="403" class="st1" width="184.2" height="16.4"/>
				<rect x="1416.6" y="406.5" class="st4" width="164" height="9.4"/>
				<rect x="1416.6" y="439.2" class="st6" width="171.6" height="41.9"/>
				<g>
					<rect x="1416.6" y="488.6" class="st7" width="83.3" height="27.9"/>
					<path class="st6" d="M1499.9,517.1h-83.3c-0.4,0-0.7-0.3-0.7-0.7v-27.9c0-0.4,0.3-0.7,0.7-0.7h83.3c0.4,0,0.7,0.3,0.7,0.7v27.9
						C1500.6,516.8,1500.3,517.1,1499.9,517.1z M1417.2,515.8h82v-26.6h-82V515.8z"/>
				</g>
				<g>
					<rect x="1504.7" y="488.6" class="st7" width="83.3" height="27.9"/>
					<path class="st6" d="M1588.1,517.1h-83.3c-0.4,0-0.7-0.3-0.7-0.7v-27.9c0-0.4,0.3-0.7,0.7-0.7h83.3c0.4,0,0.7,0.3,0.7,0.7v27.9
						C1588.7,516.8,1588.4,517.1,1588.1,517.1z M1505.4,515.8h82v-26.6h-82V515.8z"/>
				</g>
				<rect x="1410.2" y="419.1" class="st8" width="184.3" height="13.2"/>
				<g>
					<g>
						<rect x="1416.6" y="524" class="st6" width="48" height="3"/>
					</g>
					<g>
						<rect x="1416.6" y="532.3" class="st6" width="69.7" height="1.5"/>
					</g>
				</g>
				<g>
					<g>
						<rect x="1504.7" y="524" class="st6" width="48" height="3"/>
					</g>
					<g>
						<rect x="1504.7" y="532.3" class="st6" width="69.7" height="1.5"/>
					</g>
				</g>
				<g>
					<rect x="1419.4" y="424.3" class="st7" width="32.2" height="2.6"/>
				</g>
				<g>
					<rect x="1578.4" y="425" class="st7" width="12.4" height="1.3"/>
				</g>
				<g>
					<rect x="1561.7" y="425" class="st7" width="12.4" height="1.3"/>
				</g>
				<g>
					<rect x="1545.1" y="425" class="st7" width="12.4" height="1.3"/>
				</g>
				<g>
					<rect x="1528.4" y="425" class="st7" width="12.4" height="1.3"/>
				</g>
				<g>
					<rect x="1511.8" y="425" class="st7" width="12.4" height="1.3"/>
				</g>
				<g>
					<rect x="1495.1" y="425" class="st7" width="12.4" height="1.3"/>
				</g>
			</g>
		</g>
		<g>
			<g>
				<g>
					<g>
						<g>
							<g>
								<path class="st2" d="M861.2,388.7H703.7c-6.3,0-11.5,5.1-11.5,11.5v207.4c0,6.3,5.1,11.5,11.5,11.5h157.5
									c6.3,0,11.5-5.1,11.5-11.5V400.2C872.7,393.9,867.6,388.7,861.2,388.7z"/>
								<path class="st3" d="M861.2,619.8H703.7c-6.7,0-12.2-5.5-12.2-12.2V400.2c0-6.7,5.5-12.2,12.2-12.2h157.5
									c6.7,0,12.2,5.5,12.2,12.2v207.4C873.5,614.3,868,619.8,861.2,619.8z M703.7,389.5c-5.9,0-10.7,4.8-10.7,10.7v207.4
									c0,5.9,4.8,10.7,10.7,10.7h157.5c5.9,0,10.7-4.8,10.7-10.7V400.2c0-5.9-4.8-10.7-10.7-10.7L703.7,389.5L703.7,389.5z"/>
							</g>
							<g>
								<path class="st9" d="M782.5,613.2c-2.5,0-4.6-2.1-4.6-4.6c0-2.6,2.1-4.6,4.6-4.6c2.6,0,4.6,2,4.6,4.6
									C787.1,611.1,785,613.2,782.5,613.2z"/>
								<path class="st5" d="M782.5,613.9c-3,0-5.4-2.4-5.4-5.4s2.4-5.4,5.4-5.4s5.4,2.4,5.4,5.4
									C787.8,611.5,785.4,613.9,782.5,613.9z M782.5,604.7c-2.1,0-3.9,1.7-3.9,3.9s1.7,3.9,3.9,3.9c2.1,0,3.9-1.7,3.9-3.9
									S784.6,604.7,782.5,604.7z"/>
							</g>
							<g>
								<rect x="712.7" y="411" class="st4" width="139.5" height="185.8"/>
								<path class="st5" d="M852.2,597.5H712.7c-0.4,0-0.7-0.3-0.7-0.7V411c0-0.4,0.3-0.7,0.7-0.7h139.5c0.4,0,0.7,0.3,0.7,0.7
									v185.8C853,597.2,852.6,597.5,852.2,597.5z M713.5,596h138V411.7h-138V596z"/>
							</g>
						</g>
					</g>
				</g>
			</g>
			<g>
				<rect x="713.3" y="411.1" class="st1" width="138.4" height="16.4"/>
				<rect x="717.5" y="414.6" class="st4" width="111.9" height="9.4"/>
				<rect x="713.4" y="427.8" class="st8" width="138.2" height="27.9"/>
				<rect x="718.7" y="461.1" class="st6" width="127.7" height="44.8"/>
				<g>
					<rect x="755.1" y="434.4" class="st7" width="53.8" height="3.4"/>
				</g>
				<g>
					<g>
						<rect x="828.3" y="446.4" class="st7" width="16.2" height="1.5"/>
					</g>
					<g>
						<rect x="806.5" y="446.4" class="st7" width="16.2" height="1.5"/>
					</g>
					<g>
						<rect x="784.8" y="446.4" class="st7" width="16.2" height="1.5"/>
					</g>
					<g>
						<rect x="763" y="446.4" class="st7" width="16.2" height="1.5"/>
					</g>
					<g>
						<rect x="741.3" y="446.4" class="st7" width="16.2" height="1.5"/>
					</g>
					<g>
						<rect x="719.5" y="446.4" class="st7" width="16.2" height="1.5"/>
					</g>
				</g>
				<g>
					<rect x="719.2" y="511.9" class="st7" width="55.9" height="36.5"/>
					<path class="st6" d="M775.2,549h-55.9c-0.3,0-0.6-0.3-0.6-0.6v-36.5c0-0.3,0.3-0.6,0.6-0.6h55.9c0.3,0,0.6,0.3,0.6,0.6v36.5
						C775.8,548.7,775.5,549,775.2,549z M719.9,547.8h54.7v-35.2h-54.7V547.8z"/>
				</g>
				<g>
					<g>
						<rect x="782.4" y="512" class="st6" width="38.7" height="3.3"/>
					</g>
					<g>
						<rect x="782.4" y="524.1" class="st6" width="56.2" height="1.7"/>
					</g>
					<g>
						<rect x="782.4" y="546.5" class="st6" width="56.2" height="1.7"/>
					</g>
					<g>
						<rect x="782.4" y="535.3" class="st6" width="61.2" height="1.7"/>
					</g>
				</g>
				<g>
					<rect x="719.2" y="554" class="st7" width="55.9" height="36.5"/>
					<path class="st6" d="M775.2,591.1h-55.9c-0.3,0-0.6-0.3-0.6-0.6V554c0-0.3,0.3-0.6,0.6-0.6h55.9c0.3,0,0.6,0.3,0.6,0.6v36.5
						C775.8,590.8,775.5,591.1,775.2,591.1z M719.9,589.9h54.7v-35.2h-54.7V589.9z"/>
				</g>
				<g>
					<g>
						<rect x="782.4" y="554.1" class="st6" width="38.7" height="3.3"/>
					</g>
					<g>
						<rect x="782.4" y="566.2" class="st6" width="56.2" height="1.7"/>
					</g>
					<g>
						<rect x="782.4" y="588.6" class="st6" width="56.2" height="1.7"/>
					</g>
					<g>
						<rect x="782.4" y="577.4" class="st6" width="61.2" height="1.7"/>
					</g>
				</g>
			</g>
		</g>
		<g>
			<g>
				<g>
					<rect x="598.2" y="412.3" class="st4" width="66.2" height="94.7"/>
					<g>
						<path class="st3" d="M662.6,388.7H600c-4.9,0-8.8,4-8.8,8.8v131c0,4.9,4,8.8,8.8,8.8h62.6c4.9,0,8.8-4,8.8-8.8v-131
							C671.4,392.7,667.5,388.7,662.6,388.7z M664.4,507h-66.2v-94.7h66.2V507z"/>
						<path class="st2" d="M662.6,538.1H600c-5.3,0-9.6-4.3-9.6-9.6v-131c0-5.3,4.3-9.6,9.6-9.6h62.6c5.3,0,9.6,4.3,9.6,9.6v131
							C672.2,533.8,667.9,538.1,662.6,538.1z M600,389.5c-4.5,0-8.1,3.6-8.1,8.1v131c0,4.5,3.6,8.1,8.1,8.1h62.6
							c4.5,0,8.1-3.6,8.1-8.1v-131c0-4.5-3.6-8.1-8.1-8.1H600z M664.4,507.8h-66.2c-0.4,0-0.7-0.3-0.7-0.7v-94.7
							c0-0.4,0.3-0.7,0.7-0.7h66.2c0.4,0,0.7,0.3,0.7,0.7v94.7C665.2,507.4,664.8,507.8,664.4,507.8z M599,506.3h64.7v-93.2H599
							V506.3z"/>
					</g>
					<g>
						<path class="st9" d="M621.3,401.7h20.1H621.3z"/>
						<rect x="621.3" y="401" class="st5" width="20.1" height="1.5"/>
					</g>
				</g>
				<g>
					<circle class="st2" cx="631.3" cy="521.7" r="4.8"/>
					<path class="st2" d="M631.3,527.3c-3.1,0-5.6-2.5-5.6-5.6s2.5-5.6,5.6-5.6s5.6,2.5,5.6,5.6
						C636.9,524.8,634.4,527.3,631.3,527.3z M631.3,517.7c-2.2,0-4.1,1.8-4.1,4.1c0,2.2,1.8,4.1,4.1,4.1c2.2,0,4.1-1.8,4.1-4.1
						C635.4,519.5,633.6,517.7,631.3,517.7z"/>
				</g>
			</g>
			<g>
				<rect x="598.9" y="425.7" class="st6" width="64.8" height="23.3"/>
				<rect x="598.9" y="413" class="st8" width="64.8" height="12.7"/>
				<g>
					<rect x="606" y="417.6" class="st7" width="30.2" height="3.4"/>
				</g>
				<g>
					<rect x="603" y="453.2" class="st7" width="56.5" height="29.3"/>
					<path class="st6" d="M659.5,483.1H603c-0.3,0-0.6-0.2-0.6-0.6v-29.3c0-0.3,0.2-0.6,0.6-0.6h56.5c0.3,0,0.6,0.2,0.6,0.6v29.3
						C660.1,482.8,659.8,483.1,659.5,483.1z M603.5,482H659v-28.2h-55.4L603.5,482L603.5,482z"/>
				</g>
				<g>
					<g>
						<rect x="603" y="490.1" class="st6" width="39.1" height="3.3"/>
					</g>
					<g>
						<rect x="603" y="500.5" class="st6" width="56.8" height="1.7"/>
					</g>
				</g>
			</g>
		</g>
		<g>
			<g>
				<g>
					<rect x="1394.2" y="601.7" class="st4" width="66.2" height="94.7"/>
					<g>
						<path class="st3" d="M1458.5,578.1H1396c-4.9,0-8.8,4-8.8,8.8v131c0,4.9,4,8.8,8.8,8.8h62.6c4.9,0,8.8-4,8.8-8.8v-131
							C1467.4,582,1463.4,578.1,1458.5,578.1z M1460.4,696.4h-66.2v-94.7h66.2V696.4z"/>
						<path class="st2" d="M1458.5,727.5H1396c-5.3,0-9.6-4.3-9.6-9.6v-131c0-5.3,4.3-9.6,9.6-9.6h62.6c5.3,0,9.6,4.3,9.6,9.6v131
							C1468.1,723.2,1463.8,727.5,1458.5,727.5z M1396,578.8c-4.5,0-8.1,3.6-8.1,8.1v131c0,4.5,3.6,8.1,8.1,8.1h62.6
							c4.5,0,8.1-3.6,8.1-8.1v-131c0-4.5-3.6-8.1-8.1-8.1H1396z M1460.4,697.1h-66.2c-0.4,0-0.7-0.3-0.7-0.7v-94.7
							c0-0.4,0.3-0.7,0.7-0.7h66.2c0.4,0,0.7,0.3,0.7,0.7v94.7C1461.1,696.8,1460.8,697.1,1460.4,697.1z M1394.9,695.6h64.7v-93.2
							h-64.7V695.6z"/>
					</g>
					<g>
						<path class="st9" d="M1417.2,591.1h20.1H1417.2z"/>
						<rect x="1417.2" y="590.4" class="st5" width="20.1" height="1.5"/>
					</g>
				</g>
				<g>
					<circle class="st2" cx="1427.3" cy="711.1" r="4.8"/>
					<path class="st2" d="M1427.3,716.7c-3.1,0-5.6-2.5-5.6-5.6s2.5-5.6,5.6-5.6s5.6,2.5,5.6,5.6
						C1432.8,714.2,1430.3,716.7,1427.3,716.7z M1427.3,707c-2.2,0-4.1,1.8-4.1,4.1c0,2.2,1.8,4.1,4.1,4.1c2.2,0,4.1-1.8,4.1-4.1
						C1431.3,708.9,1429.5,707,1427.3,707z"/>
				</g>
			</g>
			<g>
				<rect x="1394.8" y="615" class="st6" width="64.8" height="23.3"/>
				<rect x="1394.8" y="602.4" class="st8" width="64.8" height="12.7"/>
				<g>
					<rect x="1401.9" y="607" class="st7" width="30.2" height="3.4"/>
				</g>
				<g>
					<rect x="1398.9" y="642.6" class="st7" width="56.5" height="29.3"/>
					<path class="st6" d="M1455.5,672.5H1399c-0.3,0-0.6-0.2-0.6-0.6v-29.3c0-0.3,0.2-0.6,0.6-0.6h56.5c0.3,0,0.6,0.2,0.6,0.6v29.3
						C1456,672.2,1455.8,672.5,1455.5,672.5z M1399.5,671.4h55.4v-28.3h-55.4V671.4z"/>
				</g>
				<g>
					<g>
						<rect x="1398.9" y="679.5" class="st6" width="39.1" height="3.3"/>
					</g>
					<g>
						<rect x="1398.9" y="689.9" class="st6" width="56.9" height="1.7"/>
					</g>
				</g>
			</g>
		</g>
		<g>
			<g>
				<g>
					<rect x="715.8" y="650.6" class="st4" width="94.7" height="66.2"/>
					<g>
						<path class="st3" d="M692.2,652.4V715c0,4.9,4,8.8,8.8,8.8h131c4.9,0,8.8-4,8.8-8.8v-62.6c0-4.9-4-8.8-8.8-8.8H701
							C696.2,643.6,692.2,647.5,692.2,652.4z M810.6,650.6v66.2h-94.7v-66.2H810.6z"/>
						<path class="st2" d="M832.1,724.6h-131c-5.3,0-9.6-4.3-9.6-9.6v-62.6c0-5.3,4.3-9.6,9.6-9.6h131c5.3,0,9.6,4.3,9.6,9.6V715
							C841.7,720.2,837.4,724.6,832.1,724.6z M701.1,644.3c-4.5,0-8.1,3.6-8.1,8.1V715c0,4.5,3.6,8.1,8.1,8.1h131
							c4.5,0,8.1-3.6,8.1-8.1v-62.6c0-4.5-3.6-8.1-8.1-8.1H701.1z M810.6,717.5h-94.7c-0.4,0-0.7-0.3-0.7-0.7v-66.2
							c0-0.4,0.3-0.7,0.7-0.7h94.7c0.4,0,0.7,0.3,0.7,0.7v66.2C811.3,717.2,811,717.5,810.6,717.5z M716.6,716h93.2v-64.7h-93.2V716
							z"/>
					</g>
					<g>
						<path class="st9" d="M705.3,693.7v-20.1V693.7z"/>
						<rect x="704.5" y="673.6" class="st5" width="1.5" height="20.1"/>
					</g>
				</g>
				<g>
					<circle class="st2" cx="825.3" cy="683.7" r="4.8"/>
					<path class="st2" d="M825.3,689.3c-3.1,0-5.6-2.5-5.6-5.6s2.5-5.6,5.6-5.6s5.6,2.5,5.6,5.6
						C830.9,686.8,828.4,689.3,825.3,689.3z M825.3,679.6c-2.2,0-4.1,1.8-4.1,4.1c0,2.2,1.8,4.1,4.1,4.1c2.2,0,4.1-1.8,4.1-4.1
						C829.4,681.4,827.5,679.6,825.3,679.6z"/>
				</g>
			</g>
			<g>
				<rect x="716.6" y="664.4" class="st6" width="92.9" height="23.3"/>
				<rect x="716.6" y="651.8" class="st8" width="92.9" height="12.7"/>
				<g>
					<rect x="723.7" y="656.4" class="st7" width="30.2" height="3.4"/>
				</g>
				<g>
					<rect x="721" y="692.3" class="st7" width="30.4" height="19.8"/>
					<path class="st6" d="M751.4,712.4H721c-0.2,0-0.3-0.1-0.3-0.3v-19.8c0-0.2,0.1-0.3,0.3-0.3h30.4c0.2,0,0.3,0.1,0.3,0.3v19.8
						C751.8,712.3,751.6,712.4,751.4,712.4z M721.3,711.8h29.8v-19.2h-29.8V711.8z"/>
				</g>
				<g>
					<g>
						<rect x="755.3" y="692.3" class="st6" width="37.9" height="1.8"/>
					</g>
					<g>
						<rect x="755.3" y="698.9" class="st6" width="47.5" height="0.9"/>
					</g>
					<g>
						<rect x="755.3" y="711.1" class="st6" width="47.5" height="0.9"/>
					</g>
					<g>
						<rect x="755.3" y="705" class="st6" width="50.2" height="0.9"/>
					</g>
				</g>
			</g>
		</g>
		<g>
			<g>
				<g>
					<rect x="447.5" y="464.2" class="st4" width="94.7" height="66.2"/>
					<g>
						<path class="st2" d="M424,466v62.6c0,4.9,4,8.8,8.8,8.8h131c4.9,0,8.8-4,8.8-8.8V466c0-4.9-4-8.8-8.8-8.8h-131
							C427.9,457.2,424,461.1,424,466z M542.3,464.2v66.2h-94.7v-66.2H542.3z"/>
						<path class="st3" d="M563.8,538.1h-131c-5.3,0-9.6-4.3-9.6-9.6v-62.6c0-5.3,4.3-9.6,9.6-9.6h131c5.3,0,9.6,4.3,9.6,9.6v62.6
							C573.4,533.8,569.1,538.1,563.8,538.1z M432.8,457.9c-4.5,0-8.1,3.6-8.1,8.1v62.6c0,4.5,3.6,8.1,8.1,8.1h131
							c4.5,0,8.1-3.6,8.1-8.1V466c0-4.5-3.6-8.1-8.1-8.1H432.8z M542.3,531.1h-94.7c-0.4,0-0.7-0.3-0.7-0.7v-66.2
							c0-0.4,0.3-0.7,0.7-0.7h94.7c0.4,0,0.7,0.3,0.7,0.7v66.2C543,530.8,542.7,531.1,542.3,531.1z M448.3,529.6h93.2v-64.7h-93.2
							V529.6z"/>
					</g>
					<g>
						<path class="st9" d="M437,507.3v-20.1V507.3z"/>
						<rect x="436.2" y="487.2" class="st5" width="1.5" height="20.1"/>
					</g>
				</g>
				<g>
					<circle class="st3" cx="557" cy="497.3" r="4.8"/>
					<path class="st2" d="M557,502.8c-3.1,0-5.6-2.5-5.6-5.6s2.5-5.6,5.6-5.6s5.6,2.5,5.6,5.6C562.6,500.4,560.1,502.8,557,502.8z
						 M557,493.2c-2.2,0-4.1,1.8-4.1,4.1c0,2.2,1.8,4.1,4.1,4.1c2.2,0,4.1-1.8,4.1-4.1C561.1,495,559.2,493.2,557,493.2z"/>
				</g>
			</g>
			<g>
				<rect x="448.4" y="478" class="st6" width="92.9" height="23.3"/>
				<rect x="448.4" y="465.4" class="st8" width="92.9" height="12.7"/>
				<g>
					<rect x="455.5" y="470" class="st7" width="30.2" height="3.4"/>
				</g>
				<g>
					<rect x="452.7" y="505.8" class="st7" width="30.4" height="19.8"/>
					<path class="st6" d="M483.1,526h-30.4c-0.2,0-0.3-0.1-0.3-0.3v-19.8c0-0.2,0.1-0.3,0.3-0.3h30.4c0.2,0,0.3,0.1,0.3,0.3v19.8
						C483.5,525.9,483.3,526,483.1,526z M453.1,525.4h29.8v-19.2h-29.8V525.4z"/>
				</g>
				<g>
					<g>
						<rect x="487.1" y="505.9" class="st6" width="37.9" height="1.8"/>
					</g>
					<g>
						<rect x="487.1" y="512.5" class="st6" width="47.5" height="0.9"/>
					</g>
					<g>
						<rect x="487.1" y="524.7" class="st6" width="47.5" height="0.9"/>
					</g>
					<g>
						<rect x="487.1" y="518.6" class="st6" width="50.2" height="0.9"/>
					</g>
				</g>
			</g>
		</g>
		<g>
			<g>
				<g>
					<rect x="1654.8" y="488.8" class="st4" width="94.7" height="66.2"/>
					<g>
						<path class="st2" d="M1631.2,490.6v62.6c0,4.9,4,8.8,8.8,8.8h131c4.9,0,8.8-4,8.8-8.8v-62.6c0-4.9-4-8.8-8.8-8.8h-131
							C1635.2,481.8,1631.2,485.7,1631.2,490.6z M1749.5,488.8V555h-94.7v-66.2H1749.5z"/>
						<path class="st3" d="M1771.1,562.8h-131c-5.3,0-9.6-4.3-9.6-9.6v-62.6c0-5.3,4.3-9.6,9.6-9.6h131c5.3,0,9.6,4.3,9.6,9.6v62.6
							C1780.7,558.5,1776.4,562.8,1771.1,562.8z M1640.1,482.5c-4.5,0-8.1,3.6-8.1,8.1v62.6c0,4.5,3.6,8.1,8.1,8.1h131
							c4.5,0,8.1-3.6,8.1-8.1v-62.6c0-4.5-3.6-8.1-8.1-8.1H1640.1z M1749.5,555.7h-94.7c-0.4,0-0.7-0.3-0.7-0.7v-66.2
							c0-0.4,0.3-0.7,0.7-0.7h94.7c0.4,0,0.7,0.3,0.7,0.7V555C1750.3,555.4,1749.9,555.7,1749.5,555.7z M1655.5,554.2h93.2v-64.7
							h-93.2V554.2z"/>
					</g>
					<g>
						<path class="st9" d="M1644.3,531.9v-20.1V531.9z"/>
						<rect x="1643.5" y="511.9" class="st5" width="1.5" height="20.1"/>
					</g>
				</g>
				<g>
					<circle class="st3" cx="1764.3" cy="521.9" r="4.8"/>
					<path class="st2" d="M1764.3,527.5c-3.1,0-5.6-2.5-5.6-5.6s2.5-5.6,5.6-5.6s5.6,2.5,5.6,5.6
						C1769.8,525,1767.3,527.5,1764.3,527.5z M1764.3,517.8c-2.2,0-4.1,1.8-4.1,4.1c0,2.2,1.8,4.1,4.1,4.1c2.2,0,4.1-1.8,4.1-4.1
						C1768.3,519.7,1766.5,517.8,1764.3,517.8z"/>
				</g>
			</g>
			<g>
				<rect x="1655.6" y="502.7" class="st6" width="92.9" height="23.3"/>
				<rect x="1655.6" y="490" class="st8" width="92.9" height="12.7"/>
				<g>
					<rect x="1662.7" y="494.6" class="st7" width="30.2" height="3.4"/>
				</g>
				<g>
					<rect x="1660" y="530.5" class="st7" width="30.4" height="19.8"/>
					<path class="st6" d="M1690.4,550.6H1660c-0.2,0-0.3-0.1-0.3-0.3v-19.8c0-0.2,0.1-0.3,0.3-0.3h30.4c0.2,0,0.3,0.1,0.3,0.3v19.8
						C1690.7,550.5,1690.6,550.6,1690.4,550.6z M1660.3,550h29.8v-19.2h-29.8V550z"/>
				</g>
				<g>
					<g>
						<rect x="1694.3" y="530.5" class="st6" width="37.9" height="1.8"/>
					</g>
					<g>
						<rect x="1694.3" y="537.1" class="st6" width="47.5" height="0.9"/>
					</g>
					<g>
						<rect x="1694.3" y="549.3" class="st6" width="47.5" height="0.9"/>
					</g>
					<g>
						<rect x="1694.3" y="543.2" class="st6" width="50.2" height="0.9"/>
					</g>
				</g>
			</g>
		</g>
		<g>
			<g>
				<g>
					<g>
						<g>
							<path class="st3" d="M1368.9,682.7V393.5c0-6.6-5.3-11.9-11.9-11.9H902.7c-6.6,0-11.9,5.3-11.9,11.9v289.2L1368.9,682.7
								L1368.9,682.7z"/>
							<path class="st2" d="M1368.9,683.4H890.8c-0.4,0-0.7-0.3-0.7-0.7V393.5c0-7,5.7-12.7,12.7-12.7H1357c7,0,12.7,5.7,12.7,12.7
								v289.2C1369.7,683.1,1369.3,683.4,1368.9,683.4z M891.6,681.9h476.6V393.5c0-6.2-5-11.2-11.2-11.2H902.7
								c-6.2,0-11.2,5-11.2,11.2L891.6,681.9L891.6,681.9z"/>
						</g>
						<g>
							<path class="st4" d="M1209.4,767.7h-159c-4,0-7.3,3.8-7.3,8.6v3.2h173.6v-3.2C1216.7,771.5,1213.4,767.7,1209.4,767.7z"/>
							<path class="st5" d="M1216.7,780.2h-173.6c-0.4,0-0.7-0.3-0.7-0.7v-3.2c0-5.1,3.6-9.3,8.1-9.3h159c4.4,0,8.1,4.2,8.1,9.3v3.2
								C1217.4,779.9,1217.1,780.2,1216.7,780.2z M1043.8,778.7h172.1v-2.5c0-4.3-2.9-7.8-6.6-7.8h-159c-3.6,0-6.6,3.5-6.6,7.8
								L1043.8,778.7L1043.8,778.7z"/>
						</g>
						<g>
							<path class="st4" d="M890.8,682.7v34.2c0,6.6,5.3,11.9,11.9,11.9H1357c6.6,0,11.9-5.3,11.9-11.9v-34.2H890.8z"/>
							<path class="st5" d="M1357,729.5H902.7c-7,0-12.7-5.7-12.7-12.6v-34.2c0-0.4,0.3-0.7,0.7-0.7h478.1c0.4,0,0.7,0.3,0.7,0.7
								v34.2C1369.7,723.8,1364,729.5,1357,729.5z M891.6,683.4v33.4c0,6.1,5,11.1,11.2,11.1H1357c6.2,0,11.2-5,11.2-11.1v-33.4
								H891.6z"/>
						</g>
						<g>
							<rect x="910.4" y="400.1" class="st9" width="438.9" height="262.8"/>
							<path class="st5" d="M1349.3,663.7H910.4c-0.4,0-0.7-0.3-0.7-0.7V400.1c0-0.4,0.3-0.7,0.7-0.7h438.9c0.4,0,0.7,0.3,0.7,0.7
								v262.8C1350.1,663.3,1349.7,663.7,1349.3,663.7z M911.1,662.2h437.4V400.9H911.1V662.2z"/>
						</g>
						<g>
							<path class="st10" d="M1200.3,767.7c-3.2-13-6.4-26-9.5-38.9h-121.9c-3.2,13-6.3,26-9.5,38.9H1200.3z"/>
							<path class="st5" d="M1200.3,768.4h-140.9c-0.2,0-0.4-0.1-0.6-0.3c-0.1-0.2-0.2-0.4-0.1-0.6l9.5-38.9
								c0.1-0.3,0.4-0.6,0.7-0.6h121.9c0.3,0,0.6,0.2,0.7,0.6l9.5,38.9c0.1,0.2,0,0.5-0.1,0.6
								C1200.8,768.3,1200.6,768.4,1200.3,768.4z M1060.3,766.9h139l-9.2-37.5h-120.7L1060.3,766.9z"/>
						</g>
					</g>
				</g>
			</g>
			<g>
				<rect x="911.1" y="400.2" class="st7" width="436.8" height="262.4"/>
				<rect x="938.8" y="447.8" class="st4" width="384.2" height="215.2"/>
				<rect x="946.9" y="456.7" class="st6" width="368" height="76.4"/>
				<g>
					<rect x="946.9" y="550.5" class="st7" width="117.8" height="55.2"/>
					<path class="st6" d="M1064.8,606.8H946.9c-0.6,0-1.1-0.5-1.1-1.1v-55.2c0-0.6,0.5-1.1,1.1-1.1h117.8c0.6,0,1.1,0.5,1.1,1.1
						v55.2C1065.9,606.3,1065.4,606.8,1064.8,606.8z M948,604.6h115.7v-53H948V604.6z"/>
				</g>
				<g>
					<rect x="1071.6" y="550.5" class="st7" width="117.8" height="55.2"/>
					<path class="st6" d="M1189.4,606.8h-117.8c-0.6,0-1.1-0.5-1.1-1.1v-55.2c0-0.6,0.5-1.1,1.1-1.1h117.8c0.6,0,1.1,0.5,1.1,1.1
						v55.2C1190.5,606.3,1190,606.8,1189.4,606.8z M1072.7,604.6h115.7v-53h-115.7V604.6z"/>
				</g>
				<g>
					<rect x="1196.2" y="550.5" class="st7" width="117.8" height="55.2"/>
					<path class="st6" d="M1314.1,606.8h-117.8c-0.6,0-1.1-0.5-1.1-1.1v-55.2c0-0.6,0.5-1.1,1.1-1.1h117.8c0.6,0,1.1,0.5,1.1,1.1
						v55.2C1315.2,606.3,1314.7,606.8,1314.1,606.8z M1197.3,604.6H1313v-53h-115.7V604.6z"/>
				</g>
				<rect x="911.1" y="400.7" class="st1" width="436.8" height="21.9"/>
				<rect x="991.7" y="405.4" class="st4" width="275.5" height="12.6"/>
				<rect x="938.8" y="429.9" class="st8" width="384.2" height="17.6"/>
				<g>
					<g>
						<rect x="946.9" y="619.7" class="st6" width="67.8" height="4.4"/>
					</g>
					<g>
						<rect x="946.9" y="632" class="st6" width="98.6" height="2.2"/>
					</g>
					<g>
						<rect x="946.9" y="654.4" class="st6" width="98.6" height="2.2"/>
					</g>
					<g>
						<rect x="946.9" y="643.2" class="st6" width="107.4" height="2.2"/>
					</g>
				</g>
				<g>
					<g>
						<rect x="1071.6" y="619.7" class="st6" width="67.8" height="4.4"/>
					</g>
					<g>
						<rect x="1071.6" y="632" class="st6" width="98.6" height="2.2"/>
					</g>
					<g>
						<rect x="1071.6" y="654.4" class="st6" width="98.6" height="2.2"/>
					</g>
					<g>
						<rect x="1071.6" y="643.2" class="st6" width="107.4" height="2.2"/>
					</g>
				</g>
				<g>
					<g>
						<rect x="1196.2" y="619.7" class="st6" width="67.8" height="4.4"/>
					</g>
					<g>
						<rect x="1196.2" y="632" class="st6" width="98.6" height="2.2"/>
					</g>
					<g>
						<rect x="1196.2" y="654.4" class="st6" width="98.6" height="2.2"/>
					</g>
					<g>
						<rect x="1196.2" y="643.2" class="st6" width="107.4" height="2.2"/>
					</g>
				</g>
				<circle class="st5" cx="921.3" cy="411.6" r="4.8"/>
				<circle class="st5" cx="936.2" cy="411.6" r="4.8"/>
				<circle class="st5" cx="951.1" cy="411.6" r="4.8"/>
				<g>
					<rect x="950.4" y="436.5" class="st7" width="67.8" height="4.4"/>
				</g>
				<g>
					<rect x="1285.4" y="437.6" class="st7" width="26.1" height="2.2"/>
				</g>
				<g>
					<rect x="1250.3" y="437.6" class="st7" width="26.1" height="2.2"/>
				</g>
				<g>
					<rect x="1215.2" y="437.6" class="st7" width="26.1" height="2.2"/>
				</g>
				<g>
					<rect x="1180.1" y="437.6" class="st7" width="26.1" height="2.2"/>
				</g>
				<g>
					<rect x="1145.1" y="437.6" class="st7" width="26.1" height="2.2"/>
				</g>
				<g>
					<rect x="1110" y="437.6" class="st7" width="26.1" height="2.2"/>
				</g>
			</g>
		</g>
	</g>
</g>
</svg>
