<?xml version="1.0" encoding="utf-8"?>
<!-- Generator: Adobe Illustrator 17.0.0, SVG Export Plug-In . SVG Version: 6.00 Build 0)  -->
<!DOCTYPE svg PUBLIC "-//W3C//DTD SVG 1.1//EN" "http://www.w3.org/Graphics/SVG/1.1/DTD/svg11.dtd">
<svg version="1.1" id="Layer_1" xmlns="http://www.w3.org/2000/svg" xmlns:xlink="http://www.w3.org/1999/xlink" x="0px" y="0px"
	 width="256.587px" height="67.73px" viewBox="0 0 256.587 67.73" enable-background="new 0 0 256.587 67.73" xml:space="preserve">
<path fill="#FFFFFF" d="M252.354,38.499L252.354,38.499c-0.236-1.342-0.514-2.517-1.097-3.346c0.917-1.268,1.459-2.707,1.701-4.328
	c0.006-0.038,0.002-0.072,0.006-0.11c0.028-0.114,0.051-0.232,0.06-0.36c0.607-9.196-11.342-12.354-17.086-6.744
	c-2.513-2.308-6.15-3.009-9.571-2.213c-1.96,0.456-3.823,1.679-5.006,3.299c-1.431,1.96-1.629,4.141-1.646,6.416
	c-6.525-0.365-13.016,1.599-16.705,7.004c-6.351-8.172-20.459-8.971-28.765-2.858c0.133-3.198,0.118-6.499-1.232-9.21
	c-1.266-2.543-4.129-4.064-6.835-4.466c-2.799-0.416-5.845,0.228-8.035,2.086c-2.531,2.147-2.923,4.917-2.983,7.913
	c-5.119-0.314-10.097,0.766-13.945,3.982c-2.376-5.747-10.454-6.999-15.414-3.266c-7.379-1.208-15.222,0.401-19.517,6.557
	c-1.23-1.69-2.753-3.061-4.531-4.14c6.335-4.38,8.702-12.265,6.814-20.076C105.993,3.97,95.007,0.814,85.353,2.411
	c-4.016-3.113-9.63-3.099-13.648,0c-8.893-1.49-18.992,0.852-22.532,10.148c-2.551,6.697-1.485,14.88,3.464,20.08
	c-0.201,0.092-0.401,0.189-0.596,0.296c-4.773-8.267-14.252-11.279-23.603-11.081C17.823,22.08,8.153,27.195,4.746,37.695
	C1.265,48.42,6.186,60.064,16.394,64.801c6.106,2.833,13.064,2.68,19.589,1.836c4.571-0.591,8.872-2.487,12.26-5.508
	c0.643,2.04,1.904,3.756,4.077,4.939c3.254,1.771,7.669,1.451,10.809-0.362c3.928-2.269,3.709-6.522,3.709-10.475
	c0-1.298,0-2.595,0-3.893c0-0.586,0-1.172,0-1.759c0-0.797-0.322-0.732,0.541-1.001c0.839-0.262,1.947-0.023,2.8,0.066
	c0.308,0.031,0.626,0.032,0.947,0.014c-0.204,4.15,0.635,8.262,3.203,11.683c2.648,3.527,6.707,5.559,10.939,6.493
	c4.262,0.941,9.321,0.913,13.419-0.681c4.017-1.562,5.937-5.361,5.165-9.228c0.289-0.092,0.575-0.193,0.856-0.309
	c1.672,3.824,4.544,6.89,8.477,8.63c4.379,1.937,9.344,1.641,13.923,0.61c3.171,1.667,7.027,1.554,10.302,0.187
	c1.829-0.763,3.037-2.369,3.723-4.189c4.949,4.309,11.572,4.816,18.199,3.427c3.007,1.573,7.344,1.871,10.322,0.209
	c1.828-1.02,3.068-2.538,3.76-4.326c4.254,3.455,9.901,4.584,15.482,4.449c3.205-0.077,6.901-0.493,9.405-2.714
	c2.157-1.914,2.807-4.573,2.323-7.196c0.296-0.092,0.589-0.194,0.875-0.312c1.579,3.667,4.262,6.606,7.955,8.431
	c4.476,2.213,9.702,1.841,14.458,0.824c3.707,1.962,8.531,1.691,11.745-0.907c4.723,3.912,13.168,3.394,16.176-2.648
	c0.216-0.435,0.387-1.012,0.522-1.684C252.354,59.408,252.354,43.726,252.354,38.499z"/>
<path fill="#EDC12D" d="M104.762,20.197h-0.003c-0.096-7.256-4.116-13.517-15.278-13.517c-2.162,0-4.065,0.679-5.732,1.115V7.72
	h-0.002c0.001,0-0.087-0.172-0.279-0.429c-0.519-1.093-1.789-2.297-4.87-2.297c-0.012,0-0.022,0.002-0.034,0.002
	c-0.012,0-0.023-0.002-0.035-0.002c-3.081,0-4.35,1.204-4.87,2.297C73.466,7.548,73.38,7.72,73.38,7.72h-0.003v0.075
	c-1.667-0.436-3.57-1.115-5.732-1.115c-11.161,0-15.181,6.26-15.277,13.517h-0.004c0,0.023,0.001,0.043,0.002,0.066
	c-0.001,0.022-0.002,0.042-0.002,0.065h0.004c0.096,7.256,4.116,13.517,15.277,13.517c2.162,0,4.05-0.739,5.716-1.175l0.656-0.194
	c0.782,1.044,2.22,1.727,4.482,1.727c0.023,0,0.041-0.002,0.064-0.002c0.022,0,0.041,0.002,0.064,0.002
	c2.262,0,3.701-0.683,4.481-1.727l0.656,0.194c1.667,0.436,3.554,1.175,5.717,1.175c11.162,0,15.182-6.26,15.278-13.517h0.003
	c0-0.023-0.001-0.043-0.002-0.065C104.762,20.241,104.762,20.22,104.762,20.197z"/>
<path fill="#2EBA9C" d="M105.064,50.046c0-0.073-0.004-0.145-0.008-0.216c0.001,0.027,0.004,0.053,0.006,0.081
	c-0.104-7.249-3.979-13.078-14.708-13.078c-10.474,0-14.714,5.99-14.714,13.378c0,7.388,4.392,12.946,14.714,12.946
	c3.072-0.001,5.835-0.195,7.673-1.367c1.078-0.575,1.528-1.574,1.528-2.759c0-1.874-1.062-3.395-4.075-3.395
	c-0.114,0-0.22,0.006-0.328,0.011c-0.009-0.004-0.019-0.008-0.028-0.011c-0.049,0.005-0.096,0.012-0.145,0.016
	c-0.265,0.018-0.51,0.053-0.744,0.097c-1.252,0.192-2.394,0.489-3.429,0.489c-3.285,0-5.246-1.241-6.129-3.135h17.014V53.09
	C104.128,52.962,105.064,51.698,105.064,50.046z M90.806,44.267c2.939,0,4.743,0.961,5.727,2.446H85.138
	C86.157,45.231,87.979,44.267,90.806,44.267z M101.692,46.899L101.692,46.899c0.027,0.001,0.056,0.001,0.082,0.002
	C101.748,46.9,101.719,46.901,101.692,46.899z"/>
<path fill="#E98B42" d="M49.354,50.985c0-2.536-1.496-4.592-5.737-4.592c-3.062,0-4.758,1.156-5.415,2.803
	c-0.006-0.005-0.013-0.009-0.021-0.013c-1.195,2.905-3.942,4.811-8.838,4.811c-6.709,0-9.566-3.824-9.566-8.908
	c0-5.085,2.756-9.206,9.566-9.206c4.789,0,7.476,1.891,8.714,4.689c0.014-0.005,0.029-0.012,0.043-0.017
	c0.575,1.774,2.309,2.988,5.516,2.988c4.162,0,5.737-1.907,5.737-4.443c0-0.917-0.199-1.769-0.649-2.486
	c0.045,0.072,0.089,0.144,0.13,0.219c-2.565-5.966-8.523-10.056-19.485-10.056c-14.981,0-21.045,8.231-21.045,18.386
	s6.283,17.793,21.045,17.791c11.078,0,17.156-4.023,19.66-10.11c-0.664,1.557-2.322,2.593-5.386,2.593
	c-2.267,0-3.799-0.605-4.707-1.586c0.908,0.977,2.439,1.58,4.701,1.58C47.779,55.427,49.354,53.521,49.354,50.985z"/>
<path fill="#3397D3" d="M248.06,39.813c0-2.193-1.386-3.97-5.319-3.97c-3.786,0-5.318,1.777-5.318,3.97v18.56h0.053
	c0.063,2.126,1.657,3.711,5.312,3.711c3.859,0,5.319-1.65,5.319-3.842c0-0.219-0.018-0.433-0.047-0.643V39.813z"/>
<path fill="#3397D3" d="M243.188,34.68c3.859,0,5.319-1.909,5.319-4.448c0-2.539-1.387-4.597-5.319-4.597
	c-3.786,0-5.318,2.058-5.318,4.597C237.869,32.77,239.457,34.68,243.188,34.68z"/>
<path fill="#8860A8" d="M62.304,48.505c0.09-0.419,0.773-3.081,3.442-3.882c0.76-0.204,1.667-0.316,2.753-0.316
	c0.632,0,1.214,0.041,1.75,0.117c0.001-0.005,0.002-0.011,0.003-0.016c0.192,0.011,0.388,0.017,0.593,0.017
	c3.647,0,5.028-1.661,5.028-3.87c0-2.209-1.31-4.001-5.028-4.001c-0.008,0-0.016,0.001-0.023,0.001
	c-0.011,0-0.021-0.001-0.032-0.001c-1.793,0-5.193,0.317-8.51,3.209c-0.304-1.82-1.706-3.191-4.956-3.191
	c-3.579,0-5.027,1.791-5.027,4.001v18.701h0.05c0.06,2.143,1.566,3.738,5.021,3.738c3.127,0,4.584-1.222,4.937-2.963L62.304,48.505
	L62.304,48.505z"/>
<path fill="#3397D3" d="M137.304,38.841c0.004-0.049,0.009-0.165,0-0.331v-0.273c-0.001-0.003-0.001-0.006-0.001-0.009v0.258
	c-0.061-0.973-0.634-3.47-4.898-3.47c-3.587,0-4.901,2.599-4.898,2.599h-0.002v0.072c-1.564-0.416-3.352-1.063-5.381-1.063
	c-10.479,0-14.253,5.973-14.343,12.897h-0.003c0,0.021,0.001,0.042,0.001,0.063c0,0.02-0.001,0.041-0.001,0.062h0.003
	c0.09,6.923,3.864,12.897,14.343,12.897c2.03,0,3.801-0.704,5.366-1.122l0.683-0.204c0.704,1.008,2.04,1.668,4.261,1.668
	c3.454,0,4.87-1.72,4.897-3.854h0.002v-0.089h-0.028L137.304,38.841L137.304,38.841z M123.299,54.096
	c-3.916,0-5.581-1.853-5.581-4.316c0-2.464,1.608-4.461,5.581-4.461c4.127,0,5.582,1.997,5.582,4.461
	C128.881,52.243,127.349,54.096,123.299,54.096z"/>
<path fill="#263D4F" d="M70.101,13.391c-1.931-0.068-3.567,2.489-3.654,5.712c-0.087,3.223,1.408,5.892,3.339,5.96
	c1.932,0.069,3.568-2.488,3.654-5.712C73.528,16.129,72.033,13.46,70.101,13.391z"/>
<path fill="#263D4F" d="M87.254,13.445c-1.861-0.069-3.437,2.49-3.52,5.712c-0.084,3.224,1.356,5.893,3.217,5.96
	c1.86,0.069,3.436-2.49,3.52-5.712C90.555,16.182,89.114,13.513,87.254,13.445z"/>
<path fill="#FFFFFF" d="M72.128,16.699c-0.057,1.678-0.83,3.007-1.727,2.966c-0.897-0.04-1.578-1.432-1.522-3.112
	c0.057-1.677,0.83-3.006,1.728-2.966C71.505,13.628,72.185,15.021,72.128,16.699z"/>
<path fill="#FFFFFF" d="M68.914,20.788c-0.021,0.592-0.293,1.061-0.61,1.048c-0.316-0.014-0.558-0.506-0.537-1.098
	c0.021-0.593,0.293-1.062,0.61-1.047C68.694,19.704,68.935,20.196,68.914,20.788z"/>
<path fill="#FFFFFF" d="M89.385,16.813c-0.055,1.679-0.8,3.007-1.664,2.966c-0.864-0.04-1.52-1.432-1.466-3.112
	c0.055-1.677,0.8-3.006,1.664-2.966C88.784,13.742,89.44,15.135,89.385,16.813z"/>
<path fill="#FFFFFF" d="M86.289,20.562c-0.018,0.592-0.282,1.061-0.587,1.047c-0.304-0.014-0.536-0.505-0.516-1.098
	c0.019-0.592,0.282-1.061,0.587-1.046C86.078,19.477,86.309,19.97,86.289,20.562z"/>
<path fill="#BF4235" d="M83.732,27.172c-0.006,0.014-0.661,1.452-2.653,1.303c-0.781-0.057-1.496-0.548-1.792-0.779v-1.96h-0.892
	v1.96c-0.297,0.231-1.012,0.721-1.792,0.779c-1.963,0.145-2.625-1.246-2.651-1.303l-0.817,0.36c0.035,0.079,0.842,1.847,3.173,1.847
	c0.116,0,0.237-0.004,0.361-0.014c0.941-0.07,1.754-0.578,2.172-0.889c0.419,0.311,1.231,0.819,2.172,0.889
	c0.124,0.009,0.244,0.014,0.36,0.014c2.332,0,3.139-1.767,3.174-1.847L83.732,27.172z"/>
<ellipse fill="#263D4F" cx="78.841" cy="23.831" rx="2.649" ry="1.906"/>
<path fill="#E98B42" d="M169.549,58.414v-9.23v-0.123V30.187h-0.003c-0.028-2.118-1.442-3.825-4.892-3.825
	c-3.582,0-4.866,1.708-4.892,3.825h-0.002v7.124c-1.562-0.413-3.347-1.055-5.375-1.055c-10.465,0-14.234,5.929-14.324,12.805h-0.003
	c0,0.02,0.001,0.04,0.001,0.062c-0.001,0.021-0.001,0.041-0.001,0.062h0.003c0.089,6.874,3.859,12.804,14.324,12.804
	c2.028,0,3.803-0.717,5.365-1.13l0.678-0.186c0.703,1,2.038,1.655,4.255,1.655c3.449,0,4.863-1.707,4.891-3.825h0.002v-0.087h-0.027
	V58.414z M155.28,53.602c-3.91,0-5.574-1.84-5.574-4.286c0-2.446,1.606-4.43,5.574-4.43c4.122,0,5.575,1.983,5.575,4.43
	C160.855,51.761,159.324,53.602,155.28,53.602z"/>
<path fill="#8860A8" d="M201.851,48.951c0-0.07-0.004-0.138-0.008-0.206c0.002,0.026,0.005,0.05,0.006,0.077
	c-0.104-6.917-3.98-12.477-14.708-12.477c-10.475,0-14.714,5.714-14.714,12.763c0,7.049,4.392,12.35,14.714,12.35
	c3.072-0.001,5.835-0.186,7.672-1.304c1.078-0.548,1.529-1.501,1.529-2.632c0-1.788-1.062-3.238-4.075-3.238
	c-0.114,0-0.22,0.006-0.328,0.011c-0.009-0.004-0.02-0.009-0.028-0.011c-0.048,0.005-0.096,0.011-0.145,0.016
	c-0.265,0.017-0.51,0.05-0.744,0.092c-1.251,0.183-2.394,0.466-3.429,0.466c-3.285,0-5.246-1.183-6.129-2.991h17.015v-0.012
	C200.915,51.732,201.851,50.528,201.851,48.951z M187.593,43.437c2.939,0,4.743,0.917,5.727,2.333h-11.395
	C182.944,44.357,184.766,43.437,187.593,43.437z M198.479,45.95L198.479,45.95c0.027,0.001,0.055,0.001,0.082,0.002
	C198.534,45.95,198.505,45.95,198.479,45.95z"/>
<path fill="#2EBA9C" d="M234.116,57.801v-9.169v-0.123V29.762h-0.003c-0.028-2.103-1.442-3.8-4.892-3.8
	c-3.583,0-4.866,1.696-4.892,3.8h-0.002v7.077c-1.562-0.411-3.347-1.049-5.375-1.049c-10.465,0-14.235,5.89-14.324,12.719h-0.003
	c0,0.021,0.001,0.04,0.002,0.062c-0.001,0.021-0.002,0.041-0.002,0.062h0.003c0.089,6.829,3.859,12.719,14.324,12.719
	c2.028,0,3.803-0.712,5.365-1.122l0.678-0.184c0.703,0.993,2.038,1.643,4.255,1.643c3.449,0,4.863-1.696,4.891-3.799h0.002v-0.087
	L234.116,57.801L234.116,57.801z M219.847,53.021c-3.91,0-5.574-1.827-5.574-4.258c0-2.43,1.606-4.399,5.574-4.399
	c4.122,0,5.575,1.969,5.575,4.399C225.423,51.193,223.891,53.021,219.847,53.021z"/>
</svg>
