<?xml version="1.0" encoding="utf-8"?>
<!-- Generator: Adobe Illustrator 25.2.1, SVG Export Plug-In . SVG Version: 6.00 Build 0)  -->
<svg version="1.1" id="Layer_1" xmlns="http://www.w3.org/2000/svg" xmlns:xlink="http://www.w3.org/1999/xlink" x="0px" y="0px"
	 viewBox="0 0 512 512" style="enable-background:new 0 0 512 512;" xml:space="preserve">
<style type="text/css">
	.st0{fill:#FFFFFF;}
</style>
<g>
	<g>
		<path class="st0" d="M403.8,256l-94.1-94.1c-2.5-2.5-6.4-2.5-8.9,0c-2.5,2.5-2.5,6.4,0,8.9l83.4,83.4H110.8
			c-3.5,0-6.3,2.8-6.3,6.3c0,3.5,2.8,6.3,6.3,6.3h273.4l-83.4,83.4c-2.5,2.5-2.5,6.4,0,8.9c1.2,1.2,2.8,1.8,4.4,1.8
			c1.6,0,3.2-0.6,4.4-1.8l94.1-94.1C406.2,262.4,406.2,258.5,403.8,256z"/>
	</g>
</g>
</svg>
