<?xml version="1.0" encoding="utf-8"?>
<!-- Generator: Adobe Illustrator 23.0.1, SVG Export Plug-In . SVG Version: 6.00 Build 0)  -->
<svg version="1.1" xmlns="http://www.w3.org/2000/svg" xmlns:xlink="http://www.w3.org/1999/xlink" x="0px" y="0px"
	 viewBox="0 0 1920 1080" style="enable-background:new 0 0 1920 1080;" xml:space="preserve">
<style type="text/css">
	.st0{fill:url(#SVGID_1_);}
	.st1{fill:url(#SVGID_2_);}
	.st2{clip-path:url(#SVGID_4_);}
	.st3{fill:url(#SVGID_5_);}
	.st4{fill:url(#SVGID_6_);}
	.st5{fill:url(#SVGID_7_);}
	.st6{fill:url(#SVGID_8_);}
	.st7{fill:url(#SVGID_9_);}
	.st8{fill:url(#SVGID_10_);}
	.st9{fill:url(#SVGID_11_);}
	.st10{fill:url(#SVGID_12_);}
	.st11{fill:url(#SVGID_13_);}
	.st12{fill:url(#SVGID_14_);}
	.st13{fill:#FFFFFF;}
	.st14{opacity:0.48;}
	.st15{fill:none;stroke:#FFFFFF;stroke-width:3;stroke-miterlimit:10;}
	.st16{fill:none;stroke:#FFFFFF;stroke-width:2;stroke-miterlimit:10;}
</style>
<g id="Camada_5">
	<linearGradient id="SVGID_1_" gradientUnits="userSpaceOnUse" x1="1686.5819" y1="-185.8394" x2="179.2936" y2="1321.4489">
		<stop  offset="0" style="stop-color:#008ACD"/>
		<stop  offset="0.2094" style="stop-color:#1A74D9"/>
		<stop  offset="0.7451" style="stop-color:#573FF4"/>
		<stop  offset="1" style="stop-color:#6F2AFF"/>
	</linearGradient>
	<rect x="2.01" class="st0" width="1917.99" height="1079.47"/>
	<linearGradient id="SVGID_2_" gradientUnits="userSpaceOnUse" x1="1686.5819" y1="-185.3124" x2="-131.573" y2="1632.8425">
		<stop  offset="0" style="stop-color:#008ACD"/>
		<stop  offset="6.967008e-03" style="stop-color:#008BCD"/>
		<stop  offset="0.68" style="stop-color:#1EC8ED"/>
		<stop  offset="1" style="stop-color:#29E0FA"/>
	</linearGradient>
	<rect x="2.01" y="0.53" class="st1" width="1917.99" height="1079.47"/>
	<g>
		<defs>
			<rect id="SVGID_3_" y="0.53" width="1917.99" height="1079.47"/>
		</defs>
		<clipPath id="SVGID_4_">
			<use xlink:href="#SVGID_3_"  style="overflow:visible;"/>
		</clipPath>
		<g class="st2">
			<linearGradient id="SVGID_5_" gradientUnits="userSpaceOnUse" x1="411.3209" y1="361.7728" x2="1245.1132" y2="375.4415">
				<stop  offset="0" style="stop-color:#000000"/>
				<stop  offset="0.2295" style="stop-color:#050505"/>
				<stop  offset="0.4926" style="stop-color:#131313"/>
				<stop  offset="0.7711" style="stop-color:#292929"/>
				<stop  offset="1" style="stop-color:#424242"/>
			</linearGradient>
			<path class="st3" d="M-205.03,542.85c20.8-181.9,143.41-263.54,310.17-326.74c142.69-54.08,312.4-82.59,417.35-184.49
				C627.12-69.97,671.68-194.41,814.23-246.03c191.12-69.2,341.25,32.81,397.95,169.67c78.62,189.76-49.18,354.39-228.71,415.14
				C834.9,389.05,676.12,439.39,590.9,576.6c-78.49,126.37-70.69,329.53-232.88,401.69C174.07,1060.12-243.5,879.28-205.03,542.85z"
				/>
			<g>
				<linearGradient id="SVGID_6_" gradientUnits="userSpaceOnUse" x1="1373.6024" y1="723.9239" x2="1721.9547" y2="723.9239">
					<stop  offset="0" style="stop-color:#918D60"/>
					<stop  offset="0.3772" style="stop-color:#555338"/>
					<stop  offset="0.799" style="stop-color:#181710"/>
					<stop  offset="1" style="stop-color:#000000"/>
				</linearGradient>
				<path class="st4" d="M1375.65,883.22c-0.52,0-1.05-0.18-1.45-0.55c-0.8-0.73-0.8-1.92,0-2.65l344.25-314.85
					c0.8-0.73,2.1-0.73,2.9,0c0.8,0.73,0.8,1.92,0,2.65L1377.1,882.67C1376.7,883.04,1376.18,883.22,1375.65,883.22z"/>
			</g>
			<linearGradient id="SVGID_7_" gradientUnits="userSpaceOnUse" x1="1317.0455" y1="771.7584" x2="1771.9529" y2="771.7584">
				<stop  offset="0" style="stop-color:#000000"/>
				<stop  offset="0.2295" style="stop-color:#050505"/>
				<stop  offset="0.4926" style="stop-color:#131313"/>
				<stop  offset="0.7711" style="stop-color:#292929"/>
				<stop  offset="1" style="stop-color:#424242"/>
			</linearGradient>
			<ellipse class="st5" cx="1544.5" cy="771.76" rx="227.45" ry="208.02"/>
			<g>
				<linearGradient id="SVGID_8_" gradientUnits="userSpaceOnUse" x1="335.0324" y1="280.2343" x2="717.1954" y2="280.2343">
					<stop  offset="0" style="stop-color:#918D60"/>
					<stop  offset="0.3772" style="stop-color:#555338"/>
					<stop  offset="0.799" style="stop-color:#181710"/>
					<stop  offset="1" style="stop-color:#000000"/>
				</linearGradient>
				<path class="st6" d="M337.08,454.99c-0.52,0-1.05-0.18-1.45-0.55c-0.8-0.73-0.8-1.92,0-2.65L713.7,106.02
					c0.8-0.73,2.1-0.73,2.9,0s0.8,1.92,0,2.65L338.53,454.44C338.13,454.81,337.61,454.99,337.08,454.99z"/>
			</g>
			<g>
				<linearGradient id="SVGID_9_" gradientUnits="userSpaceOnUse" x1="1651.6001" y1="158.8872" x2="1756.1056" y2="158.8872">
					<stop  offset="0" style="stop-color:#918D60"/>
					<stop  offset="0.3772" style="stop-color:#555338"/>
					<stop  offset="0.799" style="stop-color:#181710"/>
					<stop  offset="1" style="stop-color:#000000"/>
				</linearGradient>
				<path class="st7" d="M1653.65,206.68c-0.52,0-1.05-0.18-1.45-0.55c-0.8-0.73-0.8-1.92,0-2.65l100.41-91.83
					c0.8-0.73,2.1-0.73,2.9,0c0.8,0.73,0.8,1.92,0,2.65l-100.41,91.83C1654.7,206.49,1654.17,206.68,1653.65,206.68z"/>
			</g>
			<g>
				<linearGradient id="SVGID_10_" gradientUnits="userSpaceOnUse" x1="145.4877" y1="886.9693" x2="485.6435" y2="886.9693">
					<stop  offset="0" style="stop-color:#918D60"/>
					<stop  offset="0.3772" style="stop-color:#555338"/>
					<stop  offset="0.799" style="stop-color:#181710"/>
					<stop  offset="1" style="stop-color:#000000"/>
				</linearGradient>
				<path class="st8" d="M147.54,1042.52c-0.52,0-1.05-0.18-1.45-0.55c-0.8-0.73-0.8-1.92,0-2.65l336.06-307.35
					c0.8-0.73,2.1-0.73,2.9,0c0.8,0.73,0.8,1.92,0,2.65l-336.06,307.35C148.59,1042.34,148.06,1042.52,147.54,1042.52z"/>
			</g>
			<g>
				<linearGradient id="SVGID_11_" gradientUnits="userSpaceOnUse" x1="1029.6884" y1="868.697" x2="1268.4121" y2="868.697">
					<stop  offset="0" style="stop-color:#918D60"/>
					<stop  offset="0.3772" style="stop-color:#555338"/>
					<stop  offset="0.799" style="stop-color:#181710"/>
					<stop  offset="1" style="stop-color:#000000"/>
				</linearGradient>
				<path class="st9" d="M1031.74,977.86c-0.52,0-1.05-0.18-1.45-0.55c-0.8-0.73-0.8-1.92,0-2.65l234.63-214.58
					c0.8-0.73,2.1-0.73,2.9,0s0.8,1.92,0,2.65l-234.63,214.58C1032.79,977.68,1032.26,977.86,1031.74,977.86z"/>
			</g>
			<g>
				
					<radialGradient id="SVGID_12_" cx="-1097.5712" cy="9041.501" r="428.6863" gradientTransform="matrix(1.0527 -0.9628 0.2343 0.2143 471.3458 -2391.6208)" gradientUnits="userSpaceOnUse">
					<stop  offset="0" style="stop-color:#CFCFCF"/>
					<stop  offset="0.4637" style="stop-color:#E7E7E7"/>
					<stop  offset="1" style="stop-color:#FFFFFF"/>
				</radialGradient>
				<path class="st10" d="M1829.07,182.18c-100.17,19.29-296.97,147.26-495.2,328.55c-198.22,181.29-338.15,361.28-359.24,452.9
					L1829.07,182.18z"/>
				
					<radialGradient id="SVGID_13_" cx="-1396.9531" cy="6688.5947" r="306.7237" gradientTransform="matrix(1.0527 -0.9628 0.2343 0.2143 471.3458 -2391.6208)" gradientUnits="userSpaceOnUse">
					<stop  offset="0" style="stop-color:#CFCFCF"/>
					<stop  offset="0.4637" style="stop-color:#E7E7E7"/>
					<stop  offset="1" style="stop-color:#FFFFFF"/>
				</radialGradient>
				<path class="st11" d="M850.3,85.84c-71.67,13.8-212.48,105.36-354.31,235.08c-141.83,129.71-241.94,258.5-257.03,324.05
					L850.3,85.84z"/>
				
					<radialGradient id="SVGID_14_" cx="-1617.5543" cy="6769.8228" r="375.0421" gradientTransform="matrix(1.0527 -0.9628 0.2343 0.2143 471.3458 -2391.6208)" gradientUnits="userSpaceOnUse">
					<stop  offset="0" style="stop-color:#CFCFCF"/>
					<stop  offset="0.4637" style="stop-color:#E7E7E7"/>
					<stop  offset="1" style="stop-color:#FFFFFF"/>
				</radialGradient>
				<path class="st12" d="M700.01,248.65c-87.64,16.87-259.81,128.83-433.23,287.43C93.36,694.69-29.05,852.16-47.5,932.31
					L700.01,248.65z"/>
			</g>
		</g>
		<g class="st2">
			<path class="st13" d="M905.13,170.51c-0.39,0-0.79-0.14-1.09-0.41c-0.6-0.55-0.6-1.44,0-1.99l442.61-404.8
				c0.6-0.55,1.57-0.55,2.17,0c0.6,0.55,0.6,1.44,0,1.99L906.22,170.1C905.92,170.37,905.53,170.51,905.13,170.51z"/>
		</g>
		<g class="st2">
			<path class="st13" d="M339.41,1246.34c-0.39,0-0.79-0.14-1.09-0.41c-0.6-0.55-0.6-1.44,0-1.99L873.15,754.8
				c0.6-0.55,1.57-0.55,2.17,0c0.6,0.55,0.6,1.44,0,1.99L340.5,1245.92C340.2,1246.2,339.81,1246.34,339.41,1246.34z"/>
		</g>
	</g>
	<g>
		<path class="st13" d="M1549.81,366.54c-0.56,0-1.09-0.3-1.37-0.79l-23.81-41.24c-0.28-0.49-0.28-1.09,0-1.58
			c0.28-0.49,0.81-0.79,1.37-0.79h47.62c0.56,0,1.09,0.3,1.37,0.79c0.28,0.49,0.28,1.09,0,1.58l-23.81,41.24
			C1550.9,366.24,1550.37,366.54,1549.81,366.54z M1528.74,325.3l21.07,36.5l21.07-36.5H1528.74z"/>
	</g>
</g>
<g id="Camada_1">
	<g>
		<g>
			<circle class="st13" cx="1424.92" cy="53.98" r="4"/>
			<circle class="st13" cx="1424.92" cy="77.01" r="4"/>
			<path class="st13" d="M1424.92,104.04c-2.21,0-4-1.79-4-4c0-2.21,1.79-4,4-4c2.21,0,4,1.79,4,4
				C1428.92,102.25,1427.13,104.04,1424.92,104.04z"/>
		</g>
		<g>
			<path class="st13" d="M412.64,1003.86c-2.21,0-4-1.79-4-4c0-2.21,1.79-4,4-4c2.21,0,4,1.79,4,4
				C416.64,1002.07,414.85,1003.86,412.64,1003.86z"/>
			<path class="st13" d="M412.64,1026.89c-2.21,0-4-1.79-4-4c0-2.21,1.79-4,4-4c2.21,0,4,1.79,4,4
				C416.64,1025.09,414.85,1026.89,412.64,1026.89z"/>
			<path class="st13" d="M412.64,1049.91c-2.21,0-4-1.79-4-4c0-2.21,1.79-4,4-4c2.21,0,4,1.79,4,4
				C416.64,1048.12,414.85,1049.91,412.64,1049.91z"/>
		</g>
		<g>
			<path class="st13" d="M624.36,646.21c-2.21,0-4-1.79-4-4c0-2.21,1.79-4,4-4c2.21,0,4,1.79,4,4
				C628.36,644.41,626.57,646.21,624.36,646.21z"/>
			<path class="st13" d="M624.36,669.23c-2.21,0-4-1.79-4-4c0-2.21,1.79-4,4-4c2.21,0,4,1.79,4,4
				C628.36,667.44,626.57,669.23,624.36,669.23z"/>
			<path class="st13" d="M624.36,692.26c-2.21,0-4-1.79-4-4c0-2.21,1.79-4,4-4c2.21,0,4,1.79,4,4
				C628.36,690.47,626.57,692.26,624.36,692.26z"/>
		</g>
		<g>
			<circle class="st13" cx="745.32" cy="215.23" r="4"/>
			<circle class="st13" cx="722.29" cy="215.23" r="4"/>
			<circle class="st13" cx="699.26" cy="215.23" r="4"/>
		</g>
		<g>
			<circle class="st13" cx="1739.74" cy="992.89" r="4"/>
			<circle class="st13" cx="1739.74" cy="1015.91" r="4"/>
			<circle class="st13" cx="1739.74" cy="1038.94" r="4"/>
		</g>
		<g>
			<circle class="st13" cx="101.83" cy="286.58" r="4"/>
			<circle class="st13" cx="101.83" cy="309.61" r="4"/>
			<path class="st13" d="M101.83,336.64c-2.21,0-4-1.79-4-4c0-2.21,1.79-4,4-4c2.21,0,4,1.79,4,4
				C105.83,334.85,104.04,336.64,101.83,336.64z"/>
		</g>
		<g>
			<circle class="st13" cx="1735.73" cy="363.78" r="4"/>
			<path class="st13" d="M1708.71,363.78c0-2.21,1.79-4,4-4c2.21,0,4,1.79,4,4c0,2.21-1.79,4-4,4
				C1710.5,367.78,1708.71,365.99,1708.71,363.78z"/>
			<path class="st13" d="M1685.68,363.78c0-2.21,1.79-4,4-4c2.21,0,4,1.79,4,4c0,2.21-1.79,4-4,4
				C1687.47,367.78,1685.68,365.99,1685.68,363.78z"/>
		</g>
		<g>
			<path class="st13" d="M147.88,794.36c0-2.21,1.79-4,4-4c2.21,0,4,1.79,4,4c0,2.21-1.79,4-4,4
				C149.67,798.36,147.88,796.57,147.88,794.36z"/>
			<path class="st13" d="M124.85,794.36c0-2.21,1.79-4,4-4c2.21,0,4,1.79,4,4c0,2.21-1.79,4-4,4
				C126.65,798.36,124.85,796.57,124.85,794.36z"/>
			<circle class="st13" cx="105.83" cy="794.36" r="4"/>
		</g>
		<g>
			<g>
				<circle class="st13" cx="297.51" cy="43.72" r="4"/>
				<circle class="st13" cx="320.53" cy="43.72" r="4"/>
				<circle class="st13" cx="343.56" cy="43.72" r="4"/>
				<circle class="st13" cx="366.59" cy="43.72" r="4"/>
				<path class="st13" d="M393.61,43.72c0,2.21-1.79,4-4,4c-2.21,0-4-1.79-4-4c0-2.21,1.79-4,4-4
					C391.82,39.72,393.61,41.51,393.61,43.72z"/>
				<path class="st13" d="M416.64,43.72c0,2.21-1.79,4-4,4c-2.21,0-4-1.79-4-4c0-2.21,1.79-4,4-4
					C414.85,39.72,416.64,41.51,416.64,43.72z"/>
				<path class="st13" d="M439.67,43.72c0,2.21-1.79,4-4,4c-2.21,0-4-1.79-4-4c0-2.21,1.79-4,4-4
					C437.88,39.72,439.67,41.51,439.67,43.72z"/>
			</g>
			<g>
				<circle class="st13" cx="297.51" cy="69.88" r="4"/>
				<circle class="st13" cx="320.53" cy="69.88" r="4"/>
				<circle class="st13" cx="343.56" cy="69.88" r="4"/>
				<circle class="st13" cx="366.59" cy="69.88" r="4"/>
				<path class="st13" d="M393.61,69.88c0,2.21-1.79,4-4,4c-2.21,0-4-1.79-4-4s1.79-4,4-4C391.82,65.88,393.61,67.67,393.61,69.88z"
					/>
				<path class="st13" d="M416.64,69.88c0,2.21-1.79,4-4,4c-2.21,0-4-1.79-4-4s1.79-4,4-4C414.85,65.88,416.64,67.67,416.64,69.88z"
					/>
				<path class="st13" d="M439.67,69.88c0,2.21-1.79,4-4,4c-2.21,0-4-1.79-4-4s1.79-4,4-4C437.88,65.88,439.67,67.67,439.67,69.88z"
					/>
			</g>
			<g>
				<circle class="st13" cx="297.51" cy="96.04" r="4"/>
				<circle class="st13" cx="320.53" cy="96.04" r="4"/>
				<circle class="st13" cx="343.56" cy="96.04" r="4"/>
				<circle class="st13" cx="366.59" cy="96.04" r="4"/>
				<path class="st13" d="M393.61,96.04c0,2.21-1.79,4-4,4c-2.21,0-4-1.79-4-4c0-2.21,1.79-4,4-4
					C391.82,92.04,393.61,93.83,393.61,96.04z"/>
				<path class="st13" d="M416.64,96.04c0,2.21-1.79,4-4,4c-2.21,0-4-1.79-4-4c0-2.21,1.79-4,4-4
					C414.85,92.04,416.64,93.83,416.64,96.04z"/>
				<path class="st13" d="M439.67,96.04c0,2.21-1.79,4-4,4c-2.21,0-4-1.79-4-4c0-2.21,1.79-4,4-4
					C437.88,92.04,439.67,93.83,439.67,96.04z"/>
			</g>
			<g>
				<circle class="st13" cx="297.51" cy="122.19" r="4"/>
				<circle class="st13" cx="320.53" cy="122.19" r="4"/>
				<circle class="st13" cx="343.56" cy="122.19" r="4"/>
				<circle class="st13" cx="366.59" cy="122.19" r="4"/>
				<path class="st13" d="M393.61,122.19c0,2.21-1.79,4-4,4c-2.21,0-4-1.79-4-4c0-2.21,1.79-4,4-4
					C391.82,118.19,393.61,119.99,393.61,122.19z"/>
				<path class="st13" d="M416.64,122.19c0,2.21-1.79,4-4,4c-2.21,0-4-1.79-4-4c0-2.21,1.79-4,4-4
					C414.85,118.19,416.64,119.99,416.64,122.19z"/>
				<path class="st13" d="M439.67,122.19c0,2.21-1.79,4-4,4c-2.21,0-4-1.79-4-4c0-2.21,1.79-4,4-4
					C437.88,118.19,439.67,119.99,439.67,122.19z"/>
			</g>
			<g>
				<circle class="st13" cx="297.51" cy="148.35" r="4"/>
				<circle class="st13" cx="320.53" cy="148.35" r="4"/>
				<circle class="st13" cx="343.56" cy="148.35" r="4"/>
				<circle class="st13" cx="366.59" cy="148.35" r="4"/>
				<path class="st13" d="M393.61,148.35c0,2.21-1.79,4-4,4c-2.21,0-4-1.79-4-4c0-2.21,1.79-4,4-4
					C391.82,144.35,393.61,146.14,393.61,148.35z"/>
				<path class="st13" d="M416.64,148.35c0,2.21-1.79,4-4,4c-2.21,0-4-1.79-4-4c0-2.21,1.79-4,4-4
					C414.85,144.35,416.64,146.14,416.64,148.35z"/>
				<path class="st13" d="M439.67,148.35c0,2.21-1.79,4-4,4c-2.21,0-4-1.79-4-4c0-2.21,1.79-4,4-4
					C437.88,144.35,439.67,146.14,439.67,148.35z"/>
			</g>
			<g>
				<circle class="st13" cx="297.51" cy="174.51" r="4"/>
				<circle class="st13" cx="320.53" cy="174.51" r="4"/>
				<circle class="st13" cx="343.56" cy="174.51" r="4"/>
				<circle class="st13" cx="366.59" cy="174.51" r="4"/>
				<path class="st13" d="M393.61,174.51c0,2.21-1.79,4-4,4c-2.21,0-4-1.79-4-4c0-2.21,1.79-4,4-4
					C391.82,170.51,393.61,172.3,393.61,174.51z"/>
				<path class="st13" d="M416.64,174.51c0,2.21-1.79,4-4,4c-2.21,0-4-1.79-4-4c0-2.21,1.79-4,4-4
					C414.85,170.51,416.64,172.3,416.64,174.51z"/>
				<path class="st13" d="M439.67,174.51c0,2.21-1.79,4-4,4c-2.21,0-4-1.79-4-4c0-2.21,1.79-4,4-4
					C437.88,170.51,439.67,172.3,439.67,174.51z"/>
			</g>
			<g>
				<circle class="st13" cx="297.51" cy="200.67" r="4"/>
				<circle class="st13" cx="320.53" cy="200.67" r="4"/>
				<circle class="st13" cx="343.56" cy="200.67" r="4"/>
				<circle class="st13" cx="366.59" cy="200.67" r="4"/>
				<path class="st13" d="M393.61,200.67c0,2.21-1.79,4-4,4c-2.21,0-4-1.79-4-4c0-2.21,1.79-4,4-4
					C391.82,196.67,393.61,198.46,393.61,200.67z"/>
				<path class="st13" d="M416.64,200.67c0,2.21-1.79,4-4,4c-2.21,0-4-1.79-4-4c0-2.21,1.79-4,4-4
					C414.85,196.67,416.64,198.46,416.64,200.67z"/>
				<path class="st13" d="M439.67,200.67c0,2.21-1.79,4-4,4c-2.21,0-4-1.79-4-4c0-2.21,1.79-4,4-4
					C437.88,196.67,439.67,198.46,439.67,200.67z"/>
			</g>
		</g>
		<g>
			<g>
				<circle class="st13" cx="1405.9" cy="871.14" r="4"/>
				<path class="st13" d="M1432.92,871.14c0,2.21-1.79,4-4,4c-2.21,0-4-1.79-4-4c0-2.21,1.79-4,4-4
					C1431.13,867.14,1432.92,868.93,1432.92,871.14z"/>
				<path class="st13" d="M1455.95,871.14c0,2.21-1.79,4-4,4c-2.21,0-4-1.79-4-4c0-2.21,1.79-4,4-4
					C1454.16,867.14,1455.95,868.93,1455.95,871.14z"/>
				<circle class="st13" cx="1474.98" cy="871.14" r="4"/>
				<circle class="st13" cx="1498" cy="871.14" r="4"/>
				<circle class="st13" cx="1521.03" cy="871.14" r="4"/>
				<circle class="st13" cx="1544.06" cy="871.14" r="4"/>
			</g>
			<g>
				<circle class="st13" cx="1405.9" cy="897.3" r="4"/>
				<path class="st13" d="M1432.92,897.3c0,2.21-1.79,4-4,4c-2.21,0-4-1.79-4-4s1.79-4,4-4
					C1431.13,893.3,1432.92,895.09,1432.92,897.3z"/>
				<path class="st13" d="M1455.95,897.3c0,2.21-1.79,4-4,4c-2.21,0-4-1.79-4-4s1.79-4,4-4
					C1454.16,893.3,1455.95,895.09,1455.95,897.3z"/>
				<circle class="st13" cx="1474.98" cy="897.3" r="4"/>
				<circle class="st13" cx="1498" cy="897.3" r="4"/>
				<circle class="st13" cx="1521.03" cy="897.3" r="4"/>
				<circle class="st13" cx="1544.06" cy="897.3" r="4"/>
			</g>
			<g>
				<circle class="st13" cx="1405.9" cy="923.45" r="4"/>
				<path class="st13" d="M1432.92,923.45c0,2.21-1.79,4-4,4c-2.21,0-4-1.79-4-4c0-2.21,1.79-4,4-4
					C1431.13,919.45,1432.92,921.25,1432.92,923.45z"/>
				<path class="st13" d="M1455.95,923.45c0,2.21-1.79,4-4,4c-2.21,0-4-1.79-4-4c0-2.21,1.79-4,4-4
					C1454.16,919.45,1455.95,921.25,1455.95,923.45z"/>
				<circle class="st13" cx="1474.98" cy="923.45" r="4"/>
				<circle class="st13" cx="1498" cy="923.45" r="4"/>
				<circle class="st13" cx="1521.03" cy="923.45" r="4"/>
				<circle class="st13" cx="1544.06" cy="923.45" r="4"/>
			</g>
			<g>
				<circle class="st13" cx="1405.9" cy="949.61" r="4"/>
				<path class="st13" d="M1432.92,949.61c0,2.21-1.79,4-4,4c-2.21,0-4-1.79-4-4c0-2.21,1.79-4,4-4
					C1431.13,945.61,1432.92,947.4,1432.92,949.61z"/>
				<path class="st13" d="M1455.95,949.61c0,2.21-1.79,4-4,4c-2.21,0-4-1.79-4-4c0-2.21,1.79-4,4-4
					C1454.16,945.61,1455.95,947.4,1455.95,949.61z"/>
				<circle class="st13" cx="1474.98" cy="949.61" r="4"/>
				<circle class="st13" cx="1498" cy="949.61" r="4"/>
				<circle class="st13" cx="1521.03" cy="949.61" r="4"/>
				<circle class="st13" cx="1544.06" cy="949.61" r="4"/>
			</g>
			<g>
				<circle class="st13" cx="1405.9" cy="975.77" r="4"/>
				<path class="st13" d="M1432.92,975.77c0,2.21-1.79,4-4,4c-2.21,0-4-1.79-4-4c0-2.21,1.79-4,4-4
					C1431.13,971.77,1432.92,973.56,1432.92,975.77z"/>
				<path class="st13" d="M1455.95,975.77c0,2.21-1.79,4-4,4c-2.21,0-4-1.79-4-4c0-2.21,1.79-4,4-4
					C1454.16,971.77,1455.95,973.56,1455.95,975.77z"/>
				<circle class="st13" cx="1474.98" cy="975.77" r="4"/>
				<circle class="st13" cx="1498" cy="975.77" r="4"/>
				<circle class="st13" cx="1521.03" cy="975.77" r="4"/>
				<circle class="st13" cx="1544.06" cy="975.77" r="4"/>
			</g>
			<g>
				<path class="st13" d="M1409.9,1001.93c0,2.21-1.79,4-4,4s-4-1.79-4-4c0-2.21,1.79-4,4-4S1409.9,999.72,1409.9,1001.93z"/>
				<path class="st13" d="M1432.92,1001.93c0,2.21-1.79,4-4,4c-2.21,0-4-1.79-4-4c0-2.21,1.79-4,4-4
					C1431.13,997.93,1432.92,999.72,1432.92,1001.93z"/>
				<path class="st13" d="M1455.95,1001.93c0,2.21-1.79,4-4,4c-2.21,0-4-1.79-4-4c0-2.21,1.79-4,4-4
					C1454.16,997.93,1455.95,999.72,1455.95,1001.93z"/>
				<path class="st13" d="M1478.98,1001.93c0,2.21-1.79,4-4,4c-2.21,0-4-1.79-4-4c0-2.21,1.79-4,4-4
					C1477.19,997.93,1478.98,999.72,1478.98,1001.93z"/>
				<path class="st13" d="M1502,1001.93c0,2.21-1.79,4-4,4c-2.21,0-4-1.79-4-4c0-2.21,1.79-4,4-4
					C1500.21,997.93,1502,999.72,1502,1001.93z"/>
				<path class="st13" d="M1525.03,1001.93c0,2.21-1.79,4-4,4c-2.21,0-4-1.79-4-4c0-2.21,1.79-4,4-4
					C1523.24,997.93,1525.03,999.72,1525.03,1001.93z"/>
				<path class="st13" d="M1548.06,1001.93c0,2.21-1.79,4-4,4c-2.21,0-4-1.79-4-4c0-2.21,1.79-4,4-4
					C1546.27,997.93,1548.06,999.72,1548.06,1001.93z"/>
			</g>
			<g>
				<circle class="st13" cx="1405.9" cy="1028.09" r="4"/>
				<path class="st13" d="M1432.92,1028.09c0,2.21-1.79,4-4,4c-2.21,0-4-1.79-4-4c0-2.21,1.79-4,4-4
					C1431.13,1024.09,1432.92,1025.88,1432.92,1028.09z"/>
				<path class="st13" d="M1455.95,1028.09c0,2.21-1.79,4-4,4c-2.21,0-4-1.79-4-4c0-2.21,1.79-4,4-4
					C1454.16,1024.09,1455.95,1025.88,1455.95,1028.09z"/>
				<circle class="st13" cx="1474.98" cy="1028.09" r="4"/>
				<circle class="st13" cx="1498" cy="1028.09" r="4"/>
				<circle class="st13" cx="1521.03" cy="1028.09" r="4"/>
				<circle class="st13" cx="1544.06" cy="1028.09" r="4"/>
			</g>
		</g>
	</g>
</g>
<g id="Camada_3">
	<g>
		<g class="st14">
			<g>
				<circle class="st13" cx="320.17" cy="932.87" r="8.69"/>
				<circle class="st13" cx="364.33" cy="932.87" r="8.69"/>
				<path class="st13" d="M417.19,932.87c0,4.8-3.89,8.69-8.69,8.69c-4.8,0-8.69-3.89-8.69-8.69c0-4.8,3.89-8.69,8.69-8.69
					C413.3,924.18,417.19,928.07,417.19,932.87z"/>
				<path class="st13" d="M328.86,977.04c0,4.8-3.89,8.69-8.69,8.69c-4.8,0-8.69-3.89-8.69-8.69c0-4.8,3.89-8.69,8.69-8.69
					C324.97,968.34,328.86,972.23,328.86,977.04z"/>
				<path class="st13" d="M373.03,977.04c0,4.8-3.89,8.69-8.69,8.69c-4.8,0-8.69-3.89-8.69-8.69c0-4.8,3.89-8.69,8.69-8.69
					C369.14,968.34,373.03,972.23,373.03,977.04z"/>
				<path class="st13" d="M417.19,977.04c0,4.8-3.89,8.69-8.69,8.69c-4.8,0-8.69-3.89-8.69-8.69c0-4.8,3.89-8.69,8.69-8.69
					C413.3,968.34,417.19,972.23,417.19,977.04z"/>
				<path class="st13" d="M328.86,1021.2c0,4.8-3.89,8.69-8.69,8.69c-4.8,0-8.69-3.89-8.69-8.69c0-4.8,3.89-8.69,8.69-8.69
					C324.97,1012.51,328.86,1016.4,328.86,1021.2z"/>
				<path class="st13" d="M373.03,1021.2c0,4.8-3.89,8.69-8.69,8.69c-4.8,0-8.69-3.89-8.69-8.69c0-4.8,3.89-8.69,8.69-8.69
					C369.14,1012.51,373.03,1016.4,373.03,1021.2z"/>
				<path class="st13" d="M417.19,1021.2c0,4.8-3.89,8.69-8.69,8.69c-4.8,0-8.69-3.89-8.69-8.69c0-4.8,3.89-8.69,8.69-8.69
					C413.3,1012.51,417.19,1016.4,417.19,1021.2z"/>
			</g>
			
				<ellipse transform="matrix(0.948 -0.3182 0.3182 0.948 -28.5073 63.9065)" class="st15" cx="181.35" cy="119.21" rx="28.17" ry="28.17"/>
			<path class="st15" d="M241.07,827.75c0,32.98-26.74,59.72-59.72,59.72c-32.98,0-59.72-26.74-59.72-59.72"/>
			<path class="st16" d="M1535.56,965.19c11.34,0,20.54,9.19,20.54,20.54c0,11.34-9.19,20.54-20.54,20.54"/>
			<path class="st15" d="M1402.67,241.79c0-32.98,26.74-59.72,59.72-59.72c32.98,0,59.72,26.74,59.72,59.72"/>
			<path class="st15" d="M1032.64,998.2c0-32.98,26.74-59.72,59.72-59.72c32.98,0,59.72,26.74,59.72,59.72"/>
			
				<ellipse transform="matrix(0.1608 -0.987 0.987 0.1608 -368.2549 1341.8137)" class="st15" cx="604.94" cy="887.46" rx="38.19" ry="38.19"/>
			<circle class="st15" cx="1691.55" cy="754.58" r="59.72"/>
		</g>
	</g>
</g>
</svg>
