<?xml version="1.0" encoding="utf-8"?>
<!-- Generator: Adobe Illustrator 19.2.0, SVG Export Plug-In . SVG Version: 6.00 Build 0)  -->
<svg version="1.1" id="Layer_1" xmlns="http://www.w3.org/2000/svg" xmlns:xlink="http://www.w3.org/1999/xlink" x="0px" y="0px"
	 width="64px" height="64px" viewBox="0 0 64 64" style="enable-background:new 0 0 64 64;" xml:space="preserve">
<style type="text/css">
	.st0{fill:#D4833F;}
	.st1{fill:#16753D;}
	.st2{fill:#EFE2BA;}
	.st3{fill:#9E9B9C;}
	.st4{fill:#229348;}
	.st5{fill:#3A974A;}
</style>
<circle class="st0" cx="32.1" cy="31.9" r="32"/>
<polygon class="st1" points="48.4,29.8 48.6,29.8 48.5,29.7 48.6,29.7 48.5,29.7 32.2,19.7 15.8,29.7 16,29.7 32.3,39.7 "/>
<rect x="17.5" y="14.3" class="st2" width="29.4" height="34.1"/>
<g>
	<rect x="19.9" y="14.3" class="st3" width="0.8" height="30"/>
</g>
<g>
	<rect x="23.3" y="21.5" class="st3" width="19.9" height="0.8"/>
</g>
<g>
	<rect x="23.5" y="24.8" class="st3" width="19.6" height="0.8"/>
</g>
<g>
	<rect x="23.5" y="28" class="st3" width="19.6" height="0.8"/>
</g>
<g>
	<rect x="23.5" y="31.3" class="st3" width="19.6" height="0.8"/>
</g>
<g>
	<rect x="23.6" y="34.4" class="st3" width="19.6" height="0.8"/>
</g>
<polygon class="st4" points="48.6,29.7 48.6,49.8 15.7,49.8 "/>
<polygon class="st5" points="16,29.7 16,49.8 48.8,49.8 "/>
</svg>
