<?xml version="1.0" encoding="utf-8"?>
<!-- Generator: Adobe Illustrator 19.2.0, SVG Export Plug-In . SVG Version: 6.00 Build 0)  -->
<svg version="1.1" id="Layer_1" xmlns="http://www.w3.org/2000/svg" xmlns:xlink="http://www.w3.org/1999/xlink" x="0px" y="0px"
	 width="64px" height="64px" viewBox="0 0 64 64" style="enable-background:new 0 0 64 64;" xml:space="preserve">
<style type="text/css">
	.st0{fill:#FFFFFF;}
</style>
<g>
	<g>
		<rect x="17.9" y="24.4" class="st0" width="29.5" height="2.3"/>
		<rect x="17.9" y="17.6" class="st0" width="29.5" height="2.3"/>
		<path class="st0" d="M54.2,20.8v-7.7c0-2.5-2-4.5-4.5-4.5h-9.3l-7.7-6.8l-7.7,6.8h-9.3c-2.5,0-4.5,2-4.5,4.5v7.7l-6.8,5.9v31.8
			c0,2.5,2,4.5,4.5,4.5h47.7c2.5,0,4.5-2,4.5-4.5V26.7L54.2,20.8z M54.2,23.7l3.4,3l-3.4,3V23.7z M32.6,4.7l4.3,3.9h-8.9L32.6,4.7z
			 M13.3,13.1c0-1.4,0.9-2.3,2.3-2.3h34.1c1.1,0,2.3,1.1,2.3,2.3v18.4L44.7,38H20.6l-7.3-6.4V13.1z M37.2,44.8L37.2,44.8h-7.7h3.9
			h-5.2l-5-4.5h18.8L37.2,44.8L37.2,44.8z M11.1,23.7v6.1l-3.4-3.2L11.1,23.7z M7.2,60c-0.5-0.5-0.7-0.9-0.7-1.6V43.7V28.9
			l18.2,15.9L7.2,60z M9.9,60.7l15.9-13.6h13.6l15.9,13.6H9.9z M58.7,43.7v14.8c0,0.7-0.2,1.1-0.7,1.6L40.6,44.8l18.2-15.9V43.7z"/>
		<rect x="17.9" y="31.2" class="st0" width="29.5" height="2.3"/>
	</g>
</g>
</svg>
