<?xml version="1.0" encoding="utf-8"?>
<!-- Generator: Adobe Illustrator 17.0.0, SVG Export Plug-In . SVG Version: 6.00 Build 0)  -->
<!DOCTYPE svg PUBLIC "-//W3C//DTD SVG 1.1//EN" "http://www.w3.org/Graphics/SVG/1.1/DTD/svg11.dtd">
<svg version="1.1" id="Layer_1" xmlns="http://www.w3.org/2000/svg" xmlns:xlink="http://www.w3.org/1999/xlink" x="0px" y="0px"
	 width="60px" height="60px" viewBox="-5 -5 60 60" enable-background="new -5 -5 60 60" xml:space="preserve">
<circle fill="#E98A37" cx="24.552" cy="24.695" r="27.286"/>
<g>
	<path fill="#BFBEBE" d="M28.909,42.638C28.908,42.638,28.908,42.638,28.909,42.638c-4.239,0-8.42-3.713-10.403-9.241
		c-0.015-0.039-0.027-0.08-0.04-0.119l-0.01-0.029l-0.666-1.91l16.922-6.619l0.754,2.034c0.016,0.039,0.031,0.08,0.045,0.12
		c2.414,6.73,0.606,13.451-4.12,15.298C30.602,42.482,29.767,42.638,28.909,42.638z M23.217,33.723
		c1.6,3.076,3.987,4.716,5.692,4.716c0.333,0,0.653-0.059,0.953-0.176c1.886-0.737,3.065-4.039,2.248-8.017L23.217,33.723z"/>
</g>
<g>
	<polygon fill="#FFFFFF" points="10.954,8.374 10.954,40.255 15.091,38.66 15.091,9.948 	"/>
	<polygon fill="#FFFFFF" points="18.756,11.342 18.756,37.246 36.262,30.49 36.262,18.004 	"/>
	<polygon fill="#3B469D" points="15.091,9.948 15.091,38.66 18.756,37.246 18.756,11.342 	"/>
	<polygon fill="#C9CF2C" points="43.511,20.762 36.262,18.004 36.262,30.49 43.511,27.692 	"/>
</g>
</svg>
