<?xml version="1.0" encoding="utf-8"?>
<!-- Generator: Adobe Illustrator 19.2.0, SVG Export Plug-In . SVG Version: 6.00 Build 0)  -->
<svg version="1.1" id="Camada_1" xmlns="http://www.w3.org/2000/svg" xmlns:xlink="http://www.w3.org/1999/xlink" x="0px" y="0px"
	 width="1920px" height="1080px" viewBox="0 0 1920 1080" style="enable-background:new 0 0 1920 1080;" xml:space="preserve">
<style type="text/css">
	.st0{display:none;}
	.st1{display:inline;fill:#E53030;}
	.st2{fill:#58B947;}
	.st3{fill:#FFFFFF;}
	.st4{fill:#3597D3;}
	.st5{fill:#2E5A7F;}
	.st6{fill:#2DA2D5;}
	.st7{fill:#36568D;}
</style>
<g id="Camada_2" class="st0">
	<rect x="-19.3" y="-30.7" class="st1" width="926" height="148.7"/>
</g>
<g id="Layer_1_1_">
	<rect x="6.3" y="264.9" class="st2" width="108" height="108"/>
	<rect x="114.3" y="264.9" class="st2" width="108" height="108"/>
</g>
<g>
	<path class="st3" d="M380.2,25.8h-7v-7c0-1.3-1-2.3-2.3-2.3H367c-1.3,0-2.3,1-2.3,2.3v7h-7c-1.3,0-2.3,1-2.3,2.3V32
		c0,1.3,1,2.3,2.3,2.3h7v7c0,1.3,1,2.3,2.3,2.3h3.9c1.3,0,2.3-1,2.3-2.3v-7h7c1.3,0,2.3-1,2.3-2.3v-3.9
		C382.5,26.8,381.5,25.8,380.2,25.8L380.2,25.8z"/>
	<path class="st3" d="M369,1c-16,0-29,13-29,29s13,29,29,29s29-13,29-29S385,1,369,1L369,1z M369,50.8c-11.4,0-20.7-9.3-20.7-20.7
		S357.6,9.3,369,9.3s20.7,9.3,20.7,20.7C389.7,41.5,380.5,50.8,369,50.8L369,50.8z"/>
</g>
<g>
	<path class="st3" d="M598.7,19c0-4.7-3.8-8.6-8.6-8.6H550c-4.7,0-8.6,3.8-8.6,8.6v23c0,4.7,3.8,8.6,8.6,8.6h40.2
		c4.7,0,8.6-3.8,8.6-8.6L598.7,19L598.7,19z M564.3,40.2V18.6l16.4,10.8L564.3,40.2z"/>
</g>
<rect x="12.1" y="217.5" width="40" height="40"/>
<g>
	<path class="st3" d="M226.9,35.4v21.2h-12.3V36.8c0-5-1.8-8.3-6.2-8.3c-3.4,0-5.4,2.3-6.3,4.5c-0.3,0.8-0.4,1.9-0.4,3v20.6h-12.3
		c0,0,0.2-33.4,0-36.9h12.3v5.2l-0.1,0.1h0.1v-0.1c1.6-2.5,4.5-6.1,11.1-6.1C220.9,18.8,226.9,24,226.9,35.4L226.9,35.4z M176.6,1.8
		c-4.2,0-6.9,2.8-6.9,6.4c0,3.5,2.7,6.4,6.8,6.4h0.1c4.3,0,6.9-2.8,6.9-6.4C183.4,4.6,180.8,1.8,176.6,1.8L176.6,1.8z M170.4,56.5
		h12.3V19.6h-12.3V56.5z"/>
</g>
<g>
	<path class="st3" d="M306.4,3c-14.7,0-26.7,11.9-26.7,26.7s11.9,26.7,26.7,26.7s26.6-12,26.6-26.7S321.1,3,306.4,3L306.4,3z
		 M319.1,31.8l-15.9,10.9c-0.4,0.3-1,0.5-1.5,0.5c-0.4,0-0.8-0.1-1.2-0.3c-0.9-0.5-1.4-1.3-1.4-2.3V18.7c0-1,0.5-1.9,1.4-2.3
		s1.9-0.4,2.7,0.2l15.9,10.9c0.7,0.5,1.1,1.3,1.1,2.1S319.8,31.3,319.1,31.8L319.1,31.8z"/>
</g>
<g>
	<path class="st3" d="M32.1,2C15.6,2,2,15.6,2,32.1s13.6,30.1,30.1,30.1s30.1-13.6,30.1-30.1C62.3,15.6,48.7,2,32.1,2L32.1,2z
		 M47.2,35.1h-12v12h-6v-12h-12v-6h12v-12h6v12h12V35.1z"/>
</g>
<g>
	<path class="st4" d="M524.4,7.5h-45.1c-3.1,0-5.7,2.5-5.7,5.7V47c0,3.1,2.5,5.7,5.7,5.7h45.1c3.1,0,5.7-2.6,5.7-5.7V13.1
		C530.1,10,527.5,7.5,524.4,7.5z M524.4,18.8l-22.6,14.1l-22.6-14.1v-5.6l22.6,14.1l22.6-14.1V18.8z"/>
</g>
<path class="st5" d="M653.8,0h-33.3c-8.4,0-15.3,6.9-15.3,15.3v33.3c0,8.4,6.9,15.3,15.3,15.3h33.3c8.4,0,15.3-6.9,15.3-15.3V15.3
	C669.2,6.9,662.3,0,653.8,0z"/>
<g>
	<path class="st3" d="M653.9,11.5h-33c-2.3,0-4.1,1.9-4.1,4.1v33c0,2.3,1.9,4.1,4.1,4.1h33c2.3,0,4.1-1.9,4.1-4.1v-33
		C658,13.3,656.1,11.5,653.9,11.5L653.9,11.5z M637.3,23.8c4.5,0,8.3,3.7,8.3,8.3s-3.7,8.3-8.3,8.3c-4.5,0-8.3-3.7-8.3-8.3
		S632.8,23.8,637.3,23.8L637.3,23.8z M621.9,48.6c-0.6,0-1-0.4-1-1V30h4.3c-0.2,0.6-0.2,1.5-0.2,2.1c0,6.8,5.6,12.4,12.4,12.4
		s12.4-5.6,12.4-12.4c0-0.6,0-1.4-0.2-2.1h4.3v17.6c0,0.6-0.4,1-1,1H621.9z M653.9,20.8c0,0.6-0.4,1-1,1h-4.1c-0.6,0-1-0.4-1-1v-4.1
		c0-0.6,0.4-1,1-1h4.1c0.6,0,1,0.4,1,1V20.8z"/>
</g>
<path class="st6" d="M450.6,0h-33.3C408.9,0,402,6.9,402,15.3v33.3c0,8.4,6.9,15.3,15.3,15.3h33.3c8.4,0,15.3-6.9,15.3-15.3V15.3
	C466,6.9,459.1,0,450.6,0z"/>
<g>
	<path class="st3" d="M455.2,19.3c-1.5,0.7-3.2,1.2-4.9,1.4c1.8-1.1,3.1-2.8,3.8-4.8c-1.7,1-3.5,1.7-5.5,2.1
		c-1.6-1.7-3.8-2.7-6.3-2.7c-4.8,0-8.6,3.9-8.6,8.6c0,0.7,0.1,1.3,0.2,2c-7.2-0.4-13.5-3.8-17.8-9c-0.7,1.3-1.2,2.8-1.2,4.3
		c0,3,1.5,5.6,3.8,7.2c-1.4,0-2.7-0.4-3.9-1.1v0.1c0,4.2,3,7.7,6.9,8.5c-0.7,0.2-1.5,0.3-2.3,0.3c-0.6,0-1.1,0-1.6-0.2
		c1.1,3.4,4.3,5.9,8.1,6c-3,2.3-6.7,3.7-10.7,3.7c-0.7,0-1.4,0-2.1-0.1c3.8,2.4,8.3,3.9,13.2,3.9c15.8,0,24.5-13.1,24.5-24.5v-1.1
		C452.6,22.5,454,21,455.2,19.3L455.2,19.3z"/>
</g>
<path class="st7" d="M153.2,0h-33.3c-8.4,0-15.3,6.9-15.3,15.3v33.3c0,8.4,6.9,15.3,15.3,15.3h33.3c8.4,0,15.3-6.9,15.3-15.3V15.3
	C168.5,6.9,161.6,0,153.2,0z"/>
<path class="st3" d="M130.1,42.4h6.5V63c0,0.6,0.5,1,1,1h8.4c0.6,0,1-0.5,1-1V42.4h7.6c0.6,0,1-0.5,1-1v-8.2c0-0.3-0.1-0.5-0.3-0.7
	s-0.4-0.3-0.7-0.3H147v-4.8c0-2.3,0.5-3.5,3.5-3.5h4.3c0.6,0,1-0.5,1-1v-7.6c0-0.5-0.3-0.8-0.7-1H147c-6.4,0.6-10.5,5.2-10.5,12.1
	V32H130c-0.6,0-1,0.5-1,1v8.2C129.1,42,129.6,42.4,130.1,42.4z"/>
<g>
	<path class="st3" d="M88.4,5.6c-2.8-2.7-6.2-4.1-10.3-4.1c-4,0-7.4,1.4-10.1,4.1c-2.6,2.7-4,6-4,9.8s1.3,7.1,3.8,9.9
		c2.7,2.9,6.1,4.4,10.2,4.4c0.2,0,0.4,0,0.6,0v-2.8c-0.2,0-0.4,0-0.6,0c-3.3,0-6-1.2-8.1-3.5c-2-2.2-3-4.9-3-7.9s1-5.7,3.1-7.8
		c2.1-2.2,4.7-3.3,7.8-3.3c3.3,0,6,1,8.1,3.1c2,2,3,4.3,3,7c0,3-0.9,5.3-1.3,6h-3.6V8.2h-3.4v1.5c-0.4-0.3-0.9-0.6-1.5-0.9
		c-0.8-0.3-1.6-0.4-2.4-0.4c-2,0-3.8,0.8-5.1,2.4c-1.2,1.5-1.9,3.2-1.9,5.2c0,1.8,0.6,3.6,1.7,5c1.3,1.7,3,2.5,5.2,2.6h0.1
		c1.7,0,3.2-0.6,4.4-1.7l0.5,1.4h8.1l0.9-1.9c0.9-1.7,1.3-4.1,1.3-6.8C92.2,11.1,90.9,8.1,88.4,5.6L88.4,5.6z M79.5,19.1
		c-0.7,0.9-1.6,1.3-2.6,1.3c-1.3,0-2.4-0.5-3.1-1.6c-0.7-0.9-0.9-1.8-0.9-2.8c0-1.2,0.4-2.2,1.1-3c0.8-0.9,1.8-1.5,3-1.5
		c0.8,0,1.5,0.4,2.3,1c0.9,0.9,1.4,2,1.4,3.5C80.7,17.1,80.3,18.2,79.5,19.1L79.5,19.1z"/>
</g>
<g>
	<path class="st3" d="M248.1,1.3c-7.7,0-14,6.3-14,14s6.3,14,14,14s14-6.3,14-14S255.8,1.3,248.1,1.3z M256.5,21.7l-1.2,1.2
		c-0.2,0.2-0.8,0.4-0.8,0.4c-3.5,0-6.9-1.4-9.4-3.9c-2.5-2.5-3.9-5.9-3.9-9.5c0,0,0.1-0.6,0.4-0.8l1.2-1.2c0.4-0.4,1.2-0.6,1.7-0.4
		l0.2,0.1c0.6,0.2,1.2,0.8,1.3,1.4l0.6,2.1c0.1,0.6-0.1,1.4-0.4,1.8l-0.7,0.7c0.7,2.7,2.9,4.8,5.6,5.6l0.7-0.7
		c0.4-0.4,1.2-0.6,1.8-0.4l2.1,0.6c0.6,0.1,1.2,0.7,1.4,1.3L257,20C257.1,20.5,256.9,21.3,256.5,21.7z"/>
</g>
</svg>
