<?xml version="1.0" encoding="utf-8"?>
<!-- Generator: Adobe Illustrator 19.2.0, SVG Export Plug-In . SVG Version: 6.00 Build 0)  -->
<svg version="1.1" id="Layer_1" xmlns="http://www.w3.org/2000/svg" xmlns:xlink="http://www.w3.org/1999/xlink" x="0px" y="0px"
	 width="64px" height="64px" viewBox="0 0 64 64" style="enable-background:new 0 0 64 64;" xml:space="preserve">
<style type="text/css">
	.st0{fill:#3597D3;}
</style>
<g>
	<path class="st0" d="M32.9,51.9H30c-0.2,0-0.4,0.2-0.4,0.4v1.9c0,0.2,0.2,0.4,0.4,0.4h2.8c0.2,0,0.4-0.2,0.4-0.4v-1.9
		C33.3,52.1,33.1,51.9,32.9,51.9z"/>
	<path class="st0" d="M44.3,9H18.5c-1.6,0-3,1.3-3,3V55c0,1.6,1.3,3,3,3h25.8c1.6,0,3-1.3,3-3V12C47.3,10.3,46,9,44.3,9z M29.2,11.2
		h4.4c0.4,0,0.7,0.3,0.7,0.7s-0.3,0.7-0.7,0.7h-4.4c-0.4,0-0.7-0.3-0.7-0.7S28.8,11.2,29.2,11.2z M34.8,54.2c0,1.1-0.9,1.9-1.9,1.9
		H30c-1.1,0-1.9-0.9-1.9-1.9v-1.9c0-1.1,0.9-1.9,1.9-1.9h2.8c1.1,0,1.9,0.9,1.9,1.9V54.2L34.8,54.2z M44,48.1c0,0.4-0.3,0.7-0.7,0.7
		H19.6c-0.4,0-0.7-0.3-0.7-0.7V15.3c0-0.4,0.3-0.7,0.7-0.7h23.6c0.4,0,0.7,0.3,0.7,0.7L44,48.1L44,48.1z"/>
	<path class="st0" d="M58.2,21.5c-0.5-0.6-1.4-0.7-2.1-0.2c-0.6,0.5-0.7,1.4-0.2,2.1c1.8,2.3,2.7,5,2.7,7.8c0,2.9-1,5.6-2.8,7.9
		c-0.5,0.6-0.4,1.6,0.2,2.1c0.3,0.2,0.6,0.3,0.9,0.3c0.4,0,0.9-0.2,1.2-0.6c2.2-2.8,3.4-6.2,3.4-9.8C61.6,27.6,60.4,24.3,58.2,21.5z
		"/>
	<path class="st0" d="M53.6,24.9c-0.5-0.6-1.4-0.7-2.1-0.2c-0.6,0.5-0.7,1.4-0.2,2.1c1,1.3,1.6,2.8,1.6,4.5c0,1.7-0.5,3.2-1.6,4.5
		c-0.5,0.6-0.4,1.6,0.2,2.1c0.3,0.2,0.6,0.3,0.9,0.3c0.4,0,0.9-0.2,1.2-0.6c1.4-1.8,2.2-4.1,2.2-6.4C55.8,28.9,55.1,26.7,53.6,24.9z
		"/>
	<path class="st0" d="M4.3,31.3c0-2.9,1-5.6,2.8-7.9c0.5-0.6,0.4-1.6-0.2-2.1c-0.6-0.5-1.6-0.4-2.1,0.2c-2.2,2.8-3.4,6.2-3.4,9.8
		c0,3.6,1.2,6.9,3.4,9.7c0.3,0.4,0.7,0.6,1.2,0.6c0.3,0,0.6-0.1,0.9-0.3c0.6-0.5,0.7-1.4,0.2-2.1C5.2,36.9,4.3,34.1,4.3,31.3z"/>
	<path class="st0" d="M11.4,24.7c-0.6-0.5-1.6-0.4-2.1,0.2C7.8,26.7,7,28.9,7,31.3c0,2.3,0.8,4.5,2.2,6.3c0.3,0.4,0.7,0.6,1.2,0.6
		c0.3,0,0.6-0.1,0.9-0.3c0.6-0.5,0.7-1.4,0.2-2.1c-1-1.3-1.6-2.8-1.6-4.5c0-1.7,0.5-3.2,1.6-4.5C12.1,26.1,12,25.2,11.4,24.7z"/>
</g>
</svg>
