<?xml version="1.0" encoding="utf-8"?>
<!-- Generator: Adobe Illustrator 19.2.0, SVG Export Plug-In . SVG Version: 6.00 Build 0)  -->
<svg version="1.1" id="Layer_1" xmlns="http://www.w3.org/2000/svg" xmlns:xlink="http://www.w3.org/1999/xlink" x="0px" y="0px"
	 width="64px" height="64px" viewBox="0 0 64 64" style="enable-background:new 0 0 64 64;" xml:space="preserve">
<style type="text/css">
	.st0{fill:#E98A37;}
	.st1{fill:#E5E1C1;}
	.st2{fill:#E2E21D;}
</style>
<circle class="st0" cx="32" cy="32.1" r="32"/>
<g>
	<path class="st1" d="M19.5,36.2L19.5,36.2c0.2,0.7,0.9,1.2,1.7,1.2c0.9,0,1.6-0.6,1.8-1.3c0,0,0-0.1,0-0.1c0,0,0,0,0,0l0,0
		c0.2-0.8,0.9-1.3,1.8-1.3c1,0,1.7,0.7,1.8,1.5c0.2,0.7,0.9,1.3,1.7,1.3c0.8,0,1.5-0.5,1.7-1.2c0-0.9,0.8-1.6,1.8-1.6
		c0.9,0,1.6,0.6,1.8,1.3h0c0.1,0.8,0.8,1.5,1.7,1.5c0.7,0,1.4-0.4,1.6-1l0,0c0-0.9,0.9-1.6,1.9-1.6c1,0,1.9,0.7,1.9,1.6
		c0.2,0.6,0.9,1.1,1.7,1.1c0.8,0,1.5-0.5,1.7-1.2c0.1-0.8,0.9-1.5,1.8-1.5c0,0,0,0,0,0L40,24.3l-7.8-13.1l-7.8,13.1l-6.1,10.3
		C19,34.8,19.5,35.4,19.5,36.2z"/>
	<path class="st2" d="M32.1,37.3H16.5v22.8c4.5,2.7,9.9,4.3,15.6,4.3c5.7,0,11.1-1.6,15.6-4.3V37.3C47.8,37.3,32.1,37.3,32.1,37.3z"
		/>
	<path class="st2" d="M47.8,37.4l-1.7-2.8c0,0,0,0,0,0c-1,0-1.8,0.7-1.8,1.5c-0.2,0.7-0.9,1.2-1.7,1.2c-0.8,0-1.4-0.5-1.7-1.1
		c0-0.9-0.9-1.6-1.9-1.6c-1.1,0-1.9,0.7-1.9,1.6l0,0c-0.3,0.6-0.9,1-1.6,1c-0.9,0-1.7-0.6-1.7-1.5h0c-0.2-0.8-0.9-1.3-1.8-1.3
		c-1,0-1.8,0.7-1.8,1.6c-0.2,0.7-0.9,1.2-1.7,1.2c-0.9,0-1.6-0.6-1.7-1.3c-0.1-0.8-0.9-1.5-1.8-1.5c-0.9,0-1.6,0.6-1.8,1.3l0,0
		c0,0,0,0,0,0c0,0,0,0.1,0,0.1c-0.2,0.8-0.9,1.3-1.8,1.3c-0.8,0-1.5-0.5-1.7-1.2h0c0-0.7-0.6-1.4-1.3-1.5l-1.7,2.8h15.6L47.8,37.4
		L47.8,37.4z"/>
</g>
<polygon points="32.1,11.1 34.4,14.9 36.7,18.7 32.1,18.7 27.6,18.7 29.9,14.9 "/>
</svg>
