<?xml version="1.0" encoding="utf-8"?>
<!-- Generator: Adobe Illustrator 22.0.1, SVG Export Plug-In . SVG Version: 6.00 Build 0)  -->

<svg xmlns="http://www.w3.org/2000/svg" viewBox="0,0 100,100">

	<symbol id="btfechar" viewBox="0 0 73 73">
        <polygon points="56.4,18.3 54.1,16 36.3,33.9 18.4,16 16.1,18.3 34,36.2 16.1,54 18.4,56.3 36.3,38.5 54.1,56.3 56.4,54 38.6,36.2 "/>
    </symbol>

    <symbol id="btmenu" viewBox="0 0 73 73">
        <g>
			<rect x="18.5" y="20.5" width="37.8" height="2.1"/>
			<rect x="18.5" y="35.3" width="37.8" height="2.1"/>
			<rect x="18.5" y="50.1" width="37.8" height="2.1"/>
		</g>
    </symbol>

	<symbol id="btback" viewBox="0 0 73 73">
	    <g>
			<path d="M27.3,36.2l20.1-20.1c0.5-0.5,0.5-1.3,0-1.8c-0.5-0.5-1.3-0.5-1.8,0l-21,21c-0.5,0.5-0.5,1.3,0,1.8l21,21
				c0.2,0.2,0.6,0.4,0.9,0.4c0.3,0,0.6-0.1,0.9-0.4c0.5-0.5,0.5-1.3,0-1.8L27.3,36.2z"/>
		</g>
	</symbol>

	<symbol id="iconeemail" viewBox="0 0 73 73">
        <g>
	       <path d="M36.4,71.5c-19.3,0-35-15.7-35-35s15.7-35,35-35s35,15.7,35,35S55.6,71.5,36.4,71.5z M36.4,3.6C18.3,3.6,3.5,18.4,3.5,36.5
		   s14.8,32.9,32.9,32.9s32.9-14.8,32.9-32.9S54.5,3.6,36.4,3.6z"/>
        </g>
        <g>
	     <g>
		<g>
			<g>
				<path d="M53,31.8L53,31.8c0-0.1,0-0.1,0-0.1v-0.1c0,0,0,0,0-0.1c0,0,0,0-0.1-0.1l0,0l-5.2-4.1v-4.2c0-0.9-0.7-1.6-1.6-1.6h-5.8
					l-2.5-1.7c-0.6-0.5-1.4-0.5-2,0l-2.3,1.8h-5.8c-0.9,0-1.6,0.7-1.6,1.6v4.2L21,31.4l0,0c0,0,0,0-0.1,0.1c0,0,0,0,0,0.1
					c0,0,0,0,0,0.1v0.1l0,0v18.4c0,0.1,0,0.4,0.1,0.5c-0.1,0.2-0.1,0.4,0,0.6c0.1,0.1,0.4,0.2,0.6,0.2c0.2,0.2,0.6,0.2,1,0.2h29.2
					c0.4,0,0.6-0.1,1-0.2h0.1c0.2,0,0.4-0.1,0.5-0.2c0.1-0.1,0.1-0.4,0-0.5c0-0.1,0.1-0.4,0.1-0.5L53,31.8L53,31.8z M36.5,20.6
					c0.2-0.1,0.5-0.1,0.6,0l1.2,1h-3.1L36.5,20.6z M22.5,50.7l14.2-11c0.2-0.1,0.5-0.1,0.6,0l14.2,11H22.5z M52.1,49.9L37.9,39
					c-0.6-0.5-1.4-0.5-2,0l-14.2,11V32.7l8.9,6.9c0.2,0.1,0.6,0.1,0.7-0.1c0.1-0.2,0.1-0.6-0.1-0.7l-9-7l3.8-3v4.2
					c0,0.2,0.2,0.5,0.5,0.5c0.2,0,0.5-0.2,0.5-0.5v-9.7c0-0.2,0.2-0.5,0.5-0.5h18.4c0.2,0,0.5,0.2,0.5,0.5v9.7
					c0,0.2,0.2,0.5,0.5,0.5c0.2,0,0.5-0.2,0.5-0.5v-4.2l3.8,3l-9,7c0,0.1,0,0.5,0.1,0.7c0.1,0.2,0.5,0.2,0.7,0.1l8.9-6.9v17.3H52.1z
					"/>
				<path d="M51.4,52H22.4c-0.4,0-0.7-0.1-1-0.2c-0.2,0-0.6-0.1-0.7-0.4s-0.2-0.5-0.1-0.7c0-0.1-0.1-0.4-0.1-0.5V31.7v-0.1v-0.1
					c0-0.1,0-0.1,0.1-0.1c0,0,0-0.1,0.1-0.1l5.2-3.9v-4.1c0-1,0.9-1.8,1.8-1.8h5.8l2.2-1.7c0.6-0.5,1.6-0.5,2.3,0l2.2,1.7H46
					c1,0,1.8,0.9,1.8,1.8v4.1l5.2,4.1c0,0,0,0,0.1,0.1c0,0,0,0.1,0.1,0.1c0,0.1,0,0.1,0,0.1v0.1l0,0v18.4c0,0.1,0,0.4-0.1,0.5
					c0.1,0.2,0.1,0.5,0,0.7c-0.1,0.2-0.4,0.4-0.7,0.4c0,0,0,0-0.1,0C52.2,52,51.8,52,51.4,52z M21.4,51.2L21.4,51.2
					c0.4,0.2,0.6,0.4,0.9,0.4h29.2c0.2,0,0.5-0.1,0.7-0.2l0.1-0.1h0.1h0.1c0.1,0,0.2,0,0.2-0.1s0-0.2,0-0.2l-0.1-0.1v-0.1
					c0-0.1,0.1-0.2,0.1-0.4V31.7l-0.1-0.1l-5.3-4.1v-4.3c0-0.7-0.6-1.4-1.4-1.4h-5.9L37.6,20c-0.5-0.4-1.1-0.4-1.6,0l-2.5,1.8h-5.9
					c-0.7,0-1.4,0.6-1.4,1.4v4.3L21,31.7l-0.1,0.2v18.2c0,0.1,0,0.2,0.1,0.4v0.1l-0.1,0.1c-0.1,0.1,0,0.2,0,0.4
					C21.1,51.3,21.1,51.3,21.4,51.2L21.4,51.2z M52.1,51H21.6l14.8-11.5c0.2-0.2,0.7-0.2,1,0L52.1,51z M23.2,50.4h27.4L37,40
					c-0.1-0.1-0.2-0.1-0.4,0L23.2,50.4z M52.3,50.4L37.8,39.1c-0.5-0.4-1.1-0.4-1.6,0L21.6,50.4V32.1l9.2,7.1c0,0,0.1,0,0.2,0
					c0.1,0,0.1,0,0.1-0.1c0.1-0.1,0.1-0.2,0-0.4L22,31.6l4.4-3.5v4.7c0,0.1,0.1,0.2,0.2,0.2s0.2-0.1,0.2-0.2v-9.7
					c0-0.5,0.4-0.9,0.9-0.9h18.4c0.5,0,0.9,0.4,0.9,0.9v9.7c0,0.1,0.1,0.2,0.2,0.2c0.1,0,0.2-0.1,0.2-0.2v-4.7l4.4,3.5l-9.2,7.1
					c-0.1,0.1-0.1,0.2,0,0.4l0.1,0.1c0.1,0,0.1,0,0.2,0l9.2-7.3C52.3,31.9,52.3,50.4,52.3,50.4z M36.9,38.3c0.4,0,0.9,0.1,1.1,0.4
					l13.7,10.6V33.2l-8.4,6.5c-0.1,0.1-0.4,0.2-0.6,0.1c-0.2,0-0.4-0.1-0.5-0.2c-0.2-0.4-0.2-0.9,0.1-1.1l8.8-6.8L48,29.2v3.6
					c0,0.5-0.4,0.9-0.9,0.9c-0.5,0-0.9-0.4-0.9-0.9v-9.7c0-0.1-0.1-0.2-0.2-0.2H27.7c-0.1,0-0.2,0.1-0.2,0.2v9.7
					c0,0.5-0.4,0.9-0.9,0.9c-0.5,0-0.9-0.4-0.9-0.9v-3.6l-3.1,2.5l8.7,6.8c0.1,0.1,0.2,0.4,0.2,0.5c0,0.2,0,0.4-0.1,0.6
					c-0.1,0.1-0.4,0.2-0.5,0.2c-0.2,0-0.4,0-0.6-0.1L22,33.2v16.1l13.7-10.6C36,38.5,36.5,38.3,36.9,38.3z M39.2,21.8h-4.7l1.8-1.5
					c0.2-0.2,0.7-0.2,1,0L39.2,21.8z M36,21.3h1.6L37,20.8c-0.1-0.1-0.2-0.1-0.4,0l0,0L36,21.3z"/>
			</g>
			<g>
				<path d="M31.5,26.4h10.8c0.2,0,0.5-0.2,0.5-0.5s-0.2-0.5-0.5-0.5H31.5c-0.2,0-0.5,0.2-0.5,0.5S31.2,26.4,31.5,26.4z"/>
				<path d="M42.3,26.6H31.5c-0.5,0-0.9-0.4-0.9-0.9s0.4-0.9,0.9-0.9h10.8c0.5,0,0.9,0.4,0.9,0.9C43.1,26.4,42.7,26.6,42.3,26.6z
					 M31.5,25.7c-0.1,0-0.2,0.1-0.2,0.2s0.1,0.2,0.2,0.2h10.8c0.1,0,0.2-0.1,0.2-0.2s-0.1-0.2-0.2-0.2H31.5z"/>
			</g>
			<g>
				<path d="M42.8,29.1c0-0.2-0.2-0.5-0.5-0.5H31.5c-0.2,0-0.5,0.2-0.5,0.5c0,0.2,0.2,0.5,0.5,0.5h10.8
					C42.6,29.7,42.8,29.5,42.8,29.1z"/>
				<path d="M42.3,30H31.5c-0.5,0-0.9-0.4-0.9-0.9s0.4-0.9,0.9-0.9h10.8c0.5,0,0.9,0.4,0.9,0.9C43.1,29.6,42.7,30,42.3,30z
					 M31.5,28.9c-0.1,0-0.2,0.1-0.2,0.2s0.1,0.2,0.2,0.2h10.8c0.1,0,0.2-0.1,0.2-0.2s-0.1-0.2-0.2-0.2H31.5z"/>
			</g>
			<g>
				<path d="M42.8,32.3c0-0.2-0.2-0.5-0.5-0.5h-4.8c-0.2,0-0.5,0.2-0.5,0.5s0.2,0.5,0.5,0.5h4.8C42.6,32.9,42.8,32.7,42.8,32.3z"/>
				<path d="M42.3,33.2h-4.8c-0.5,0-0.9-0.4-0.9-0.9s0.4-0.9,0.9-0.9h4.8c0.5,0,0.9,0.4,0.9,0.9C43.1,32.8,42.7,33.2,42.3,33.2z
					 M37.4,32.1c-0.1,0-0.2,0.1-0.2,0.2c0,0.1,0.1,0.2,0.2,0.2h4.8c0.1,0,0.2-0.1,0.2-0.2c0-0.1-0.1-0.2-0.2-0.2H37.4z"/>
			</g>
		   </g>
	      </g>
        </g>
    </symbol>

	<symbol id="iconeweb" viewBox="0 0 73 73">
        <path d="M16.3,55c0.1,0.1,0.1,0.1,0.2,0.2c5.2,5.5,12.3,8.6,19.9,8.6c7.5,0,14.7-3.1,19.8-8.6c0.1,0,0.1-0.1,0.2-0.1
			c0-0.1,0.1-0.1,0.1-0.2c9.6-10.4,9.6-26.5,0-36.9l0,0c0-0.1-0.1-0.1-0.1-0.2c-0.1-0.1-0.1-0.1-0.2-0.2C51.1,12.1,43.9,9,36.4,9
			s-14.7,3.1-19.8,8.6c-0.1,0-0.1,0.1-0.2,0.2c0,0.1-0.1,0.1-0.1,0.2c-9.6,10.4-9.6,26.5,0,36.9C16.3,54.9,16.3,55,16.3,55z
			M43.8,59.8c2.1-2.5,3.7-5.5,4.7-8.6v0c1.7,0.8,3.3,1.8,4.8,3C50.6,56.8,47.4,58.7,43.8,59.8z M55.2,52.2c-1.8-1.5-3.8-2.7-5.9-3.6
			c0.9-3.5,1.4-7.2,1.4-10.8h10.2C60.7,43.1,58.6,48.1,55.2,52.2z M60.9,35H50.7c-0.1-3.6-0.6-7.3-1.4-10.8c2.1-1,4.1-2.2,5.9-3.6
			C58.6,24.6,60.7,29.7,60.9,35z M53.3,18.6c-1.5,1.2-3.1,2.2-4.8,3c-1-3.2-2.6-6.1-4.7-8.6C47.4,14.1,50.6,16,53.3,18.6z M37.7,11.9
			c3.4,0.9,6.3,4.9,8.2,10.6c-2.6,0.9-5.4,1.4-8.2,1.6V11.9z M37.7,26.9c3-0.1,6.1-0.7,8.9-1.6c0.8,3.2,1.2,6.5,1.3,9.8H37.7V26.9z
			M37.7,37.8H48c-0.1,3.3-0.5,6.6-1.3,9.8c-2.9-1-5.9-1.5-8.9-1.6V37.8z M37.7,48.6c2.8,0.1,5.5,0.6,8.2,1.6
			c-1.9,5.7-4.8,9.7-8.2,10.6V48.6z M19.4,54.2c1.5-1.2,3.1-2.2,4.8-3v0c1,3.2,2.6,6.1,4.7,8.6C25.4,58.7,22.1,56.8,19.4,54.2z
			M35,60.8c-3.4-0.9-6.3-4.9-8.2-10.6c2.6-0.9,5.4-1.4,8.2-1.6L35,60.8L35,60.8z M35,45.9c-3,0.1-6.1,0.7-8.9,1.6
			c-0.8-3.2-1.2-6.5-1.3-9.8H35V45.9z M35,35H24.8c0.1-3.3,0.5-6.6,1.3-9.8c2.9,1,5.9,1.5,8.9,1.6V35z M35,11.9v12.2
			c-2.8-0.1-5.5-0.6-8.2-1.6C28.7,16.9,31.7,12.8,35,11.9z M28.9,12.9c-2.1,2.5-3.7,5.5-4.7,8.6v0c-1.7-0.8-3.3-1.8-4.8-3
			C22.1,16,25.4,14.1,28.9,12.9z M17.5,20.6c1.8,1.5,3.8,2.7,5.9,3.6c-0.9,3.5-1.4,7.2-1.4,10.8H11.8C12.1,29.7,14.1,24.6,17.5,20.6z
			M22,37.8c0.1,3.6,0.6,7.3,1.4,10.8c-2.1,1-4.1,2.2-5.9,3.6c-3.4-4.1-5.4-9.1-5.7-14.5L22,37.8L22,37.8z"/>
    </symbol>

	<symbol id="iconedesign" viewBox="0 0 73 73">
        <g>
			<g>
				<path d="M56.2,45.7c-0.3-0.1-0.6,0-0.8,0.2l-7.8,7.8c-0.2,0.2-0.3,0.5-0.2,0.8c0.1,0.3,0.4,0.4,0.7,0.4h7.8c0.4,0,0.7-0.3,0.7-0.7
					v-7.8C56.6,46.1,56.4,45.8,56.2,45.7z M49.8,53.5l5.4-5.4v5.4H49.8z"/>
			</g>
		</g>
		<g>
			<g>
				<path d="M61.4,34.2c-0.3-0.1-0.6,0-0.8,0.2l-2.1,2.1V21.9c0-0.4-0.3-0.7-0.7-0.7h-5.5l2-2c0,0,0,0,0,0l1.9-1.9
					c0.4-0.4,0.6-1,0.6-1.5s-0.2-1.1-0.6-1.5l-2.2-2.2c-0.4-0.4-1-0.6-1.5-0.6c-0.6,0-1.1,0.2-1.5,0.6l-1.9,1.9l-2.3,2.3l-5,5H19.3
					v-7.1c0-0.4-0.3-0.7-0.7-0.7c-3.1,0-5.6,2.5-5.6,5.6v30.5c0,0.1,0,0.1,0,0.2c0.1,1.3,0.7,2.5,1.6,3.5c1,1,2.4,1.5,3.8,1.5h21.9
					l-4.1,4.1c-0.2,0.2-0.3,0.5-0.2,0.8c0.1,0.3,0.4,0.4,0.7,0.4h24.4c0.4,0,0.7-0.3,0.7-0.7V34.9C61.8,34.6,61.6,34.3,61.4,34.2z
					M51.8,12.9c0.3-0.3,0.8-0.3,1.1,0l2.2,2.2c0.3,0.3,0.3,0.8,0,1.1l-1.4,1.4l-3.3-3.3L51.8,12.9z M49.4,15.4l3.3,3.3L51.4,20
					l-3.3-3.3L49.4,15.4z M60.4,42.9H59c-0.4,0-0.7,0.3-0.7,0.7s0.3,0.7,0.7,0.7h1.3v2.2H59c-0.4,0-0.7,0.3-0.7,0.7S58.6,48,59,48h1.3
					v2.2H59c-0.4,0-0.7,0.3-0.7,0.7s0.3,0.7,0.7,0.7h1.3v2.2H59c-0.4,0-0.7,0.3-0.7,0.7c0,0.4,0.3,0.7,0.7,0.7h1.3v3.4h-22l7.2-7.2
					c0.3-0.3,0.3-0.7,0-1c0,0-0.1-0.1-0.1-0.1c-0.3-0.2-0.7-0.2-0.9,0.1l-2.9,2.9H18.3c-2.2,0-3.9-1.7-4-3.9c0-0.1,0-0.3,0-0.4
					c0,0,0,0,0,0c0-0.1,0-0.1,0-0.2c0,0,0,0,0,0c0-0.1,0-0.1,0-0.2c0,0,0,0,0,0c0,0,0-0.1,0-0.1c0,0,0-0.1,0-0.1c0,0,0-0.1,0-0.1
					s0-0.1,0-0.1c0,0,0,0,0-0.1c0,0,0-0.1,0.1-0.1c0,0,0,0,0,0c0-0.1,0.1-0.1,0.1-0.2c0,0,0,0,0,0c0.6-1.2,1.6-2,2.9-2.3c0,0,0,0,0,0
					c0.1,0,0.1,0,0.2,0c0,0,0,0,0,0c0.1,0,0.1,0,0.2,0c0,0,0,0,0,0c0.1,0,0.1,0,0.2,0c0,0,0,0,0.1,0c0.1,0,0.1,0,0.2,0
					c0.4,0,0.7-0.3,0.7-0.7v-5.2c0-0.4-0.3-0.7-0.7-0.7s-0.7,0.3-0.7,0.7v4.5c-1.2,0.2-2.3,0.7-3.2,1.6c-0.1,0.1-0.2,0.2-0.3,0.3V19
					c0-2.1,1.5-3.8,3.5-4.1v7v14.6v0c0,0.4,0.3,0.7,0.7,0.7c0.4,0,0.7-0.3,0.7-0.7v0V22.6h20.8l-4,4c-0.3,0.3-0.3,0.7,0,1
					c0.3,0.3,0.7,0.3,1,0l5.2-5.2c0,0,0,0,0,0l4.7-4.7l3.3,3.3L50,21.4c0,0,0,0,0,0L35.5,35.9l-3.3-3.3l2.9-2.9c0.3-0.3,0.3-0.7,0-1
					c-0.3-0.3-0.7-0.3-1,0l-3.4,3.4c0,0,0,0-0.1,0.1c0,0,0,0,0,0c0,0,0,0,0,0c0,0,0,0,0,0c0,0,0,0,0,0c0,0,0,0,0,0c0,0,0,0,0,0
					c0,0,0,0,0,0l-1.4,4l-1,2.7c0,0,0,0.1,0,0.1h-2.4c-0.4,0-0.7,0.3-0.7,0.7s0.3,0.7,0.7,0.7h19.9c0.4,0,0.7-0.3,0.7-0.7
					s-0.3-0.7-0.7-0.7H31.3l4.4-1.5c0,0,0,0,0,0c0,0,0,0,0.1,0c0,0,0,0,0,0c0,0,0,0,0.1,0c0,0,0,0,0,0c0,0,0,0,0.1,0c0,0,0,0,0,0
					c0,0,0,0,0.1-0.1l14.8-14.8H57V38L46.7,48.2c-0.3,0.3-0.3,0.7,0,1c0,0,0,0,0.1,0c0.1,0.1,0.3,0.2,0.5,0.2s0.3-0.1,0.5-0.2
					c0,0,0,0,0.1,0c0,0,0,0,0,0l12.6-12.6V42.9z M34.2,36.6l-2.1,0.7l-1.4-1.4l0.7-2.1L34.2,36.6z"/>
			</g>
		</g>
    </symbol>

	<symbol id="iconestory" viewBox="0 0 73 73">
        <g>
			<g>
				<path d="M60.3,21.1l-3.5,0v-3.6c0-0.8-0.6-1.5-1.4-1.6c-0.1,0-3.5-0.5-7.6,0.2c-4.5,0.8-8.1,2.9-10.6,5.9
					c-2.5-3.1-6.1-5.1-10.6-5.9c-4.1-0.7-7.4-0.2-7.6-0.2c-0.8,0.1-1.4,0.8-1.4,1.6v3.6h-3.5c-0.9,0-1.7,0.7-1.7,1.7V54
					c0,0.5,0.3,1,0.7,1.4c0.4,0.3,1,0.4,1.5,0.2c0.1,0,12.6-4.3,21.8-0.1c0.4,0.2,0.9,0.2,1.4,0c9.2-4.2,21.7,0,21.8,0.1
					c0.2,0.1,0.4,0.1,0.5,0.1c0.3,0,0.7-0.1,1-0.3C61.7,55,62,54.5,62,54V22.7C62,21.8,61.3,21.1,60.3,21.1z M15.9,51.8V24.4h1.8v22.1
					c0,0.5,0.2,0.9,0.6,1.3c0.4,0.3,0.8,0.5,1.3,0.4c0.1,0,7.3-1,12.6,2.6C25.7,49.6,19.2,50.9,15.9,51.8z M35.6,49.2
					c-2.3-2.1-5.3-3.5-8.9-4.2c-1.7-0.3-3.3-0.4-4.6-0.4c-0.4,0-0.7,0-1.1,0V19h0c3.2-0.1,10.9,0.2,14.6,6.4V49.2z M39,25.4
					c3.7-6.2,11.4-6.6,14.6-6.4v25.7c-1.4-0.1-3.4,0-5.7,0.4c-3.6,0.7-6.6,2.1-8.9,4.2V25.4L39,25.4z M42.4,50.7
					c5.3-3.6,12.5-2.6,12.6-2.6c0.5,0.1,1-0.1,1.3-0.4c0.4-0.3,0.6-0.8,0.6-1.3V24.4h1.8v27.4C55.4,50.9,48.9,49.6,42.4,50.7z"/>
			</g>
		</g>
    </symbol>

	<symbol id="iconeux" viewBox="0 0 73 73">
        <g>
			<path d="M44,30c-0.3,0-0.5-0.1-0.7-0.3c-0.4-0.4-0.4-1,0-1.4l18-18c0.4-0.4,1-0.4,1.4,0s0.4,1,0,1.4l-18,18
				C44.5,29.9,44.3,30,44,30z"/>
			<path d="M11,63c-0.3,0-0.5-0.1-0.7-0.3c-0.4-0.4-0.4-1,0-1.4l18-18c0.4-0.4,1-0.4,1.4,0s0.4,1,0,1.4l-18,18
				C11.5,62.9,11.3,63,11,63z"/>
			<path d="M62,63c-0.3,0-0.5-0.1-0.7-0.3l-18-18c-0.4-0.4-0.4-1,0-1.4s1-0.4,1.4,0l18,18c0.4,0.4,0.4,1,0,1.4
				C62.5,62.9,62.3,63,62,63z"/>
			<path d="M29,30c-0.3,0-0.5-0.1-0.7-0.3l-18-18c-0.4-0.4-0.4-1,0-1.4s1-0.4,1.4,0l18,18c0.4,0.4,0.4,1,0,1.4
				C29.5,29.9,29.3,30,29,30z"/>
			<path d="M29,30H17c-0.6,0-1-0.4-1-1s0.4-1,1-1h12c0.6,0,1,0.4,1,1S29.6,30,29,30z"/>
			<path d="M29,30c-0.6,0-1-0.4-1-1V17c0-0.6,0.4-1,1-1s1,0.4,1,1v12C30,29.6,29.6,30,29,30z"/>
			<path d="M56,45H44c-0.6,0-1-0.4-1-1s0.4-1,1-1h12c0.6,0,1,0.4,1,1S56.6,45,56,45z"/>
			<path d="M44,57c-0.6,0-1-0.4-1-1V44c0-0.6,0.4-1,1-1s1,0.4,1,1v12C45,56.6,44.6,57,44,57z"/>
			<path d="M29,57c-0.6,0-1-0.4-1-1V44c0-0.6,0.4-1,1-1s1,0.4,1,1v12C30,56.6,29.6,57,29,57z"/>
			<path d="M29,45H17c-0.6,0-1-0.4-1-1s0.4-1,1-1h12c0.6,0,1,0.4,1,1S29.6,45,29,45z"/>
			<path d="M44,30c-0.6,0-1-0.4-1-1V17c0-0.6,0.4-1,1-1s1,0.4,1,1v12C45,29.6,44.6,30,44,30z"/>
			<path d="M56,30H44c-0.6,0-1-0.4-1-1s0.4-1,1-1h12c0.6,0,1,0.4,1,1S56.6,30,56,30z"/>
			<g>
				<circle cx="36.5" cy="36.5" r="6.5"/>
				<path d="M36.5,44c-4.1,0-7.5-3.4-7.5-7.5s3.4-7.5,7.5-7.5s7.5,3.4,7.5,7.5S40.6,44,36.5,44z M36.5,31c-3,0-5.5,2.5-5.5,5.5
					s2.5,5.5,5.5,5.5s5.5-2.5,5.5-5.5S39.5,31,36.5,31z"/>
			</g>
		</g>
    </symbol>

	<symbol id="iconetech" viewBox="0 0 73 73">
        <g>
			<path d="M32.4,64.1h-4.2c-0.8,0-1.4-0.6-1.4-1.4V61c-2.3-0.4-4.5-1.3-6.4-2.7l-1.2,1.2c-0.2,0.3-0.7,0.5-1,0.5
				c-0.3,0-0.7-0.2-1-0.4l-3-3c-0.5-0.7-0.5-1.5,0-2l1.3-1.3c-1.3-2-2.2-4.2-2.6-6.3h-1.8c-0.8,0-1.4-0.6-1.4-1.4v-4.2
				c0-0.8,0.6-1.4,1.4-1.4H13c0.5-2.2,1.4-4.3,2.7-6.2l-1.4-1.4c-0.3-0.2-0.5-0.7-0.5-1c0-0.3,0.2-0.7,0.4-1l3-3c0.7-0.5,1.5-0.5,2,0
				l1.4,1.4c1.9-1.3,4-2.2,6.1-2.6v-2.1c0-0.8,0.6-1.4,1.4-1.4h4.2c0.8,0,1.4,0.6,1.4,1.4v2.1c2.2,0.4,4.3,1.3,6.1,2.5l1.4-1.3
				c0.6-0.5,1.5-0.5,2,0l3,3c0.3,0.2,0.5,0.7,0.5,1c0,0.3-0.2,0.7-0.4,1l-1.4,1.4c1.3,1.9,2.2,4,2.7,6.2h2.1c0.8,0,1.4,0.6,1.5,1.4
				l0,4.3c0,0.8-0.6,1.4-1.4,1.4h-2c-0.4,2.2-1.3,4.3-2.6,6.3l1.3,1.3c0.5,0.7,0.5,1.5,0,2l-3,3c-0.7,0.5-1.5,0.5-2,0l-1.3-1.3
				c-2,1.3-4.2,2.2-6.4,2.7v1.7C33.8,63.5,33.2,64.1,32.4,64.1z M20.2,57l0.3,0.2c2,1.5,4.4,2.4,6.8,2.8l0.4,0.1v2.5
				c0,0.2,0.2,0.4,0.4,0.4h4.2c0.2,0,0.4-0.2,0.4-0.4v-2.5l0.4-0.1c2.4-0.4,4.8-1.4,6.8-2.8l0.3-0.2l1.9,1.9c0.1,0.1,0.4,0.1,0.6,0
				l2.9-3c0.1-0.1,0.1-0.4,0-0.6L44,53.5l0.2-0.3c1.4-2.2,2.4-4.4,2.7-6.7L47,46h2.8c0.2,0,0.4-0.2,0.4-0.4v-4.2
				c-0.1-0.3-0.3-0.5-0.5-0.5h-2.9l-0.1-0.4c-0.5-2.4-1.4-4.6-2.8-6.6l-0.2-0.3l2-2c0.1-0.1,0.2-0.2,0.2-0.2c0-0.1,0-0.1-0.1-0.2
				l-0.1-0.1l-3-3c-0.1-0.1-0.4-0.1-0.6,0l-2,1.8l-0.3-0.2c-1.9-1.3-4.1-2.2-6.5-2.6L32.8,27v-2.9c0-0.2-0.2-0.4-0.4-0.4h-4.2
				c-0.2,0-0.4,0.2-0.4,0.4V27l-0.4,0.1c-2.2,0.4-4.5,1.3-6.5,2.7L20.5,30l-2-2c-0.1-0.1-0.4-0.1-0.6,0l-2.9,3
				c-0.1,0.1-0.2,0.2-0.2,0.2s0,0.1,0.1,0.2l0.1,0.1l2,2l-0.2,0.3c-1.4,2-2.3,4.2-2.8,6.6l-0.1,0.4h-2.6c-0.2,0-0.4,0.2-0.4,0.4v4.2
				c0,0.2,0.2,0.4,0.4,0.4h2.6l0.1,0.4c0.4,2.3,1.3,4.5,2.7,6.7l0.2,0.3L15,55.3c-0.1,0.1-0.1,0.4,0,0.6l3,2.9
				c0.2,0.2,0.4,0.1,0.4,0.1l0.1-0.1L20.2,57z M30.4,53.2c-5.5,0-9.9-4.4-9.9-9.9s4.4-9.9,9.9-9.9s9.9,4.4,9.9,9.9
				S35.9,53.2,30.4,53.2z M30.4,34.4c-4.9,0-8.9,4-8.9,8.9s4,8.9,8.9,8.9s8.9-4,8.9-8.9S35.3,34.4,30.4,34.4z"/>
		</g>
		<g>
			<path d="M34,43.4c0,2-1.6,3.6-3.6,3.6s-3.6-1.6-3.6-3.6s1.6-3.6,3.6-3.6C32.4,39.8,34,41.4,34,43.4z"/>
		</g>
		<g>
			<path d="M55.5,32.3c-0.2,0-0.3,0-0.5-0.1c-0.2-0.1-0.4-0.3-0.5-0.6L54.2,31c-1.3,0.2-2.5,0.2-3.7-0.1l-0.3,0.7
				c-0.2,0.3-0.3,0.5-0.6,0.6c-0.3,0.2-0.6,0.1-0.9,0l-2.1-1c-0.5-0.2-0.8-0.7-0.6-1.3l0.3-0.7c-1-0.7-1.8-1.6-2.5-2.7L43,26.9
				c-0.6,0.2-1.2-0.1-1.4-0.6l-0.9-2.2c-0.1-0.3-0.1-0.6,0-0.9c0.1-0.2,0.3-0.4,0.6-0.5l0.8-0.3c-0.2-1.1-0.1-2.3,0.1-3.6l-0.8-0.3
				c-0.3-0.2-0.5-0.3-0.6-0.6c-0.2-0.3-0.1-0.6,0-0.9l1-2.1c0.2-0.5,0.7-0.8,1.3-0.6l1,0.4c0.7-1,1.6-1.9,2.6-2.5l-0.4-0.9
				c-0.2-0.6,0.1-1.2,0.6-1.4L49.1,9c0.3-0.1,0.6-0.1,0.9,0c0.2,0.1,0.4,0.3,0.5,0.6l0.3,0.8c1.1-0.2,2.3-0.2,3.5,0l0.4-0.9
				C54.8,9,55.4,8.7,56,8.9l2.2,1c0.3,0.2,0.5,0.3,0.6,0.6c0.1,0.1,0.1,0.3,0.1,0.4c0,0.2,0,0.3-0.1,0.5l-0.3,0.9
				c1,0.7,1.9,1.6,2.6,2.6l0.9-0.4c0.3-0.1,0.6-0.1,0.8,0c0.3,0.1,0.5,0.3,0.6,0.6l0.9,2.2c0.2,0.6-0.1,1.2-0.6,1.4l-0.9,0.3
				c0.2,1.2,0.2,2.5,0,3.7l0.8,0.3c0.5,0.2,0.7,0.6,0.7,1.2l0,0.2l-1,2.2c-0.1,0.2-0.3,0.4-0.6,0.5c-0.3,0.1-0.6,0.1-0.8,0L61,26.7
				c-0.7,0.9-1.6,1.8-2.7,2.6l0.3,0.7c0.2,0.6-0.1,1.2-0.6,1.4l-2.2,0.9C55.7,32.3,55.6,32.3,55.5,32.3z M54.8,29.8l0.7,1.5l2.3-0.9
				l-0.6-1.5l0.4-0.2c1.3-0.8,2.3-1.8,3-2.9l0.2-0.3l1.6,0.7l1-2.1c0-0.1,0-0.1-0.1-0.1l0,0l-1.6-0.7l0.1-0.4c0.3-1.3,0.3-2.8,0-4.1
				l-0.1-0.4l1.7-0.7l-0.9-2.2L60.6,16l-0.2-0.3c-0.8-1.1-1.7-2.1-2.9-2.9l-0.3-0.2l0.6-1.7l0-0.1c0,0,0,0,0,0l-2.2-1l-0.8,1.7
				l-0.4-0.1c-1.3-0.3-2.7-0.3-3.9,0l-0.4,0.1L49.5,10l-2.2,0.9l0.6,1.8l-0.4,0.2c-1.1,0.6-2,1.6-2.8,2.7l-0.2,0.3l-1.7-0.6l-1,2.2
				l0,0.1c0,0,0,0,0,0l1.6,0.6l-0.1,0.4c-0.3,1.5-0.4,2.8-0.1,4l0.1,0.4l-1.6,0.7l0.9,2.2l1.6-0.6l0.2,0.4c0.7,1.2,1.6,2.2,2.7,2.9
				l0.3,0.2L47,30.2l2.2,1l0.1,0c0,0,0,0,0,0l0.7-1.5l0.4,0.1c1.3,0.4,2.7,0.4,4.1,0.1L54.8,29.8z M52.5,26.5c-0.8,0-1.6-0.2-2.3-0.5
				c-1.4-0.6-2.6-1.8-3.1-3.2c-1.2-3.1,0.2-6.4,3.3-7.6c1.5-0.6,3.1-0.6,4.5,0c1.4,0.6,2.6,1.8,3.1,3.2c1.2,3.1-0.2,6.4-3.3,7.6
				C54,26.3,53.2,26.5,52.5,26.5z M52.5,15.7c-0.6,0-1.3,0.1-1.9,0.4c-2.5,1-3.7,3.8-2.7,6.4c0.5,1.2,1.4,2.2,2.6,2.7
				c1.2,0.5,2.5,0.5,3.8,0c2.5-1,3.7-3.8,2.7-6.4c-0.5-1.2-1.4-2.2-2.6-2.7C53.8,15.8,53.2,15.7,52.5,15.7z"/>
		</g>
		<g>
			<path d="M54.5,19.8c0.4,1-0.1,2.2-1.1,2.6s-2.2-0.1-2.6-1.1c-0.4-1,0.1-2.2,1.1-2.6S54,18.8,54.5,19.8z"/>
		</g>
    </symbol>

	<symbol id="iconestrategy" viewBox="0 0 73 73">
        <g>
			<path class="st0" d="M36.2,21.2c-7.8,0-14.2,6.4-14.2,14.2c0,4.1,1.8,8,4.8,10.7c2.2,2.2,2,7,2,7.1c0,0.3,0.1,0.5,0.3,0.7
				c0.2,0.2,0.4,0.3,0.6,0.3h13c0.3,0,0.5-0.1,0.6-0.3c0.2-0.2,0.3-0.4,0.3-0.7c0-0.1-0.3-4.8,2-7.1c0.1-0.1,0.1-0.1,0.2-0.2
				c3-2.7,4.7-6.5,4.7-10.5C50.4,27.6,44,21.2,36.2,21.2z M44.4,44.7c-0.1,0.1-0.2,0.2-0.2,0.2c-2,2.1-2.3,5.7-2.4,7.3H30.6
				c-0.1-1.7-0.4-5.4-2.5-7.5c-2.7-2.3-4.3-5.8-4.3-9.4c0-6.9,5.6-12.4,12.4-12.4s12.4,5.6,12.4,12.4C48.6,38.9,47.1,42.3,44.4,44.7
				z"/>
			<path class="st0" d="M36.2,24.8c-0.5,0-0.9,0.4-0.9,0.9c0,0.5,0.4,0.9,0.9,0.9c5.2,0,9.3,4.2,9.3,9.3c0,0.5,0.4,0.9,0.9,0.9
				c0.5,0,0.9-0.4,0.9-0.9C47.3,29.7,42.3,24.8,36.2,24.8z"/>
			<path class="st0" d="M41.8,55H30.5c-1.2,0-2.1,1-2.1,2.1s1,2.1,2.1,2.1h11.3c1.2-0.1,2.2-1,2.2-2.1S43,55,41.8,55z M41.8,57.5
				H30.5c-0.2,0-0.4-0.2-0.4-0.4c0-0.3,0.2-0.4,0.4-0.4h11.3c0.2,0,0.4,0.2,0.4,0.4C42.2,57.3,42.1,57.5,41.8,57.5z"/>
			<path class="st0" d="M40.2,60.1h-8c-1.2,0-2.1,1-2.1,2.1c0,1.2,1,2.1,2.1,2.1h8c1.2,0,2.1-1,2.1-2.1
				C42.3,61.1,41.3,60.1,40.2,60.1z M40.2,62.6h-8c-0.2,0-0.4-0.2-0.4-0.4c0-0.3,0.2-0.4,0.4-0.4h8c0.2,0,0.4,0.2,0.4,0.4
				C40.6,62.5,40.4,62.6,40.2,62.6z"/>
			<path class="st0" d="M36.2,16.9c0.5,0,0.9-0.4,0.9-0.9v-5.9c0-0.5-0.4-0.9-0.9-0.9c-0.5,0-0.9,0.4-0.9,0.9v5.9
				C35.3,16.5,35.7,16.9,36.2,16.9z"/>
			<path class="st0" d="M50.6,13.7c-0.4-0.3-0.9-0.2-1.2,0.2l-3.3,4.9c-0.3,0.4-0.2,1,0.2,1.2c0.2,0.1,0.3,0.2,0.5,0.2
				c0.3,0,0.6-0.2,0.7-0.4l3.3-4.9C51.1,14.5,51,13.9,50.6,13.7z"/>
			<path class="st0" d="M25.8,20c0.2,0,0.3-0.1,0.5-0.2c0.4-0.3,0.5-0.8,0.3-1.2l-3.2-4.9c-0.3-0.4-0.8-0.5-1.2-0.3
				c-0.4,0.3-0.5,0.8-0.3,1.2l3.2,4.9C25.3,19.9,25.5,20,25.8,20z"/>
			<path class="st0" d="M19.7,25.4l-5.2-2.8c-0.4-0.2-1-0.1-1.2,0.4c-0.3,0.4-0.1,1,0.4,1.2l5.2,2.8c0.2,0.1,0.3,0.1,0.4,0.1
				c0.3,0,0.6-0.2,0.8-0.5C20.2,26.1,20.1,25.6,19.7,25.4z"/>
			<path class="st0" d="M59.1,22.9c-0.2-0.4-0.8-0.6-1.2-0.4l-5.2,2.8c-0.4,0.2-0.6,0.8-0.4,1.2c0.2,0.3,0.5,0.5,0.8,0.5
				c0.2,0,0.3-0.1,0.4-0.1l5.2-2.8C59.1,23.9,59.3,23.3,59.1,22.9z"/>
		</g>
    </symbol>

	<symbol id="iconescope" viewBox="0 0 73 73">
        <g>
			<path d="M60.5,11.5h-47c-0.6,0-1,0.4-1,1v47c0,0.6,0.4,1,1,1h40c0.6,0,1-0.4,1-1s-0.4-1-1-1h-39v-45h45v46c0,0.6,0.4,1,1,1
				c0.6,0,1-0.4,1-1v-47C61.5,11.9,61.1,11.5,60.5,11.5z"/>
			<path d="M23.5,21.8c-2.1,0-3.8,1.7-3.8,3.8s1.7,3.8,3.8,3.8s3.8-1.7,3.8-3.8S25.6,21.8,23.5,21.8z M23.5,27.5c-1,0-1.8-0.8-1.8-1.8
				s0.8-1.8,1.8-1.8c1,0,1.8,0.8,1.8,1.8S24.5,27.5,23.5,27.5z"/>
			<path d="M53.6,24.7H30.3c-0.6,0-1,0.4-1,1s0.4,1,1,1h23.3c0.6,0,1-0.4,1-1S54.1,24.7,53.6,24.7z"/>
			<path d="M23.5,32.1c-0.6,0-1,0.4-1,1s0.4,1,1,1c1,0,1.8,0.8,1.8,1.8s-0.8,1.8-1.8,1.8c-1,0-1.8-0.8-1.8-1.8c0-0.6-0.4-1-1-1
				c-0.6,0-1,0.4-1,1c0,2.1,1.7,3.8,3.8,3.8s3.8-1.7,3.8-3.8S25.6,32.1,23.5,32.1z"/>
			<path d="M53.6,35H30.3c-0.6,0-1,0.4-1,1c0,0.6,0.4,1,1,1h23.3c0.6,0,1-0.4,1-1C54.6,35.4,54.1,35,53.6,35z"/>
			<path d="M23.5,42.4c-2.1,0-3.8,1.7-3.8,3.8s1.7,3.8,3.8,3.8s3.8-1.7,3.8-3.8S25.6,42.4,23.5,42.4z M23.5,48.1c-1,0-1.8-0.8-1.8-1.8
				s0.8-1.8,1.8-1.8c1,0,1.8,0.8,1.8,1.8S24.5,48.1,23.5,48.1z"/>
			<path d="M53.6,45.3H30.3c-0.6,0-1,0.4-1,1c0,0.6,0.4,1,1,1h23.3c0.6,0,1-0.4,1-1C54.6,45.7,54.1,45.3,53.6,45.3z"/>
		</g>
    </symbol>

	<symbol id="iconestructure" viewBox="0 0 73 73">
        <path d="M44.3,15.6H28.8c-0.4,0-0.7,0.3-0.7,0.7c0,0.4,0.3,0.7,0.7,0.7h15.5c0.4,0,0.7-0.3,0.7-0.7C45,15.9,44.7,15.6,44.3,15.6z"/>
		<path d="M44.3,18.7H28.8c-0.4,0-0.7,0.3-0.7,0.7c0,0.4,0.3,0.7,0.7,0.7h15.5c0.4,0,0.7-0.3,0.7-0.7C45,19,44.7,18.7,44.3,18.7z"/>
		<path d="M44.3,21.8H28.8c-0.4,0-0.7,0.3-0.7,0.7s0.3,0.7,0.7,0.7h15.5c0.4,0,0.7-0.3,0.7-0.7S44.7,21.8,44.3,21.8z"/>
		<path d="M16.1,47.5h4.1c0.4,0,0.7-0.3,0.7-0.7c0-0.4-0.3-0.7-0.7-0.7h-4.1c-0.4,0-0.7,0.3-0.7,0.7C15.4,47.2,15.7,47.5,16.1,47.5z"
			/>
		<path d="M16.1,52.8h4.1c0.4,0,0.7-0.3,0.7-0.7s-0.3-0.7-0.7-0.7h-4.1c-0.4,0-0.7,0.3-0.7,0.7S15.7,52.8,16.1,52.8z"/>
		<path d="M16.1,58.2h4.1c0.4,0,0.7-0.3,0.7-0.7s-0.3-0.7-0.7-0.7h-4.1c-0.4,0-0.7,0.3-0.7,0.7S15.7,58.2,16.1,58.2z"/>
		<path d="M60.7,46.9c-0.4,0-0.7,0.3-0.7,0.7v10.8c0,0.7-0.6,1.4-1.4,1.4h-7.2c-0.7,0-1.4-0.6-1.4-1.4V45.3c0-0.7,0.6-1.4,1.4-1.4h7.2
			c0.6,0,1.1,0.4,1.3,1c0.1,0.4,0.5,0.6,0.9,0.5c0.4-0.1,0.6-0.5,0.5-0.9c-0.4-1.2-1.5-2-2.7-2h-2.9v-7.3c0-0.9-0.8-1.7-1.7-1.7H37.3
			v-6.6h8.6c1.6,0,2.8-1.3,2.8-2.8v-9.1c0-1.6-1.3-2.8-2.8-2.8h-13c-0.4,0-0.7,0.3-0.7,0.7c0,0.4,0.3,0.7,0.7,0.7h13
			c0.7,0,1.4,0.6,1.4,1.4V24c0,0.7-0.6,1.4-1.4,1.4H27.3c-0.7,0-1.4-0.6-1.4-1.4v-9.1c0-0.7,0.6-1.4,1.4-1.4h2.6
			c0.4,0,0.7-0.3,0.7-0.7c0-0.4-0.3-0.7-0.7-0.7h-2.6c-1.6,0-2.8,1.3-2.8,2.8V24c0,1.6,1.3,2.8,2.8,2.8h8.6v6.6H19.1
			c-0.9,0-1.7,0.8-1.7,1.7v7.3h-2.9c-1.6,0-2.8,1.3-2.8,2.8v10.8c0,0.4,0.3,0.7,0.7,0.7c0.4,0,0.7-0.3,0.7-0.7V45.3
			c0-0.7,0.6-1.4,1.4-1.4h7.2c0.7,0,1.4,0.6,1.4,1.4v13.2c0,0.7-0.6,1.4-1.4,1.4h-7.2c-0.6,0-1.1-0.4-1.3-1c-0.1-0.4-0.5-0.6-0.9-0.5
			c-0.4,0.1-0.6,0.5-0.5,0.9c0.4,1.2,1.5,2,2.7,2h7.2c1.6,0,2.8-1.3,2.8-2.8V45.3c0-1.6-1.3-2.8-2.8-2.8h-2.9v-7.3
			c0-0.1,0.1-0.2,0.2-0.2h16.7v7.6H33c-1.6,0-2.8,1.3-2.8,2.8v13.2c0,1.6,1.3,2.8,2.8,2.8h7.2c1.6,0,2.8-1.3,2.8-2.8V45.3
			c0-1.6-1.3-2.8-2.8-2.8h-2.9v-7.6H54c0.1,0,0.2,0.1,0.2,0.2v7.3h-2.9c-1.6,0-2.8,1.3-2.8,2.8v13.2c0,1.6,1.3,2.8,2.8,2.8h7.2
			c1.6,0,2.8-1.3,2.8-2.8V47.7C61.4,47.3,61.1,46.9,60.7,46.9z M40.2,43.9c0.7,0,1.4,0.6,1.4,1.4v13.2c0,0.7-0.6,1.4-1.4,1.4H33
			c-0.7,0-1.4-0.6-1.4-1.4V45.3c0-0.7,0.6-1.4,1.4-1.4H40.2z"/>
		<path d="M57,46h-4.1c-0.4,0-0.7,0.3-0.7,0.7c0,0.4,0.3,0.7,0.7,0.7H57c0.4,0,0.7-0.3,0.7-0.7C57.8,46.3,57.4,46,57,46z"/>
		<path d="M57,51.3h-4.1c-0.4,0-0.7,0.3-0.7,0.7s0.3,0.7,0.7,0.7H57c0.4,0,0.7-0.3,0.7-0.7S57.4,51.3,57,51.3z"/>
		<path d="M57,56.7h-4.1c-0.4,0-0.7,0.3-0.7,0.7s0.3,0.7,0.7,0.7H57c0.4,0,0.7-0.3,0.7-0.7S57.4,56.7,57,56.7z"/>
		<path d="M34.5,47.5h4.1c0.4,0,0.7-0.3,0.7-0.7c0-0.4-0.3-0.7-0.7-0.7h-4.1c-0.4,0-0.7,0.3-0.7,0.7C33.8,47.2,34.1,47.5,34.5,47.5z"
			/>
		<path d="M34.5,52.8h4.1c0.4,0,0.7-0.3,0.7-0.7s-0.3-0.7-0.7-0.7h-4.1c-0.4,0-0.7,0.3-0.7,0.7S34.1,52.8,34.5,52.8z"/>
		<path d="M34.5,58.2h4.1c0.4,0,0.7-0.3,0.7-0.7s-0.3-0.7-0.7-0.7h-4.1c-0.4,0-0.7,0.3-0.7,0.7S34.1,58.2,34.5,58.2z"/>
    </symbol>

	<symbol id="iconeskeleton" viewBox="0 0 73 73">
        <path d="M58.2,14c0-0.8-0.7-1.5-1.5-1.5H16c-0.8,0-1.5,0.7-1.5,1.5v46.8c0,0.8,0.7,1.5,1.5,1.5h40.8c0.8,0,1.5-0.7,1.5-1.5
			C58.2,59.2,58.2,15.1,58.2,14z M55.3,41L40,34.4l15.3-6.6V41z M36.3,32.8L23,27.1h26.7L36.3,32.8z M32.7,34.4L17.4,41V27.8
			L32.7,34.4z M36.3,36l13.4,5.8H23L36.3,36z M55.3,15.4v8.7H17.4v-8.7H55.3z M17.4,59.3V44.7h37.8v14.6H17.4z"/>
		<path d="M21.8,21.2h23.3c0.8,0,1.5-0.7,1.5-1.5s-0.7-1.5-1.5-1.5H21.8c-0.8,0-1.5,0.7-1.5,1.5S21,21.2,21.8,21.2z"/>
		<path d="M27.6,47.6h-5.8c-0.8,0-1.5,0.7-1.5,1.5v5.8c0,0.8,0.7,1.5,1.5,1.5h5.8c0.8,0,1.5-0.7,1.5-1.5v-5.8
			C29.1,48.3,28.4,47.6,27.6,47.6z M26.1,53.5h-2.9v-2.9h2.9V53.5z"/>
		<path d="M39.2,47.6h-5.8c-0.8,0-1.5,0.7-1.5,1.5v5.8c0,0.8,0.7,1.5,1.5,1.5h5.8c0.8,0,1.5-0.7,1.5-1.5v-5.8
			C40.7,48.3,40.1,47.6,39.2,47.6z M37.8,53.5h-2.9v-2.9h2.9V53.5z"/>
		<path d="M50.9,47.6h-5.8c-0.8,0-1.5,0.7-1.5,1.5v5.8c0,0.8,0.7,1.5,1.5,1.5h5.8c0.8,0,1.5-0.7,1.5-1.5v-5.8
			C52.3,48.3,51.7,47.6,50.9,47.6z M49.4,53.5h-2.9v-2.9h2.9V53.5z"/>
    </symbol>

	<symbol id="iconesurface" viewBox="0 0 73 73">
        <path d="M62.6,37.9l0.6-0.9l-0.6-0.9c-0.1-0.2-2.3-3.7-6.6-7.3c-5.8-4.8-12.5-7.3-19.6-7.3c-7.1,0-13.9,2.5-19.7,7.3
			c-4.4,3.6-6.6,7.2-6.7,7.3L9.5,37l0.6,0.9c0.1,0.2,2.3,3.7,6.7,7.3c5.8,4.8,12.6,7.3,19.7,7.3c7.1,0,13.8-2.5,19.6-7.3
			C60.3,41.7,62.5,38.1,62.6,37.9z M53.7,42.7c-5.2,4.3-11,6.4-17.3,6.4c-6.3,0-12.1-2.2-17.4-6.4c-2.7-2.2-4.5-4.5-5.4-5.7
			c0.9-1.2,2.7-3.5,5.4-5.7c5.2-4.3,11-6.4,17.4-6.4c6.3,0,12.1,2.2,17.3,6.4c2.7,2.2,4.5,4.5,5.4,5.7C58.2,38.2,56.4,40.5,53.7,42.7z
			"/>
		<path d="M36.3,26.6c-5.7,0-10.4,4.7-10.4,10.4s4.7,10.4,10.4,10.4S46.7,42.7,46.7,37S42.1,26.6,36.3,26.6z M36.3,44
			c-3.8,0-6.9-3.1-6.9-6.9s3.1-6.9,6.9-6.9s6.9,3.1,6.9,6.9S40.2,44,36.3,44z"/>
		<path d="M10.3,11h7.2V7.5H6.8v10.6h3.5V11z"/>
		<path d="M55.2,7.5V11h7.2v7.1h3.5V7.5H55.2z"/>
		<path d="M10.3,56H6.8v10.6h10.7v-3.5h-7.2V56z"/>
		<path d="M62.4,63.1h-7.2v3.5h10.7V56h-3.5V63.1z"/>
    </symbol>

	<symbol id="iconsetamenu" viewBox="0 0 73 73">
        <polygon points="29.1,56.1 32.6,59.7 60.1,32.9 32.6,6.2 29.1,9.8 52.9,32.9 		"/>
    </symbol>

</svg>
